<?xml version="1.0" encoding="UTF-8" standalone="no"?>
<!-- Created with Inkscape (http://www.inkscape.org/) -->

<svg
   xmlns:dc="http://purl.org/dc/elements/1.1/"
   xmlns:cc="http://creativecommons.org/ns#"
   xmlns:rdf="http://www.w3.org/1999/02/22-rdf-syntax-ns#"
   xmlns:svg="http://www.w3.org/2000/svg"
   xmlns="http://www.w3.org/2000/svg"
   xmlns:sodipodi="http://sodipodi.sourceforge.net/DTD/sodipodi-0.dtd"
   xmlns:inkscape="http://www.inkscape.org/namespaces/inkscape"
   width="128"
   height="128"
   viewBox="0 0 128 128"
   id="svg2"
   version="1.1"
   inkscape:version="0.91 r"
   sodipodi:docname="Zeichnung.svg">
  <defs
     id="defs4" />
  <sodipodi:namedview
     id="base"
     pagecolor="#ffffff"
     bordercolor="#666666"
     borderopacity="1.0"
     inkscape:pageopacity="0.0"
     inkscape:pageshadow="2"
     inkscape:zoom="2.8"
     inkscape:cx="101.63898"
     inkscape:cy="105.06513"
     inkscape:document-units="px"
     inkscape:current-layer="layer1"
     showgrid="true"
     inkscape:snap-center="true"
     inkscape:snap-object-midpoints="true"
     inkscape:window-width="1920"
     inkscape:window-height="1023"
     inkscape:window-x="0"
     inkscape:window-y="27"
     inkscape:window-maximized="1"
     units="px">
    <inkscape:grid
       type="axonomgrid"
       id="grid4136"
       units="mm"
       empspacing="5" />
  </sodipodi:namedview>
  <metadata
     id="metadata7">
    <rdf:RDF>
      <cc:Work
         rdf:about="">
        <dc:format>image/svg+xml</dc:format>
        <dc:type
           rdf:resource="http://purl.org/dc/dcmitype/StillImage" />
        <dc:title></dc:title>
      </cc:Work>
    </rdf:RDF>
  </metadata>
  <g
     inkscape:label="Ebene 1"
     inkscape:groupmode="layer"
     id="layer1"
     transform="translate(0,-924.36216)">
    <g
       id="g4146"
       transform="matrix(1.2993149,0,0,1.2993149,1080.7028,967.64474)">
      <path
         inkscape:connector-curvature="0"
         id="path4138"
         d="m -782.49146,-33.311846 42.65758,24.628364 0,49.256728 -42.65758,24.628364 -42.65758,-24.628364 0,-49.256728 z"
         style="fill:#b3b3b3;fill-rule:evenodd;stroke:none;stroke-width:0.8697387px;stroke-linecap:butt;stroke-linejoin:miter;stroke-opacity:1" />
      <path
         inkscape:transform-center-y="-24.803155"
         inkscape:connector-curvature="0"
         id="path4140"
         d="m -815.51152,-8.8582732 33.02006,19.0641422 33.02006,-19.0641422 -33.02006,-19.0641428 z"
         style="fill:#4d4d4d;fill-rule:evenodd;stroke:none;stroke-width:1.02482367px;stroke-linecap:butt;stroke-linejoin:miter;stroke-opacity:1" />
      <path
         inkscape:transform-center-x="21.48016"
         style="fill:#4d4d4d;fill-rule:evenodd;stroke:none;stroke-width:1.02482367px;stroke-linecap:butt;stroke-linejoin:miter;stroke-opacity:1"
         d="m -787.46159,56.942674 0,-38.128285 -33.02006,-19.06414354 0,38.12828554 z"
         id="path4142"
         inkscape:connector-curvature="0"
         inkscape:transform-center-y="12.401578" />
      <path
         inkscape:transform-center-y="12.401575"
         inkscape:connector-curvature="0"
         id="path4144"
         d="m -744.50127,-0.24975678 -33.02006,19.06414378 0,38.128285 33.02006,-19.064143 z"
         style="fill:#4d4d4d;fill-rule:evenodd;stroke:none;stroke-width:1.02482367px;stroke-linecap:butt;stroke-linejoin:miter;stroke-opacity:1"
         inkscape:transform-center-x="-21.48016" />
      <path
         inkscape:connector-curvature="0"
         id="path4146"
         d="m -782.49219,-15.785156 -8.11914,4.6875 -7.49219,0 -3.74609,6.488281 -8.12109,4.68945312 0,9.37695308 -3.7461,6.4882808 3.7461,6.488282 0,9.376953 8.12109,4.689453 3.74609,6.486328 7.48829,0 8.12304,4.689453 8.12305,-4.689453 7.49023,0 3.7461,-6.486328 8.12109,-4.689453 0,-9.376953 3.7461,-6.488282 -3.7461,-6.4882808 0,-9.37695308 -8.12109,-4.68750002 -3.7461,-6.4902341 -7.49414,0 -8.11914,-4.6875 z"
         style="fill:#999999;fill-rule:evenodd;stroke:none;stroke-width:0.58750594px;stroke-linecap:butt;stroke-linejoin:miter;stroke-opacity:1" />
      <path
         inkscape:connector-curvature="0"
         style="fill:#4d4d4d;fill-rule:evenodd;stroke:none;stroke-width:0.58750594px;stroke-linecap:butt;stroke-linejoin:miter;stroke-opacity:1"
         d="m -782.49192,-7.1988594 -5.9221,3.4190578 -5.46479,0 -2.7324,4.73254568 -5.92351,3.42048242 0,6.8395405 -2.7324,4.732545 2.7324,4.732547 0,6.83954 5.92351,3.420482 2.7324,4.731121 5.46195,0 5.92494,3.420482 5.92494,-3.420482 5.46337,0 2.7324,-4.731121 5.92351,-3.420482 0,-6.83954 2.7324,-4.732547 -2.7324,-4.732545 0,-6.8395405 -5.92351,-3.41905783 -2.7324,-4.73397027 -5.46622,0 -5.92209,-3.4190578 z"
         id="path4151" />
      <circle
         inkscape:transform-center-y="-10.629921"
         r="6.7391"
         cy="5.3149605"
         cx="-782.49146"
         id="path4153"
         style="fill:none;stroke:#e6e6e6;stroke-width:1;stroke-miterlimit:4;stroke-dasharray:none;stroke-dashoffset:0" />
      <circle
         inkscape:transform-center-x="9.2057611"
         transform="matrix(-0.5,-0.8660254,0.8660254,-0.5,0,0)"
         style="fill:none;stroke:#e6e6e6;stroke-width:1;stroke-miterlimit:4;stroke-dasharray:none;stroke-dashoffset:0"
         id="circle4155"
         cx="377.43704"
         cy="-696.25983"
         r="6.7391"
         inkscape:transform-center-y="5.3149664" />
      <circle
         inkscape:transform-center-y="5.3149179"
         r="6.7391"
         cy="659.05511"
         cx="405.05435"
         id="circle4157"
         style="fill:none;stroke:#e6e6e6;stroke-width:1;stroke-miterlimit:4;stroke-dasharray:none;stroke-dashoffset:0"
         transform="matrix(-0.5,0.8660254,-0.8660254,-0.5,0,0)"
         inkscape:transform-center-x="-9.2058097" />
      <circle
         inkscape:transform-center-x="-12.274377"
         transform="matrix(0.5,0.8660254,-0.8660254,0.5,0,0)"
         style="fill:#cccccc;stroke:none;stroke-width:1;stroke-miterlimit:4;stroke-dasharray:none;stroke-dashoffset:0"
         id="circle4178"
         cx="-377.4371"
         cy="671.45667"
         r="4.4927325"
         inkscape:transform-center-y="-7.0866674" />
      <circle
         inkscape:transform-center-x="12.274389"
         transform="matrix(0.5,-0.8660254,0.8660254,0.5,0,0)"
         inkscape:transform-center-y="-7.0866097"
         r="4.4927325"
         cy="-683.85828"
         cx="-405.05441"
         id="circle4180"
         style="fill:#cccccc;stroke:none;stroke-width:1;stroke-miterlimit:4;stroke-dasharray:none;stroke-dashoffset:0" />
      <circle
         style="fill:#cccccc;stroke:none;stroke-width:1;stroke-miterlimit:4;stroke-dasharray:none;stroke-dashoffset:0"
         id="circle4182"
         cx="782.49139"
         cy="-30.118111"
         r="4.4927325"
         inkscape:transform-center-y="14.173229"
         transform="scale(-1,-1)"
         inkscape:transform-center-x="-6.1049338e-05" />
    </g>
  </g>
</svg>
