<?xml version="1.0" encoding="UTF-8" standalone="no"?>
<svg
   xmlns:dc="http://purl.org/dc/elements/1.1/"
   xmlns:cc="http://creativecommons.org/ns#"
   xmlns:rdf="http://www.w3.org/1999/02/22-rdf-syntax-ns#"
   xmlns:svg="http://www.w3.org/2000/svg"
   xmlns="http://www.w3.org/2000/svg"
   xmlns:xlink="http://www.w3.org/1999/xlink"
   xmlns:sodipodi="http://sodipodi.sourceforge.net/DTD/sodipodi-0.dtd"
   xmlns:inkscape="http://www.inkscape.org/namespaces/inkscape"
   width="256"
   height="256"
   viewBox="0 0 256 256"
   id="svg2"
   version="1.1"
   inkscape:version="1.0.1 (3bc2e813f5, 2020-09-07)"
   sodipodi:docname="main_logo.svg"
   inkscape:export-filename="/home/georg/Software/Entwicklung/Java/libGDX/guardianmonsters/GuardianMonsters/android/assets/spritesheets/main_logo_bg.png"
   inkscape:export-xdpi="360"
   inkscape:export-ydpi="360">
  <defs
     id="defs4">
    <linearGradient
       inkscape:collect="always"
       id="linearGradient1876">
      <stop
         style="stop-color:#ffffff;stop-opacity:1;"
         offset="0"
         id="stop1872" />
      <stop
         style="stop-color:#ffffff;stop-opacity:0;"
         offset="1"
         id="stop1874" />
    </linearGradient>
    <linearGradient
       inkscape:collect="always"
       id="linearGradient1742">
      <stop
         style="stop-color:#ffffff;stop-opacity:1;"
         offset="0"
         id="stop1738" />
      <stop
         style="stop-color:#ffffff;stop-opacity:0;"
         offset="1"
         id="stop1740" />
    </linearGradient>
    <linearGradient
       id="linearGradient1627"
       inkscape:collect="always">
      <stop
         id="stop1607"
         offset="0"
         style="stop-color:#82591d;stop-opacity:1" />
      <stop
         id="stop1643"
         offset="0.017525"
         style="stop-color:#3d2911;stop-opacity:1" />
      <stop
         id="stop1645"
         offset="0.03916847"
         style="stop-color:#5c461e;stop-opacity:1" />
      <stop
         id="stop1647"
         offset="0.04576461"
         style="stop-color:#ecd6a1;stop-opacity:1" />
      <stop
         id="stop1649"
         offset="0.10249146"
         style="stop-color:#e8c782;stop-opacity:1" />
      <stop
         id="stop1651"
         offset="0.11040684"
         style="stop-color:#966016;stop-opacity:1" />
      <stop
         id="stop1653"
         offset="0.12887605"
         style="stop-color:#b27b19;stop-opacity:1" />
      <stop
         id="stop1655"
         offset="0.14866447"
         style="stop-color:#dc9e35;stop-opacity:1" />
      <stop
         id="stop1657"
         offset="0.163176"
         style="stop-color:#a66802;stop-opacity:1" />
      <stop
         id="stop1659"
         offset="0.17900676"
         style="stop-color:#c38213;stop-opacity:1" />
      <stop
         id="stop1661"
         offset="0.25552204"
         style="stop-color:#e0a420;stop-opacity:1" />
      <stop
         style="stop-color:#8d5102;stop-opacity:1"
         offset="0.28571343"
         id="stop1609" />
      <stop
         style="stop-color:#bb7f1a;stop-opacity:1"
         offset="0.29246044"
         id="stop1663" />
      <stop
         style="stop-color:#e3a11a;stop-opacity:1"
         offset="0.32676041"
         id="stop1665" />
      <stop
         style="stop-color:#cc890a;stop-opacity:1"
         offset="0.33995268"
         id="stop1667" />
      <stop
         style="stop-color:#c58314;stop-opacity:1"
         offset="0.35071141"
         id="stop1611" />
      <stop
         id="stop1613"
         offset="0.36022311"
         style="stop-color:#c27f07;stop-opacity:1" />
      <stop
         style="stop-color:#cd8b11;stop-opacity:1"
         offset="0.36550003"
         id="stop1615" />
      <stop
         style="stop-color:#e6ae20;stop-opacity:1"
         offset="0.48320907"
         id="stop1669" />
      <stop
         style="stop-color:#643b03;stop-opacity:1"
         offset="0.50000012"
         id="stop1671" />
      <stop
         style="stop-color:#6d4b20;stop-opacity:1"
         offset="0.53171653"
         id="stop1673" />
      <stop
         id="stop1617"
         offset="0.55555582"
         style="stop-color:#664217;stop-opacity:1" />
      <stop
         id="stop1675"
         offset="0.57089561"
         style="stop-color:#cc8d25;stop-opacity:1" />
      <stop
         id="stop1677"
         offset="0.60634339"
         style="stop-color:#7a4604;stop-opacity:1" />
      <stop
         id="stop1679"
         offset="0.62313443"
         style="stop-color:#2c1901;stop-opacity:1" />
      <stop
         id="stop1681"
         offset="0.64738816"
         style="stop-color:#e2aa1b;stop-opacity:1" />
      <stop
         style="stop-color:#f7c234;stop-opacity:1"
         offset="0.67647082"
         id="stop1619" />
      <stop
         style="stop-color:#dca832;stop-opacity:1"
         offset="0.72014934"
         id="stop1683" />
      <stop
         style="stop-color:#462504;stop-opacity:1"
         offset="0.73134339"
         id="stop1685" />
      <stop
         style="stop-color:#a06925;stop-opacity:1"
         offset="0.76865685"
         id="stop1687" />
      <stop
         id="stop1621"
         offset="0.82142842"
         style="stop-color:#cba642;stop-opacity:1" />
      <stop
         id="stop1689"
         offset="0.83582103"
         style="stop-color:#3d2d15;stop-opacity:1" />
      <stop
         style="stop-color:#8f7d4c;stop-opacity:1"
         offset="0.87633681"
         id="stop1623" />
      <stop
         style="stop-color:#f2e2b0;stop-opacity:1"
         offset="0.89365685"
         id="stop1691" />
      <stop
         style="stop-color:#dcc376;stop-opacity:1"
         offset="0.96082097"
         id="stop1693" />
      <stop
         id="stop1625"
         offset="1"
         style="stop-color:#8c6727;stop-opacity:1" />
    </linearGradient>
    <linearGradient
       inkscape:collect="always"
       id="linearGradient4275">
      <stop
         style="stop-color:#656565;stop-opacity:1"
         offset="0"
         id="stop4277" />
      <stop
         style="stop-color:#000000;stop-opacity:1"
         offset="1"
         id="stop4279" />
    </linearGradient>
    <linearGradient
       inkscape:collect="always"
       id="linearGradient5127">
      <stop
         style="stop-color:#c4a000;stop-opacity:1;"
         offset="0"
         id="stop5129" />
      <stop
         id="stop5131"
         offset="0.230984"
         style="stop-color:#946b2e;stop-opacity:1" />
      <stop
         style="stop-color:#f4dd81;stop-opacity:1"
         offset="0.33333606"
         id="stop5133" />
      <stop
         style="stop-color:#f4f792;stop-opacity:1"
         offset="0.36764371"
         id="stop5135" />
      <stop
         id="stop5137"
         offset="0.40304849"
         style="stop-color:#fbf7ed;stop-opacity:1" />
      <stop
         style="stop-color:#c4a000;stop-opacity:1"
         offset="0.64815843"
         id="stop5139" />
      <stop
         id="stop5141"
         offset="0.68356317"
         style="stop-color:#c4a000;stop-opacity:1" />
      <stop
         style="stop-color:#c4a000;stop-opacity:1"
         offset="0.81701195"
         id="stop5143" />
      <stop
         id="stop5145"
         offset="0.85786361"
         style="stop-color:#c4a000;stop-opacity:1" />
      <stop
         style="stop-color:#c4a000;stop-opacity:1"
         offset="1"
         id="stop5147" />
    </linearGradient>
    <linearGradient
       id="linearGradient4947"
       inkscape:collect="always">
      <stop
         id="stop4949"
         offset="0"
         style="stop-color:#c4a000;stop-opacity:1;" />
      <stop
         style="stop-color:#946b2e;stop-opacity:1"
         offset="0.230984"
         id="stop4951" />
      <stop
         id="stop4953"
         offset="0.33333606"
         style="stop-color:#f4dd81;stop-opacity:1" />
      <stop
         id="stop4955"
         offset="0.36764371"
         style="stop-color:#f4f792;stop-opacity:1" />
      <stop
         style="stop-color:#fbf7ed;stop-opacity:1"
         offset="0.40304849"
         id="stop4957" />
      <stop
         id="stop4959"
         offset="0.64815843"
         style="stop-color:#c4a000;stop-opacity:1" />
      <stop
         style="stop-color:#c4a000;stop-opacity:1"
         offset="0.68356317"
         id="stop4961" />
      <stop
         id="stop4963"
         offset="0.81701195"
         style="stop-color:#c4a000;stop-opacity:1" />
      <stop
         style="stop-color:#c4a000;stop-opacity:1"
         offset="0.85786361"
         id="stop4965" />
      <stop
         id="stop4967"
         offset="1"
         style="stop-color:#c4a000;stop-opacity:1" />
    </linearGradient>
    <linearGradient
       id="linearGradient4866"
       inkscape:collect="always">
      <stop
         id="stop4868"
         offset="0"
         style="stop-color:#4b4b4b;stop-opacity:1" />
      <stop
         style="stop-color:#c1c1c1;stop-opacity:1"
         offset="0.28571343"
         id="stop4870" />
      <stop
         style="stop-color:#e7e7e7;stop-opacity:1"
         offset="0.35714266"
         id="stop4872" />
      <stop
         id="stop4874"
         offset="0.35714266"
         style="stop-color:#ffffff;stop-opacity:1" />
      <stop
         style="stop-color:#5d5d5d;stop-opacity:1"
         offset="0.35774955"
         id="stop4876" />
      <stop
         id="stop4878"
         offset="0.55555582"
         style="stop-color:#ffffff;stop-opacity:1" />
      <stop
         style="stop-color:#9a9a9a;stop-opacity:1"
         offset="0.67647082"
         id="stop4880" />
      <stop
         id="stop4882"
         offset="0.82142842"
         style="stop-color:#696969;stop-opacity:1" />
      <stop
         style="stop-color:#ffffff;stop-opacity:1"
         offset="0.87633681"
         id="stop4884" />
      <stop
         id="stop4886"
         offset="1"
         style="stop-color:#c2c2c2;stop-opacity:1" />
    </linearGradient>
    <linearGradient
       inkscape:collect="always"
       id="linearGradient4832">
      <stop
         style="stop-color:#4b4b4b;stop-opacity:1"
         offset="0"
         id="stop4834" />
      <stop
         id="stop4844"
         offset="0.0818266"
         style="stop-color:#c1c1c1;stop-opacity:1" />
      <stop
         id="stop4842"
         offset="0.2430509"
         style="stop-color:#e7e7e7;stop-opacity:1" />
      <stop
         style="stop-color:#ffffff;stop-opacity:1"
         offset="0.2887688"
         id="stop4846" />
      <stop
         id="stop4848"
         offset="0.35774955"
         style="stop-color:#5d5d5d;stop-opacity:1" />
      <stop
         style="stop-color:#ffffff;stop-opacity:1"
         offset="0.41307625"
         id="stop4850" />
      <stop
         id="stop4852"
         offset="0.56469172"
         style="stop-color:#9a9a9a;stop-opacity:1" />
      <stop
         style="stop-color:#696969;stop-opacity:1"
         offset="0.78234589"
         id="stop4854" />
      <stop
         id="stop4856"
         offset="0.87633681"
         style="stop-color:#ffffff;stop-opacity:1" />
      <stop
         style="stop-color:#c2c2c2;stop-opacity:1"
         offset="1"
         id="stop4836" />
    </linearGradient>
    <radialGradient
       inkscape:collect="always"
       xlink:href="#linearGradient5127"
       id="radialGradient5270"
       gradientUnits="userSpaceOnUse"
       gradientTransform="matrix(0.99998653,0,0,0.91578622,-318.51021,-251.90579)"
       cx="76.001617"
       cy="921.70502"
       fx="76.001617"
       fy="921.70502"
       r="23.506113" />
    <linearGradient
       inkscape:collect="always"
       xlink:href="#linearGradient4947"
       id="linearGradient4282"
       x1="-92.035004"
       y1="596.36212"
       x2="84.034996"
       y2="596.36212"
       gradientUnits="userSpaceOnUse"
       gradientTransform="matrix(0.92013251,0,0,0.92013251,377.06911,331.59088)" />
    <linearGradient
       inkscape:collect="always"
       xlink:href="#linearGradient4947"
       id="linearGradient4314"
       x1="-92.535004"
       y1="596.36212"
       x2="84.534996"
       y2="596.36212"
       gradientUnits="userSpaceOnUse" />
    <radialGradient
       inkscape:collect="always"
       xlink:href="#linearGradient4866"
       id="radialGradient4333"
       cx="345"
       cy="859.36218"
       fx="345"
       fy="859.36218"
       r="23.506111"
       gradientTransform="matrix(0.9999789,0,0,0.91578629,-775.18533,-37.391112)"
       gradientUnits="userSpaceOnUse" />
    <linearGradient
       inkscape:collect="always"
       xlink:href="#linearGradient4832"
       id="linearGradient4341"
       x1="327.99915"
       y1="875.36163"
       x2="368.5061"
       y2="859.36218"
       gradientUnits="userSpaceOnUse"
       gradientTransform="translate(-775.19261,-109.76119)" />
    <filter
       inkscape:label="Black Hole"
       inkscape:menu="Morphology"
       inkscape:menu-tooltip="Creates a black light inside and outside"
       height="1.5"
       width="1.5"
       y="-0.25"
       x="-0.25"
       style="color-interpolation-filters:sRGB;"
       id="filter4374">
      <feGaussianBlur
         stdDeviation="5"
         in="SourceAlpha"
         result="result1"
         id="feGaussianBlur4376" />
      <feComposite
         operator="arithmetic"
         k2="3.2"
         k1="-1"
         k4="-2"
         result="result3"
         in2="result1"
         id="feComposite4378" />
      <feColorMatrix
         values="1 0 0 0 0 0 1 0 0 0 0 0 1 0 0 0 0 0 10 0 "
         result="result2"
         id="feColorMatrix4380" />
      <feComposite
         result="fbSourceGraphic"
         in="SourceGraphic"
         operator="out"
         in2="result2"
         id="feComposite4382" />
      <feBlend
         mode="multiply"
         in="result1"
         in2="fbSourceGraphic"
         result="result91"
         id="feBlend4384" />
      <feBlend
         mode="screen"
         in="fbSourceGraphic"
         in2="result91"
         id="feBlend4386" />
    </filter>
    <filter
       inkscape:label="Black Hole"
       inkscape:menu="Morphology"
       inkscape:menu-tooltip="Creates a black light inside and outside"
       height="1.5"
       width="1.5"
       y="-0.25"
       x="-0.25"
       style="color-interpolation-filters:sRGB;"
       id="filter4509">
      <feGaussianBlur
         stdDeviation="5"
         in="SourceAlpha"
         result="result1"
         id="feGaussianBlur4511" />
      <feComposite
         operator="arithmetic"
         k2="3.2"
         k1="-1"
         k4="-2"
         result="result3"
         in2="result1"
         id="feComposite4513" />
      <feColorMatrix
         values="1 0 0 0 0 0 1 0 0 0 0 0 1 0 0 0 0 0 10 0 "
         result="result2"
         id="feColorMatrix4515" />
      <feComposite
         result="fbSourceGraphic"
         in="SourceGraphic"
         operator="out"
         in2="result2"
         id="feComposite4517" />
      <feBlend
         mode="multiply"
         in="result1"
         in2="fbSourceGraphic"
         result="result91"
         id="feBlend4519" />
      <feBlend
         mode="screen"
         in="fbSourceGraphic"
         in2="result91"
         id="feBlend4521" />
    </filter>
    <clipPath
       clipPathUnits="userSpaceOnUse"
       id="clipPath4285">
      <path
         id="path4287"
         d="m -17.545139,794.49268 c -4.505453,0 -8.132586,3.62714 -8.132586,8.13258 l 0,111.82306 c 0,4.50545 3.627133,8.13259 8.132586,8.13259 l 113.856203,0 c 4.505456,0 8.132586,-3.62714 8.132586,-8.13259 l 0,-111.82306 c 0,-4.50544 -3.62713,-8.13258 -8.132586,-8.13258 l -113.856203,0 z"
         style="opacity:1;fill:url(#radialGradient4289);fill-opacity:1;stroke:none;stroke-width:1;stroke-linecap:round;stroke-linejoin:round;stroke-miterlimit:4;stroke-dasharray:none;stroke-dashoffset:0;stroke-opacity:1"
         inkscape:connector-curvature="0" />
    </clipPath>
    <radialGradient
       inkscape:collect="always"
       xlink:href="#linearGradient4275"
       id="radialGradient4289"
       gradientUnits="userSpaceOnUse"
       gradientTransform="matrix(0.82596576,2.5373151e-8,-2.439726e-8,0.79419785,-66.340651,745.93012)"
       cx="128"
       cy="168.66667"
       fx="128"
       fy="168.66667"
       r="128" />
    <linearGradient
       inkscape:collect="always"
       xlink:href="#linearGradient4832"
       id="linearGradient1204"
       x1="-520.20715"
       y1="-43.673828"
       x2="-281.87686"
       y2="-43.673828"
       gradientUnits="userSpaceOnUse"
       gradientTransform="translate(0,796.36216)" />
    <linearGradient
       inkscape:collect="always"
       xlink:href="#linearGradient4832"
       id="linearGradient1237"
       gradientUnits="userSpaceOnUse"
       x1="-520.20715"
       y1="-43.673828"
       x2="-281.87686"
       y2="-43.673828"
       gradientTransform="translate(0,796.36216)" />
    <linearGradient
       inkscape:collect="always"
       xlink:href="#linearGradient4832"
       id="linearGradient1426"
       gradientUnits="userSpaceOnUse"
       x1="-520.20715"
       y1="-43.673828"
       x2="-281.87686"
       y2="-43.673828" />
    <linearGradient
       inkscape:collect="always"
       xlink:href="#linearGradient4832"
       id="linearGradient1432"
       gradientUnits="userSpaceOnUse"
       x1="-520.20715"
       y1="-43.673828"
       x2="-281.87686"
       y2="-43.673828" />
    <clipPath
       clipPathUnits="userSpaceOnUse"
       id="clipPath1439">
      <path
         id="path1441"
         style="opacity:0.47561;fill:#ff0000;stroke:none;stroke-width:1;stroke-linecap:butt;stroke-linejoin:miter;stroke-miterlimit:4;stroke-dasharray:none"
         d="m -466.37305,741.96958 a 13.407647,13.407647 0 0 0 -5.5,10.82617 13.407647,13.407647 0 0 0 13.40821,13.40821 13.407647,13.407647 0 0 0 13.4082,-13.40821 13.407647,13.407647 0 0 0 -5.5,-10.82617 7.9246211,7.9246211 0 0 1 -7.9082,7.4375 7.9246211,7.9246211 0 0 1 -7.90821,-7.4375 z" />
    </clipPath>
    <linearGradient
       inkscape:collect="always"
       xlink:href="#linearGradient4947"
       id="linearGradient1718"
       gradientUnits="userSpaceOnUse"
       gradientTransform="matrix(0.79292326,0,0,0.79292326,-83.825643,275.87024)"
       x1="-478.70312"
       y1="-18.988281"
       x2="-323.26172"
       y2="-18.988281" />
    <linearGradient
       inkscape:collect="always"
       xlink:href="#linearGradient4947"
       id="linearGradient1722"
       gradientUnits="userSpaceOnUse"
       gradientTransform="matrix(0.79292326,0,0,0.79292326,-83.825643,275.87024)"
       x1="-478.70312"
       y1="-18.988281"
       x2="-323.26172"
       y2="-18.988281" />
    <radialGradient
       inkscape:collect="always"
       xlink:href="#linearGradient1627"
       id="radialGradient1695"
       cx="-653.80695"
       cy="63.491745"
       fx="-653.80695"
       fy="63.491745"
       r="67"
       gradientTransform="matrix(1.1601651,1.1601658,-1.1739028,1.1739032,182.22168,695.18012)"
       gradientUnits="userSpaceOnUse" />
    <radialGradient
       inkscape:collect="always"
       xlink:href="#linearGradient1627"
       id="radialGradient1729"
       cx="-631.92029"
       cy="860.96088"
       fx="-631.92029"
       fy="860.96088"
       r="69.414215"
       gradientTransform="matrix(1.6423142,0,0,1.4406265,391.81163,-394.96092)"
       gradientUnits="userSpaceOnUse" />
    <radialGradient
       inkscape:collect="always"
       xlink:href="#linearGradient1742"
       id="radialGradient1746"
       cx="-612.49072"
       cy="113.64611"
       fx="-612.49072"
       fy="113.64611"
       r="67"
       gradientTransform="matrix(3.1044777,-3.1082724e-6,3.8388239e-8,0.29850745,1288.3203,78.073885)"
       gradientUnits="userSpaceOnUse" />
    <radialGradient
       inkscape:collect="always"
       xlink:href="#linearGradient1627"
       id="radialGradient1768"
       gradientUnits="userSpaceOnUse"
       gradientTransform="matrix(1.5109829,0,0,1.3254236,520.6575,-408.84188)"
       cx="-631.92029"
       cy="860.96088"
       fx="-631.92029"
       fy="860.96088"
       r="69.414215" />
    <radialGradient
       inkscape:collect="always"
       xlink:href="#linearGradient1742"
       id="radialGradient1770"
       gradientUnits="userSpaceOnUse"
       gradientTransform="matrix(2.8562212,-2.8597125e-6,3.5318438e-8,0.27463664,1345.4749,759.04493)"
       cx="-612.49072"
       cy="113.64611"
       fx="-612.49072"
       fy="113.64611"
       r="67" />
    <filter
       inkscape:collect="always"
       style="color-interpolation-filters:sRGB"
       id="filter1774"
       x="-0.045174791"
       width="1.0903496"
       y="-0.39704713"
       height="1.7940943">
      <feGaussianBlur
         inkscape:collect="always"
         stdDeviation="4.440607"
         id="feGaussianBlur1776" />
    </filter>
    <filter
       inkscape:collect="always"
       style="color-interpolation-filters:sRGB"
       id="filter1784"
       x="-0.28725703"
       width="1.5745141"
       y="-0.31392603"
       height="1.6278521">
      <feGaussianBlur
         inkscape:collect="always"
         stdDeviation="5.5792624"
         id="feGaussianBlur1786" />
    </filter>
    <linearGradient
       inkscape:collect="always"
       xlink:href="#linearGradient4832"
       id="linearGradient1804"
       gradientUnits="userSpaceOnUse"
       x1="-520.20715"
       y1="-43.673828"
       x2="-281.87686"
       y2="-43.673828"
       gradientTransform="translate(0,796.36216)" />
    <filter
       inkscape:collect="always"
       style="color-interpolation-filters:sRGB"
       id="filter1842"
       x="-0.060447761"
       width="1.1208955"
       y="-0.50625"
       height="2.0125">
      <feGaussianBlur
         inkscape:collect="always"
         stdDeviation="3.375"
         id="feGaussianBlur1844" />
    </filter>
    <linearGradient
       inkscape:collect="always"
       xlink:href="#linearGradient1876"
       id="linearGradient1878"
       x1="-403"
       y1="774.36218"
       x2="-403"
       y2="781.36218"
       gradientUnits="userSpaceOnUse" />
    <filter
       inkscape:collect="always"
       style="color-interpolation-filters:sRGB"
       id="filter2072"
       x="-0.10068118"
       width="1.2013624"
       y="-0.10907121"
       height="1.2181424">
      <feGaussianBlur
         inkscape:collect="always"
         stdDeviation="0.67120787"
         id="feGaussianBlur2074" />
    </filter>
  </defs>
  <sodipodi:namedview
     id="base"
     pagecolor="#ffffff"
     bordercolor="#666666"
     borderopacity="1.0"
     inkscape:pageopacity="0.0"
     inkscape:pageshadow="2"
     inkscape:zoom="2.8284271"
     inkscape:cx="90.317974"
     inkscape:cy="60.108778"
     inkscape:document-units="px"
     inkscape:current-layer="layer1"
     showgrid="true"
     units="px"
     inkscape:snap-smooth-nodes="true"
     inkscape:snap-center="true"
     inkscape:snap-object-midpoints="true"
     inkscape:window-width="1920"
     inkscape:window-height="1013"
     inkscape:window-x="-9"
     inkscape:window-y="-9"
     inkscape:window-maximized="1"
     inkscape:object-paths="true"
     inkscape:snap-intersection-paths="true"
     inkscape:object-nodes="true"
     inkscape:document-rotation="0"
     inkscape:snap-grids="true"
     inkscape:snap-global="false">
    <inkscape:grid
       type="xygrid"
       id="grid4136"
       empspacing="4" />
  </sodipodi:namedview>
  <metadata
     id="metadata7">
    <rdf:RDF>
      <cc:Work
         rdf:about="">
        <dc:format>image/svg+xml</dc:format>
        <dc:type
           rdf:resource="http://purl.org/dc/dcmitype/StillImage" />
        <dc:title />
      </cc:Work>
    </rdf:RDF>
  </metadata>
  <g
     inkscape:groupmode="layer"
     id="layer2"
     inkscape:label="Background"
     sodipodi:insensitive="true"
     style="display:none">
    <rect
       style="fill:#000000;stroke:none;stroke-width:1;stroke-miterlimit:4;stroke-dasharray:none;stroke-dashoffset:0"
       id="rect4167"
       width="258"
       height="256"
       x="0"
       y="0" />
    <rect
       transform="translate(0,-796.36216)"
       style="opacity:1;fill:#ad7fa8;fill-opacity:1;stroke:#000000;stroke-width:3;stroke-linecap:round;stroke-linejoin:round;stroke-miterlimit:4;stroke-dasharray:none;stroke-dashoffset:0;stroke-opacity:1"
       id="rect4316"
       width="259.5"
       height="124"
       x="256"
       y="796.36218" />
  </g>
  <g
     inkscape:label="Ebene 1"
     inkscape:groupmode="layer"
     id="layer1"
     transform="translate(0,-796.36216)">
    <path
       inkscape:transform-center-x="-0.00086264099"
       sodipodi:nodetypes="ccccsccccc"
       inkscape:transform-center-y="-2.9990048"
       inkscape:connector-curvature="0"
       id="path5266"
       d="m -261.55029,597.58755 c -4.07934,2.35547 -5.47738,7.57157 -3.12287,11.65148 2.35548,4.07934 7.57156,5.47737 11.65147,3.12288 7.38778,-4.26508 13.63391,-4.26508 21.02169,2.5e-4 4.08015,2.35569 9.29744,0.95771 11.65311,-3.12244 2.35569,-4.08016 0.95773,-9.29744 -3.12244,-11.65311 -7.38779,-4.26534 -10.51084,-9.67464 -10.51107,-18.20518 -8.9e-4,-4.71056 -3.81968,-8.5288 -8.53023,-8.52904 -4.71055,8.9e-4 -8.5288,3.81969 -8.52904,8.53023 -0.001,8.52935 -3.12491,13.93865 -10.51062,18.20493 z"
       style="fill:#000000;fill-opacity:1;stroke:url(#radialGradient5270);stroke-width:0.4;stroke-miterlimit:4;stroke-dasharray:none;stroke-dashoffset:0" />
    <path
       id="path1696"
       style="fill:#000000;stroke:url(#linearGradient1722);stroke-width:1;stroke-miterlimit:4;stroke-dasharray:none"
       d="M -376.69531 232.98242 C -379.14018 232.98192 -381.46647 234.03193 -383.08398 235.86523 L -383.08398 247.13477 C -381.46678 248.96867 -379.14044 250.01963 -376.69531 250.01953 C -376.33928 250.01953 -375.98214 249.99617 -375.62891 249.95117 L -375.62891 244.69336 L -372.73242 249.04102 C -370.86487 248.06022 -369.42784 246.42101 -368.69922 244.44141 L -371.36914 240.43359 L -368.24414 240.43359 C -368.78112 236.17499 -372.40297 232.98282 -376.69531 232.98242 z M -400.11914 232.98828 C -404.82388 232.98778 -408.63826 236.80116 -408.63867 241.50586 L -403.31445 241.50586 L -403.31445 249.40234 C -402.29942 249.81324 -401.21419 250.02519 -400.11914 250.02539 C -399.02466 250.02499 -397.94222 249.81304 -396.92773 249.40234 L -396.92773 241.50586 L -391.60156 241.50586 C -391.60197 236.80176 -395.41506 232.98868 -400.11914 232.98828 z M -422.48242 233.25977 L -422.48242 237.55078 L -427.92773 233.66016 C -429.6844 234.40306 -431.14137 235.71371 -432.06445 237.38281 L -432.06445 245.63086 C -430.93149 247.67766 -429.00733 249.16891 -426.74219 249.75391 L -426.74219 246.52734 L -422.29297 249.70312 C -420.10625 249.08493 -418.25649 247.61916 -417.15625 245.63086 L -417.15625 237.38086 C -418.28959 235.33376 -420.21664 233.84427 -422.48242 233.25977 z M -455.03711 233.44141 C -457.04368 234.12361 -458.7243 235.52811 -459.75 237.38281 L -459.75 245.63086 C -458.80492 247.33926 -457.30193 248.6719 -455.49219 249.4043 L -455.49219 246.83008 L -452.29688 250.02539 L -449.10156 246.83008 L -449.10156 249.4043 C -447.29118 248.6722 -445.78731 247.33956 -444.8418 245.63086 L -444.8418 237.38281 C -445.86791 235.52781 -447.54943 234.12321 -449.55664 233.44141 L -452.29688 236.18359 L -455.03711 233.44141 z "
       transform="translate(0,796.36216)" />
    <path
       id="path1700"
       style="fill:#000000;stroke:url(#linearGradient1718);stroke-width:1;stroke-miterlimit:4;stroke-dasharray:none"
       d="M -389.47266 232.98242 L -389.47266 232.98828 C -391.40837 232.98828 -393.28591 233.64752 -394.79688 234.85742 C -394.80888 234.86742 -394.82013 234.87672 -394.83203 234.88672 L -394.88672 234.93164 C -394.89072 234.93164 -394.89569 234.94136 -394.90039 234.94336 C -394.92569 234.96336 -394.95156 234.98486 -394.97656 235.00586 C -394.99206 235.01986 -395.00804 235.03288 -395.02344 235.04688 C -395.03664 235.05787 -395.0495 235.06908 -395.0625 235.08008 C -395.0837 235.09808 -395.1039 235.11577 -395.125 235.13477 C -395.135 235.14477 -395.1446 235.15116 -395.1543 235.16016 C -395.1733 235.17716 -395.19214 235.19589 -395.21094 235.21289 C -395.23224 235.23189 -395.25429 235.25053 -395.27539 235.26953 L -395.27734 235.26953 C -395.29974 235.29053 -395.32155 235.31103 -395.34375 235.33203 C -395.36275 235.35003 -395.38159 235.36872 -395.40039 235.38672 C -395.41419 235.40072 -395.42771 235.41373 -395.44141 235.42773 C -395.44741 235.43773 -395.45328 235.43931 -395.45898 235.44531 C -395.47618 235.46231 -395.49257 235.47809 -395.50977 235.49609 C -395.53457 235.52109 -395.55958 235.54627 -395.58398 235.57227 C -395.59658 235.58427 -395.60849 235.59833 -395.62109 235.61133 C -395.62909 235.62133 -395.63858 235.62772 -395.64648 235.63672 C -395.67238 235.66372 -395.69706 235.69175 -395.72266 235.71875 C -395.75146 235.74975 -395.78019 235.7805 -395.80859 235.8125 C -395.82639 235.8325 -395.84383 235.85109 -395.86133 235.87109 C -396.26995 236.33409 -396.6285 236.84076 -396.92773 237.38086 L -396.92773 245.62891 C -396.6286 246.16961 -396.27005 246.67517 -395.86133 247.13867 C -395.85053 247.15067 -395.84098 247.16378 -395.83008 247.17578 C -395.80348 247.20678 -395.77505 247.23563 -395.74805 247.26562 C -395.74305 247.26562 -395.73762 247.27625 -395.73242 247.28125 C -395.71192 247.30325 -395.69257 247.32566 -395.67188 247.34766 C -395.66487 247.35766 -395.65719 247.36119 -395.65039 247.36719 C -395.62429 247.39519 -395.59877 247.42317 -395.57227 247.45117 C -395.54227 247.48117 -395.51097 247.51202 -395.48047 247.54102 C -395.45427 247.56702 -395.42874 247.59314 -395.40234 247.61914 C -395.38924 247.63214 -395.37638 247.6452 -395.36328 247.6582 C -395.34448 247.6762 -395.32554 247.69394 -395.30664 247.71094 L -395.29688 247.7207 C -395.26738 247.7487 -395.23693 247.77573 -395.20703 247.80273 C -395.17583 247.83073 -395.14488 247.85872 -395.11328 247.88672 C -395.08148 247.91472 -395.04783 247.9427 -395.01562 247.9707 C -394.98383 247.9977 -394.95212 248.02573 -394.91992 248.05273 C -394.88862 248.07873 -394.85777 248.10391 -394.82617 248.12891 L -394.82227 248.12891 C -394.81327 248.13891 -394.80548 248.14339 -394.79688 248.15039 C -393.28591 249.36029 -391.40838 250.01953 -389.47266 250.01953 C -386.42975 250.01883 -383.61698 248.39517 -382.0957 245.75977 L -383.08398 245.75977 L -386.2793 245.75977 L -386.91602 245.75977 L -386.98633 245.75977 L -387.69922 244.69531 L -387.55664 244.69531 L -386.2793 244.69531 L -383.08398 244.69531 L -383.08398 241.5 L -386.2793 241.5 L -389.47266 241.5 L -389.82617 241.5 L -391.24609 239.37109 L -390.75195 239.37109 L -386.2793 239.37109 L -381.22461 239.37109 C -382.19532 235.61019 -385.58846 232.98302 -389.47266 232.98242 z M -438.45508 232.98828 C -443.15973 232.98828 -446.97266 236.80126 -446.97266 241.50586 C -446.97266 246.21056 -443.15973 250.02539 -438.45508 250.02539 C -433.75043 250.02539 -429.93555 246.21056 -429.93555 241.50586 C -429.93555 236.80126 -433.75043 232.98828 -438.45508 232.98828 z M -412.89844 232.98828 C -415.68717 232.98828 -418.30021 234.35318 -419.89258 236.64258 L -412.89844 243.63477 L -415.0293 243.63477 L -417.15625 241.50586 L -421.41602 241.50586 C -421.41656 246.21066 -417.60318 250.02499 -412.89844 250.02539 C -410.10971 250.02539 -407.49863 248.66049 -405.90625 246.37109 L -412.89844 239.37695 L -410.76953 239.37695 L -408.63867 241.50586 L -404.37891 241.50586 C -404.37932 236.80116 -408.19369 232.98778 -412.89844 232.98828 z M -366.39648 232.98828 C -369.1852 232.98828 -371.79824 234.35318 -373.39062 236.64258 L -366.39648 243.63477 L -368.52734 243.63477 L -370.65625 241.50586 L -374.91406 241.50586 C -374.9146 246.21066 -371.10122 250.02499 -366.39648 250.02539 C -363.60775 250.02539 -360.99668 248.66049 -359.4043 246.37109 L -366.39648 239.37695 L -364.26758 239.37695 L -362.13672 241.50586 L -357.87891 241.50586 C -357.87931 236.80176 -361.6924 232.98868 -366.39648 232.98828 z "
       transform="translate(0,796.36216)" />
    <path
       id="rect1361"
       style="opacity:0.47561;fill:#782121"
       d="m -723,792.36216 4,4 v 12 h 4 v -12 h 2 v 12 h 4 v -12 h 2 v 12 h 4 v -16 h -15 -1 z" />
    <rect
       style="opacity:0.47561;fill:#782121"
       id="rect1375"
       width="16"
       height="16"
       x="-701"
       y="792.36218" />
    <path
       id="rect1377"
       style="opacity:0.47561;fill:#782121"
       d="m -683,792.36216 v 16 h 4 v -12 h 2 v 12 h 4 v -16 z" />
    <path
       id="rect1384"
       style="opacity:0.47561;fill:#782121"
       d="m -671,792.36216 v 9 h 10 v 2 h -10 v 5 h 16 v -9 h -10 v -2 h 10 v -5 z" />
    <path
       id="rect1395"
       style="opacity:0.47561;fill:#782121"
       d="m -653,792.36216 v 4 h 6 v 12 h 4 v -12 h 6 v -4 h -6 -4 z" />
    <path
       id="rect1361-3"
       style="opacity:0.47561;fill:#782121"
       d="m -631,808.36216 h 12 v -4 h -12 v -2 h 12 v -4 h -12 v -2 h 12 v -4 h -16 v 15 1 z"
       sodipodi:nodetypes="ccccccccccccccc" />
    <path
       id="rect1419"
       style="opacity:0.47561;fill:#782121"
       d="m -615,792.36216 v 16 h 8 v -8 h 2 v 8 h 6 v -6 l -2,-2 h 2 v -8 z" />
    <path
       id="rect1384-9"
       style="opacity:0.47561;fill:#782121"
       d="m -597,792.36216 v 9 h 10 v 2 h -10 v 5 h 16 v -9 h -10 v -2 h 10 v -5 z" />
    <path
       id="rect1361-8"
       style="opacity:0.47561;fill:#782121"
       d="M -677 40 L -672 45 L -672 56 L -668 56 L -668 45 L -666 45 L -666 56 L -662 56 L -662 45 L -660 45 L -660 56 L -656 56 L -656 40 L -671 40 L -672 40 L -676 40 L -677 40 z "
       transform="translate(0,796.36216)" />
    <path
       id="rect1375-3"
       style="opacity:0.47561;fill:#782121"
       d="M -652 40 L -654 42 L -654 56 L -640 56 L -638 54 L -638 40 L -652 40 z "
       transform="translate(0,796.36216)" />
    <path
       id="rect1377-7"
       style="opacity:0.47561;fill:#782121"
       d="M -636 40 L -636 56 L -632 56 L -632 45 L -630 45 L -630 56 L -626 56 L -624 56 L -622 56 L -610 56 L -608 54 L -608 47 L -618 47 L -618 45 L -609 45 L -608 45 L -606 45 L -606 56 L -602 56 L -602 45 L -600 45 L -600 55 L -600 56 L -596 56 L -584 56 L -584 53 L -584 52 L -584 51 L -596 51 L -596 50 L -596 49 L -584 49 L -584 47 L -596 47 L -596 46 L -596 45 L -584 45 L -584 40 L -600 40 L -608 40 L -609 40 L -622 40 L -624 42 L -624 49 L -614 49 L -614 51 L -622 51 L -624 51 L -626 51 L -626 40 L -636 40 z "
       transform="translate(0,796.36216)" />
    <path
       id="rect1419-9"
       style="opacity:0.47561;fill:#782121"
       d="M -582 40 L -582 56 L -574 56 L -574 48 L -572 48 L -572 56 L -570 56 L -566 56 L -562 56 L -550 56 L -548 54 L -548 47 L -558 47 L -558 45 L -548 45 L -543 40 L -548 40 L -549 40 L -562 40 L -564 42 L -564 49 L -554 49 L -554 51 L -563 51 L -564 51 L -566 51 L -566 49 L -567 48 L -568 47 L -566 47 L -566 40 L -582 40 z "
       transform="translate(0,796.36216)" />
    <path
       id="path1547"
       style="opacity:1;fill:url(#radialGradient1695);fill-opacity:1"
       d="m -677,64 5,5 V 71.859725 80 h 4 V 69 h 2 v 11 h 4 V 69 h 2 v 11 h 4 V 64 h -15 -1 -4 z m 25,0 -2,2 v 14 h 14 l 2,-2 V 64 Z m 16,0 v 16 h 4 V 69 h 2 v 11 h 4 2 2 12 l 2,-2 v -7 h -10 v -2 h 9 1 2 v 11 h 4 V 69 h 2 v 10 1 h 4 12 v -3 -1 -1 h -12 v -1 -1 h 12 v -2 h -12 v -1 -1 h 12 v -5 h -16 -8 -1 -13 l -2,2 v 7 h 10 v 2 h -8 -2 -2 V 64 Z m 54,0 v 16 h 8 v -8 h 2 v 8 h 2 4 4 12 l 2,-2 v -7 h -10 v -2 h 10 l 5,-5 h -5 -1 -13 l -2,2 v 7 h 10 v 2 h -9 -1 -2 v -2 l -1,-1 -1,-1 h 2 v -7 z"
       transform="translate(0,796.36216)"
       sodipodi:nodetypes="cccccccccccccccccccccccccccccccccccccccccccccccccccccccccccccccccccccccccccccccccccccccccccccccccccccccccccc" />
    <g
       id="g1756">
      <path
         id="path1748"
         style="opacity:1;fill:#000000;fill-opacity:1;stroke:#000000;stroke-width:3;stroke-miterlimit:4;stroke-dasharray:none"
         d="m -677,888.36216 5,5 v 2.85973 8.14027 h 4 v -11 h 2 v 11 h 4 v -11 h 2 v 11 h 4 v -16 h -15 -1 -4 z m 25,0 -2,2 v 14 h 14 l 2,-2 v -14 z m 16,0 v 16 h 4 v -11 h 2 v 11 h 4 2 2 12 l 2,-2 v -7 h -10 v -2 h 9 1 2 v 11 h 4 v -11 h 2 v 10 1 h 4 12 v -3 -1 -1 h -12 v -1 -1 h 12 v -2 h -12 v -1 -1 h 12 v -5 h -16 -8 -1 -13 l -2,2 v 7 h 10 v 2 h -8 -2 -2 v -11 z m 54,0 v 16 h 8 v -8 h 2 v 8 h 2 4 4 12 l 2,-2 v -7 h -10 v -2 h 10 l 5,-5 h -5 -1 -13 l -2,2 v 7 h 10 v 2 h -9 -1 -2 v -2 l -1,-1 -1,-1 h 2 v -7 z"
         sodipodi:nodetypes="cccccccccccccccccccccccccccccccccccccccccccccccccccccccccccccccccccccccccccccccccccccccccccccccccccccccccccc" />
      <path
         id="path1711"
         style="opacity:1;fill:#000000;fill-opacity:1;stroke:url(#radialGradient1729);stroke-width:2;stroke-miterlimit:4;stroke-dasharray:none"
         d="m -677,888.36216 5,5 v 2.85973 8.14027 h 4 v -11 h 2 v 11 h 4 v -11 h 2 v 11 h 4 v -16 h -15 -1 -4 z m 25,0 -2,2 v 14 h 14 l 2,-2 v -14 z m 16,0 v 16 h 4 v -11 h 2 v 11 h 4 2 2 12 l 2,-2 v -7 h -10 v -2 h 9 1 2 v 11 h 4 v -11 h 2 v 10 1 h 4 12 v -3 -1 -1 h -12 v -1 -1 h 12 v -2 h -12 v -1 -1 h 12 v -5 h -16 -8 -1 -13 l -2,2 v 7 h 10 v 2 h -8 -2 -2 v -11 z m 54,0 v 16 h 8 v -8 h 2 v 8 h 2 4 4 12 l 2,-2 v -7 h -10 v -2 h 10 l 5,-5 h -5 -1 -13 l -2,2 v 7 h 10 v 2 h -9 -1 -2 v -2 l -1,-1 -1,-1 h 2 v -7 z"
         sodipodi:nodetypes="cccccccccccccccccccccccccccccccccccccccccccccccccccccccccccccccccccccccccccccccccccccccccccccccccccccccccccc" />
      <path
         id="path1707"
         style="opacity:1;fill:#000000;fill-opacity:1;stroke:none;stroke-width:0.5;stroke-miterlimit:4;stroke-dasharray:none"
         d="m -677,888.36216 5,5 v 2.85973 8.14027 h 4 v -11 h 2 v 11 h 4 v -11 h 2 v 11 h 4 v -16 h -15 -1 -4 z m 25,0 -2,2 v 14 h 14 l 2,-2 v -14 z m 16,0 v 16 h 4 v -11 h 2 v 11 h 4 2 2 12 l 2,-2 v -7 h -10 v -2 h 9 1 2 v 11 h 4 v -11 h 2 v 10 1 h 4 12 v -3 -1 -1 h -12 v -1 -1 h 12 v -2 h -12 v -1 -1 h 12 v -5 h -16 -8 -1 -13 l -2,2 v 7 h 10 v 2 h -8 -2 -2 v -11 z m 54,0 v 16 h 8 v -8 h 2 v 8 h 2 4 4 12 l 2,-2 v -7 h -10 v -2 h 10 l 5,-5 h -5 -1 -13 l -2,2 v 7 h 10 v 2 h -9 -1 -2 v -2 l -1,-1 -1,-1 h 2 v -7 z"
         sodipodi:nodetypes="cccccccccccccccccccccccccccccccccccccccccccccccccccccccccccccccccccccccccccccccccccccccccccccccccccccccccccc" />
      <path
         id="path1731"
         style="opacity:1;fill:url(#radialGradient1746);fill-opacity:1;stroke:none;stroke-width:0.5;stroke-miterlimit:4;stroke-dasharray:none"
         d="M -677 92 L -672 97 L -672 99.859375 L -672 103.28125 A 132 28 0 0 1 -668 102.84766 L -668 97 L -666 97 L -666 102.64453 A 132 28 0 0 1 -662 102.26367 L -662 97 L -660 97 L -660 102.08594 A 132 28 0 0 1 -656 101.75586 L -656 92 L -671 92 L -672 92 L -676 92 L -677 92 z M -652 92 L -654 94 L -654 101.60156 A 132 28 0 0 1 -638 100.63672 L -638 92 L -652 92 z M -636 92 L -636 100.54883 A 132 28 0 0 1 -632 100.39258 L -632 97 L -630 97 L -630 100.32422 A 132 28 0 0 1 -626 100.20703 L -626 92 L -636 92 z M -622 92 L -624 94 L -624 100.1582 A 132 28 0 0 1 -610 100 A 132 28 0 0 1 -608 100.00391 L -608 99 L -618 99 L -618 97 L -609 97 L -608 97 L -606 97 L -606 100.01367 A 132 28 0 0 1 -602 100.05078 L -602 97 L -600 97 L -600 100.08008 A 132 28 0 0 1 -584 100.54883 L -584 99 L -596 99 L -596 98 L -596 97 L -584 97 L -584 92 L -600 92 L -608 92 L -609 92 L -622 92 z M -582 92 L -582 100.63867 A 132 28 0 0 1 -574 101.0625 L -574 100 L -572 100 L -572 101.18555 A 132 28 0 0 1 -566 101.60156 L -566 101 L -567 100 L -568 99 L -566 99 L -566 92 L -582 92 z M -562 92 L -564 94 L -564 101 L -554 101 L -554 102.64453 A 132 28 0 0 1 -548 103.28125 L -548 99 L -558 99 L -558 97 L -548 97 L -543 92 L -548 92 L -549 92 L -562 92 z "
         transform="translate(0,796.36216)" />
    </g>
    <g
       id="g2185"
       inkscape:export-filename="C:\Users\Georg Eckert\Entwicklung\GuardianMonsters\GM_logo_hires.png"
       inkscape:export-xdpi="764.32001"
       inkscape:export-ydpi="764.32001"
       transform="translate(529.04199,169.90497)">
      <path
         inkscape:export-ydpi="756.73999"
         inkscape:export-xdpi="756.73999"
         style="fill:#000000;fill-opacity:1;stroke:none;stroke-width:1;stroke-miterlimit:4;stroke-dasharray:none;stroke-dashoffset:0;filter:url(#filter1784)"
         d="m -449.23328,755.00956 c -4.07934,2.35547 -5.47738,7.57157 -3.12287,11.65148 2.35548,4.07934 7.57156,5.47737 11.65147,3.12288 7.38778,-4.26508 13.63391,-4.26508 21.02169,2.5e-4 4.08015,2.35569 9.29744,0.95771 11.65311,-3.12244 2.35569,-4.08016 0.95773,-9.29744 -3.12244,-11.65311 -7.38779,-4.26534 -10.51084,-9.67464 -10.51107,-18.20518 -8.9e-4,-4.71056 -3.81968,-8.5288 -8.53023,-8.52904 -4.71055,8.9e-4 -8.5288,3.81969 -8.52904,8.53023 -10e-4,8.52935 -3.12491,13.93865 -10.51062,18.20493 z"
         id="path1822"
         inkscape:connector-curvature="0"
         inkscape:transform-center-y="-2.9990048"
         sodipodi:nodetypes="ccccsccccc"
         inkscape:transform-center-x="-0.00086264099"
         inkscape:export-filename="C:\Users\Georg Eckert\Entwicklung\GuardianMonsters\GM_logo_hires.png" />
      <path
         inkscape:export-ydpi="756.73999"
         inkscape:export-xdpi="756.73999"
         style="fill:url(#linearGradient4341);fill-opacity:1;stroke:url(#radialGradient4333);stroke-width:1;stroke-miterlimit:4;stroke-dasharray:none;stroke-dashoffset:0"
         d="m -449.23328,755.00956 c -4.07934,2.35547 -5.47738,7.57157 -3.12287,11.65148 2.35548,4.07934 7.57156,5.47737 11.65147,3.12288 7.38778,-4.26508 13.63391,-4.26508 21.02169,2.5e-4 4.08015,2.35569 9.29744,0.95771 11.65311,-3.12244 2.35569,-4.08016 0.95773,-9.29744 -3.12244,-11.65311 -7.38779,-4.26534 -10.51084,-9.67464 -10.51107,-18.20518 -8.9e-4,-4.71056 -3.81968,-8.5288 -8.53023,-8.52904 -4.71055,8.9e-4 -8.5288,3.81969 -8.52904,8.53023 -10e-4,8.52935 -3.12491,13.93865 -10.51062,18.20493 z"
         id="path4327"
         inkscape:connector-curvature="0"
         inkscape:transform-center-y="-2.9990048"
         sodipodi:nodetypes="ccccsccccc"
         inkscape:transform-center-x="-0.00086264099"
         inkscape:export-filename="C:\Users\Georg Eckert\Entwicklung\GuardianMonsters\GM_logo_hires.png" />
      <path
         id="path1820"
         style="fill:#000000;stroke:none;stroke-width:1;stroke-linecap:butt;stroke-linejoin:miter;stroke-miterlimit:4;stroke-dasharray:none;filter:url(#filter1774)"
         d="m -519,739.36216 22.63281,22.63086 0.11524,0.11719 c 2.49914,2.49977 5.88904,3.90421 9.42383,3.90429 h 13.32617 v -6.66406 -6.66211 -1.66601 h -0.10547 -4.89258 -3.33203 l -6.66211,6.66406 v -6.66406 l 3.33203,-3.33203 h 10.6875 c -2.03652,-5.03363 -6.92354,-8.3282 -12.35351,-8.32813 z m 113.79297,0 c -3.82445,1.2e-4 -7.46451,1.64338 -9.99414,4.51172 v 17.62695 c 2.52927,2.86907 6.16938,4.51306 9.99414,4.51367 0.557,-3e-4 1.11342,-0.0355 1.66601,-0.10546 v -8.22266 l 4.53321,6.79883 c 2.92118,-1.53466 5.1691,-4.09854 6.30859,-7.19532 l -4.17773,-6.26757 h 4.89257 c -0.83958,-6.66339 -6.50658,-11.66072 -13.22265,-11.66016 z m 23.32226,0 c -3.05105,1.6e-4 -5.98395,1.04832 -8.33007,2.92773 v 20.79688 c 2.3462,1.87923 5.27908,2.92773 8.33007,2.92773 7.35979,0 13.32618,-5.96638 13.32618,-13.32617 0,-7.35978 -5.96639,-13.32617 -13.32618,-13.32617 z m 19.98829,0 c -1.71305,-4e-5 -3.41004,0.3302 -4.99805,0.97266 v 24.70703 c 1.58801,0.64245 3.285,0.97269 4.99805,0.97265 1.71304,4e-5 3.41003,-0.3302 4.99804,-0.97265 v -24.70703 c -1.58801,-0.64245 -3.285,-0.9727 -4.99804,-0.97266 z m 19.98828,0 c -1.24341,1.9e-4 -2.48067,0.17441 -3.67578,0.51758 l -9.56055,14.3418 c 0.56089,4.84246 3.72114,8.99222 8.24023,10.82031 v -2.85742 l 4.9961,-7.4961 4.99804,7.4961 v 2.85742 c 4.51909,-1.82809 7.67935,-5.97784 8.24024,-10.82031 l -9.56055,-14.3418 c -1.19574,-0.34335 -2.43367,-0.51757 -3.67773,-0.51758 z m 29.98437,0 v 0.42383 6.71484 l -8.52148,-6.08594 c -2.74812,1.16225 -5.02667,3.21315 -6.47071,5.82422 v 12.90235 c 1.77303,3.20262 4.78545,5.53486 8.33008,6.44922 v -5.04883 l 6.95703,4.96875 c 2.19037,-0.61991 4.18543,-1.79058 5.79493,-3.40039 h 0.002 l 22.748,-22.74805 z m -154.44922,2.60742 c -0.30892,0.22603 -0.60802,0.46518 -0.89648,0.7168 4.9e-4,-0.0241 0.002,-0.048 0.002,-0.0723 -2.94532,2.54464 -4.63837,6.2444 -4.63867,10.13672 7e-5,2.70774 0.82063,5.35191 2.35352,7.58398 0.0469,0.0682 0.0944,0.13586 0.14257,0.20313 2.51272,3.55303 6.59356,5.66554 10.94532,5.66601 7.40527,3.1e-4 13.40851,-6.00293 13.4082,-13.4082 -0.002,-4.13115 -1.90751,-8.03091 -5.16602,-10.57031 -0.10998,-0.087 -0.22132,-0.17233 -0.33398,-0.25586 -0.20528,3.33418 -2.47931,6.18161 -5.68555,7.11914 -0.0247,0.007 -0.0494,0.0144 -0.0742,0.0215 -0.0169,0.005 -0.0338,0.009 -0.0508,0.0137 -0.0617,0.0163 -0.12352,0.032 -0.18554,0.0469 -0.64092,0.15424 -1.29782,0.23225 -1.95704,0.23242 -0.15765,-1.1e-4 -0.31526,-0.005 -0.47265,-0.0137 h -0.0137 c -0.0593,-0.004 -0.11854,-0.009 -0.17774,-0.0137 -3.89996,-0.35105 -6.95885,-3.49791 -7.19922,-7.40625 z"
         sodipodi:nodetypes="cccccccccccccccccccccccccccccccssccccccccccccccccccccccccccccccccccccscccccscssccccc"
         inkscape:export-filename="C:\Users\Georg Eckert\Entwicklung\GuardianMonsters\GM_logo_hires.png"
         inkscape:export-xdpi="756.73999"
         inkscape:export-ydpi="756.73999" />
      <g
         id="g1864"
         transform="matrix(0.92003278,0,0,0.92003278,160.17796,-45.46489)"
         style="fill:#000000;stroke:none;filter:url(#filter1842)">
        <path
           id="path1856"
           style="opacity:1;fill:#000000;fill-opacity:1;stroke:none;stroke-width:3;stroke-miterlimit:4;stroke-dasharray:none"
           d="m -677,888.36216 5,5 v 2.85973 8.14027 h 4 v -11 h 2 v 11 h 4 v -11 h 2 v 11 h 4 v -16 h -15 -1 -4 z m 25,0 -2,2 v 14 h 14 l 2,-2 v -14 z m 16,0 v 16 h 4 v -11 h 2 v 11 h 4 2 2 12 l 2,-2 v -7 h -10 v -2 h 9 1 2 v 11 h 4 v -11 h 2 v 10 1 h 4 12 v -3 -1 -1 h -12 v -1 -1 h 12 v -2 h -12 v -1 -1 h 12 v -5 h -16 -8 -1 -13 l -2,2 v 7 h 10 v 2 h -8 -2 -2 v -11 z m 54,0 v 16 h 8 v -8 h 2 v 8 h 2 4 4 12 l 2,-2 v -7 h -10 v -2 h 10 l 5,-5 h -5 -1 -13 l -2,2 v 7 h 10 v 2 h -9 -1 -2 v -2 l -1,-1 -1,-1 h 2 v -7 z"
           sodipodi:nodetypes="cccccccccccccccccccccccccccccccccccccccccccccccccccccccccccccccccccccccccccccccccccccccccccccccccccccccccccc" />
        <path
           id="path1858"
           style="opacity:1;fill:#000000;fill-opacity:1;stroke:none;stroke-width:2;stroke-miterlimit:4;stroke-dasharray:none"
           d="m -677,888.36216 5,5 v 2.85973 8.14027 h 4 v -11 h 2 v 11 h 4 v -11 h 2 v 11 h 4 v -16 h -15 -1 -4 z m 25,0 -2,2 v 14 h 14 l 2,-2 v -14 z m 16,0 v 16 h 4 v -11 h 2 v 11 h 4 2 2 12 l 2,-2 v -7 h -10 v -2 h 9 1 2 v 11 h 4 v -11 h 2 v 10 1 h 4 12 v -3 -1 -1 h -12 v -1 -1 h 12 v -2 h -12 v -1 -1 h 12 v -5 h -16 -8 -1 -13 l -2,2 v 7 h 10 v 2 h -8 -2 -2 v -11 z m 54,0 v 16 h 8 v -8 h 2 v 8 h 2 4 4 12 l 2,-2 v -7 h -10 v -2 h 10 l 5,-5 h -5 -1 -13 l -2,2 v 7 h 10 v 2 h -9 -1 -2 v -2 l -1,-1 -1,-1 h 2 v -7 z"
           sodipodi:nodetypes="cccccccccccccccccccccccccccccccccccccccccccccccccccccccccccccccccccccccccccccccccccccccccccccccccccccccccccc" />
        <path
           id="path1860"
           style="opacity:1;fill:#000000;fill-opacity:1;stroke:none;stroke-width:0.5;stroke-miterlimit:4;stroke-dasharray:none"
           d="m -677,888.36216 5,5 v 2.85973 8.14027 h 4 v -11 h 2 v 11 h 4 v -11 h 2 v 11 h 4 v -16 h -15 -1 -4 z m 25,0 -2,2 v 14 h 14 l 2,-2 v -14 z m 16,0 v 16 h 4 v -11 h 2 v 11 h 4 2 2 12 l 2,-2 v -7 h -10 v -2 h 9 1 2 v 11 h 4 v -11 h 2 v 10 1 h 4 12 v -3 -1 -1 h -12 v -1 -1 h 12 v -2 h -12 v -1 -1 h 12 v -5 h -16 -8 -1 -13 l -2,2 v 7 h 10 v 2 h -8 -2 -2 v -11 z m 54,0 v 16 h 8 v -8 h 2 v 8 h 2 4 4 12 l 2,-2 v -7 h -10 v -2 h 10 l 5,-5 h -5 -1 -13 l -2,2 v 7 h 10 v 2 h -9 -1 -2 v -2 l -1,-1 -1,-1 h 2 v -7 z"
           sodipodi:nodetypes="cccccccccccccccccccccccccccccccccccccccccccccccccccccccccccccccccccccccccccccccccccccccccccccccccccccccccccc" />
        <path
           id="path1862"
           style="opacity:1;fill:#000000;fill-opacity:1;stroke:none;stroke-width:0.5;stroke-miterlimit:4;stroke-dasharray:none"
           d="m -677,92 5,5 v 2.859375 3.421875 a 132,28 0 0 1 4,-0.43359 V 97 h 2 v 5.64453 a 132,28 0 0 1 4,-0.38086 V 97 h 2 v 5.08594 a 132,28 0 0 1 4,-0.33008 V 92 h -15 -1 -4 z m 25,0 -2,2 v 7.60156 a 132,28 0 0 1 16,-0.96484 V 92 Z m 16,0 v 8.54883 a 132,28 0 0 1 4,-0.15625 V 97 h 2 v 3.32422 a 132,28 0 0 1 4,-0.11719 V 92 Z m 14,0 -2,2 v 6.1582 a 132,28 0 0 1 14,-0.1582 132,28 0 0 1 2,0.004 V 99 h -10 v -2 h 9 1 2 v 3.01367 a 132,28 0 0 1 4,0.0371 V 97 h 2 v 3.08008 a 132,28 0 0 1 16,0.46875 V 99 h -12 v -1 -1 h 12 v -5 h -16 -8 -1 z m 40,0 v 8.63867 a 132,28 0 0 1 8,0.42383 V 100 h 2 v 1.18555 a 132,28 0 0 1 6,0.41601 V 101 l -1,-1 -1,-1 h 2 v -7 z m 20,0 -2,2 v 7 h 10 v 1.64453 a 132,28 0 0 1 6,0.63672 V 99 h -10 v -2 h 10 l 5,-5 h -5 -1 z"
           transform="translate(0,796.36216)" />
      </g>
      <g
         id="g1854"
         transform="matrix(0.92003278,0,0,0.92003278,160.17796,-45.46489)"
         style="fill:#000000;stroke:none;filter:url(#filter1842)">
        <path
           id="path1846"
           style="opacity:1;fill:#000000;fill-opacity:1;stroke:none;stroke-width:3;stroke-miterlimit:4;stroke-dasharray:none"
           d="m -677,888.36216 5,5 v 2.85973 8.14027 h 4 v -11 h 2 v 11 h 4 v -11 h 2 v 11 h 4 v -16 h -15 -1 -4 z m 25,0 -2,2 v 14 h 14 l 2,-2 v -14 z m 16,0 v 16 h 4 v -11 h 2 v 11 h 4 2 2 12 l 2,-2 v -7 h -10 v -2 h 9 1 2 v 11 h 4 v -11 h 2 v 10 1 h 4 12 v -3 -1 -1 h -12 v -1 -1 h 12 v -2 h -12 v -1 -1 h 12 v -5 h -16 -8 -1 -13 l -2,2 v 7 h 10 v 2 h -8 -2 -2 v -11 z m 54,0 v 16 h 8 v -8 h 2 v 8 h 2 4 4 12 l 2,-2 v -7 h -10 v -2 h 10 l 5,-5 h -5 -1 -13 l -2,2 v 7 h 10 v 2 h -9 -1 -2 v -2 l -1,-1 -1,-1 h 2 v -7 z"
           sodipodi:nodetypes="cccccccccccccccccccccccccccccccccccccccccccccccccccccccccccccccccccccccccccccccccccccccccccccccccccccccccccc" />
        <path
           id="path1848"
           style="opacity:1;fill:#000000;fill-opacity:1;stroke:none;stroke-width:2;stroke-miterlimit:4;stroke-dasharray:none"
           d="m -677,888.36216 5,5 v 2.85973 8.14027 h 4 v -11 h 2 v 11 h 4 v -11 h 2 v 11 h 4 v -16 h -15 -1 -4 z m 25,0 -2,2 v 14 h 14 l 2,-2 v -14 z m 16,0 v 16 h 4 v -11 h 2 v 11 h 4 2 2 12 l 2,-2 v -7 h -10 v -2 h 9 1 2 v 11 h 4 v -11 h 2 v 10 1 h 4 12 v -3 -1 -1 h -12 v -1 -1 h 12 v -2 h -12 v -1 -1 h 12 v -5 h -16 -8 -1 -13 l -2,2 v 7 h 10 v 2 h -8 -2 -2 v -11 z m 54,0 v 16 h 8 v -8 h 2 v 8 h 2 4 4 12 l 2,-2 v -7 h -10 v -2 h 10 l 5,-5 h -5 -1 -13 l -2,2 v 7 h 10 v 2 h -9 -1 -2 v -2 l -1,-1 -1,-1 h 2 v -7 z"
           sodipodi:nodetypes="cccccccccccccccccccccccccccccccccccccccccccccccccccccccccccccccccccccccccccccccccccccccccccccccccccccccccccc" />
        <path
           id="path1850"
           style="opacity:1;fill:#000000;fill-opacity:1;stroke:none;stroke-width:0.5;stroke-miterlimit:4;stroke-dasharray:none"
           d="m -677,888.36216 5,5 v 2.85973 8.14027 h 4 v -11 h 2 v 11 h 4 v -11 h 2 v 11 h 4 v -16 h -15 -1 -4 z m 25,0 -2,2 v 14 h 14 l 2,-2 v -14 z m 16,0 v 16 h 4 v -11 h 2 v 11 h 4 2 2 12 l 2,-2 v -7 h -10 v -2 h 9 1 2 v 11 h 4 v -11 h 2 v 10 1 h 4 12 v -3 -1 -1 h -12 v -1 -1 h 12 v -2 h -12 v -1 -1 h 12 v -5 h -16 -8 -1 -13 l -2,2 v 7 h 10 v 2 h -8 -2 -2 v -11 z m 54,0 v 16 h 8 v -8 h 2 v 8 h 2 4 4 12 l 2,-2 v -7 h -10 v -2 h 10 l 5,-5 h -5 -1 -13 l -2,2 v 7 h 10 v 2 h -9 -1 -2 v -2 l -1,-1 -1,-1 h 2 v -7 z"
           sodipodi:nodetypes="cccccccccccccccccccccccccccccccccccccccccccccccccccccccccccccccccccccccccccccccccccccccccccccccccccccccccccc" />
        <path
           id="path1852"
           style="opacity:1;fill:#000000;fill-opacity:1;stroke:none;stroke-width:0.5;stroke-miterlimit:4;stroke-dasharray:none"
           d="m -677,92 5,5 v 2.859375 3.421875 a 132,28 0 0 1 4,-0.43359 V 97 h 2 v 5.64453 a 132,28 0 0 1 4,-0.38086 V 97 h 2 v 5.08594 a 132,28 0 0 1 4,-0.33008 V 92 h -15 -1 -4 z m 25,0 -2,2 v 7.60156 a 132,28 0 0 1 16,-0.96484 V 92 Z m 16,0 v 8.54883 a 132,28 0 0 1 4,-0.15625 V 97 h 2 v 3.32422 a 132,28 0 0 1 4,-0.11719 V 92 Z m 14,0 -2,2 v 6.1582 a 132,28 0 0 1 14,-0.1582 132,28 0 0 1 2,0.004 V 99 h -10 v -2 h 9 1 2 v 3.01367 a 132,28 0 0 1 4,0.0371 V 97 h 2 v 3.08008 a 132,28 0 0 1 16,0.46875 V 99 h -12 v -1 -1 h 12 v -5 h -16 -8 -1 z m 40,0 v 8.63867 a 132,28 0 0 1 8,0.42383 V 100 h 2 v 1.18555 a 132,28 0 0 1 6,0.41601 V 101 l -1,-1 -1,-1 h 2 v -7 z m 20,0 -2,2 v 7 h 10 v 1.64453 a 132,28 0 0 1 6,0.63672 V 99 h -10 v -2 h 10 l 5,-5 h -5 -1 z"
           transform="translate(0,796.36216)" />
      </g>
      <g
         id="g1832"
         transform="matrix(0.92003278,0,0,0.92003278,160.17796,-45.46489)"
         style="fill:#000000;stroke:none;filter:url(#filter1842)">
        <path
           id="path1824"
           style="opacity:1;fill:#000000;fill-opacity:1;stroke:none;stroke-width:3;stroke-miterlimit:4;stroke-dasharray:none"
           d="m -677,888.36216 5,5 v 2.85973 8.14027 h 4 v -11 h 2 v 11 h 4 v -11 h 2 v 11 h 4 v -16 h -15 -1 -4 z m 25,0 -2,2 v 14 h 14 l 2,-2 v -14 z m 16,0 v 16 h 4 v -11 h 2 v 11 h 4 2 2 12 l 2,-2 v -7 h -10 v -2 h 9 1 2 v 11 h 4 v -11 h 2 v 10 1 h 4 12 v -3 -1 -1 h -12 v -1 -1 h 12 v -2 h -12 v -1 -1 h 12 v -5 h -16 -8 -1 -13 l -2,2 v 7 h 10 v 2 h -8 -2 -2 v -11 z m 54,0 v 16 h 8 v -8 h 2 v 8 h 2 4 4 12 l 2,-2 v -7 h -10 v -2 h 10 l 5,-5 h -5 -1 -13 l -2,2 v 7 h 10 v 2 h -9 -1 -2 v -2 l -1,-1 -1,-1 h 2 v -7 z"
           sodipodi:nodetypes="cccccccccccccccccccccccccccccccccccccccccccccccccccccccccccccccccccccccccccccccccccccccccccccccccccccccccccc" />
        <path
           id="path1826"
           style="opacity:1;fill:#000000;fill-opacity:1;stroke:none;stroke-width:2;stroke-miterlimit:4;stroke-dasharray:none"
           d="m -677,888.36216 5,5 v 2.85973 8.14027 h 4 v -11 h 2 v 11 h 4 v -11 h 2 v 11 h 4 v -16 h -15 -1 -4 z m 25,0 -2,2 v 14 h 14 l 2,-2 v -14 z m 16,0 v 16 h 4 v -11 h 2 v 11 h 4 2 2 12 l 2,-2 v -7 h -10 v -2 h 9 1 2 v 11 h 4 v -11 h 2 v 10 1 h 4 12 v -3 -1 -1 h -12 v -1 -1 h 12 v -2 h -12 v -1 -1 h 12 v -5 h -16 -8 -1 -13 l -2,2 v 7 h 10 v 2 h -8 -2 -2 v -11 z m 54,0 v 16 h 8 v -8 h 2 v 8 h 2 4 4 12 l 2,-2 v -7 h -10 v -2 h 10 l 5,-5 h -5 -1 -13 l -2,2 v 7 h 10 v 2 h -9 -1 -2 v -2 l -1,-1 -1,-1 h 2 v -7 z"
           sodipodi:nodetypes="cccccccccccccccccccccccccccccccccccccccccccccccccccccccccccccccccccccccccccccccccccccccccccccccccccccccccccc" />
        <path
           id="path1828"
           style="opacity:1;fill:#000000;fill-opacity:1;stroke:none;stroke-width:0.5;stroke-miterlimit:4;stroke-dasharray:none"
           d="m -677,888.36216 5,5 v 2.85973 8.14027 h 4 v -11 h 2 v 11 h 4 v -11 h 2 v 11 h 4 v -16 h -15 -1 -4 z m 25,0 -2,2 v 14 h 14 l 2,-2 v -14 z m 16,0 v 16 h 4 v -11 h 2 v 11 h 4 2 2 12 l 2,-2 v -7 h -10 v -2 h 9 1 2 v 11 h 4 v -11 h 2 v 10 1 h 4 12 v -3 -1 -1 h -12 v -1 -1 h 12 v -2 h -12 v -1 -1 h 12 v -5 h -16 -8 -1 -13 l -2,2 v 7 h 10 v 2 h -8 -2 -2 v -11 z m 54,0 v 16 h 8 v -8 h 2 v 8 h 2 4 4 12 l 2,-2 v -7 h -10 v -2 h 10 l 5,-5 h -5 -1 -13 l -2,2 v 7 h 10 v 2 h -9 -1 -2 v -2 l -1,-1 -1,-1 h 2 v -7 z"
           sodipodi:nodetypes="cccccccccccccccccccccccccccccccccccccccccccccccccccccccccccccccccccccccccccccccccccccccccccccccccccccccccccc" />
        <path
           id="path1830"
           style="opacity:1;fill:#000000;fill-opacity:1;stroke:none;stroke-width:0.5;stroke-miterlimit:4;stroke-dasharray:none"
           d="m -677,92 5,5 v 2.859375 3.421875 a 132,28 0 0 1 4,-0.43359 V 97 h 2 v 5.64453 a 132,28 0 0 1 4,-0.38086 V 97 h 2 v 5.08594 a 132,28 0 0 1 4,-0.33008 V 92 h -15 -1 -4 z m 25,0 -2,2 v 7.60156 a 132,28 0 0 1 16,-0.96484 V 92 Z m 16,0 v 8.54883 a 132,28 0 0 1 4,-0.15625 V 97 h 2 v 3.32422 a 132,28 0 0 1 4,-0.11719 V 92 Z m 14,0 -2,2 v 6.1582 a 132,28 0 0 1 14,-0.1582 132,28 0 0 1 2,0.004 V 99 h -10 v -2 h 9 1 2 v 3.01367 a 132,28 0 0 1 4,0.0371 V 97 h 2 v 3.08008 a 132,28 0 0 1 16,0.46875 V 99 h -12 v -1 -1 h 12 v -5 h -16 -8 -1 z m 40,0 v 8.63867 a 132,28 0 0 1 8,0.42383 V 100 h 2 v 1.18555 a 132,28 0 0 1 6,0.41601 V 101 l -1,-1 -1,-1 h 2 v -7 z m 20,0 -2,2 v 7 h 10 v 1.64453 a 132,28 0 0 1 6,0.63672 V 99 h -10 v -2 h 10 l 5,-5 h -5 -1 z"
           transform="translate(0,796.36216)" />
      </g>
      <path
         id="path494"
         style="fill:#000000;stroke:url(#linearGradient1804);stroke-width:1;stroke-linecap:butt;stroke-linejoin:miter;stroke-miterlimit:4;stroke-dasharray:none"
         d="m -519,739.36216 22.63281,22.63086 0.11524,0.11719 c 2.49914,2.49977 5.88904,3.90421 9.42383,3.90429 h 13.32617 v -6.66406 -6.66211 -1.66601 h -0.10547 -4.89258 -3.33203 l -6.66211,6.66406 v -6.66406 l 3.33203,-3.33203 h 10.6875 c -2.03652,-5.03363 -6.92354,-8.3282 -12.35351,-8.32813 z m 113.79297,0 c -3.82445,1.2e-4 -7.46451,1.64338 -9.99414,4.51172 v 17.62695 c 2.52927,2.86907 6.16938,4.51306 9.99414,4.51367 0.557,-3e-4 1.11342,-0.0355 1.66601,-0.10546 v -8.22266 l 4.53321,6.79883 c 2.92118,-1.53466 5.1691,-4.09854 6.30859,-7.19532 l -4.17773,-6.26757 h 4.89257 c -0.83958,-6.66339 -6.50658,-11.66072 -13.22265,-11.66016 z m 23.32226,0 c -3.05105,1.6e-4 -5.98395,1.04832 -8.33007,2.92773 v 20.79688 c 2.3462,1.87923 5.27908,2.92773 8.33007,2.92773 7.35979,0 13.32618,-5.96638 13.32618,-13.32617 0,-7.35978 -5.96639,-13.32617 -13.32618,-13.32617 z m 19.98829,0 c -1.71305,-4e-5 -3.41004,0.3302 -4.99805,0.97266 v 24.70703 c 1.58801,0.64245 3.285,0.97269 4.99805,0.97265 1.71304,4e-5 3.41003,-0.3302 4.99804,-0.97265 v -24.70703 c -1.58801,-0.64245 -3.285,-0.9727 -4.99804,-0.97266 z m 19.98828,0 c -1.24341,1.9e-4 -2.48067,0.17441 -3.67578,0.51758 l -9.56055,14.3418 c 0.56089,4.84246 3.72114,8.99222 8.24023,10.82031 v -4.85742 l 4.9961,-7.4961 4.99804,7.4961 v 4.85742 c 4.51909,-1.82809 7.67935,-5.97784 8.24024,-10.82031 l -9.56055,-14.3418 c -1.19574,-0.34335 -2.43367,-0.51757 -3.67773,-0.51758 z m 29.98437,0 v 0.42383 6.71484 l -8.52148,-6.08594 c -2.74812,1.16225 -5.02667,3.21315 -6.47071,5.82422 v 12.90235 c 1.77303,3.20262 4.78545,5.53486 8.33008,6.44922 v -5.04883 l 6.95703,4.96875 c 2.19037,-0.61991 4.18543,-1.79058 5.79493,-3.40039 h 0.002 l 22.748,-22.74805 z m -154.44922,2.60742 a 13.407647,13.407647 0 0 0 -0.89648,0.7168 c 4.9e-4,-0.0241 0.002,-0.048 0.002,-0.0723 a 13.397264,13.397264 0 0 0 -4.63867,10.13672 13.397264,13.397264 0 0 0 2.35352,7.58398 13.397264,13.397264 0 0 0 0.14257,0.20313 13.407647,13.407647 0 0 0 10.94532,5.66601 13.407647,13.407647 0 0 0 13.4082,-13.4082 13.407647,13.407647 0 0 0 -5.16602,-10.57031 13.407647,13.407647 0 0 0 -0.33398,-0.25586 7.9246211,7.9246211 0 0 1 -5.68555,7.11914 8.373287,8.373287 0 0 1 -0.0742,0.0215 7.9246211,7.9246211 0 0 1 -0.0508,0.0137 8.373287,8.373287 0 0 1 -0.18554,0.0469 8.373287,8.373287 0 0 1 -1.95704,0.23242 8.373287,8.373287 0 0 1 -0.47265,-0.0137 7.9246211,7.9246211 0 0 1 -0.0137,0 8.373287,8.373287 0 0 1 -0.17774,-0.0137 7.9246211,7.9246211 0 0 1 -7.19922,-7.40625 z"
         inkscape:export-filename="C:\Users\Georg Eckert\Entwicklung\GuardianMonsters\GM_logo_hires.png"
         inkscape:export-xdpi="756.73999"
         inkscape:export-ydpi="756.73999" />
      <path
         id="path1234"
         style="fill:#000000;stroke:url(#linearGradient1237);stroke-width:1;stroke-miterlimit:4;stroke-dasharray:none"
         d="m -401.62891,748.36216 c -4.52683,0.002 -9.05254,0.0263 -13.57226,0.0723 v 13.06641 c 2.52927,2.86906 6.16938,4.51305 9.99414,4.51367 0.557,-3.1e-4 1.11342,-0.0355 1.66601,-0.10547 v -8.22266 l 4.53321,6.79883 c 2.92118,-1.53466 5.1691,-4.09854 6.30859,-7.19531 l -4.17773,-6.26758 h 4.89257 c -0.11513,-0.91375 -0.32828,-1.79227 -0.61523,-2.63476 -2.81348,-0.0169 -5.62832,-0.0254 -8.44336,-0.0254 z m 11.41407,0.041 v 14.68359 c 2.3462,1.87923 5.27908,2.92774 8.33007,2.92774 7.35979,0 13.32618,-5.96638 13.32618,-13.32617 0,-1.37996 -0.21025,-2.71105 -0.59961,-3.96289 -6.99116,-0.16028 -14.01611,-0.26779 -21.05664,-0.32227 z m 23.32031,0.37695 v 16.26172 c 1.58801,0.64245 3.285,0.9727 4.99805,0.97266 1.71304,4e-5 3.41003,-0.33021 4.99804,-0.97266 v -15.97851 c -3.32132,-0.10641 -6.65401,-0.20083 -9.99609,-0.28321 z m 15.07422,0.45508 -3.32422,4.98633 c 0.56089,4.84247 3.72114,8.99222 8.24023,10.82031 v -2.85742 l 4.9961,-7.49609 4.99804,7.49609 v 2.85742 c 4.51909,-1.82808 7.67935,-5.97784 8.24024,-10.82031 l -2.73047,-4.0957 c -6.73592,-0.34774 -13.54839,-0.64487 -20.41992,-0.89063 z m 24.90429,1.12891 v 8.77734 c 1.77303,3.20263 4.78545,5.53486 8.33008,6.44922 v -5.04883 l 6.95703,4.96875 c 2.19037,-0.6199 4.18543,-1.79058 5.79493,-3.40039 h 0.002 l 9.64453,-9.64453 c -9.98174,-0.81985 -20.24604,-1.52184 -30.72852,-2.10156 z m -154.91601,0.6582 -6.66211,6.66406 v -6.51172 c -5.88679,0.39129 -11.69154,0.82192 -17.40234,1.29102 l 9.52929,9.52734 0.11524,0.11719 c 2.49914,2.49977 5.88905,3.90421 9.42383,3.90429 h 13.32617 v -6.66406 -6.66211 -1.66601 h -0.10547 -4.89258 z"
         sodipodi:nodetypes="cccccccccccscccsscccccccccccccccccccccccccccccccccccccccccc"
         inkscape:export-filename="C:\Users\Georg Eckert\Entwicklung\GuardianMonsters\GM_logo_hires.png"
         inkscape:export-xdpi="756.73999"
         inkscape:export-ydpi="756.73999" />
      <g
         id="g1437"
         clip-path="url(#clipPath1439)"
         inkscape:export-filename="C:\Users\Georg Eckert\Entwicklung\GuardianMonsters\GM_logo_hires.png"
         inkscape:export-xdpi="756.73999"
         inkscape:export-ydpi="756.73999">
        <path
           id="path1429"
           style="fill:#000000;stroke:url(#linearGradient1432);stroke-width:1;stroke-linecap:butt;stroke-linejoin:miter;stroke-miterlimit:4;stroke-dasharray:none"
           d="m -454.47266,-66.765625 c -5.40935,0.0533 -10.10051,3.752283 -11.41406,9 l -0.004,0.01563 c -0.28213,0.930934 -0.4256,1.898348 -0.42579,2.871094 -7e-5,0.987079 0.14739,1.968625 0.4375,2.912109 1.3335,5.276927 6.08063,8.974056 11.52344,8.974609 6.56481,-1.17e-4 11.8866,-5.321913 11.88672,-11.886718 -1.2e-4,-6.564806 -5.32191,-11.886602 -11.88672,-11.886719 -0.0391,-1.93e-4 -0.0781,-1.93e-4 -0.11719,0 z"
           transform="translate(0,796.36216)"
           sodipodi:nodetypes="csccccccc" />
        <path
           id="path1417"
           style="fill:#000000;stroke:url(#linearGradient1426);stroke-width:1;stroke-linecap:butt;stroke-linejoin:miter;stroke-miterlimit:4;stroke-dasharray:none"
           d="m -456.41016,-64.785156 c -5.47118,-2.62e-4 -9.90651,4.435071 -9.90625,9.90625 -2.6e-4,5.471179 4.43507,9.906512 9.90625,9.90625 5.47118,2.62e-4 9.90651,-4.435071 9.90625,-9.90625 2.6e-4,-5.471179 -4.43507,-9.906512 -9.90625,-9.90625 z"
           transform="translate(0,796.36216)"
           sodipodi:nodetypes="ccccc" />
      </g>
      <path
         id="path1443"
         style="fill:none;stroke:url(#linearGradient1204);stroke-width:1;stroke-linecap:butt;stroke-linejoin:miter;stroke-miterlimit:4;stroke-dasharray:none"
         d="m -519,739.36216 22.63281,22.63086 0.11524,0.11719 c 2.49914,2.49977 5.88904,3.90421 9.42383,3.90429 h 13.32617 v -6.66406 -6.66211 -1.66601 h -0.10547 -4.89258 -3.33203 l -6.66211,6.66406 v -6.66406 l 3.33203,-3.33203 h 10.6875 c -2.03652,-5.03363 -6.92354,-8.3282 -12.35351,-8.32813 z m 113.79297,0 c -3.82445,1.2e-4 -7.46451,1.64338 -9.99414,4.51172 v 17.62695 c 2.52927,2.86907 6.16938,4.51306 9.99414,4.51367 0.557,-3e-4 1.11342,-0.0355 1.66601,-0.10546 v -8.22266 l 4.53321,6.79883 c 2.92118,-1.53466 5.1691,-4.09854 6.30859,-7.19532 l -4.17773,-6.26757 h 4.89257 c -0.83958,-6.66339 -6.50658,-11.66072 -13.22265,-11.66016 z m 23.32226,0 c -3.05105,1.6e-4 -5.98395,1.04832 -8.33007,2.92773 v 20.79688 c 2.3462,1.87923 5.27908,2.92773 8.33007,2.92773 7.35979,0 13.32618,-5.96638 13.32618,-13.32617 0,-7.35978 -5.96639,-13.32617 -13.32618,-13.32617 z m 19.98829,0 c -1.71305,-4e-5 -3.41004,0.3302 -4.99805,0.97266 v 24.70703 c 1.58801,0.64245 3.285,0.97269 4.99805,0.97265 1.71304,4e-5 3.41003,-0.3302 4.99804,-0.97265 v -24.70703 c -1.58801,-0.64245 -3.285,-0.9727 -4.99804,-0.97266 z m 19.98828,0 c -1.24341,1.9e-4 -2.48067,0.17441 -3.67578,0.51758 l -9.56055,14.3418 c 0.56089,4.84246 3.72114,8.99222 8.24023,10.82031 v -2.85742 l 4.9961,-7.4961 4.99804,7.4961 v 2.85742 c 4.51909,-1.82809 7.67935,-5.97784 8.24024,-10.82031 l -9.56055,-14.3418 c -1.19574,-0.34335 -2.43367,-0.51757 -3.67773,-0.51758 z m 29.98437,0 v 0.42383 6.71484 l -8.52148,-6.08594 c -2.74812,1.16225 -5.02667,3.21315 -6.47071,5.82422 v 12.90235 c 1.77303,3.20262 4.78545,5.53486 8.33008,6.44922 v -5.04883 l 6.95703,4.96875 c 2.19037,-0.61991 4.18543,-1.79058 5.79493,-3.40039 h 0.002 l 22.748,-22.74805 z m -154.44922,2.60742 c -0.30892,0.22603 -0.60802,0.46518 -0.89648,0.7168 4.9e-4,-0.0241 0.002,-0.048 0.002,-0.0723 -2.94532,2.54464 -4.63837,6.2444 -4.63867,10.13672 7e-5,2.70774 0.82063,5.35191 2.35352,7.58398 0.0469,0.0682 0.0944,0.13586 0.14257,0.20313 2.51272,3.55303 6.59356,5.66554 10.94532,5.66601 7.40527,3.1e-4 13.40851,-6.00293 13.4082,-13.4082 -0.002,-4.13115 -1.90751,-8.03091 -5.16602,-10.57031 -0.10998,-0.087 -0.22132,-0.17233 -0.33398,-0.25586 -0.20528,3.33418 -2.47931,6.18161 -5.68555,7.11914 -0.0247,0.007 -0.0494,0.0144 -0.0742,0.0215 -0.0169,0.005 -0.0338,0.009 -0.0508,0.0137 -0.0617,0.0163 -0.12352,0.032 -0.18554,0.0469 -0.64092,0.15424 -1.29782,0.23225 -1.95704,0.23242 -0.15765,-1.1e-4 -0.31526,-0.005 -0.47265,-0.0137 h -0.0137 c -0.0593,-0.004 -0.11854,-0.009 -0.17774,-0.0137 -3.89996,-0.35105 -6.95885,-3.49791 -7.19922,-7.40625 z"
         sodipodi:nodetypes="cccccccccccccccccccccccccccccccssccccccccccccccccccccccccccccccccccccscccccscssccccc"
         inkscape:export-filename="C:\Users\Georg Eckert\Entwicklung\GuardianMonsters\GM_logo_hires.png"
         inkscape:export-xdpi="756.73999"
         inkscape:export-ydpi="756.73999" />
      <path
         id="path1758"
         style="fill:#000000;fill-opacity:1;stroke:#000000;stroke-width:2.7601;stroke-miterlimit:4;stroke-dasharray:none"
         d="m -462.68423,771.85742 4.60016,4.60016 v 2.63105 7.48931 h 3.68013 v -10.12036 h 1.84007 v 10.12036 h 3.68013 v -10.12036 h 1.84007 v 10.12036 h 3.68013 v -14.72052 h -13.8005 -0.92003 -3.68013 z m 23.00082,0 -1.84007,1.84006 v 12.88046 h 12.88046 l 1.84007,-1.84006 v -12.88046 z m 14.72052,0 v 14.72052 h 3.68013 v -10.12036 h 1.84007 v 10.12036 h 3.68013 1.84007 1.84006 11.04039 l 1.84007,-1.84006 v -6.44023 h -9.20033 v -1.84007 h 8.2803 0.92003 1.84007 v 10.12036 h 3.68013 v -10.12036 h 1.84006 v 9.20033 0.92003 h 3.68013 11.0404 v -2.7601 -0.92003 -0.92003 h -11.0404 v -0.92003 -0.92004 h 11.0404 v -1.84006 h -11.0404 v -0.92004 -0.92003 h 11.0404 v -4.60016 h -14.72053 -7.36026 -0.92003 -11.96043 l -1.84006,1.84006 v 6.44023 h 9.20032 v 1.84007 h -7.36026 -1.84006 -1.84007 v -10.12036 z m 49.68177,0 v 14.72052 h 7.36026 v -7.36026 h 1.84007 v 7.36026 h 1.84007 3.68013 3.68013 11.04039 L -344,784.73788 v -6.44023 h -9.20033 v -1.84007 H -344 l 4.60016,-4.60016 H -344 h -0.92004 -11.96042 l -1.84007,1.84006 v 6.44023 h 9.20033 v 1.84007 h -8.2803 -0.92003 -1.84006 v -1.84007 l -0.92004,-0.92003 -0.92003,-0.92003 h 1.84007 v -6.44023 z"
         sodipodi:nodetypes="cccccccccccccccccccccccccccccccccccccccccccccccccccccccccccccccccccccccccccccccccccccccccccccccccccccccccccc" />
      <path
         id="path1760"
         style="fill:#000000;fill-opacity:1;stroke:url(#radialGradient1768);stroke-width:1.84007;stroke-miterlimit:4;stroke-dasharray:none"
         d="m -462.68423,771.85742 4.60016,4.60016 v 2.63105 7.48931 h 3.68013 v -10.12036 h 1.84007 v 10.12036 h 3.68013 v -10.12036 h 1.84007 v 10.12036 h 3.68013 v -14.72052 h -13.8005 -0.92003 -3.68013 z m 23.00082,0 -1.84007,1.84006 v 12.88046 h 12.88046 l 1.84007,-1.84006 v -12.88046 z m 14.72052,0 v 14.72052 h 3.68013 v -10.12036 h 1.84007 v 10.12036 h 3.68013 1.84007 1.84006 11.04039 l 1.84007,-1.84006 v -6.44023 h -9.20033 v -1.84007 h 8.2803 0.92003 1.84007 v 10.12036 h 3.68013 v -10.12036 h 1.84006 v 9.20033 0.92003 h 3.68013 11.0404 v -2.7601 -0.92003 -0.92003 h -11.0404 v -0.92003 -0.92004 h 11.0404 v -1.84006 h -11.0404 v -0.92004 -0.92003 h 11.0404 v -4.60016 h -14.72053 -7.36026 -0.92003 -11.96043 l -1.84006,1.84006 v 6.44023 h 9.20032 v 1.84007 h -7.36026 -1.84006 -1.84007 v -10.12036 z m 49.68177,0 v 14.72052 h 7.36026 v -7.36026 h 1.84007 v 7.36026 h 1.84007 3.68013 3.68013 11.04039 L -344,784.73788 v -6.44023 h -9.20033 v -1.84007 H -344 l 4.60016,-4.60016 H -344 h -0.92004 -11.96042 l -1.84007,1.84006 v 6.44023 h 9.20033 v 1.84007 h -8.2803 -0.92003 -1.84006 v -1.84007 l -0.92004,-0.92003 -0.92003,-0.92003 h 1.84007 v -6.44023 z"
         sodipodi:nodetypes="cccccccccccccccccccccccccccccccccccccccccccccccccccccccccccccccccccccccccccccccccccccccccccccccccccccccccccc" />
      <path
         id="path1762"
         style="fill:#000000;fill-opacity:1;stroke:none;stroke-width:0.460016;stroke-miterlimit:4;stroke-dasharray:none"
         d="m -462.68423,771.85742 4.60016,4.60016 v 2.63105 7.48931 h 3.68013 v -10.12036 h 1.84007 v 10.12036 h 3.68013 v -10.12036 h 1.84007 v 10.12036 h 3.68013 v -14.72052 h -13.8005 -0.92003 -3.68013 z m 23.00082,0 -1.84007,1.84006 v 12.88046 h 12.88046 l 1.84007,-1.84006 v -12.88046 z m 14.72052,0 v 14.72052 h 3.68013 v -10.12036 h 1.84007 v 10.12036 h 3.68013 1.84007 1.84006 11.04039 l 1.84007,-1.84006 v -6.44023 h -9.20033 v -1.84007 h 8.2803 0.92003 1.84007 v 10.12036 h 3.68013 v -10.12036 h 1.84006 v 9.20033 0.92003 h 3.68013 11.0404 v -2.7601 -0.92003 -0.92003 h -11.0404 v -0.92003 -0.92004 h 11.0404 v -1.84006 h -11.0404 v -0.92004 -0.92003 h 11.0404 v -4.60016 h -14.72053 -7.36026 -0.92003 -11.96043 l -1.84006,1.84006 v 6.44023 h 9.20032 v 1.84007 h -7.36026 -1.84006 -1.84007 v -10.12036 z m 49.68177,0 v 14.72052 h 7.36026 v -7.36026 h 1.84007 v 7.36026 h 1.84007 3.68013 3.68013 11.04039 L -344,784.73788 v -6.44023 h -9.20033 v -1.84007 H -344 l 4.60016,-4.60016 H -344 h -0.92004 -11.96042 l -1.84007,1.84006 v 6.44023 h 9.20033 v 1.84007 h -8.2803 -0.92003 -1.84006 v -1.84007 l -0.92004,-0.92003 -0.92003,-0.92003 h 1.84007 v -6.44023 z"
         sodipodi:nodetypes="cccccccccccccccccccccccccccccccccccccccccccccccccccccccccccccccccccccccccccccccccccccccccccccccccccccccccccc" />
      <path
         id="path1870"
         style="fill:#000000;fill-opacity:1;stroke:url(#linearGradient1878);stroke-width:0.460016;stroke-miterlimit:4;stroke-dasharray:none"
         d="m -462.68423,771.85742 4.60016,4.60016 v 2.63105 7.48931 h 3.68013 v -10.12036 h 1.84007 v 10.12036 h 3.68013 v -10.12036 h 1.84007 v 10.12036 h 3.68013 v -14.72052 h -13.8005 -0.92003 -3.68013 z m 23.00082,0 -1.84007,1.84006 v 12.88046 h 12.88046 l 1.84007,-1.84006 v -12.88046 z m 14.72052,0 v 14.72052 h 3.68013 v -10.12036 h 1.84007 v 10.12036 h 3.68013 1.84007 1.84006 11.04039 l 1.84007,-1.84006 v -6.44023 h -9.20033 v -1.84007 h 8.2803 0.92003 1.84007 v 10.12036 h 3.68013 v -10.12036 h 1.84006 v 9.20033 0.92003 h 3.68013 11.0404 v -2.7601 -0.92003 -0.92003 h -11.0404 v -0.92003 -0.92004 h 11.0404 v -1.84006 h -11.0404 v -0.92004 -0.92003 h 11.0404 v -4.60016 h -14.72053 -7.36026 -0.92003 -11.96043 l -1.84006,1.84006 v 6.44023 h 9.20032 v 1.84007 h -7.36026 -1.84006 -1.84007 v -10.12036 z m 49.68177,0 v 14.72052 h 7.36026 v -7.36026 h 1.84007 v 7.36026 h 1.84007 3.68013 3.68013 11.04039 L -344,784.73788 v -6.44023 h -9.20033 v -1.84007 H -344 l 4.60016,-4.60016 H -344 h -0.92004 -11.96042 l -1.84007,1.84006 v 6.44023 h 9.20033 v 1.84007 h -8.2803 -0.92003 -1.84006 v -1.84007 l -0.92004,-0.92003 -0.92003,-0.92003 h 1.84007 v -6.44023 z"
         sodipodi:nodetypes="cccccccccccccccccccccccccccccccccccccccccccccccccccccccccccccccccccccccccccccccccccccccccccccccccccccccccccc" />
      <path
         id="path1764"
         style="fill:url(#radialGradient1770);fill-opacity:1;stroke:none;stroke-width:0.460016;stroke-miterlimit:4;stroke-dasharray:none"
         d="m -462.68423,771.85742 4.60016,4.60016 v 2.63072 3.14824 a 121.44433,25.760918 0 0 1 3.68013,-0.39892 v -5.38004 h 1.84007 v 5.19315 a 121.44433,25.760918 0 0 1 3.68013,-0.3504 v -4.84275 h 1.84007 v 4.67923 a 121.44433,25.760918 0 0 1 3.68013,-0.30368 v -8.97571 h -13.8005 -0.92003 -3.68013 z m 23.00082,0 -1.84007,1.84006 v 6.99369 a 121.44433,25.760918 0 0 1 14.72053,-0.88769 v -7.94606 z m 14.72052,0 v 7.8652 a 121.44433,25.760918 0 0 1 3.68013,-0.14376 v -3.12128 h 1.84007 v 3.05839 a 121.44433,25.760918 0 0 1 3.68013,-0.10782 v -7.55073 z m 12.88046,0 -1.84006,1.84006 v 5.66575 a 121.44433,25.760918 0 0 1 12.88045,-0.14555 121.44433,25.760918 0 0 1 1.84007,0.004 v -0.92371 h -9.20033 v -1.84007 h 8.2803 0.92003 1.84007 v 2.77267 a 121.44433,25.760918 0 0 1 3.68013,0.0341 v -2.80681 h 1.84006 v 2.83377 a 121.44433,25.760918 0 0 1 14.72053,0.43127 v -1.42497 h -11.0404 v -0.92004 -0.92003 h 11.0404 v -4.60016 h -14.72053 -7.36026 -0.92003 z m 36.80131,0 v 7.94786 a 121.44433,25.760918 0 0 1 7.36026,0.38993 v -0.97753 h 1.84007 v 1.09074 a 121.44433,25.760918 0 0 1 5.5202,0.38275 v -0.55346 l -0.92004,-0.92003 -0.92003,-0.92003 h 1.84007 v -6.44023 z m 18.40066,0 -1.84007,1.84006 v 6.44023 h 9.20033 v 1.51302 a 121.44433,25.760918 0 0 1 5.5202,0.58581 v -3.93889 h -9.20033 v -1.84007 H -344 l 4.60016,-4.60016 H -344 h -0.92004 z" />
      <path
         style="fill:#ffffff;stroke:none;stroke-width:0.333334px;stroke-linecap:butt;stroke-linejoin:miter;stroke-opacity:1"
         d="m -347.78125,764.25879 c 0,7.38462 0,7.38462 8,7.38462 -8,0 -8,0 -8,7.38462 0,-7.38462 0,-7.38462 -8,-7.38462 8,0 8,0 8,-7.38462 z"
         id="path1880"
         sodipodi:nodetypes="ccccc" />
      <path
         style="fill:#ffffff;stroke:none;stroke-width:0.333334px;stroke-linecap:butt;stroke-linejoin:miter;stroke-opacity:1;filter:url(#filter2072)"
         d="m -347.78125,764.25879 c 0,7.38462 0,7.38462 8,7.38462 -8,0 -8,0 -8,7.38462 0,-7.38462 0,-7.38462 -8,-7.38462 8,0 8,0 8,-7.38462 z"
         id="path1974"
         sodipodi:nodetypes="ccccc" />
      <path
         style="fill:#ffffff;stroke:none;stroke-width:0.333334px;stroke-linecap:butt;stroke-linejoin:miter;stroke-opacity:1;filter:url(#filter2072)"
         d="m -347.78125,764.25879 c 0,7.38462 0,7.38462 8,7.38462 -8,0 -8,0 -8,7.38462 0,-7.38462 0,-7.38462 -8,-7.38462 8,0 8,0 8,-7.38462 z"
         id="path2076"
         sodipodi:nodetypes="ccccc" />
      <path
         style="fill:#ffffff;stroke:none;stroke-width:0.333334px;stroke-linecap:butt;stroke-linejoin:miter;stroke-opacity:1;filter:url(#filter2072)"
         d="m -347.78125,764.25879 c 0,7.38462 0,7.38462 8,7.38462 -8,0 -8,0 -8,7.38462 0,-7.38462 0,-7.38462 -8,-7.38462 8,0 8,0 8,-7.38462 z"
         id="path2078"
         sodipodi:nodetypes="ccccc" />
    </g>
    <text
       xml:space="preserve"
       style="font-style:normal;font-weight:normal;font-size:3.62399px;line-height:1.25;font-family:sans-serif;fill:#000000;fill-opacity:1;stroke:none;stroke-width:0.0905995"
       x="195.6956"
       y="942.93549"
       id="text1026"
       inkscape:export-filename="C:\Users\Georg Eckert\Entwicklung\GuardianMonsters\GM_logo_hires.png"
       inkscape:export-xdpi="764.32001"
       inkscape:export-ydpi="764.32001"><tspan
         sodipodi:role="line"
         id="tspan1024"
         x="195.6956"
         y="942.93549"
         style="font-style:normal;font-variant:normal;font-weight:300;font-stretch:normal;font-family:'Segoe UI';-inkscape-font-specification:'Segoe UI Light';stroke-width:0.0905995">BY GEORG ECKERT</tspan></text>
  </g>
</svg>
