<?xml version="1.0" encoding="UTF-8" standalone="no"?>
<!-- Created with Inkscape (http://www.inkscape.org/) -->

<svg
   xmlns:dc="http://purl.org/dc/elements/1.1/"
   xmlns:cc="http://creativecommons.org/ns#"
   xmlns:rdf="http://www.w3.org/1999/02/22-rdf-syntax-ns#"
   xmlns:svg="http://www.w3.org/2000/svg"
   xmlns="http://www.w3.org/2000/svg"
   xmlns:sodipodi="http://sodipodi.sourceforge.net/DTD/sodipodi-0.dtd"
   xmlns:inkscape="http://www.inkscape.org/namespaces/inkscape"
   width="128"
   height="128"
   viewBox="0 0 128 128"
   id="svg2"
   version="1.1"
   inkscape:version="0.91 r"
   sodipodi:docname="Zeichnung-1.svg">
  <defs
     id="defs4" />
  <sodipodi:namedview
     id="base"
     pagecolor="#ffffff"
     bordercolor="#666666"
     borderopacity="1.0"
     inkscape:pageopacity="0.0"
     inkscape:pageshadow="2"
     inkscape:zoom="0.7"
     inkscape:cx="193.34097"
     inkscape:cy="525.01169"
     inkscape:document-units="px"
     inkscape:current-layer="layer1"
     showgrid="true"
     inkscape:snap-object-midpoints="true"
     inkscape:snap-center="true"
     inkscape:window-width="1920"
     inkscape:window-height="1023"
     inkscape:window-x="0"
     inkscape:window-y="27"
     inkscape:window-maximized="1"
     units="px">
    <inkscape:grid
       type="axonomgrid"
       id="grid4136"
       units="mm"
       empspacing="5" />
  </sodipodi:namedview>
  <metadata
     id="metadata7">
    <rdf:RDF>
      <cc:Work
         rdf:about="">
        <dc:format>image/svg+xml</dc:format>
        <dc:type
           rdf:resource="http://purl.org/dc/dcmitype/StillImage" />
        <dc:title></dc:title>
      </cc:Work>
    </rdf:RDF>
  </metadata>
  <g
     inkscape:label="Ebene 1"
     inkscape:groupmode="layer"
     id="layer1"
     transform="translate(0,-924.36216)">
    <g
       id="g4138"
       transform="matrix(0.31717534,0,0,0.31717534,-23.595218,854.68332)">
      <path
         id="path4138"
         d="m 276.17383,219.68555 -9.72852,28.08203 9.72852,26.59961 9.72851,-26.59766 -9.72851,-28.08398 z m -30.68555,35.43164 0,9.73437 11.89649,10.83985 -3.41993,-15.67969 -8.47656,-4.89453 z m 61.3711,0 -8.47657,4.89453 -3.41992,15.67969 11.89649,-10.83985 0,-9.73437 z m -61.3711,19.25 0,18.97656 21.45899,8.49023 -19.23633,-26.24414 -2.22266,-1.22265 z m 61.3711,0 -2.22461,1.22265 -19.23243,26.24414 21.45704,-8.49023 0,-18.97656 z m 15.34374,28.78515 -27.01757,24.6211 -19.01172,78.32422 -19.01172,-78.32422 -27.01758,-24.61914 0,49.40429 -30.68555,-17.71679 76.71485,97.4414 76.71484,-97.4414 -30.68555,17.71679 0,-49.40625 z m -168.77539,111.41407 30.6875,17.71679 -42.78711,24.70313 34.83204,11.08594 77.33593,-22.69727 -58.32421,55.62695 -7.8125,35.70703 42.78515,-24.70117 -0.002,35.4336 46.0293,-115.15821 -122.74415,-17.71679 z m 245.49024,0.002 -122.74414,17.7168 46.02929,115.15625 0,-35.43164 42.78516,24.70312 -7.8125,-35.70898 -58.32617,-55.62696 77.33789,22.69727 34.82812,-11.08789 -42.7832,-24.70117 30.68555,-17.7168 z m 12.92383,60.60937 -18.08203,14.33985 32.34375,-3.53711 2.17187,-1.31445 -16.43359,-9.48829 z m -271.33789,0.002 -16.4336,9.48633 2.17188,1.31445 32.34375,3.53711 -18.08203,-14.33789 z m -24.67383,14.24414 -8.42969,4.86719 8.47656,4.89453 15.28907,-4.87891 -15.33594,-4.88281 z m 320.6875,0.002 -15.33789,4.88281 15.28711,4.87891 8.48047,-4.89453 -8.42969,-4.86719 z M 167.81445,505.5 l -13.10937,29.77734 0.0527,2.53907 16.4336,-9.48829 L 167.81445,505.5 Z m 216.71875,0 -3.37695,22.82812 16.43359,9.48829 0.0527,-2.53907 L 384.5332,505.5 Z m -245.11914,5.74023 -27.89844,4.87305 -19.458979,22.46875 0.002,0 29.183599,-5.61523 18.17187,-21.72657 z m 273.51758,0.002 18.16992,21.72461 29.1875,5.61718 0,-0.002 -19.45508,-22.46484 -27.90234,-4.875 z m -262.97656,15.60742 -11.86719,10.80078 -0.002,9.79102 8.42773,-4.86719 3.44141,-15.72461 z m 252.43554,0.002 3.43946,15.72266 8.43164,4.86719 -0.002,-9.78711 -11.86915,-10.80274 z"
         style="fill:#ff8080;fill-rule:evenodd;stroke:none;stroke-width:1px;stroke-linecap:butt;stroke-linejoin:miter;stroke-opacity:1"
         inkscape:connector-curvature="0" />
      <path
         inkscape:transform-center-y="35.433"
         inkscape:transform-center-x="-0.00031896244"
         inkscape:connector-curvature="0"
         id="path4153"
         d="m 125.0046,312.18516 11.28452,25.63227 22.16217,26.49811 -34.0284,-5.94488 -27.841421,3.04641 54.771611,17.47655 -16.04077,5.10594 -8.47515,14.3343 20.27582,-12.27309 27.84142,-3.04474 -24.51424,19.44192 6.65101,32.79606 0.91124,-23.56602 32.07984,-10.21357 66.57058,19.53775 -50.20534,-47.88187 -7.19573,-32.88683 19.95302,-12.57235 -31.72678,10.63556 -4.57972,30.95172 -11.28451,-25.63227 0.49092,-23.69883 -8.1759,14.50915 3.59619,16.44257 -42.52038,-38.69386 z m 302.33667,0.002 -42.52038,38.69387 3.59787,-16.44426 -8.17589,-14.50746 0.49092,23.69714 -11.28453,25.63395 -4.57971,-30.95172 -31.72677,-10.63724 19.95302,12.57235 -7.19574,32.88684 -50.20535,47.88355 66.5706,-19.53775 32.07815,10.21188 0.91124,23.56602 6.65269,-32.79605 -24.51424,-19.44025 27.83975,3.04306 20.2775,12.27477 -8.47517,-14.33598 -16.04075,-5.10594 54.7716,-17.47655 -27.84142,-3.04473 -34.02841,5.94488 22.16218,-26.4981 11.28284,-25.63228 z m -151.16749,142.63686 -16.36525,67.4213 -24.8841,22.67496 -20.86427,-10.99367 25.07578,22.15882 29.09395,-11.5098 -16.5569,22.5892 -20.76843,11.42238 16.65274,-0.17148 12.4429,-11.33832 -12.25124,56.17041 L 264.30587,600.66 276.17378,568.21702 288.04,600.66 l 16.55691,22.58754 -12.25123,-56.17041 12.4429,11.33832 16.65273,0.17148 -20.76842,-11.42238 -16.55691,-22.5892 29.09395,11.5098 25.07578,-22.15882 -20.86426,10.99367 -24.88243,-22.67496 -16.36524,-67.4213 z"
         style="fill:#d40000;fill-rule:evenodd;stroke:none;stroke-width:1px;stroke-linecap:butt;stroke-linejoin:miter;stroke-opacity:1" />
    </g>
  </g>
</svg>
