<?xml version="1.0" encoding="UTF-8" standalone="no"?>
<svg
   xmlns:dc="http://purl.org/dc/elements/1.1/"
   xmlns:cc="http://creativecommons.org/ns#"
   xmlns:rdf="http://www.w3.org/1999/02/22-rdf-syntax-ns#"
   xmlns:svg="http://www.w3.org/2000/svg"
   xmlns="http://www.w3.org/2000/svg"
   xmlns:xlink="http://www.w3.org/1999/xlink"
   xmlns:sodipodi="http://sodipodi.sourceforge.net/DTD/sodipodi-0.dtd"
   xmlns:inkscape="http://www.inkscape.org/namespaces/inkscape"
   width="191"
   height="192"
   viewBox="0 0 50.535416 50.800002"
   version="1.1"
   id="svg8"
   inkscape:version="1.0.1 (3bc2e813f5, 2020-09-07)"
   sodipodi:docname="adaptive.svg">
  <defs
     id="defs2">
    <linearGradient
       inkscape:collect="always"
       id="linearGradient4552">
      <stop
         style="stop-color:#ff2a2a;stop-opacity:1"
         offset="0"
         id="stop4548" />
      <stop
         style="stop-color:#800000;stop-opacity:1"
         offset="1"
         id="stop4550" />
    </linearGradient>
    <radialGradient
       inkscape:collect="always"
       xlink:href="#linearGradient4552"
       id="radialGradient4556"
       cx="96.950874"
       cy="161.10876"
       fx="96.950874"
       fy="161.10876"
       r="18.974798"
       gradientTransform="matrix(0.9969914,0,0,0.99699128,-35.804986,-145.35122)"
       gradientUnits="userSpaceOnUse" />
    <radialGradient
       inkscape:collect="always"
       xlink:href="#linearGradient4552"
       id="radialGradient838"
       cx="55.146671"
       cy="160.63321"
       fx="55.146671"
       fy="160.63321"
       r="19.049999"
       gradientUnits="userSpaceOnUse"
       gradientTransform="matrix(1.2504339,0,0,1.2504339,-49.907267,-187.14323)" />
  </defs>
  <sodipodi:namedview
     id="base"
     pagecolor="#ffffff"
     bordercolor="#666666"
     borderopacity="1.0"
     inkscape:pageopacity="0.0"
     inkscape:pageshadow="2"
     inkscape:zoom="1.4142136"
     inkscape:cx="142.08187"
     inkscape:cy="160.68155"
     inkscape:document-units="mm"
     inkscape:current-layer="layer1"
     showgrid="true"
     inkscape:window-width="1920"
     inkscape:window-height="1008"
     inkscape:window-x="0"
     inkscape:window-y="0"
     inkscape:window-maximized="1"
     inkscape:snap-bbox="true"
     inkscape:bbox-nodes="true"
     inkscape:snap-object-midpoints="true"
     inkscape:object-paths="true"
     inkscape:snap-bbox-midpoints="true"
     inkscape:snap-bbox-edge-midpoints="true"
     inkscape:bbox-paths="false"
     inkscape:snap-intersection-paths="true"
     inkscape:snap-center="true"
     inkscape:document-rotation="0"
     units="px">
    <inkscape:grid
       type="xygrid"
       id="grid65"
       empspacing="4" />
  </sodipodi:namedview>
  <metadata
     id="metadata5">
    <rdf:RDF>
      <cc:Work
         rdf:about="">
        <dc:format>image/svg+xml</dc:format>
        <dc:type
           rdf:resource="http://purl.org/dc/dcmitype/StillImage" />
        <dc:title></dc:title>
      </cc:Work>
    </rdf:RDF>
  </metadata>
  <g
     inkscape:label="Ebene 1"
     inkscape:groupmode="layer"
     id="layer1">
    <rect
       style="opacity:1;fill:url(#radialGradient838);fill-opacity:1;stroke:none;stroke-width:0.260968;stroke-linecap:round;stroke-linejoin:bevel;stroke-miterlimit:4;stroke-dasharray:none;stroke-dashoffset:0;stroke-opacity:1;paint-order:normal"
       id="rect824"
       width="38.099998"
       height="38.099998"
       x="0"
       y="0" />
    <path
       inkscape:connector-curvature="0"
       id="path3726"
       d="m 57.94551,37.947729 c -4.640229,-0.26008 -7.830575,-0.96522 -10.26494,-2.2688 -1.12293,-0.60131 -2.903939,-2.40609 -3.504857,-3.55164 -0.977144,-1.86276 -1.703317,-4.58771 -2.078135,-7.79816 -0.216321,-1.85286 -0.214323,-8.83623 0.0033,-10.73267 0.546895,-4.7708501 1.636113,-7.6688301 3.63131,-9.6614201 1.56313,-1.5611 3.294139,-2.38369 6.500878,-3.08932997 2.452326,-0.53963 4.592161,-0.71532 8.689275,-0.71342 6.385056,0.003 10.069616,0.63863 13.096336,2.25939997 1.10818,0.59342 2.90437,2.40678 3.48949,3.52286 0.99886,1.90521 1.75511,4.7144301 2.08753,7.7544301 0.23668,2.1645 0.23455,8.73546 -0.004,10.8777 -0.50089,4.507 -1.57403,7.45013 -3.43177,9.41181 -2.51659,2.65742 -6.72108,3.83793 -14.183526,3.98238 -1.698027,0.0329 -3.512024,0.036 -4.031118,0.007 z"
       style="fill:url(#radialGradient4556);fill-opacity:1;stroke-width:0.145118"
       inkscape:export-xdpi="687.44"
       inkscape:export-ydpi="687.44"
       clip-path="none" />
    <path
       style="fill:#550000;fill-opacity:1;stroke-width:0.145118"
       d="m 41.939389,18.475949 c -0.0097,2.377009 0.04168,4.855977 0.158131,5.85339 0.374817,3.210449 1.101283,5.935213 2.078426,7.797975 0.600917,1.145548 2.381766,2.950411 3.504695,3.551719 2.434273,1.303531 5.62455,2.008492 10.264489,2.268596 h 5.29e-4 c 0.519531,0.02898 2.333094,0.02617 4.030761,-0.0067 7.462446,-0.144449 11.66704,-1.324766 14.183629,-3.982185 1.857741,-1.961679 2.930943,-4.904827 3.431834,-9.411827 0.129487,-1.162831 0.186431,-3.625609 0.176215,-5.985166 -0.0092,2.004713 -0.06623,3.939098 -0.176215,4.926832 -0.500891,4.507 -1.574093,7.450148 -3.431834,9.411827 -2.516589,2.65742 -6.721183,3.837737 -14.183629,3.982186 -1.697667,0.03289 -3.51123,0.0357 -4.030761,0.0067 H 57.94513 C 53.305191,36.629191 50.114914,35.92423 47.680641,34.6207 46.557712,34.019392 44.776863,32.214529 44.175946,31.068981 43.198803,29.206219 42.472337,26.481455 42.09752,23.271006 41.998513,22.422972 41.947189,20.493847 41.939389,18.475949 Z"
       id="path4592" />
  </g>
</svg>
