<?xml version="1.0" encoding="UTF-8" standalone="no"?>
<!-- Created with Inkscape (http://www.inkscape.org/) -->

<svg
   xmlns:dc="http://purl.org/dc/elements/1.1/"
   xmlns:cc="http://creativecommons.org/ns#"
   xmlns:rdf="http://www.w3.org/1999/02/22-rdf-syntax-ns#"
   xmlns:svg="http://www.w3.org/2000/svg"
   xmlns="http://www.w3.org/2000/svg"
   xmlns:sodipodi="http://sodipodi.sourceforge.net/DTD/sodipodi-0.dtd"
   xmlns:inkscape="http://www.inkscape.org/namespaces/inkscape"
   width="210mm"
   height="297mm"
   viewBox="0 0 210 297"
   version="1.1"
   id="svg8"
   inkscape:version="0.92.0 unknown"
   sodipodi:docname="woods.svg">
  <defs
     id="defs2" />
  <sodipodi:namedview
     id="base"
     pagecolor="#ffffff"
     bordercolor="#666666"
     borderopacity="1.0"
     inkscape:pageopacity="0.0"
     inkscape:pageshadow="2"
     inkscape:zoom="2.8"
     inkscape:cx="87.734146"
     inkscape:cy="493.16784"
     inkscape:document-units="mm"
     inkscape:current-layer="layer1"
     showgrid="false"
     inkscape:window-width="1920"
     inkscape:window-height="1022"
     inkscape:window-x="0"
     inkscape:window-y="30"
     inkscape:window-maximized="1" />
  <metadata
     id="metadata5">
    <rdf:RDF>
      <cc:Work
         rdf:about="">
        <dc:format>image/svg+xml</dc:format>
        <dc:type
           rdf:resource="http://purl.org/dc/dcmitype/StillImage" />
        <dc:title></dc:title>
      </cc:Work>
    </rdf:RDF>
  </metadata>
  <g
     inkscape:label="Ebene 1"
     inkscape:groupmode="layer"
     id="layer1">
    <path
       style="opacity:0.5;fill:#000000;fill-opacity:1;stroke:none;stroke-width:0.43719503;stroke-linecap:round;stroke-linejoin:miter;stroke-miterlimit:4;stroke-dasharray:none;stroke-dashoffset:0;stroke-opacity:0.99607843"
       d="M -65.123047 519.63672 L -65.123047 711.63672 L 254.87695 711.63672 L 254.87695 519.63672 L -65.123047 519.63672 z M 137.54492 525.12695 A 10.064965 10.064965 0 0 0 139.48242 526.78125 A 10.064965 10.064965 0 0 0 147.49805 528.05664 A 6.737704 6.737704 0 0 0 147.2793 528.35938 A 6.737704 6.737704 0 0 0 148.57031 537.14453 A 5.1572545 5.1572545 0 0 0 146.65039 538.89844 A 5.1572545 5.1572545 0 0 0 146.04883 543.21289 A 8.0686079 8.0686079 0 0 0 139.28125 545.39648 A 5.1572545 5.1572545 0 0 0 137.13281 542.50195 A 5.1572545 5.1572545 0 0 0 130.00195 544.02734 A 5.1572545 5.1572545 0 0 0 129.88477 544.22266 A 10.064965 10.064965 0 0 0 127.78711 542.39648 A 10.064965 10.064965 0 0 0 125.02344 541.16211 A 8.0686079 8.0686079 0 0 0 127.80469 538.54297 A 8.0686079 8.0686079 0 0 0 128.02734 530.15039 A 6.0722516 6.0722516 0 0 0 132.63867 527.40234 A 6.0722516 6.0722516 0 0 0 133.29688 526.02344 A 6.0722516 6.0722516 0 0 0 137.54492 525.12695 z M 46.652344 529.50391 A 5.1138965 5.1138965 0 0 0 46.638672 529.78516 A 5.1138965 5.1138965 0 0 0 51.753906 534.89844 A 5.1138965 5.1138965 0 0 0 52.919922 534.75781 A 3.9143407 3.9143407 0 0 0 52.699219 536.03516 A 3.9143407 3.9143407 0 0 0 54.316406 539.19922 A 6.1240493 6.1240493 0 0 0 48.570312 543.9375 A 3.9143407 3.9143407 0 0 0 46.007812 542.98047 A 3.9143407 3.9143407 0 0 0 42.09375 546.89453 A 3.9143407 3.9143407 0 0 0 42.099609 547.06641 A 7.6392778 7.6392778 0 0 0 40.009766 546.76758 A 7.6392778 7.6392778 0 0 0 37.740234 547.12109 A 6.1240493 6.1240493 0 0 0 38.431641 544.30664 A 6.1240493 6.1240493 0 0 0 35.111328 538.86719 A 4.6088201 4.6088201 0 0 0 36.916016 535.21484 A 4.6088201 4.6088201 0 0 0 34.431641 531.12891 A 4.6088201 4.6088201 0 0 0 35.734375 529.85742 A 7.6392778 7.6392778 0 0 0 41.019531 531.99414 A 7.6392778 7.6392778 0 0 0 46.652344 529.50391 z M -36.630859 539.69531 A 11.372844 11.372844 0 0 0 -25.304688 543.12695 A 11.372844 11.372844 0 0 0 -20.566406 540.57031 A 14.186744 14.186744 0 0 0 -20.142578 544.81445 A 14.186744 14.186744 0 0 0 -18.632812 548.43164 A 7.2692405 7.2692405 0 0 0 -18.945312 548.50195 A 7.2692405 7.2692405 0 0 0 -24.154297 557.36328 A 7.2692405 7.2692405 0 0 0 -21.236328 561.52344 A 11.372844 11.372844 0 0 0 -27.164062 569.60547 A 7.2692405 7.2692405 0 0 0 -33.203125 568.49414 A 7.2692405 7.2692405 0 0 0 -36.402344 570.2832 A 9.4969118 9.4969118 0 0 0 -47.580078 564.65234 A 9.4969118 9.4969118 0 0 0 -48.082031 564.81055 A 14.186744 14.186744 0 0 0 -46.226562 553.52148 A 14.186744 14.186744 0 0 0 -47.580078 550.19531 A 8.5589449 8.5589449 0 0 0 -44.492188 544.91016 A 8.5589449 8.5589449 0 0 0 -42.355469 544.64258 A 8.5589449 8.5589449 0 0 0 -36.630859 539.69531 z M 204.69336 546.93359 A 11.372844 11.372844 0 0 0 214.40039 553.70312 A 11.372844 11.372844 0 0 0 219.69727 552.73828 A 14.186744 14.186744 0 0 0 218.78516 556.90625 A 14.186744 14.186744 0 0 0 219.10352 560.8125 A 7.2692405 7.2692405 0 0 0 218.7832 560.7832 A 7.2692405 7.2692405 0 0 0 211.08789 567.5957 A 7.2692405 7.2692405 0 0 0 212.57227 572.45508 A 11.372844 11.372844 0 0 0 204.43359 578.30469 A 7.2692405 7.2692405 0 0 0 199.03711 575.37891 A 7.2692405 7.2692405 0 0 0 195.44141 576.08789 A 9.4969118 9.4969118 0 0 0 186.55469 567.27539 A 9.4969118 9.4969118 0 0 0 186.0293 567.27148 A 14.186744 14.186744 0 0 0 191.28711 557.11133 A 14.186744 14.186744 0 0 0 191.03125 553.5293 L 191.0332 553.52734 A 8.5589449 8.5589449 0 0 0 195.60352 549.45898 A 8.5589449 8.5589449 0 0 0 197.71875 549.86523 A 8.5589449 8.5589449 0 0 0 204.69336 546.93359 z M 109.86719 573.78906 A 5.1138965 5.1138965 0 0 0 109.85352 574.07031 A 5.1138965 5.1138965 0 0 0 114.96875 579.18359 A 5.1138965 5.1138965 0 0 0 116.13477 579.04297 A 3.9143407 3.9143407 0 0 0 115.91406 580.32031 A 3.9143407 3.9143407 0 0 0 117.53125 583.48438 A 6.1240493 6.1240493 0 0 0 111.78516 588.22266 A 3.9143407 3.9143407 0 0 0 109.22266 587.26562 A 3.9143407 3.9143407 0 0 0 105.30859 591.17969 A 3.9143407 3.9143407 0 0 0 105.31445 591.35156 A 7.6392778 7.6392778 0 0 0 103.22461 591.05273 A 7.6392778 7.6392778 0 0 0 100.95508 591.40625 A 6.1240493 6.1240493 0 0 0 101.64648 588.5918 A 6.1240493 6.1240493 0 0 0 98.326172 583.15234 A 4.6088201 4.6088201 0 0 0 100.13086 579.5 A 4.6088201 4.6088201 0 0 0 97.646484 575.41406 A 4.6088201 4.6088201 0 0 0 98.949219 574.14258 A 7.6392778 7.6392778 0 0 0 104.23438 576.2793 A 7.6392778 7.6392778 0 0 0 109.86719 573.78906 z M 17.544922 589.76953 A 10.064965 10.064965 0 0 0 19.482422 591.42383 A 10.064965 10.064965 0 0 0 27.498047 592.69922 A 6.737704 6.737704 0 0 0 27.279297 593.00195 A 6.737704 6.737704 0 0 0 28.570312 601.78711 A 5.1572545 5.1572545 0 0 0 26.650391 603.54102 A 5.1572545 5.1572545 0 0 0 26.048828 607.85547 A 8.0686079 8.0686079 0 0 0 19.28125 610.03906 A 5.1572545 5.1572545 0 0 0 17.132812 607.14453 A 5.1572545 5.1572545 0 0 0 10.001953 608.66992 A 5.1572545 5.1572545 0 0 0 9.8847656 608.86523 A 10.064965 10.064965 0 0 0 7.7871094 607.03906 A 10.064965 10.064965 0 0 0 5.0234375 605.80469 A 8.0686079 8.0686079 0 0 0 7.8046875 603.18555 A 8.0686079 8.0686079 0 0 0 8.0273438 594.79297 A 6.0722516 6.0722516 0 0 0 12.638672 592.04492 A 6.0722516 6.0722516 0 0 0 13.296875 590.66602 A 6.0722516 6.0722516 0 0 0 17.544922 589.76953 z M 238.43945 612.7168 L 238.43945 612.71875 A 5.1138965 5.1138965 0 0 0 238.42578 612.99805 A 5.1138965 5.1138965 0 0 0 243.54102 618.11133 A 5.1138965 5.1138965 0 0 0 244.70703 617.97266 A 3.9143407 3.9143407 0 0 0 244.48633 619.24805 A 3.9143407 3.9143407 0 0 0 246.10352 622.41406 A 6.1240493 6.1240493 0 0 0 240.35742 627.15234 A 3.9143407 3.9143407 0 0 0 237.79492 626.19336 A 3.9143407 3.9143407 0 0 0 233.88086 630.10742 A 3.9143407 3.9143407 0 0 0 233.88672 630.28125 A 7.6392778 7.6392778 0 0 0 231.79688 629.98047 A 7.6392778 7.6392778 0 0 0 229.52734 630.33398 A 6.1240493 6.1240493 0 0 0 230.21875 627.51953 A 6.1240493 6.1240493 0 0 0 226.89844 622.08008 A 4.6088201 4.6088201 0 0 0 228.70312 618.42773 A 4.6088201 4.6088201 0 0 0 226.21875 614.3418 A 4.6088201 4.6088201 0 0 0 227.52148 613.07031 A 7.6392778 7.6392778 0 0 0 232.80664 615.20703 A 7.6392778 7.6392778 0 0 0 238.43945 612.7168 z M 154.67578 615.9043 A 7.6392778 7.6392778 0 0 0 157.91992 620.44727 A 7.6392778 7.6392778 0 0 0 163.36719 621.55664 A 5.1138965 5.1138965 0 0 0 163.30273 621.64648 A 5.1138965 5.1138965 0 0 0 164.81641 628.71875 A 5.1138965 5.1138965 0 0 0 166.25781 629.35352 A 3.9143407 3.9143407 0 0 0 165.5293 630.1875 A 3.9143407 3.9143407 0 0 0 165.16602 633.72266 A 6.1240493 6.1240493 0 0 0 157.9668 634.39258 A 3.9143407 3.9143407 0 0 0 156.31641 632.11133 A 3.9143407 3.9143407 0 0 0 150.90234 633.26953 A 3.9143407 3.9143407 0 0 0 150.66016 633.71094 A 7.6392778 7.6392778 0 0 0 149.04297 632.30078 A 7.6392778 7.6392778 0 0 0 146.94531 631.36328 A 6.1240493 6.1240493 0 0 0 149.05664 629.375 A 6.1240493 6.1240493 0 0 0 149.63086 623.86523 A 4.6088201 4.6088201 0 0 0 154.1543 621.8125 A 4.6088201 4.6088201 0 0 0 153.70312 616.22266 A 4.6088201 4.6088201 0 0 0 154.67578 615.9043 z M 145.71484 619.90039 A 4.6088201 4.6088201 0 0 0 145.76562 620.20898 A 6.1240493 6.1240493 0 0 0 145.50391 620.14062 A 13.035714 13.035714 0 0 1 145.71484 619.90039 z M 85.759766 620.48438 A 10.064965 10.064965 0 0 0 87.697266 622.13867 A 10.064965 10.064965 0 0 0 95.712891 623.41406 A 6.737704 6.737704 0 0 0 95.494141 623.7168 A 6.737704 6.737704 0 0 0 96.785156 632.50195 A 5.1572545 5.1572545 0 0 0 94.865234 634.25586 A 5.1572545 5.1572545 0 0 0 94.263672 638.57031 A 8.0686079 8.0686079 0 0 0 87.496094 640.75391 A 5.1572545 5.1572545 0 0 0 85.347656 637.85938 A 5.1572545 5.1572545 0 0 0 78.216797 639.38477 A 5.1572545 5.1572545 0 0 0 78.099609 639.58008 A 10.064965 10.064965 0 0 0 76.001953 637.75391 A 10.064965 10.064965 0 0 0 73.238281 636.51953 A 8.0686079 8.0686079 0 0 0 76.019531 633.90039 A 8.0686079 8.0686079 0 0 0 76.242188 625.50781 A 6.0722516 6.0722516 0 0 0 80.853516 622.75977 A 6.0722516 6.0722516 0 0 0 81.511719 621.38086 A 6.0722516 6.0722516 0 0 0 85.759766 620.48438 z M -15.269531 637.41797 A 11.372844 11.372844 0 0 0 -5.5332031 639.79297 A 7.2692405 7.2692405 0 0 0 -4.2441406 645.79492 A 7.2692405 7.2692405 0 0 0 -1.3652344 648.06445 A 9.4969118 9.4969118 0 0 0 -2.2773438 660.54688 A 9.4969118 9.4969118 0 0 0 -1.9375 660.94922 A 14.186744 14.186744 0 0 0 -13.074219 663.56445 A 14.186744 14.186744 0 0 0 -15.626953 666.08984 L -15.628906 666.08984 A 8.5589449 8.5589449 0 0 0 -21.693359 665.26758 A 8.5589449 8.5589449 0 0 0 -22.759766 663.39648 A 8.5589449 8.5589449 0 0 0 -29.525391 660.00586 A 11.372844 11.372844 0 0 0 -30.699219 648.23242 A 11.372844 11.372844 0 0 0 -34.878906 644.83594 A 14.186744 14.186744 0 0 0 -31.121094 642.81641 A 14.186744 14.186744 0 0 0 -28.359375 640.0332 A 7.2692405 7.2692405 0 0 0 -28.173828 640.29688 A 7.2692405 7.2692405 0 0 0 -17.994141 641.70703 A 7.2692405 7.2692405 0 0 0 -15.269531 637.41797 z M 123.97852 655.86133 A 11.372844 11.372844 0 0 0 133.68555 662.63086 A 11.372844 11.372844 0 0 0 138.98438 661.66602 A 14.186744 14.186744 0 0 0 138.07227 665.83398 A 14.186744 14.186744 0 0 0 138.38867 669.74219 A 7.2692405 7.2692405 0 0 0 138.06836 669.71094 A 7.2692405 7.2692405 0 0 0 130.37305 676.52539 A 7.2692405 7.2692405 0 0 0 131.85938 681.38281 A 11.372844 11.372844 0 0 0 123.7207 687.23438 A 7.2692405 7.2692405 0 0 0 118.32227 684.30664 A 7.2692405 7.2692405 0 0 0 114.72656 685.01758 A 9.4969118 9.4969118 0 0 0 105.8418 676.20312 A 9.4969118 9.4969118 0 0 0 105.31445 676.19922 A 14.186744 14.186744 0 0 0 110.57422 666.03906 A 14.186744 14.186744 0 0 0 110.31836 662.45703 A 8.5589449 8.5589449 0 0 0 114.88867 658.38672 A 8.5589449 8.5589449 0 0 0 117.00391 658.79492 A 8.5589449 8.5589449 0 0 0 123.97852 655.86133 z M 69.994141 662.55273 A 4.5624596 4.5624596 0 0 0 73.396484 663.74805 A 7.1380413 7.1380413 0 0 0 71.800781 672.2832 A 4.5624596 4.5624596 0 0 0 68.794922 673.34375 A 4.5624596 4.5624596 0 0 0 68.222656 679.76953 A 4.5624596 4.5624596 0 0 0 68.357422 679.91992 A 8.9041545 8.9041545 0 0 0 66.265625 681.21484 A 8.9041545 8.9041545 0 0 0 63.929688 684.25977 A 7.1380413 7.1380413 0 0 0 62.65625 681.98047 A 7.1380413 7.1380413 0 0 0 55.140625 679.72266 A 5.3719282 5.3719282 0 0 0 54.859375 673.20117 A 5.3719282 5.3719282 0 0 0 49.580078 671.40625 A 5.3719282 5.3719282 0 0 0 49.796875 669.29688 A 8.9041545 8.9041545 0 0 0 56.119141 667.25195 A 8.9041545 8.9041545 0 0 0 58.960938 662.85547 A 5.9606327 5.9606327 0 0 0 59.847656 664.28906 A 5.9606327 5.9606327 0 0 0 68.244141 665.03516 A 5.9606327 5.9606327 0 0 0 69.994141 662.55273 z M 76.1875 675.91016 A 7.1380413 7.1380413 0 0 0 76.267578 675.92969 A 4.5624596 4.5624596 0 0 0 76.201172 675.98047 A 4.5624596 4.5624596 0 0 0 76.1875 675.91016 z M 198.08203 684.14648 A 5.1138965 5.1138965 0 0 0 198.06836 684.42773 A 5.1138965 5.1138965 0 0 0 203.18359 689.54102 A 5.1138965 5.1138965 0 0 0 204.34961 689.40039 A 3.9143407 3.9143407 0 0 0 204.12891 690.67773 A 3.9143407 3.9143407 0 0 0 205.74609 693.8418 A 6.1240493 6.1240493 0 0 0 200 698.58008 A 3.9143407 3.9143407 0 0 0 197.4375 697.62305 A 3.9143407 3.9143407 0 0 0 193.52344 701.53711 A 3.9143407 3.9143407 0 0 0 193.5293 701.70898 A 7.6392778 7.6392778 0 0 0 191.43945 701.41016 A 7.6392778 7.6392778 0 0 0 189.16992 701.76367 A 6.1240493 6.1240493 0 0 0 189.86133 698.94922 A 6.1240493 6.1240493 0 0 0 186.54102 693.50977 A 4.6088201 4.6088201 0 0 0 188.3457 689.85742 A 4.6088201 4.6088201 0 0 0 185.86133 685.77148 A 4.6088201 4.6088201 0 0 0 187.16406 684.5 A 7.6392778 7.6392778 0 0 0 192.44922 686.63672 A 7.6392778 7.6392778 0 0 0 198.08203 684.14648 z M 242.54492 684.76953 A 10.064965 10.064965 0 0 0 244.48242 686.42383 A 10.064965 10.064965 0 0 0 252.49805 687.69922 A 6.737704 6.737704 0 0 0 252.2793 688.00195 A 6.737704 6.737704 0 0 0 253.57031 696.78711 A 5.1572545 5.1572545 0 0 0 251.65039 698.54102 A 5.1572545 5.1572545 0 0 0 251.04883 702.85547 A 8.0686079 8.0686079 0 0 0 244.28125 705.03906 A 5.1572545 5.1572545 0 0 0 242.13281 702.14453 A 5.1572545 5.1572545 0 0 0 235.00195 703.66992 A 5.1572545 5.1572545 0 0 0 234.88477 703.86523 A 10.064965 10.064965 0 0 0 232.78711 702.03906 A 10.064965 10.064965 0 0 0 230.02344 700.80469 A 8.0686079 8.0686079 0 0 0 232.80469 698.18555 A 8.0686079 8.0686079 0 0 0 233.02734 689.79297 A 6.0722516 6.0722516 0 0 0 237.63867 687.04492 A 6.0722516 6.0722516 0 0 0 238.29688 685.66602 A 6.0722516 6.0722516 0 0 0 242.54492 684.76953 z M 11.652344 687.00391 A 5.1138965 5.1138965 0 0 0 11.638672 687.28516 A 5.1138965 5.1138965 0 0 0 16.753906 692.39844 A 5.1138965 5.1138965 0 0 0 17.919922 692.25781 A 3.9143407 3.9143407 0 0 0 17.699219 693.53516 A 3.9143407 3.9143407 0 0 0 19.316406 696.69922 A 6.1240493 6.1240493 0 0 0 13.570312 701.4375 A 3.9143407 3.9143407 0 0 0 11.007812 700.48047 A 3.9143407 3.9143407 0 0 0 7.09375 704.39453 A 3.9143407 3.9143407 0 0 0 7.0996094 704.56641 A 7.6392778 7.6392778 0 0 0 5.0097656 704.26758 A 7.6392778 7.6392778 0 0 0 2.7402344 704.62109 A 6.1240493 6.1240493 0 0 0 3.4316406 701.80664 A 6.1240493 6.1240493 0 0 0 0.11132812 696.36719 A 4.6088201 4.6088201 0 0 0 1.9160156 692.71484 A 4.6088201 4.6088201 0 0 0 -0.56835938 688.62891 A 4.6088201 4.6088201 0 0 0 0.734375 687.35742 A 7.6392778 7.6392778 0 0 0 6.0195312 689.49414 A 7.6392778 7.6392778 0 0 0 11.652344 687.00391 z "
       id="rect4702"
       transform="scale(0.26458333)"
       inkscape:export-xdpi="384"
       inkscape:export-ydpi="384" />
    <path
       style="opacity:0.2;fill:#000000;fill-opacity:1;stroke:none;stroke-width:0.43719503;stroke-linecap:round;stroke-linejoin:miter;stroke-miterlimit:4;stroke-dasharray:none;stroke-dashoffset:0;stroke-opacity:0.99607843"
       d="M -65.123047 519.63672 L -65.123047 711.63672 L 254.87695 711.63672 L 254.87695 697.86328 A 6.1887053 6.1887053 0 0 0 253.62109 699.26758 A 6.1887053 6.1887053 0 0 0 252.89844 704.44531 A 9.6823293 9.6823293 0 0 0 244.77734 707.06641 A 6.1887053 6.1887053 0 0 0 242.19922 703.5918 A 6.1887053 6.1887053 0 0 0 233.64258 705.42383 A 6.1887053 6.1887053 0 0 0 233.50195 705.6582 A 12.077958 12.077958 0 0 0 230.98438 703.4668 A 12.077958 12.077958 0 0 0 227.66797 701.98438 A 9.6823293 9.6823293 0 0 0 231.00586 698.8418 A 9.6823293 9.6823293 0 0 0 231.27344 688.77148 A 7.2867019 7.2867019 0 0 0 236.80664 685.47266 A 7.2867019 7.2867019 0 0 0 237.59766 683.81836 A 7.2867019 7.2867019 0 0 0 242.69531 682.74219 A 12.077958 12.077958 0 0 0 245.01953 684.72852 A 12.077958 12.077958 0 0 0 254.63867 686.25781 A 8.0852446 8.0852446 0 0 0 254.375 686.62109 A 8.0852446 8.0852446 0 0 0 254.87695 696.08008 L 254.87695 519.63672 L -65.123047 519.63672 z M 137.69531 523.09961 A 12.077958 12.077958 0 0 0 140.01953 525.08594 A 12.077958 12.077958 0 0 0 149.63867 526.61523 A 8.0852446 8.0852446 0 0 0 149.375 526.97852 A 8.0852446 8.0852446 0 0 0 150.92578 537.52148 A 6.1887053 6.1887053 0 0 0 148.62109 539.625 A 6.1887053 6.1887053 0 0 0 147.89844 544.80273 A 9.6823293 9.6823293 0 0 0 139.77734 547.42383 A 6.1887053 6.1887053 0 0 0 137.19922 543.94922 A 6.1887053 6.1887053 0 0 0 128.64258 545.7793 A 6.1887053 6.1887053 0 0 0 128.50195 546.01367 A 12.077958 12.077958 0 0 0 125.98438 543.82227 A 12.077958 12.077958 0 0 0 122.66797 542.3418 A 9.6823293 9.6823293 0 0 0 126.00586 539.19922 A 9.6823293 9.6823293 0 0 0 126.27344 529.12695 A 7.2867019 7.2867019 0 0 0 131.80664 525.83008 A 7.2867019 7.2867019 0 0 0 132.59766 524.17578 A 7.2867019 7.2867019 0 0 0 137.69531 523.09961 z M 47.109375 527.74219 A 6.1366759 6.1366759 0 0 0 47.091797 528.07812 A 6.1366759 6.1366759 0 0 0 53.230469 534.21484 A 6.1366759 6.1366759 0 0 0 54.630859 534.04688 A 4.6972088 4.6972088 0 0 0 54.365234 535.58008 A 4.6972088 4.6972088 0 0 0 56.304688 539.37695 A 7.3488592 7.3488592 0 0 0 49.410156 545.0625 A 4.6972088 4.6972088 0 0 0 46.335938 543.91406 A 4.6972088 4.6972088 0 0 0 41.638672 548.61133 A 4.6972088 4.6972088 0 0 0 41.644531 548.81641 A 9.1671333 9.1671333 0 0 0 39.136719 548.45898 A 9.1671333 9.1671333 0 0 0 36.414062 548.88281 A 7.3488592 7.3488592 0 0 0 37.244141 545.50586 A 7.3488592 7.3488592 0 0 0 33.259766 538.97852 A 5.5305841 5.5305841 0 0 0 35.425781 534.5957 A 5.5305841 5.5305841 0 0 0 32.443359 529.69141 A 5.5305841 5.5305841 0 0 0 34.007812 528.16602 A 9.1671333 9.1671333 0 0 0 40.349609 530.73047 A 9.1671333 9.1671333 0 0 0 47.109375 527.74219 z M -37.285156 536.63672 A 13.647413 13.647413 0 0 0 -23.695312 540.75391 A 13.647413 13.647413 0 0 0 -18.007812 537.68555 A 17.024093 17.024093 0 0 0 -17.5 542.7793 A 17.024093 17.024093 0 0 0 -15.6875 547.12109 A 8.7230887 8.7230887 0 0 0 -16.0625 547.20508 A 8.7230887 8.7230887 0 0 0 -22.314453 557.83789 A 8.7230887 8.7230887 0 0 0 -18.8125 562.83008 A 13.647413 13.647413 0 0 0 -25.925781 572.5293 A 8.7230887 8.7230887 0 0 0 -33.171875 571.19531 A 8.7230887 8.7230887 0 0 0 -37.011719 573.3418 A 11.396294 11.396294 0 0 0 -50.425781 566.58594 A 11.396294 11.396294 0 0 0 -51.027344 566.77539 A 17.024093 17.024093 0 0 0 -48.800781 553.22852 A 17.024093 17.024093 0 0 0 -50.423828 549.23633 A 10.270734 10.270734 0 0 0 -46.71875 542.89453 A 10.270734 10.270734 0 0 0 -44.15625 542.57422 A 10.270734 10.270734 0 0 0 -37.285156 536.63672 z M 205.05859 543.79688 A 13.647413 13.647413 0 0 0 216.70703 551.91797 A 13.647413 13.647413 0 0 0 223.06445 550.76172 A 17.024093 17.024093 0 0 0 221.9707 555.76367 A 17.024093 17.024093 0 0 0 222.35156 560.45312 A 8.7230887 8.7230887 0 0 0 221.9668 560.41406 A 8.7230887 8.7230887 0 0 0 212.73242 568.58984 A 8.7230887 8.7230887 0 0 0 214.51562 574.41992 A 13.647413 13.647413 0 0 0 204.74805 581.44141 A 8.7230887 8.7230887 0 0 0 198.27148 577.92773 A 8.7230887 8.7230887 0 0 0 193.95703 578.78125 A 11.396294 11.396294 0 0 0 183.29297 568.20508 A 11.396294 11.396294 0 0 0 182.66211 568.20117 A 17.024093 17.024093 0 0 0 188.97266 556.00781 A 17.024093 17.024093 0 0 0 188.66602 551.71094 L 188.66602 551.70898 A 10.270734 10.270734 0 0 0 194.15039 546.82617 A 10.270734 10.270734 0 0 0 196.68945 547.31445 A 10.270734 10.270734 0 0 0 205.05859 543.79688 z M 110.32227 572.02734 A 6.1366759 6.1366759 0 0 0 110.30664 572.36523 A 6.1366759 6.1366759 0 0 0 116.44531 578.5 A 6.1366759 6.1366759 0 0 0 117.84375 578.33203 A 4.6972088 4.6972088 0 0 0 117.57812 579.86523 A 4.6972088 4.6972088 0 0 0 119.51953 583.66211 A 7.3488592 7.3488592 0 0 0 112.625 589.34766 A 4.6972088 4.6972088 0 0 0 109.54883 588.19922 A 4.6972088 4.6972088 0 0 0 104.85156 592.89648 A 4.6972088 4.6972088 0 0 0 104.85938 593.10352 A 9.1671333 9.1671333 0 0 0 102.35156 592.74414 A 9.1671333 9.1671333 0 0 0 99.628906 593.16797 A 7.3488592 7.3488592 0 0 0 100.45898 589.79102 A 7.3488592 7.3488592 0 0 0 96.474609 583.26367 A 5.5305841 5.5305841 0 0 0 98.638672 578.88086 A 5.5305841 5.5305841 0 0 0 95.658203 573.97656 A 5.5305841 5.5305841 0 0 0 97.220703 572.45117 A 9.1671333 9.1671333 0 0 0 103.56445 575.01562 A 9.1671333 9.1671333 0 0 0 110.32227 572.02734 z M 17.695312 587.74219 A 12.077958 12.077958 0 0 0 20.019531 589.72852 A 12.077958 12.077958 0 0 0 29.638672 591.25781 A 8.0852446 8.0852446 0 0 0 29.375 591.62109 A 8.0852446 8.0852446 0 0 0 30.925781 602.16406 A 6.1887053 6.1887053 0 0 0 28.621094 604.26758 A 6.1887053 6.1887053 0 0 0 27.898438 609.44531 A 9.6823293 9.6823293 0 0 0 19.777344 612.06641 A 6.1887053 6.1887053 0 0 0 17.199219 608.5918 A 6.1887053 6.1887053 0 0 0 8.6425781 610.42383 A 6.1887053 6.1887053 0 0 0 8.5019531 610.6582 A 12.077958 12.077958 0 0 0 5.984375 608.4668 A 12.077958 12.077958 0 0 0 2.6679688 606.98438 A 9.6823293 9.6823293 0 0 0 6.0058594 603.8418 A 9.6823293 9.6823293 0 0 0 6.2734375 593.77148 A 7.2867019 7.2867019 0 0 0 11.806641 590.47266 A 7.2867019 7.2867019 0 0 0 12.597656 588.81836 A 7.2867019 7.2867019 0 0 0 17.695312 587.74219 z M 238.89453 610.95508 A 6.1366759 6.1366759 0 0 0 238.87891 611.29297 A 6.1366759 6.1366759 0 0 0 245.01562 617.42969 A 6.1366759 6.1366759 0 0 0 246.41602 617.25977 A 4.6972088 4.6972088 0 0 0 246.15039 618.79297 A 4.6972088 4.6972088 0 0 0 248.0918 622.58984 A 7.3488592 7.3488592 0 0 0 241.19531 628.27539 A 4.6972088 4.6972088 0 0 0 238.12109 627.12695 A 4.6972088 4.6972088 0 0 0 233.42383 631.82422 A 4.6972088 4.6972088 0 0 0 233.43164 632.03125 A 9.1671333 9.1671333 0 0 0 230.92383 631.67188 A 9.1671333 9.1671333 0 0 0 228.19922 632.0957 A 7.3488592 7.3488592 0 0 0 229.0293 628.71875 A 7.3488592 7.3488592 0 0 0 225.04492 622.19141 A 5.5305841 5.5305841 0 0 0 227.21094 617.80859 A 5.5305841 5.5305841 0 0 0 224.22852 612.90625 A 5.5305841 5.5305841 0 0 0 225.79297 611.38086 A 9.1671333 9.1671333 0 0 0 232.13477 613.94336 A 9.1671333 9.1671333 0 0 0 238.89453 610.95508 z M 154.43555 614.05469 A 9.1671333 9.1671333 0 0 0 158.32812 619.50586 A 9.1671333 9.1671333 0 0 0 164.86523 620.83789 A 6.1366759 6.1366759 0 0 0 164.78711 620.94531 A 6.1366759 6.1366759 0 0 0 166.60352 629.43359 A 6.1366759 6.1366759 0 0 0 168.33398 630.19531 A 4.6972088 4.6972088 0 0 0 167.45898 631.19531 A 4.6972088 4.6972088 0 0 0 167.02344 635.4375 A 7.3488592 7.3488592 0 0 0 158.38477 636.24219 A 4.6972088 4.6972088 0 0 0 156.4043 633.50391 A 4.6972088 4.6972088 0 0 0 149.90625 634.89453 A 4.6972088 4.6972088 0 0 0 149.61523 635.42383 A 9.1671333 9.1671333 0 0 0 147.67578 633.73047 A 9.1671333 9.1671333 0 0 0 145.1582 632.60547 A 7.3488592 7.3488592 0 0 0 147.69141 630.2207 A 7.3488592 7.3488592 0 0 0 148.38086 623.60938 A 5.5305841 5.5305841 0 0 0 153.80859 621.14453 A 5.5305841 5.5305841 0 0 0 153.26758 614.4375 A 5.5305841 5.5305841 0 0 0 154.43555 614.05469 z M 85.908203 618.45703 A 12.077958 12.077958 0 0 0 88.234375 620.44141 A 12.077958 12.077958 0 0 0 97.853516 621.97266 A 8.0852446 8.0852446 0 0 0 97.589844 622.33594 A 8.0852446 8.0852446 0 0 0 99.138672 632.87891 A 6.1887053 6.1887053 0 0 0 96.835938 634.98242 A 6.1887053 6.1887053 0 0 0 96.113281 640.16016 A 9.6823293 9.6823293 0 0 0 87.992188 642.78125 A 6.1887053 6.1887053 0 0 0 85.414062 639.30664 A 6.1887053 6.1887053 0 0 0 76.857422 641.13672 A 6.1887053 6.1887053 0 0 0 76.716797 641.37109 A 12.077958 12.077958 0 0 0 74.199219 639.17969 A 12.077958 12.077958 0 0 0 70.882812 637.69922 A 9.6823293 9.6823293 0 0 0 74.220703 634.55664 A 9.6823293 9.6823293 0 0 0 74.488281 624.48438 A 7.2867019 7.2867019 0 0 0 80.021484 621.1875 A 7.2867019 7.2867019 0 0 0 80.810547 619.5332 A 7.2867019 7.2867019 0 0 0 85.908203 618.45703 z M 143.68164 618.85156 A 5.5305841 5.5305841 0 0 0 143.74219 619.2207 A 7.3488592 7.3488592 0 0 0 143.42773 619.13867 A 15.642856 15.642856 0 0 1 143.68164 618.85156 z M -14.701172 634.55078 A 13.647413 13.647413 0 0 0 -3.015625 637.40039 A 8.7230887 8.7230887 0 0 0 -1.46875 644.60352 A 8.7230887 8.7230887 0 0 0 1.9863281 647.32617 A 11.396294 11.396294 0 0 0 0.89257812 662.30469 A 11.396294 11.396294 0 0 0 1.3007812 662.78711 A 17.024093 17.024093 0 0 0 -12.064453 665.92773 A 17.024093 17.024093 0 0 0 -15.128906 668.95703 L -15.130859 668.95703 A 10.270734 10.270734 0 0 0 -22.40625 667.96875 A 10.270734 10.270734 0 0 0 -23.6875 665.72461 A 10.270734 10.270734 0 0 0 -31.804688 661.65625 A 13.647413 13.647413 0 0 0 -33.214844 647.52734 A 13.647413 13.647413 0 0 0 -38.230469 643.45117 A 17.024093 17.024093 0 0 0 -33.720703 641.0293 A 17.024093 17.024093 0 0 0 -30.40625 637.68945 A 8.7230887 8.7230887 0 0 0 -30.185547 638.00391 A 8.7230887 8.7230887 0 0 0 -17.966797 639.69922 A 8.7230887 8.7230887 0 0 0 -14.701172 634.55078 z M 124.3457 652.72461 A 13.647413 13.647413 0 0 0 135.99219 660.84766 A 13.647413 13.647413 0 0 0 142.34961 659.69141 A 17.024093 17.024093 0 0 0 141.25586 664.69141 A 17.024093 17.024093 0 0 0 141.63672 669.38086 A 8.7230887 8.7230887 0 0 0 141.25195 669.34375 A 8.7230887 8.7230887 0 0 0 132.01758 677.51953 A 8.7230887 8.7230887 0 0 0 133.80078 683.34961 A 13.647413 13.647413 0 0 0 124.03516 690.36914 A 8.7230887 8.7230887 0 0 0 117.55664 686.85742 A 8.7230887 8.7230887 0 0 0 113.24219 687.70898 A 11.396294 11.396294 0 0 0 102.58008 677.13281 A 11.396294 11.396294 0 0 0 101.94727 677.12891 A 17.024093 17.024093 0 0 0 108.25781 664.9375 A 17.024093 17.024093 0 0 0 107.95117 660.63867 A 10.270734 10.270734 0 0 0 113.4375 655.75586 A 10.270734 10.270734 0 0 0 115.97461 656.24414 A 10.270734 10.270734 0 0 0 124.3457 652.72461 z M 71.408203 660.38281 A 5.4749517 5.4749517 0 0 0 75.490234 661.81641 A 8.5656498 8.5656498 0 0 0 73.576172 672.05859 A 5.4749517 5.4749517 0 0 0 69.96875 673.33008 A 5.4749517 5.4749517 0 0 0 69.283203 681.04102 A 5.4749517 5.4749517 0 0 0 69.443359 681.22266 A 10.684986 10.684986 0 0 0 66.933594 682.77734 A 10.684986 10.684986 0 0 0 64.130859 686.42969 A 8.5656498 8.5656498 0 0 0 62.603516 683.69531 A 8.5656498 8.5656498 0 0 0 53.583984 680.98633 A 6.4463137 6.4463137 0 0 0 53.246094 673.16016 A 6.4463137 6.4463137 0 0 0 46.912109 671.00586 A 6.4463137 6.4463137 0 0 0 47.171875 668.47461 A 10.684986 10.684986 0 0 0 54.757812 666.02148 A 10.684986 10.684986 0 0 0 58.167969 660.74609 A 7.1527592 7.1527592 0 0 0 59.232422 662.46484 A 7.1527592 7.1527592 0 0 0 69.308594 663.36133 A 7.1527592 7.1527592 0 0 0 71.408203 660.38281 z M 78.839844 676.41211 A 8.5656498 8.5656498 0 0 0 78.935547 676.43359 A 5.4749517 5.4749517 0 0 0 78.857422 676.49609 A 5.4749517 5.4749517 0 0 0 78.839844 676.41211 z M 198.53711 682.38477 A 6.1366759 6.1366759 0 0 0 198.52148 682.72266 A 6.1366759 6.1366759 0 0 0 204.66016 688.85742 A 6.1366759 6.1366759 0 0 0 206.05859 688.68945 A 4.6972088 4.6972088 0 0 0 205.79297 690.22266 A 4.6972088 4.6972088 0 0 0 207.73438 694.01953 A 7.3488592 7.3488592 0 0 0 200.83984 699.70508 A 4.6972088 4.6972088 0 0 0 197.76367 698.55664 A 4.6972088 4.6972088 0 0 0 193.06641 703.25391 A 4.6972088 4.6972088 0 0 0 193.07422 703.45898 A 9.1671333 9.1671333 0 0 0 190.56641 703.10156 A 9.1671333 9.1671333 0 0 0 187.8418 703.52539 A 7.3488592 7.3488592 0 0 0 188.67188 700.14844 A 7.3488592 7.3488592 0 0 0 184.6875 693.62109 A 5.5305841 5.5305841 0 0 0 186.85352 689.23828 A 5.5305841 5.5305841 0 0 0 183.87305 684.33398 A 5.5305841 5.5305841 0 0 0 185.43555 682.80859 A 9.1671333 9.1671333 0 0 0 191.77734 685.37305 A 9.1671333 9.1671333 0 0 0 198.53711 682.38477 z M 12.109375 685.24219 A 6.1366759 6.1366759 0 0 0 12.091797 685.57812 A 6.1366759 6.1366759 0 0 0 18.230469 691.71484 A 6.1366759 6.1366759 0 0 0 19.630859 691.54688 A 4.6972088 4.6972088 0 0 0 19.365234 693.08008 A 4.6972088 4.6972088 0 0 0 21.304688 696.87695 A 7.3488592 7.3488592 0 0 0 14.410156 702.5625 A 4.6972088 4.6972088 0 0 0 11.335938 701.41406 A 4.6972088 4.6972088 0 0 0 6.6386719 706.11133 A 4.6972088 4.6972088 0 0 0 6.6445312 706.31641 A 9.1671333 9.1671333 0 0 0 4.1367188 705.95898 A 9.1671333 9.1671333 0 0 0 1.4140625 706.38281 A 7.3488592 7.3488592 0 0 0 2.2441406 703.00586 A 7.3488592 7.3488592 0 0 0 -1.7402344 696.47852 A 5.5305841 5.5305841 0 0 0 0.42578125 692.0957 A 5.5305841 5.5305841 0 0 0 -2.5566406 687.19141 A 5.5305841 5.5305841 0 0 0 -0.9921875 685.66602 A 9.1671333 9.1671333 0 0 0 5.3496094 688.23047 A 9.1671333 9.1671333 0 0 0 12.109375 685.24219 z "
       id="rect4485"
       transform="scale(0.26458333)"
       inkscape:export-xdpi="384"
       inkscape:export-ydpi="384" />
  </g>
</svg>
