<?xml version="1.0" encoding="UTF-8" standalone="no"?>
<!-- Created with Inkscape (http://www.inkscape.org/) -->

<svg
   xmlns:dc="http://purl.org/dc/elements/1.1/"
   xmlns:cc="http://creativecommons.org/ns#"
   xmlns:rdf="http://www.w3.org/1999/02/22-rdf-syntax-ns#"
   xmlns:svg="http://www.w3.org/2000/svg"
   xmlns="http://www.w3.org/2000/svg"
   xmlns:sodipodi="http://sodipodi.sourceforge.net/DTD/sodipodi-0.dtd"
   xmlns:inkscape="http://www.inkscape.org/namespaces/inkscape"
   width="1024"
   height="512"
   id="svg2"
   version="1.1"
   inkscape:version="0.48.4 r9939"
   sodipodi:docname="Logo-FwM.svg">
  <defs
     id="defs4" />
  <sodipodi:namedview
     id="base"
     pagecolor="#ffffff"
     bordercolor="#666666"
     borderopacity="1.0"
     inkscape:pageopacity="0.0"
     inkscape:pageshadow="2"
     inkscape:zoom="1.4"
     inkscape:cx="276.24143"
     inkscape:cy="218.92435"
     inkscape:document-units="px"
     inkscape:current-layer="layer1"
     showgrid="true"
     inkscape:window-width="1366"
     inkscape:window-height="744"
     inkscape:window-x="0"
     inkscape:window-y="24"
     inkscape:window-maximized="1">
    <inkscape:grid
       type="xygrid"
       id="grid2985"
       empspacing="4"
       visible="true"
       enabled="true"
       snapvisiblegridlinesonly="true" />
  </sodipodi:namedview>
  <metadata
     id="metadata7">
    <rdf:RDF>
      <cc:Work
         rdf:about="">
        <dc:format>image/svg+xml</dc:format>
        <dc:type
           rdf:resource="http://purl.org/dc/dcmitype/StillImage" />
        <dc:title></dc:title>
      </cc:Work>
    </rdf:RDF>
  </metadata>
  <g
     inkscape:label="Ebene 1"
     inkscape:groupmode="layer"
     id="layer1"
     transform="translate(0,-540.36218)">
    <g
       id="g3852"
       transform="matrix(0.99923998,0.03898032,-0.03898032,0.99923998,-7.9955487,-89.802911)"
       inkscape:export-filename="/home/georg/Entwicklung/Java/libGDX/FriendsWithMonsters/Artwork/logo.png"
       inkscape:export-xdpi="127.61835"
       inkscape:export-ydpi="127.61835">
      <path
         style="font-size:60.52417374px;font-style:normal;font-variant:normal;font-weight:bold;font-stretch:normal;text-indent:0;text-align:start;text-decoration:none;line-height:125%;letter-spacing:0px;word-spacing:0px;text-transform:none;direction:ltr;block-progression:tb;writing-mode:lr-tb;text-anchor:start;baseline-shift:baseline;color:#000000;fill:#4e9a06;fill-opacity:1;fill-rule:nonzero;stroke:#458e00;stroke-width:10;stroke-miterlimit:4;stroke-opacity:1;stroke-dasharray:none;marker:none;visibility:visible;display:inline;overflow:visible;enable-background:accumulate;font-family:Symbol;-inkscape-font-specification:Symbol Bold"
         d="m 339.40625,834.45593 c -0.0524,0.009 -0.10452,0.0191 -0.15625,0.0312 l -10.46875,1.34375 c -1.29019,0.16949 -2.31358,1.48952 -2.15625,2.78125 l 1.09375,8.5625 c 0.10882,0.84892 0.686,1.6226 1.46875,1.96875 -0.65565,0.53176 -1.01029,1.41226 -0.90625,2.25 l 4.25,32.8125 c 0.16949,1.29019 1.48952,2.31358 2.78125,2.15625 l 10.5,-1.34375 c 1.29019,-0.16949 2.31358,-1.48952 2.15625,-2.78125 l -4.28125,-32.8125 c -0.10882,-0.84892 -0.686,-1.6226 -1.46875,-1.96875 0.6765,-0.53057 1.04544,-1.42831 0.9375,-2.28125 l -1.125,-8.53125 c -0.15478,-1.24439 -1.3731,-2.25966 -2.625,-2.1875 z m 129.53125,1.78125 c -1.14026,0.0588 -2.1739,0.99593 -2.34375,2.125 l -1.84375,11.9375 c -0.35555,-0.31818 -0.64958,-0.72223 -1.03125,-1 -0.0113,-0.008 -0.0199,-0.0229 -0.0312,-0.0312 -1.95626,-1.44443 -4.31065,-2.32218 -6.875,-2.71875 -4.68479,-0.72436 -9.16725,0.67022 -12.71875,3.90625 -3.55624,3.22108 -5.74768,7.74716 -6.59375,13.21875 -0.84501,5.46477 -0.13054,10.43004 2.28125,14.59375 2.41327,4.13793 6.27836,6.83724 10.96875,7.5625 2.59978,0.40201 5.0994,0.27375 7.40625,-0.5 0.50097,-0.16804 0.95392,-0.49192 1.4375,-0.71875 0.1835,1.02188 1.06678,1.8788 2.09375,2.03125 l 10.5,1.625 c 1.29243,0.19464 2.64583,-0.80181 2.84375,-2.09375 l 7.03125,-45.4375 c 0.19464,-1.29243 -0.80181,-2.64583 -2.09375,-2.84375 l -10.53125,-1.625 c -0.16506,-0.0271 -0.33285,-0.0376 -0.5,-0.0312 z m -49.65625,7.1875 c -2.51565,-0.074 -4.91779,0.43033 -7.09375,1.46875 -0.009,0.004 -0.0223,-0.004 -0.0312,0 -0.53403,0.25164 -1.01753,0.65029 -1.53125,0.96875 -0.23515,-1.08291 -1.26727,-1.93848 -2.375,-1.96875 l -10.59375,-0.3125 c -1.30907,-0.033 -2.53005,1.12842 -2.5625,2.4375 l -0.96875,33.09375 c -0.033,1.30907 1.12842,2.53005 2.4375,2.5625 l 10.59375,0.3125 c 1.30907,0.033 2.53005,-1.12842 2.5625,-2.4375 l 0.46875,-16.28125 c 0.0785,-2.66716 0.69321,-4.40098 1.5625,-5.5 6e-5,-0.0104 6e-5,-0.0208 0,-0.0312 0.87634,-1.12061 1.68344,-1.48359 3.25,-1.4375 0.55463,0.0163 0.88872,0.13483 1.1875,0.3125 0.0207,0.0107 0.0415,0.0211 0.0625,0.0312 0.29255,0.16561 0.45743,0.3329 0.65625,0.6875 0.0103,0.0105 0.0207,0.0209 0.0312,0.0312 -0.002,-0.003 0.18108,0.47604 0.25,1.34375 -2.6e-4,0.0208 -2.6e-4,0.0417 0,0.0625 0.0791,0.81242 0.11419,2.77745 0.0312,5.59375 l -0.375,12.15625 -0.0937,3.28125 c -0.033,1.30907 1.12842,2.53005 2.4375,2.5625 l 10.65625,0.3125 c 1.30907,0.033 2.53005,-1.12842 2.5625,-2.4375 L 433,860.08093 c 0.14225,-4.83192 -0.85284,-8.89415 -3.25,-11.90625 -0.005,-0.007 0.005,-0.0244 0,-0.0312 -2.39621,-3.01576 -6.14151,-4.59127 -10.46875,-4.71875 z m -47.84375,0.53125 c -0.66304,-0.0127 -1.38849,-0.013 -2.125,0.0312 -6.15266,0.36981 -11.26458,2.40158 -14.84375,6.21875 -0.0104,-6e-5 -0.0208,-6e-5 -0.0312,0 -3.55515,3.8146 -5.10377,8.98858 -4.75,14.875 0.35975,5.98591 2.55887,10.9584 6.625,14.28125 0.0104,6e-5 0.0208,6e-5 0.0312,0 4.08181,3.29383 9.53365,4.66611 15.9375,4.28125 2.66034,-0.15989 5.31315,-0.59885 7.9375,-1.28125 l 0,0.0312 c 2.61276,-0.65825 5.18222,-1.56781 7.75,-2.71875 0.92015,-0.41432 1.5324,-1.43038 1.46875,-2.4375 l -0.46875,-8.15625 c -0.0182,-0.35861 -0.1149,-0.71303 -0.28125,-1.03125 0.99827,-0.3707 1.6915,-1.4372 1.625,-2.5 l -0.1875,-3.03125 c -0.3442,-5.72652 -2.44478,-10.56721 -6.28125,-13.96875 -3.33794,-2.97827 -7.5925,-4.50192 -12.40625,-4.59375 z m -91.46875,2.96875 c -0.31423,0.0252 -0.62354,0.11053 -0.90625,0.25 l -27.78125,13.03125 c -1.17389,0.56122 -1.73746,2.13329 -1.1875,3.3125 l 18.71875,39.96875 c 0.56122,1.17389 2.13329,1.73746 3.3125,1.1875 l 10.28125,-4.84375 c 1.17389,-0.56122 1.73746,-2.13329 1.1875,-3.3125 l -6.875,-14.6875 14.21875,-6.65625 c 1.17389,-0.56122 1.73746,-2.13329 1.1875,-3.3125 l -3.65625,-7.78125 c -0.56122,-1.17389 -2.13329,-1.73746 -3.3125,-1.1875 l -14.1875,6.65625 -1.375,-2.9375 15.25,-7.15625 c 1.17389,-0.56122 1.73746,-2.13329 1.1875,-3.3125 l -3.65625,-7.78125 c -0.41999,-0.8985 -1.41602,-1.49353 -2.40625,-1.4375 z m 42.5625,1.96875 c -0.81604,0.0669 -1.42909,0.14889 -1.875,0.21875 -0.0302,0.005 -0.0967,0.0267 -0.125,0.0312 -0.3694,0.0403 -0.74693,0.089 -1.21875,0.1875 -2.74757,0.57456 -5.16426,1.67323 -7.0625,3.34375 -0.32678,0.28545 -0.54638,0.68034 -0.84375,1 -0.49487,-0.97367 -1.68177,-1.54015 -2.75,-1.3125 l -10.34375,2.1875 c -1.26215,0.2814 -2.16339,1.67018 -1.90625,2.9375 l 6.75,32.375 c 0.26756,1.27334 1.66165,2.19285 2.9375,1.9375 l 10.375,-2.15625 c 1.27334,-0.26756 2.19285,-1.66165 1.9375,-2.9375 l -3.125,-14.90625 c -0.59025,-2.82272 -0.35663,-4.79029 0.34375,-6.09375 0.73053,-1.35617 1.8091,-2.17992 3.9375,-2.625 0.66243,-0.13852 1.43518,-0.17863 2.21875,-0.15625 0.0208,2.6e-4 0.0417,2.6e-4 0.0625,0 0.76661,0.003 1.53666,0.0909 2.34375,0.28125 1.63271,0.373 3.35589,-1.33222 3,-2.96875 l -2,-9.375 c -0.25167,-1.17754 -1.45642,-2.07047 -2.65625,-1.96875 z m 47.9375,7.09375 c 1.05835,0.0275 1.65059,0.27949 2.3125,0.90625 0.0103,0.0105 0.0207,0.0209 0.0312,0.0312 0.18167,0.16647 0.29402,0.39787 0.4375,0.59375 l -6.9375,0.40625 c 0.13835,-0.19914 0.24316,-0.46087 0.40625,-0.625 0.74352,-0.76108 1.66967,-1.18625 3.25,-1.28125 0.2886,-0.0173 0.49248,-0.0314 0.5,-0.0312 z m 128.71875,1 c -1.01957,-0.0164 -1.96385,0.10064 -2.84375,0.28125 -3.66382,0.7521 -6.5837,3.37906 -8.21875,7.125 -1.49481,3.42461 -1.74963,6.93046 -0.28125,9.90625 1.48041,3.00029 4.46138,5.46414 8.71875,8 l 0.0312,0.0312 1.5625,0.9375 c 0.0207,0.0107 0.0415,0.0211 0.0625,0.0312 1.72609,1.01198 2.67203,1.98778 2.625,1.90625 -0.15112,0.34619 0.0995,0.17636 -0.375,0.21875 -0.47714,0.0426 -1.71441,-0.13653 -3.40625,-0.875 -1.92961,-0.84225 -3.72734,-1.88093 -5.40625,-3.125 -1.65219,-1.22926 -3.17944,-2.6878 -4.59375,-4.34375 -0.54804,-0.63861 -1.43414,-0.96882 -2.26645,-0.84459 -0.83231,0.12422 -1.58337,0.69878 -1.92105,1.46959 l -3.21875,7.375 c -0.43797,0.98669 -0.14285,2.24765 0.6875,2.9375 2.05182,1.67481 4.12973,3.17324 6.21875,4.46875 0.007,0.004 0.0243,-0.004 0.0312,0 2.08478,1.3106 4.18015,2.44425 6.3125,3.375 4.99535,2.18041 9.36888,3.13409 13.21875,2.40625 3.86393,-0.73055 6.90864,-3.42982 8.5625,-7.21875 1.52955,-3.50429 1.85011,-7.01766 0.375,-10 -1.53313,-3.09945 -4.78623,-5.63937 -9.625,-8.53125 l -0.0312,-0.0312 -1.5625,-0.9375 c -0.0207,-0.0107 -0.0415,-0.0211 -0.0625,-0.0312 -1.32774,-0.76811 -1.91902,-1.3521 -2.15625,-1.59375 0.46176,-0.006 1.51854,0.15622 3.09375,0.84375 1.52762,0.66682 3.10675,1.60049 4.71875,2.78125 1.62568,1.19085 3.24639,2.58224 4.84375,4.25 1.13075,1.18174 3.43318,0.77749 4.09375,-0.71875 l 3.21875,-7.34375 c 0.43944,-1.00675 0.11487,-2.29151 -0.75,-2.96875 -2.11451,-1.62934 -4.14512,-3.05974 -6.09375,-4.25 -1.95352,-1.19315 -3.89733,-2.17766 -5.78125,-3 -3.59851,-1.57068 -6.81193,-2.48349 -9.78125,-2.53125 z m -41.5,2.625 c 0.30257,-0.0158 0.67803,-0.002 1.09375,0.0625 1.63497,0.25283 2.33588,0.77458 2.90625,1.90625 -6e-5,0.0104 -6e-5,0.0208 0,0.0312 0.58134,1.13137 0.8412,3.06201 0.40625,5.875 -0.43378,2.80513 -1.27912,4.55325 -2.1875,5.46875 -0.88664,0.90769 -1.70247,1.1913 -3.34375,0.9375 -1.59517,-0.24665 -2.27661,-0.7532 -2.875,-1.90625 -0.004,-0.007 0.004,-0.024 0,-0.0312 -0.57039,-1.14937 -0.83691,-3.08995 -0.40625,-5.875 0.43463,-2.81093 1.2594,-4.5506 2.15625,-5.46875 0.684,-0.68936 1.29292,-0.95011 2.25,-1 z m -75.46875,8.9375 c -1.19676,0.60125 -2.44025,1.34233 -3.59375,1.75 -2.08233,0.71959 -4.10868,1.13071 -6.09375,1.25 -2.38134,0.14312 -3.92168,-0.27572 -4.9375,-1 -0.38568,-0.27498 -0.68075,-0.65446 -0.96875,-1.0625 z"
         id="path3799"
         inkscape:connector-curvature="0"
         sodipodi:nodetypes="ccccccccccccccccccccccccscsccccccccccccccccccccccccccccccccccccccccccccccsccscccccccccccccccccccccccccccccccccccccccccccccsccccccccccccccccccscccccccsccscccccsccccccccccccccccccccccccccccccccsccc" />
      <path
         sodipodi:nodetypes="ccccccccccccccccccccccccscsccccccccccccccccccccccccccccccccccccccccccccccsccscccccccccccccccccccccccccccccccccccccccccccccsccccccccccccccccccscccccccsccscccccsccccccccccccccccccccccccccccccccsccc"
         inkscape:connector-curvature="0"
         id="path3797"
         d="m 339.40625,828.45593 c -0.0524,0.009 -0.10452,0.0191 -0.15625,0.0312 l -10.46875,1.34375 c -1.29019,0.16949 -2.31358,1.48952 -2.15625,2.78125 l 1.09375,8.5625 c 0.10882,0.84892 0.686,1.6226 1.46875,1.96875 -0.65565,0.53176 -1.01029,1.41226 -0.90625,2.25 l 4.25,32.8125 c 0.16949,1.29019 1.48952,2.31358 2.78125,2.15625 l 10.5,-1.34375 c 1.29019,-0.16949 2.31358,-1.48952 2.15625,-2.78125 l -4.28125,-32.8125 c -0.10882,-0.84892 -0.686,-1.6226 -1.46875,-1.96875 0.6765,-0.53057 1.04544,-1.42831 0.9375,-2.28125 l -1.125,-8.53125 c -0.15478,-1.24439 -1.3731,-2.25966 -2.625,-2.1875 z m 129.53125,1.78125 c -1.14026,0.0588 -2.1739,0.99593 -2.34375,2.125 l -1.84375,11.9375 c -0.35555,-0.31818 -0.64958,-0.72223 -1.03125,-1 -0.0113,-0.008 -0.0199,-0.0229 -0.0312,-0.0312 -1.95626,-1.44443 -4.31065,-2.32218 -6.875,-2.71875 -4.68479,-0.72436 -9.16725,0.67022 -12.71875,3.90625 -3.55624,3.22108 -5.74768,7.74716 -6.59375,13.21875 -0.84501,5.46477 -0.13054,10.43004 2.28125,14.59375 2.41327,4.13793 6.27836,6.83724 10.96875,7.5625 2.59978,0.40201 5.0994,0.27375 7.40625,-0.5 0.50097,-0.16804 0.95392,-0.49192 1.4375,-0.71875 0.1835,1.02188 1.06678,1.8788 2.09375,2.03125 l 10.5,1.625 c 1.29243,0.19464 2.64583,-0.80181 2.84375,-2.09375 l 7.03125,-45.4375 c 0.19464,-1.29243 -0.80181,-2.64583 -2.09375,-2.84375 l -10.53125,-1.625 c -0.16506,-0.0271 -0.33285,-0.0376 -0.5,-0.0312 z m -49.65625,7.1875 c -2.51565,-0.074 -4.91779,0.43033 -7.09375,1.46875 -0.009,0.004 -0.0223,-0.004 -0.0312,0 -0.53403,0.25164 -1.01753,0.65029 -1.53125,0.96875 -0.23515,-1.08291 -1.26727,-1.93848 -2.375,-1.96875 l -10.59375,-0.3125 c -1.30907,-0.033 -2.53005,1.12842 -2.5625,2.4375 l -0.96875,33.09375 c -0.033,1.30907 1.12842,2.53005 2.4375,2.5625 l 10.59375,0.3125 c 1.30907,0.033 2.53005,-1.12842 2.5625,-2.4375 l 0.46875,-16.28125 c 0.0785,-2.66716 0.69321,-4.40098 1.5625,-5.5 6e-5,-0.0104 6e-5,-0.0208 0,-0.0312 0.87634,-1.12061 1.68344,-1.48359 3.25,-1.4375 0.55463,0.0163 0.88872,0.13483 1.1875,0.3125 0.0207,0.0107 0.0415,0.0211 0.0625,0.0312 0.29255,0.16561 0.45743,0.3329 0.65625,0.6875 0.0103,0.0105 0.0207,0.0209 0.0312,0.0312 -0.002,-0.003 0.18108,0.47604 0.25,1.34375 -2.6e-4,0.0208 -2.6e-4,0.0417 0,0.0625 0.0791,0.81242 0.11419,2.77745 0.0312,5.59375 l -0.375,12.15625 -0.0937,3.28125 c -0.033,1.30907 1.12842,2.53005 2.4375,2.5625 l 10.65625,0.3125 c 1.30907,0.033 2.53005,-1.12842 2.5625,-2.4375 L 433,854.08093 c 0.14225,-4.83192 -0.85284,-8.89415 -3.25,-11.90625 -0.005,-0.007 0.005,-0.0244 0,-0.0312 -2.39621,-3.01576 -6.14151,-4.59127 -10.46875,-4.71875 z m -47.84375,0.53125 c -0.66304,-0.0127 -1.38849,-0.013 -2.125,0.0312 -6.15266,0.36981 -11.26458,2.40158 -14.84375,6.21875 -0.0104,-6e-5 -0.0208,-6e-5 -0.0312,0 -3.55515,3.8146 -5.10377,8.98858 -4.75,14.875 0.35975,5.98591 2.55887,10.9584 6.625,14.28125 0.0104,6e-5 0.0208,6e-5 0.0312,0 4.08181,3.29383 9.53365,4.66611 15.9375,4.28125 2.66034,-0.15989 5.31315,-0.59885 7.9375,-1.28125 l 0,0.0312 c 2.61276,-0.65825 5.18222,-1.56781 7.75,-2.71875 0.92015,-0.41432 1.5324,-1.43038 1.46875,-2.4375 l -0.46875,-8.15625 c -0.0182,-0.35861 -0.1149,-0.71303 -0.28125,-1.03125 0.99827,-0.3707 1.6915,-1.4372 1.625,-2.5 l -0.1875,-3.03125 c -0.3442,-5.72652 -2.44478,-10.56721 -6.28125,-13.96875 -3.33794,-2.97827 -7.5925,-4.50192 -12.40625,-4.59375 z m -91.46875,2.96875 c -0.31423,0.0252 -0.62354,0.11053 -0.90625,0.25 l -27.78125,13.03125 c -1.17389,0.56122 -1.73746,2.13329 -1.1875,3.3125 l 18.71875,39.96875 c 0.56122,1.17389 2.13329,1.73746 3.3125,1.1875 l 10.28125,-4.84375 c 1.17389,-0.56122 1.73746,-2.13329 1.1875,-3.3125 l -6.875,-14.6875 14.21875,-6.65625 c 1.17389,-0.56122 1.73746,-2.13329 1.1875,-3.3125 l -3.65625,-7.78125 c -0.56122,-1.17389 -2.13329,-1.73746 -3.3125,-1.1875 l -14.1875,6.65625 -1.375,-2.9375 15.25,-7.15625 c 1.17389,-0.56122 1.73746,-2.13329 1.1875,-3.3125 l -3.65625,-7.78125 c -0.41999,-0.8985 -1.41602,-1.49353 -2.40625,-1.4375 z m 42.5625,1.96875 c -0.81604,0.0669 -1.42909,0.14889 -1.875,0.21875 -0.0302,0.005 -0.0967,0.0267 -0.125,0.0312 -0.3694,0.0403 -0.74693,0.089 -1.21875,0.1875 -2.74757,0.57456 -5.16426,1.67323 -7.0625,3.34375 -0.32678,0.28545 -0.54638,0.68034 -0.84375,1 -0.49487,-0.97367 -1.68177,-1.54015 -2.75,-1.3125 l -10.34375,2.1875 c -1.26215,0.2814 -2.16339,1.67018 -1.90625,2.9375 l 6.75,32.375 c 0.26756,1.27334 1.66165,2.19285 2.9375,1.9375 l 10.375,-2.15625 c 1.27334,-0.26756 2.19285,-1.66165 1.9375,-2.9375 l -3.125,-14.90625 c -0.59025,-2.82272 -0.35663,-4.79029 0.34375,-6.09375 0.73053,-1.35617 1.8091,-2.17992 3.9375,-2.625 0.66243,-0.13852 1.43518,-0.17863 2.21875,-0.15625 0.0208,2.6e-4 0.0417,2.6e-4 0.0625,0 0.76661,0.003 1.53666,0.0909 2.34375,0.28125 1.63271,0.373 3.35589,-1.33222 3,-2.96875 l -2,-9.375 c -0.25167,-1.17754 -1.45642,-2.07047 -2.65625,-1.96875 z m 47.9375,7.09375 c 1.05835,0.0275 1.65059,0.27949 2.3125,0.90625 0.0103,0.0105 0.0207,0.0209 0.0312,0.0312 0.18167,0.16647 0.29402,0.39787 0.4375,0.59375 l -6.9375,0.40625 c 0.13835,-0.19914 0.24316,-0.46087 0.40625,-0.625 0.74352,-0.76108 1.66967,-1.18625 3.25,-1.28125 0.2886,-0.0173 0.49248,-0.0314 0.5,-0.0312 z m 128.71875,1 c -1.01957,-0.0164 -1.96385,0.10064 -2.84375,0.28125 -3.66382,0.7521 -6.5837,3.37906 -8.21875,7.125 -1.49481,3.42461 -1.74963,6.93046 -0.28125,9.90625 1.48041,3.00029 4.46138,5.46414 8.71875,8 l 0.0312,0.0312 1.5625,0.9375 c 0.0207,0.0107 0.0415,0.0211 0.0625,0.0312 1.72609,1.01198 2.67203,1.98778 2.625,1.90625 -0.15112,0.34619 0.0995,0.17636 -0.375,0.21875 -0.47714,0.0426 -1.71441,-0.13653 -3.40625,-0.875 -1.92961,-0.84225 -3.72734,-1.88093 -5.40625,-3.125 -1.65219,-1.22926 -3.17944,-2.6878 -4.59375,-4.34375 -0.54804,-0.63861 -1.43414,-0.96882 -2.26645,-0.84459 -0.83231,0.12422 -1.58337,0.69878 -1.92105,1.46959 l -3.21875,7.375 c -0.43797,0.98669 -0.14285,2.24765 0.6875,2.9375 2.05182,1.67481 4.12973,3.17324 6.21875,4.46875 0.007,0.004 0.0243,-0.004 0.0312,0 2.08478,1.3106 4.18015,2.44425 6.3125,3.375 4.99535,2.18041 9.36888,3.13409 13.21875,2.40625 3.86393,-0.73055 6.90864,-3.42982 8.5625,-7.21875 1.52955,-3.50429 1.85011,-7.01766 0.375,-10 -1.53313,-3.09945 -4.78623,-5.63937 -9.625,-8.53125 l -0.0312,-0.0312 -1.5625,-0.9375 c -0.0207,-0.0107 -0.0415,-0.0211 -0.0625,-0.0312 -1.32774,-0.76811 -1.91902,-1.3521 -2.15625,-1.59375 0.46176,-0.006 1.51854,0.15622 3.09375,0.84375 1.52762,0.66682 3.10675,1.60049 4.71875,2.78125 1.62568,1.19085 3.24639,2.58224 4.84375,4.25 1.13075,1.18174 3.43318,0.77749 4.09375,-0.71875 l 3.21875,-7.34375 c 0.43944,-1.00675 0.11487,-2.29151 -0.75,-2.96875 -2.11451,-1.62934 -4.14512,-3.05974 -6.09375,-4.25 -1.95352,-1.19315 -3.89733,-2.17766 -5.78125,-3 -3.59851,-1.57068 -6.81193,-2.48349 -9.78125,-2.53125 z m -41.5,2.625 c 0.30257,-0.0158 0.67803,-0.002 1.09375,0.0625 1.63497,0.25283 2.33588,0.77458 2.90625,1.90625 -6e-5,0.0104 -6e-5,0.0208 0,0.0312 0.58134,1.13137 0.8412,3.06201 0.40625,5.875 -0.43378,2.80513 -1.27912,4.55325 -2.1875,5.46875 -0.88664,0.90769 -1.70247,1.1913 -3.34375,0.9375 -1.59517,-0.24665 -2.27661,-0.7532 -2.875,-1.90625 -0.004,-0.007 0.004,-0.024 0,-0.0312 -0.57039,-1.14937 -0.83691,-3.08995 -0.40625,-5.875 0.43463,-2.81093 1.2594,-4.5506 2.15625,-5.46875 0.684,-0.68936 1.29292,-0.95011 2.25,-1 z m -75.46875,8.9375 c -1.19676,0.60125 -2.44025,1.34233 -3.59375,1.75 -2.08233,0.71959 -4.10868,1.13071 -6.09375,1.25 -2.38134,0.14312 -3.92168,-0.27572 -4.9375,-1 -0.38568,-0.27498 -0.68075,-0.65446 -0.96875,-1.0625 z"
         style="font-size:60.52417374px;font-style:normal;font-variant:normal;font-weight:bold;font-stretch:normal;text-indent:0;text-align:start;text-decoration:none;line-height:125%;letter-spacing:0px;word-spacing:0px;text-transform:none;direction:ltr;block-progression:tb;writing-mode:lr-tb;text-anchor:start;baseline-shift:baseline;color:#000000;fill:#8ae234;fill-opacity:1;fill-rule:nonzero;stroke:#8ae234;stroke-width:10;stroke-miterlimit:4;stroke-opacity:1;stroke-dasharray:none;marker:none;visibility:visible;display:inline;overflow:visible;enable-background:accumulate;font-family:Symbol;-inkscape-font-specification:Symbol Bold" />
      <path
         style="font-size:60.52417374px;font-style:normal;font-variant:normal;font-weight:bold;font-stretch:normal;text-indent:0;text-align:start;text-decoration:none;line-height:125%;letter-spacing:0px;word-spacing:0px;text-transform:none;direction:ltr;block-progression:tb;writing-mode:lr-tb;text-anchor:start;baseline-shift:baseline;color:#000000;fill:#555753;fill-opacity:1;fill-rule:nonzero;stroke:#555753;stroke-width:4;stroke-miterlimit:4;stroke-opacity:1;stroke-dasharray:none;marker:none;visibility:visible;display:inline;overflow:visible;enable-background:accumulate;font-family:Symbol;-inkscape-font-specification:Symbol Bold"
         d="m 339.40625,828.45593 c -0.0524,0.009 -0.10452,0.0191 -0.15625,0.0312 l -10.46875,1.34375 c -1.29019,0.16949 -2.31358,1.48952 -2.15625,2.78125 l 1.09375,8.5625 c 0.10882,0.84892 0.686,1.6226 1.46875,1.96875 -0.65565,0.53176 -1.01029,1.41226 -0.90625,2.25 l 4.25,32.8125 c 0.16949,1.29019 1.48952,2.31358 2.78125,2.15625 l 10.5,-1.34375 c 1.29019,-0.16949 2.31358,-1.48952 2.15625,-2.78125 l -4.28125,-32.8125 c -0.10882,-0.84892 -0.686,-1.6226 -1.46875,-1.96875 0.6765,-0.53057 1.04544,-1.42831 0.9375,-2.28125 l -1.125,-8.53125 c -0.15478,-1.24439 -1.3731,-2.25966 -2.625,-2.1875 z m 129.53125,1.78125 c -1.14026,0.0588 -2.1739,0.99593 -2.34375,2.125 l -1.84375,11.9375 c -0.35555,-0.31818 -0.64958,-0.72223 -1.03125,-1 -0.0113,-0.008 -0.0199,-0.0229 -0.0312,-0.0312 -1.95626,-1.44443 -4.31065,-2.32218 -6.875,-2.71875 -4.68479,-0.72436 -9.16725,0.67022 -12.71875,3.90625 -3.55624,3.22108 -5.74768,7.74716 -6.59375,13.21875 -0.84501,5.46477 -0.13054,10.43004 2.28125,14.59375 2.41327,4.13793 6.27836,6.83724 10.96875,7.5625 2.59978,0.40201 5.0994,0.27375 7.40625,-0.5 0.50097,-0.16804 0.95392,-0.49192 1.4375,-0.71875 0.1835,1.02188 1.06678,1.8788 2.09375,2.03125 l 10.5,1.625 c 1.29243,0.19464 2.64583,-0.80181 2.84375,-2.09375 l 7.03125,-45.4375 c 0.19464,-1.29243 -0.80181,-2.64583 -2.09375,-2.84375 l -10.53125,-1.625 c -0.16506,-0.0271 -0.33285,-0.0376 -0.5,-0.0312 z m -49.65625,7.1875 c -2.51565,-0.074 -4.91779,0.43033 -7.09375,1.46875 -0.009,0.004 -0.0223,-0.004 -0.0312,0 -0.53403,0.25164 -1.01753,0.65029 -1.53125,0.96875 -0.23515,-1.08291 -1.26727,-1.93848 -2.375,-1.96875 l -10.59375,-0.3125 c -1.30907,-0.033 -2.53005,1.12842 -2.5625,2.4375 l -0.96875,33.09375 c -0.033,1.30907 1.12842,2.53005 2.4375,2.5625 l 10.59375,0.3125 c 1.30907,0.033 2.53005,-1.12842 2.5625,-2.4375 l 0.46875,-16.28125 c 0.0785,-2.66716 0.69321,-4.40098 1.5625,-5.5 6e-5,-0.0104 6e-5,-0.0208 0,-0.0312 0.87634,-1.12061 1.68344,-1.48359 3.25,-1.4375 0.55463,0.0163 0.88872,0.13483 1.1875,0.3125 0.0207,0.0107 0.0415,0.0211 0.0625,0.0312 0.29255,0.16561 0.45743,0.3329 0.65625,0.6875 0.0103,0.0105 0.0207,0.0209 0.0312,0.0312 -0.002,-0.003 0.18108,0.47604 0.25,1.34375 -2.6e-4,0.0208 -2.6e-4,0.0417 0,0.0625 0.0791,0.81242 0.11419,2.77745 0.0312,5.59375 l -0.375,12.15625 -0.0937,3.28125 c -0.033,1.30907 1.12842,2.53005 2.4375,2.5625 l 10.65625,0.3125 c 1.30907,0.033 2.53005,-1.12842 2.5625,-2.4375 L 433,854.08093 c 0.14225,-4.83192 -0.85284,-8.89415 -3.25,-11.90625 -0.005,-0.007 0.005,-0.0244 0,-0.0312 -2.39621,-3.01576 -6.14151,-4.59127 -10.46875,-4.71875 z m -47.84375,0.53125 c -0.66304,-0.0127 -1.38849,-0.013 -2.125,0.0312 -6.15266,0.36981 -11.26458,2.40158 -14.84375,6.21875 -0.0104,-6e-5 -0.0208,-6e-5 -0.0312,0 -3.55515,3.8146 -5.10377,8.98858 -4.75,14.875 0.35975,5.98591 2.55887,10.9584 6.625,14.28125 0.0104,6e-5 0.0208,6e-5 0.0312,0 4.08181,3.29383 9.53365,4.66611 15.9375,4.28125 2.66034,-0.15989 5.31315,-0.59885 7.9375,-1.28125 l 0,0.0312 c 2.61276,-0.65825 5.18222,-1.56781 7.75,-2.71875 0.92015,-0.41432 1.5324,-1.43038 1.46875,-2.4375 l -0.46875,-8.15625 c -0.0182,-0.35861 -0.1149,-0.71303 -0.28125,-1.03125 0.99827,-0.3707 1.6915,-1.4372 1.625,-2.5 l -0.1875,-3.03125 c -0.3442,-5.72652 -2.44478,-10.56721 -6.28125,-13.96875 -3.33794,-2.97827 -7.5925,-4.50192 -12.40625,-4.59375 z m -91.46875,2.96875 c -0.31423,0.0252 -0.62354,0.11053 -0.90625,0.25 l -27.78125,13.03125 c -1.17389,0.56122 -1.73746,2.13329 -1.1875,3.3125 l 18.71875,39.96875 c 0.56122,1.17389 2.13329,1.73746 3.3125,1.1875 l 10.28125,-4.84375 c 1.17389,-0.56122 1.73746,-2.13329 1.1875,-3.3125 l -6.875,-14.6875 14.21875,-6.65625 c 1.17389,-0.56122 1.73746,-2.13329 1.1875,-3.3125 l -3.65625,-7.78125 c -0.56122,-1.17389 -2.13329,-1.73746 -3.3125,-1.1875 l -14.1875,6.65625 -1.375,-2.9375 15.25,-7.15625 c 1.17389,-0.56122 1.73746,-2.13329 1.1875,-3.3125 l -3.65625,-7.78125 c -0.41999,-0.8985 -1.41602,-1.49353 -2.40625,-1.4375 z m 42.5625,1.96875 c -0.81604,0.0669 -1.42909,0.14889 -1.875,0.21875 -0.0302,0.005 -0.0967,0.0267 -0.125,0.0312 -0.3694,0.0403 -0.74693,0.089 -1.21875,0.1875 -2.74757,0.57456 -5.16426,1.67323 -7.0625,3.34375 -0.32678,0.28545 -0.54638,0.68034 -0.84375,1 -0.49487,-0.97367 -1.68177,-1.54015 -2.75,-1.3125 l -10.34375,2.1875 c -1.26215,0.2814 -2.16339,1.67018 -1.90625,2.9375 l 6.75,32.375 c 0.26756,1.27334 1.66165,2.19285 2.9375,1.9375 l 10.375,-2.15625 c 1.27334,-0.26756 2.19285,-1.66165 1.9375,-2.9375 l -3.125,-14.90625 c -0.59025,-2.82272 -0.35663,-4.79029 0.34375,-6.09375 0.73053,-1.35617 1.8091,-2.17992 3.9375,-2.625 0.66243,-0.13852 1.43518,-0.17863 2.21875,-0.15625 0.0208,2.6e-4 0.0417,2.6e-4 0.0625,0 0.76661,0.003 1.53666,0.0909 2.34375,0.28125 1.63271,0.373 3.35589,-1.33222 3,-2.96875 l -2,-9.375 c -0.25167,-1.17754 -1.45642,-2.07047 -2.65625,-1.96875 z m 47.9375,7.09375 c 1.05835,0.0275 1.65059,0.27949 2.3125,0.90625 0.0103,0.0105 0.0207,0.0209 0.0312,0.0312 0.18167,0.16647 0.29402,0.39787 0.4375,0.59375 l -6.9375,0.40625 c 0.13835,-0.19914 0.24316,-0.46087 0.40625,-0.625 0.74352,-0.76108 1.66967,-1.18625 3.25,-1.28125 0.2886,-0.0173 0.49248,-0.0314 0.5,-0.0312 z m 128.71875,1 c -1.01957,-0.0164 -1.96385,0.10064 -2.84375,0.28125 -3.66382,0.7521 -6.5837,3.37906 -8.21875,7.125 -1.49481,3.42461 -1.74963,6.93046 -0.28125,9.90625 1.48041,3.00029 4.46138,5.46414 8.71875,8 l 0.0312,0.0312 1.5625,0.9375 c 0.0207,0.0107 0.0415,0.0211 0.0625,0.0312 1.72609,1.01198 2.67203,1.98778 2.625,1.90625 -0.15112,0.34619 0.0995,0.17636 -0.375,0.21875 -0.47714,0.0426 -1.71441,-0.13653 -3.40625,-0.875 -1.92961,-0.84225 -3.72734,-1.88093 -5.40625,-3.125 -1.65219,-1.22926 -3.17944,-2.6878 -4.59375,-4.34375 -0.54804,-0.63861 -1.43414,-0.96882 -2.26645,-0.84459 -0.83231,0.12422 -1.58337,0.69878 -1.92105,1.46959 l -3.21875,7.375 c -0.43797,0.98669 -0.14285,2.24765 0.6875,2.9375 2.05182,1.67481 4.12973,3.17324 6.21875,4.46875 0.007,0.004 0.0243,-0.004 0.0312,0 2.08478,1.3106 4.18015,2.44425 6.3125,3.375 4.99535,2.18041 9.36888,3.13409 13.21875,2.40625 3.86393,-0.73055 6.90864,-3.42982 8.5625,-7.21875 1.52955,-3.50429 1.85011,-7.01766 0.375,-10 -1.53313,-3.09945 -4.78623,-5.63937 -9.625,-8.53125 l -0.0312,-0.0312 -1.5625,-0.9375 c -0.0207,-0.0107 -0.0415,-0.0211 -0.0625,-0.0312 -1.32774,-0.76811 -1.91902,-1.3521 -2.15625,-1.59375 0.46176,-0.006 1.51854,0.15622 3.09375,0.84375 1.52762,0.66682 3.10675,1.60049 4.71875,2.78125 1.62568,1.19085 3.24639,2.58224 4.84375,4.25 1.13075,1.18174 3.43318,0.77749 4.09375,-0.71875 l 3.21875,-7.34375 c 0.43944,-1.00675 0.11487,-2.29151 -0.75,-2.96875 -2.11451,-1.62934 -4.14512,-3.05974 -6.09375,-4.25 -1.95352,-1.19315 -3.89733,-2.17766 -5.78125,-3 -3.59851,-1.57068 -6.81193,-2.48349 -9.78125,-2.53125 z m -41.5,2.625 c 0.30257,-0.0158 0.67803,-0.002 1.09375,0.0625 1.63497,0.25283 2.33588,0.77458 2.90625,1.90625 -6e-5,0.0104 -6e-5,0.0208 0,0.0312 0.58134,1.13137 0.8412,3.06201 0.40625,5.875 -0.43378,2.80513 -1.27912,4.55325 -2.1875,5.46875 -0.88664,0.90769 -1.70247,1.1913 -3.34375,0.9375 -1.59517,-0.24665 -2.27661,-0.7532 -2.875,-1.90625 -0.004,-0.007 0.004,-0.024 0,-0.0312 -0.57039,-1.14937 -0.83691,-3.08995 -0.40625,-5.875 0.43463,-2.81093 1.2594,-4.5506 2.15625,-5.46875 0.684,-0.68936 1.29292,-0.95011 2.25,-1 z m -75.46875,8.9375 c -1.19676,0.60125 -2.44025,1.34233 -3.59375,1.75 -2.08233,0.71959 -4.10868,1.13071 -6.09375,1.25 -2.38134,0.14312 -3.92168,-0.27572 -4.9375,-1 -0.38568,-0.27498 -0.68075,-0.65446 -0.96875,-1.0625 z"
         id="path3795"
         inkscape:connector-curvature="0"
         sodipodi:nodetypes="ccccccccccccccccccccccccscsccccccccccccccccccccccccccccccccccccccccccccccsccscccccccccccccccccccccccccccccccccccccccccccccsccccccccccccccccccscccccccsccscccccsccccccccccccccccccccccccccccccccsccc" />
      <path
         sodipodi:nodetypes="ccccccccccccccccccccccccscsccccccccccccccccccccccccccccccccccccccccccccccsccscccccccccccccccccccccccccccccccccccccccccccccsccccccccccccccccccscccccccsccscccccsccccccccccccccccccccccccccccccccsccc"
         inkscape:connector-curvature="0"
         id="path3793"
         d="m 339.40625,826.45593 c -0.0524,0.009 -0.10452,0.0191 -0.15625,0.0312 l -10.46875,1.34375 c -1.29019,0.16949 -2.31358,1.48952 -2.15625,2.78125 l 1.09375,8.5625 c 0.10882,0.84892 0.686,1.6226 1.46875,1.96875 -0.65565,0.53176 -1.01029,1.41226 -0.90625,2.25 l 4.25,32.8125 c 0.16949,1.29019 1.48952,2.31358 2.78125,2.15625 l 10.5,-1.34375 c 1.29019,-0.16949 2.31358,-1.48952 2.15625,-2.78125 l -4.28125,-32.8125 c -0.10882,-0.84892 -0.686,-1.6226 -1.46875,-1.96875 0.6765,-0.53057 1.04544,-1.42831 0.9375,-2.28125 l -1.125,-8.53125 c -0.15478,-1.24439 -1.3731,-2.25966 -2.625,-2.1875 z m 129.53125,1.78125 c -1.14026,0.0588 -2.1739,0.99593 -2.34375,2.125 l -1.84375,11.9375 c -0.35555,-0.31818 -0.64958,-0.72223 -1.03125,-1 -0.0113,-0.008 -0.0199,-0.0229 -0.0312,-0.0312 -1.95626,-1.44443 -4.31065,-2.32218 -6.875,-2.71875 -4.68479,-0.72436 -9.16725,0.67022 -12.71875,3.90625 -3.55624,3.22108 -5.74768,7.74716 -6.59375,13.21875 -0.84501,5.46477 -0.13054,10.43004 2.28125,14.59375 2.41327,4.13793 6.27836,6.83724 10.96875,7.5625 2.59978,0.40201 5.0994,0.27375 7.40625,-0.5 0.50097,-0.16804 0.95392,-0.49192 1.4375,-0.71875 0.1835,1.02188 1.06678,1.8788 2.09375,2.03125 l 10.5,1.625 c 1.29243,0.19464 2.64583,-0.80181 2.84375,-2.09375 l 7.03125,-45.4375 c 0.19464,-1.29243 -0.80181,-2.64583 -2.09375,-2.84375 l -10.53125,-1.625 c -0.16506,-0.0271 -0.33285,-0.0376 -0.5,-0.0312 z m -49.65625,7.1875 c -2.51565,-0.074 -4.91779,0.43033 -7.09375,1.46875 -0.009,0.004 -0.0223,-0.004 -0.0312,0 -0.53403,0.25164 -1.01753,0.65029 -1.53125,0.96875 -0.23515,-1.08291 -1.26727,-1.93848 -2.375,-1.96875 l -10.59375,-0.3125 c -1.30907,-0.033 -2.53005,1.12842 -2.5625,2.4375 l -0.96875,33.09375 c -0.033,1.30907 1.12842,2.53005 2.4375,2.5625 l 10.59375,0.3125 c 1.30907,0.033 2.53005,-1.12842 2.5625,-2.4375 l 0.46875,-16.28125 c 0.0785,-2.66716 0.69321,-4.40098 1.5625,-5.5 6e-5,-0.0104 6e-5,-0.0208 0,-0.0312 0.87634,-1.12061 1.68344,-1.48359 3.25,-1.4375 0.55463,0.0163 0.88872,0.13483 1.1875,0.3125 0.0207,0.0107 0.0415,0.0211 0.0625,0.0312 0.29255,0.16561 0.45743,0.3329 0.65625,0.6875 0.0103,0.0105 0.0207,0.0209 0.0312,0.0312 -0.002,-0.003 0.18108,0.47604 0.25,1.34375 -2.6e-4,0.0208 -2.6e-4,0.0417 0,0.0625 0.0791,0.81242 0.11419,2.77745 0.0312,5.59375 l -0.375,12.15625 -0.0937,3.28125 c -0.033,1.30907 1.12842,2.53005 2.4375,2.5625 l 10.65625,0.3125 c 1.30907,0.033 2.53005,-1.12842 2.5625,-2.4375 L 433,852.08093 c 0.14225,-4.83192 -0.85284,-8.89415 -3.25,-11.90625 -0.005,-0.007 0.005,-0.0244 0,-0.0312 -2.39621,-3.01576 -6.14151,-4.59127 -10.46875,-4.71875 z m -47.84375,0.53125 c -0.66304,-0.0127 -1.38849,-0.013 -2.125,0.0312 -6.15266,0.36981 -11.26458,2.40158 -14.84375,6.21875 -0.0104,-6e-5 -0.0208,-6e-5 -0.0312,0 -3.55515,3.8146 -5.10377,8.98858 -4.75,14.875 0.35975,5.98591 2.55887,10.9584 6.625,14.28125 0.0104,6e-5 0.0208,6e-5 0.0312,0 4.08181,3.29383 9.53365,4.66611 15.9375,4.28125 2.66034,-0.15989 5.31315,-0.59885 7.9375,-1.28125 l 0,0.0312 c 2.61276,-0.65825 5.18222,-1.56781 7.75,-2.71875 0.92015,-0.41432 1.5324,-1.43038 1.46875,-2.4375 l -0.46875,-8.15625 c -0.0182,-0.35861 -0.1149,-0.71303 -0.28125,-1.03125 0.99827,-0.3707 1.6915,-1.4372 1.625,-2.5 l -0.1875,-3.03125 c -0.3442,-5.72652 -2.44478,-10.56721 -6.28125,-13.96875 -3.33794,-2.97827 -7.5925,-4.50192 -12.40625,-4.59375 z m -91.46875,2.96875 c -0.31423,0.0252 -0.62354,0.11053 -0.90625,0.25 l -27.78125,13.03125 c -1.17389,0.56122 -1.73746,2.13329 -1.1875,3.3125 l 18.71875,39.96875 c 0.56122,1.17389 2.13329,1.73746 3.3125,1.1875 l 10.28125,-4.84375 c 1.17389,-0.56122 1.73746,-2.13329 1.1875,-3.3125 l -6.875,-14.6875 14.21875,-6.65625 c 1.17389,-0.56122 1.73746,-2.13329 1.1875,-3.3125 l -3.65625,-7.78125 c -0.56122,-1.17389 -2.13329,-1.73746 -3.3125,-1.1875 l -14.1875,6.65625 -1.375,-2.9375 15.25,-7.15625 c 1.17389,-0.56122 1.73746,-2.13329 1.1875,-3.3125 l -3.65625,-7.78125 c -0.41999,-0.8985 -1.41602,-1.49353 -2.40625,-1.4375 z m 42.5625,1.96875 c -0.81604,0.0669 -1.42909,0.14889 -1.875,0.21875 -0.0302,0.005 -0.0967,0.0267 -0.125,0.0312 -0.3694,0.0403 -0.74693,0.089 -1.21875,0.1875 -2.74757,0.57456 -5.16426,1.67323 -7.0625,3.34375 -0.32678,0.28545 -0.54638,0.68034 -0.84375,1 -0.49487,-0.97367 -1.68177,-1.54015 -2.75,-1.3125 l -10.34375,2.1875 c -1.26215,0.2814 -2.16339,1.67018 -1.90625,2.9375 l 6.75,32.375 c 0.26756,1.27334 1.66165,2.19285 2.9375,1.9375 l 10.375,-2.15625 c 1.27334,-0.26756 2.19285,-1.66165 1.9375,-2.9375 l -3.125,-14.90625 c -0.59025,-2.82272 -0.35663,-4.79029 0.34375,-6.09375 0.73053,-1.35617 1.8091,-2.17992 3.9375,-2.625 0.66243,-0.13852 1.43518,-0.17863 2.21875,-0.15625 0.0208,2.6e-4 0.0417,2.6e-4 0.0625,0 0.76661,0.003 1.53666,0.0909 2.34375,0.28125 1.63271,0.373 3.35589,-1.33222 3,-2.96875 l -2,-9.375 c -0.25167,-1.17754 -1.45642,-2.07047 -2.65625,-1.96875 z m 47.9375,7.09375 c 1.05835,0.0275 1.65059,0.27949 2.3125,0.90625 0.0103,0.0105 0.0207,0.0209 0.0312,0.0312 0.18167,0.16647 0.29402,0.39787 0.4375,0.59375 l -6.9375,0.40625 c 0.13835,-0.19914 0.24316,-0.46087 0.40625,-0.625 0.74352,-0.76108 1.66967,-1.18625 3.25,-1.28125 0.2886,-0.0173 0.49248,-0.0314 0.5,-0.0312 z m 128.71875,1 c -1.01957,-0.0164 -1.96385,0.10064 -2.84375,0.28125 -3.66382,0.7521 -6.5837,3.37906 -8.21875,7.125 -1.49481,3.42461 -1.74963,6.93046 -0.28125,9.90625 1.48041,3.00029 4.46138,5.46414 8.71875,8 l 0.0312,0.0312 1.5625,0.9375 c 0.0207,0.0107 0.0415,0.0211 0.0625,0.0312 1.72609,1.01198 2.67203,1.98778 2.625,1.90625 -0.15112,0.34619 0.0995,0.17636 -0.375,0.21875 -0.47714,0.0426 -1.71441,-0.13653 -3.40625,-0.875 -1.92961,-0.84225 -3.72734,-1.88093 -5.40625,-3.125 -1.65219,-1.22926 -3.17944,-2.6878 -4.59375,-4.34375 -0.54804,-0.63861 -1.43414,-0.96882 -2.26645,-0.84459 -0.83231,0.12422 -1.58337,0.69878 -1.92105,1.46959 l -3.21875,7.375 c -0.43797,0.98669 -0.14285,2.24765 0.6875,2.9375 2.05182,1.67481 4.12973,3.17324 6.21875,4.46875 0.007,0.004 0.0243,-0.004 0.0312,0 2.08478,1.3106 4.18015,2.44425 6.3125,3.375 4.99535,2.18041 9.36888,3.13409 13.21875,2.40625 3.86393,-0.73055 6.90864,-3.42982 8.5625,-7.21875 1.52955,-3.50429 1.85011,-7.01766 0.375,-10 -1.53313,-3.09945 -4.78623,-5.63937 -9.625,-8.53125 l -0.0312,-0.0312 -1.5625,-0.9375 c -0.0207,-0.0107 -0.0415,-0.0211 -0.0625,-0.0312 -1.32774,-0.76811 -1.91902,-1.3521 -2.15625,-1.59375 0.46176,-0.006 1.51854,0.15622 3.09375,0.84375 1.52762,0.66682 3.10675,1.60049 4.71875,2.78125 1.62568,1.19085 3.24639,2.58224 4.84375,4.25 1.13075,1.18174 3.43318,0.77749 4.09375,-0.71875 l 3.21875,-7.34375 c 0.43944,-1.00675 0.11487,-2.29151 -0.75,-2.96875 -2.11451,-1.62934 -4.14512,-3.05974 -6.09375,-4.25 -1.95352,-1.19315 -3.89733,-2.17766 -5.78125,-3 -3.59851,-1.57068 -6.81193,-2.48349 -9.78125,-2.53125 z m -41.5,2.625 c 0.30257,-0.0158 0.67803,-0.002 1.09375,0.0625 1.63497,0.25283 2.33588,0.77458 2.90625,1.90625 -6e-5,0.0104 -6e-5,0.0208 0,0.0312 0.58134,1.13137 0.8412,3.06201 0.40625,5.875 -0.43378,2.80513 -1.27912,4.55325 -2.1875,5.46875 -0.88664,0.90769 -1.70247,1.1913 -3.34375,0.9375 -1.59517,-0.24665 -2.27661,-0.7532 -2.875,-1.90625 -0.004,-0.007 0.004,-0.024 0,-0.0312 -0.57039,-1.14937 -0.83691,-3.08995 -0.40625,-5.875 0.43463,-2.81093 1.2594,-4.5506 2.15625,-5.46875 0.684,-0.68936 1.29292,-0.95011 2.25,-1 z m -75.46875,8.9375 c -1.19676,0.60125 -2.44025,1.34233 -3.59375,1.75 -2.08233,0.71959 -4.10868,1.13071 -6.09375,1.25 -2.38134,0.14312 -3.92168,-0.27572 -4.9375,-1 -0.38568,-0.27498 -0.68075,-0.65446 -0.96875,-1.0625 z"
         style="font-size:60.52417374px;font-style:normal;font-variant:normal;font-weight:bold;font-stretch:normal;text-indent:0;text-align:start;text-decoration:none;line-height:125%;letter-spacing:0px;word-spacing:0px;text-transform:none;direction:ltr;block-progression:tb;writing-mode:lr-tb;text-anchor:start;baseline-shift:baseline;color:#000000;fill:#888a85;fill-opacity:1;fill-rule:nonzero;stroke:#888a85;stroke-width:4;stroke-miterlimit:4;stroke-opacity:1;stroke-dasharray:none;marker:none;visibility:visible;display:inline;overflow:visible;enable-background:accumulate;font-family:Symbol;-inkscape-font-specification:Symbol Bold" />
      <path
         style="font-size:60.52417374px;font-style:normal;font-variant:normal;font-weight:bold;font-stretch:normal;text-indent:0;text-align:start;text-decoration:none;line-height:125%;letter-spacing:0px;word-spacing:0px;text-transform:none;direction:ltr;block-progression:tb;writing-mode:lr-tb;text-anchor:start;baseline-shift:baseline;color:#000000;fill:#babdb6;fill-opacity:1;fill-rule:nonzero;stroke:none;stroke-width:5;marker:none;visibility:visible;display:inline;overflow:visible;enable-background:accumulate;font-family:Symbol;-inkscape-font-specification:Symbol Bold"
         d="m 339.40625,826.45593 c -0.0524,0.009 -0.10452,0.0191 -0.15625,0.0312 l -10.46875,1.34375 c -1.29019,0.16949 -2.31358,1.48952 -2.15625,2.78125 l 1.09375,8.5625 c 0.10882,0.84892 0.686,1.6226 1.46875,1.96875 -0.65565,0.53176 -1.01029,1.41226 -0.90625,2.25 l 4.25,32.8125 c 0.16949,1.29019 1.48952,2.31358 2.78125,2.15625 l 10.5,-1.34375 c 1.29019,-0.16949 2.31358,-1.48952 2.15625,-2.78125 l -4.28125,-32.8125 c -0.10882,-0.84892 -0.686,-1.6226 -1.46875,-1.96875 0.6765,-0.53057 1.04544,-1.42831 0.9375,-2.28125 l -1.125,-8.53125 c -0.15478,-1.24439 -1.3731,-2.25966 -2.625,-2.1875 z m 129.53125,1.78125 c -1.14026,0.0588 -2.1739,0.99593 -2.34375,2.125 l -1.84375,11.9375 c -0.35555,-0.31818 -0.64958,-0.72223 -1.03125,-1 -0.0113,-0.008 -0.0199,-0.0229 -0.0312,-0.0312 -1.95626,-1.44443 -4.31065,-2.32218 -6.875,-2.71875 -4.68479,-0.72436 -9.16725,0.67022 -12.71875,3.90625 -3.55624,3.22108 -5.74768,7.74716 -6.59375,13.21875 -0.84501,5.46477 -0.13054,10.43004 2.28125,14.59375 2.41327,4.13793 6.27836,6.83724 10.96875,7.5625 2.59978,0.40201 5.0994,0.27375 7.40625,-0.5 0.50097,-0.16804 0.95392,-0.49192 1.4375,-0.71875 0.1835,1.02188 1.06678,1.8788 2.09375,2.03125 l 10.5,1.625 c 1.29243,0.19464 2.64583,-0.80181 2.84375,-2.09375 l 7.03125,-45.4375 c 0.19464,-1.29243 -0.80181,-2.64583 -2.09375,-2.84375 l -10.53125,-1.625 c -0.16506,-0.0271 -0.33285,-0.0376 -0.5,-0.0312 z m -49.65625,7.1875 c -2.51565,-0.074 -4.91779,0.43033 -7.09375,1.46875 -0.009,0.004 -0.0223,-0.004 -0.0312,0 -0.53403,0.25164 -1.01753,0.65029 -1.53125,0.96875 -0.23515,-1.08291 -1.26727,-1.93848 -2.375,-1.96875 l -10.59375,-0.3125 c -1.30907,-0.033 -2.53005,1.12842 -2.5625,2.4375 l -0.96875,33.09375 c -0.033,1.30907 1.12842,2.53005 2.4375,2.5625 l 10.59375,0.3125 c 1.30907,0.033 2.53005,-1.12842 2.5625,-2.4375 l 0.46875,-16.28125 c 0.0785,-2.66716 0.69321,-4.40098 1.5625,-5.5 6e-5,-0.0104 6e-5,-0.0208 0,-0.0312 0.87634,-1.12061 1.68344,-1.48359 3.25,-1.4375 0.55463,0.0163 0.88872,0.13483 1.1875,0.3125 0.0207,0.0107 0.0415,0.0211 0.0625,0.0312 0.29255,0.16561 0.45743,0.3329 0.65625,0.6875 0.0103,0.0105 0.0207,0.0209 0.0312,0.0312 -0.002,-0.003 0.18108,0.47604 0.25,1.34375 -2.6e-4,0.0208 -2.6e-4,0.0417 0,0.0625 0.0791,0.81242 0.11419,2.77745 0.0312,5.59375 l -0.375,12.15625 -0.0937,3.28125 c -0.033,1.30907 1.12842,2.53005 2.4375,2.5625 l 10.65625,0.3125 c 1.30907,0.033 2.53005,-1.12842 2.5625,-2.4375 L 433,852.08093 c 0.14225,-4.83192 -0.85284,-8.89415 -3.25,-11.90625 -0.005,-0.007 0.005,-0.0244 0,-0.0312 -2.39621,-3.01576 -6.14151,-4.59127 -10.46875,-4.71875 z m -47.84375,0.53125 c -0.66304,-0.0127 -1.38849,-0.013 -2.125,0.0312 -6.15266,0.36981 -11.26458,2.40158 -14.84375,6.21875 -0.0104,-6e-5 -0.0208,-6e-5 -0.0312,0 -3.55515,3.8146 -5.10377,8.98858 -4.75,14.875 0.35975,5.98591 2.55887,10.9584 6.625,14.28125 0.0104,6e-5 0.0208,6e-5 0.0312,0 4.08181,3.29383 9.53365,4.66611 15.9375,4.28125 2.66034,-0.15989 5.31315,-0.59885 7.9375,-1.28125 l 0,0.0312 c 2.61276,-0.65825 5.18222,-1.56781 7.75,-2.71875 0.92015,-0.41432 1.5324,-1.43038 1.46875,-2.4375 l -0.46875,-8.15625 c -0.0182,-0.35861 -0.1149,-0.71303 -0.28125,-1.03125 0.99827,-0.3707 1.6915,-1.4372 1.625,-2.5 l -0.1875,-3.03125 c -0.3442,-5.72652 -2.44478,-10.56721 -6.28125,-13.96875 -3.33794,-2.97827 -7.5925,-4.50192 -12.40625,-4.59375 z m -91.46875,2.96875 c -0.31423,0.0252 -0.62354,0.11053 -0.90625,0.25 l -27.78125,13.03125 c -1.17389,0.56122 -1.73746,2.13329 -1.1875,3.3125 l 18.71875,39.96875 c 0.56122,1.17389 2.13329,1.73746 3.3125,1.1875 l 10.28125,-4.84375 c 1.17389,-0.56122 1.73746,-2.13329 1.1875,-3.3125 l -6.875,-14.6875 14.21875,-6.65625 c 1.17389,-0.56122 1.73746,-2.13329 1.1875,-3.3125 l -3.65625,-7.78125 c -0.56122,-1.17389 -2.13329,-1.73746 -3.3125,-1.1875 l -14.1875,6.65625 -1.375,-2.9375 15.25,-7.15625 c 1.17389,-0.56122 1.73746,-2.13329 1.1875,-3.3125 l -3.65625,-7.78125 c -0.41999,-0.8985 -1.41602,-1.49353 -2.40625,-1.4375 z m 42.5625,1.96875 c -0.81604,0.0669 -1.42909,0.14889 -1.875,0.21875 -0.0302,0.005 -0.0967,0.0267 -0.125,0.0312 -0.3694,0.0403 -0.74693,0.089 -1.21875,0.1875 -2.74757,0.57456 -5.16426,1.67323 -7.0625,3.34375 -0.32678,0.28545 -0.54638,0.68034 -0.84375,1 -0.49487,-0.97367 -1.68177,-1.54015 -2.75,-1.3125 l -10.34375,2.1875 c -1.26215,0.2814 -2.16339,1.67018 -1.90625,2.9375 l 6.75,32.375 c 0.26756,1.27334 1.66165,2.19285 2.9375,1.9375 l 10.375,-2.15625 c 1.27334,-0.26756 2.19285,-1.66165 1.9375,-2.9375 l -3.125,-14.90625 c -0.59025,-2.82272 -0.35663,-4.79029 0.34375,-6.09375 0.73053,-1.35617 1.8091,-2.17992 3.9375,-2.625 0.66243,-0.13852 1.43518,-0.17863 2.21875,-0.15625 0.0208,2.6e-4 0.0417,2.6e-4 0.0625,0 0.76661,0.003 1.53666,0.0909 2.34375,0.28125 1.63271,0.373 3.35589,-1.33222 3,-2.96875 l -2,-9.375 c -0.25167,-1.17754 -1.45642,-2.07047 -2.65625,-1.96875 z m 47.9375,7.09375 c 1.05835,0.0275 1.65059,0.27949 2.3125,0.90625 0.0103,0.0105 0.0207,0.0209 0.0312,0.0312 0.18167,0.16647 0.29402,0.39787 0.4375,0.59375 l -6.9375,0.40625 c 0.13835,-0.19914 0.24316,-0.46087 0.40625,-0.625 0.74352,-0.76108 1.66967,-1.18625 3.25,-1.28125 0.2886,-0.0173 0.49248,-0.0314 0.5,-0.0312 z m 128.71875,1 c -1.01957,-0.0164 -1.96385,0.10064 -2.84375,0.28125 -3.66382,0.7521 -6.5837,3.37906 -8.21875,7.125 -1.49481,3.42461 -1.74963,6.93046 -0.28125,9.90625 1.48041,3.00029 4.46138,5.46414 8.71875,8 l 0.0312,0.0312 1.5625,0.9375 c 0.0207,0.0107 0.0415,0.0211 0.0625,0.0312 1.72609,1.01198 2.67203,1.98778 2.625,1.90625 -0.15112,0.34619 0.0995,0.17636 -0.375,0.21875 -0.47714,0.0426 -1.71441,-0.13653 -3.40625,-0.875 -1.92961,-0.84225 -3.72734,-1.88093 -5.40625,-3.125 -1.65219,-1.22926 -3.17944,-2.6878 -4.59375,-4.34375 -0.54804,-0.63861 -1.43414,-0.96882 -2.26645,-0.84459 -0.83231,0.12422 -1.58337,0.69878 -1.92105,1.46959 l -3.21875,7.375 c -0.43797,0.98669 -0.14285,2.24765 0.6875,2.9375 2.05182,1.67481 4.12973,3.17324 6.21875,4.46875 0.007,0.004 0.0243,-0.004 0.0312,0 2.08478,1.3106 4.18015,2.44425 6.3125,3.375 4.99535,2.18041 9.36888,3.13409 13.21875,2.40625 3.86393,-0.73055 6.90864,-3.42982 8.5625,-7.21875 1.52955,-3.50429 1.85011,-7.01766 0.375,-10 -1.53313,-3.09945 -4.78623,-5.63937 -9.625,-8.53125 l -0.0312,-0.0312 -1.5625,-0.9375 c -0.0207,-0.0107 -0.0415,-0.0211 -0.0625,-0.0312 -1.32774,-0.76811 -1.91902,-1.3521 -2.15625,-1.59375 0.46176,-0.006 1.51854,0.15622 3.09375,0.84375 1.52762,0.66682 3.10675,1.60049 4.71875,2.78125 1.62568,1.19085 3.24639,2.58224 4.84375,4.25 1.13075,1.18174 3.43318,0.77749 4.09375,-0.71875 l 3.21875,-7.34375 c 0.43944,-1.00675 0.11487,-2.29151 -0.75,-2.96875 -2.11451,-1.62934 -4.14512,-3.05974 -6.09375,-4.25 -1.95352,-1.19315 -3.89733,-2.17766 -5.78125,-3 -3.59851,-1.57068 -6.81193,-2.48349 -9.78125,-2.53125 z m -41.5,2.625 c 0.30257,-0.0158 0.67803,-0.002 1.09375,0.0625 1.63497,0.25283 2.33588,0.77458 2.90625,1.90625 -6e-5,0.0104 -6e-5,0.0208 0,0.0312 0.58134,1.13137 0.8412,3.06201 0.40625,5.875 -0.43378,2.80513 -1.27912,4.55325 -2.1875,5.46875 -0.88664,0.90769 -1.70247,1.1913 -3.34375,0.9375 -1.59517,-0.24665 -2.27661,-0.7532 -2.875,-1.90625 -0.004,-0.007 0.004,-0.024 0,-0.0312 -0.57039,-1.14937 -0.83691,-3.08995 -0.40625,-5.875 0.43463,-2.81093 1.2594,-4.5506 2.15625,-5.46875 0.684,-0.68936 1.29292,-0.95011 2.25,-1 z m -75.46875,8.9375 c -1.19676,0.60125 -2.44025,1.34233 -3.59375,1.75 -2.08233,0.71959 -4.10868,1.13071 -6.09375,1.25 -2.38134,0.14312 -3.92168,-0.27572 -4.9375,-1 -0.38568,-0.27498 -0.68075,-0.65446 -0.96875,-1.0625 z"
         id="path3791"
         inkscape:connector-curvature="0"
         sodipodi:nodetypes="ccccccccccccccccccccccccscsccccccccccccccccccccccccccccccccccccccccccccccsccscccccccccccccccccccccccccccccccccccccccccccccsccccccccccccccccccscccccccsccscccccsccccccccccccccccccccccccccccccccsccc" />
      <path
         sodipodi:nodetypes="ccccccccccccccccccccccccscsccccccccccccccccccccccccccccccccccccccccccccccsccscccccccccccccccccccccccccccccccccccccccccccccsccccccccccccccccccscccccccsccscccccsccccccccccccccccccccccccccccccccsccc"
         inkscape:connector-curvature="0"
         id="path2997"
         d="m 339.40625,824.45593 c -0.0524,0.009 -0.10452,0.0191 -0.15625,0.0312 l -10.46875,1.34375 c -1.29019,0.16949 -2.31358,1.48952 -2.15625,2.78125 l 1.09375,8.5625 c 0.10882,0.84892 0.686,1.6226 1.46875,1.96875 -0.65565,0.53176 -1.01029,1.41226 -0.90625,2.25 l 4.25,32.8125 c 0.16949,1.29019 1.48952,2.31358 2.78125,2.15625 l 10.5,-1.34375 c 1.29019,-0.16949 2.31358,-1.48952 2.15625,-2.78125 l -4.28125,-32.8125 c -0.10882,-0.84892 -0.686,-1.6226 -1.46875,-1.96875 0.6765,-0.53057 1.04544,-1.42831 0.9375,-2.28125 l -1.125,-8.53125 c -0.15478,-1.24439 -1.3731,-2.25966 -2.625,-2.1875 z m 129.53125,1.78125 c -1.14026,0.0588 -2.1739,0.99593 -2.34375,2.125 l -1.84375,11.9375 c -0.35555,-0.31818 -0.64958,-0.72223 -1.03125,-1 -0.0113,-0.008 -0.0199,-0.0229 -0.0312,-0.0312 -1.95626,-1.44443 -4.31065,-2.32218 -6.875,-2.71875 -4.68479,-0.72436 -9.16725,0.67022 -12.71875,3.90625 -3.55624,3.22108 -5.74768,7.74716 -6.59375,13.21875 -0.84501,5.46477 -0.13054,10.43004 2.28125,14.59375 2.41327,4.13793 6.27836,6.83724 10.96875,7.5625 2.59978,0.40201 5.0994,0.27375 7.40625,-0.5 0.50097,-0.16804 0.95392,-0.49192 1.4375,-0.71875 0.1835,1.02188 1.06678,1.8788 2.09375,2.03125 l 10.5,1.625 c 1.29243,0.19464 2.64583,-0.80181 2.84375,-2.09375 l 7.03125,-45.4375 c 0.19464,-1.29243 -0.80181,-2.64583 -2.09375,-2.84375 l -10.53125,-1.625 c -0.16506,-0.0271 -0.33285,-0.0376 -0.5,-0.0312 z m -49.65625,7.1875 c -2.51565,-0.074 -4.91779,0.43033 -7.09375,1.46875 -0.009,0.004 -0.0223,-0.004 -0.0312,0 -0.53403,0.25164 -1.01753,0.65029 -1.53125,0.96875 -0.23515,-1.08291 -1.26727,-1.93848 -2.375,-1.96875 l -10.59375,-0.3125 c -1.30907,-0.033 -2.53005,1.12842 -2.5625,2.4375 l -0.96875,33.09375 c -0.033,1.30907 1.12842,2.53005 2.4375,2.5625 l 10.59375,0.3125 c 1.30907,0.033 2.53005,-1.12842 2.5625,-2.4375 l 0.46875,-16.28125 c 0.0785,-2.66716 0.69321,-4.40098 1.5625,-5.5 6e-5,-0.0104 6e-5,-0.0208 0,-0.0312 0.87634,-1.12061 1.68344,-1.48359 3.25,-1.4375 0.55463,0.0163 0.88872,0.13483 1.1875,0.3125 0.0207,0.0107 0.0415,0.0211 0.0625,0.0312 0.29255,0.16561 0.45743,0.3329 0.65625,0.6875 0.0103,0.0105 0.0207,0.0209 0.0312,0.0312 -0.002,-0.003 0.18108,0.47604 0.25,1.34375 -2.6e-4,0.0208 -2.6e-4,0.0417 0,0.0625 0.0791,0.81242 0.11419,2.77745 0.0312,5.59375 l -0.375,12.15625 -0.0937,3.28125 c -0.033,1.30907 1.12842,2.53005 2.4375,2.5625 l 10.65625,0.3125 c 1.30907,0.033 2.53005,-1.12842 2.5625,-2.4375 L 433,850.08093 c 0.14225,-4.83192 -0.85284,-8.89415 -3.25,-11.90625 -0.005,-0.007 0.005,-0.0244 0,-0.0312 -2.39621,-3.01576 -6.14151,-4.59127 -10.46875,-4.71875 z m -47.84375,0.53125 c -0.66304,-0.0127 -1.38849,-0.013 -2.125,0.0312 -6.15266,0.36981 -11.26458,2.40158 -14.84375,6.21875 -0.0104,-6e-5 -0.0208,-6e-5 -0.0312,0 -3.55515,3.8146 -5.10377,8.98858 -4.75,14.875 0.35975,5.98591 2.55887,10.9584 6.625,14.28125 0.0104,6e-5 0.0208,6e-5 0.0312,0 4.08181,3.29383 9.53365,4.66611 15.9375,4.28125 2.66034,-0.15989 5.31315,-0.59885 7.9375,-1.28125 l 0,0.0312 c 2.61276,-0.65825 5.18222,-1.56781 7.75,-2.71875 0.92015,-0.41432 1.5324,-1.43038 1.46875,-2.4375 l -0.46875,-8.15625 c -0.0182,-0.35861 -0.1149,-0.71303 -0.28125,-1.03125 0.99827,-0.3707 1.6915,-1.4372 1.625,-2.5 l -0.1875,-3.03125 c -0.3442,-5.72652 -2.44478,-10.56721 -6.28125,-13.96875 -3.33794,-2.97827 -7.5925,-4.50192 -12.40625,-4.59375 z m -91.46875,2.96875 c -0.31423,0.0252 -0.62354,0.11053 -0.90625,0.25 l -27.78125,13.03125 c -1.17389,0.56122 -1.73746,2.13329 -1.1875,3.3125 l 18.71875,39.96875 c 0.56122,1.17389 2.13329,1.73746 3.3125,1.1875 l 10.28125,-4.84375 c 1.17389,-0.56122 1.73746,-2.13329 1.1875,-3.3125 l -6.875,-14.6875 14.21875,-6.65625 c 1.17389,-0.56122 1.73746,-2.13329 1.1875,-3.3125 l -3.65625,-7.78125 c -0.56122,-1.17389 -2.13329,-1.73746 -3.3125,-1.1875 l -14.1875,6.65625 -1.375,-2.9375 15.25,-7.15625 c 1.17389,-0.56122 1.73746,-2.13329 1.1875,-3.3125 l -3.65625,-7.78125 c -0.41999,-0.8985 -1.41602,-1.49353 -2.40625,-1.4375 z m 42.5625,1.96875 c -0.81604,0.0669 -1.42909,0.14889 -1.875,0.21875 -0.0302,0.005 -0.0967,0.0267 -0.125,0.0312 -0.3694,0.0403 -0.74693,0.089 -1.21875,0.1875 -2.74757,0.57456 -5.16426,1.67323 -7.0625,3.34375 -0.32678,0.28545 -0.54638,0.68034 -0.84375,1 -0.49487,-0.97367 -1.68177,-1.54015 -2.75,-1.3125 l -10.34375,2.1875 c -1.26215,0.2814 -2.16339,1.67018 -1.90625,2.9375 l 6.75,32.375 c 0.26756,1.27334 1.66165,2.19285 2.9375,1.9375 l 10.375,-2.15625 c 1.27334,-0.26756 2.19285,-1.66165 1.9375,-2.9375 l -3.125,-14.90625 c -0.59025,-2.82272 -0.35663,-4.79029 0.34375,-6.09375 0.73053,-1.35617 1.8091,-2.17992 3.9375,-2.625 0.66243,-0.13852 1.43518,-0.17863 2.21875,-0.15625 0.0208,2.6e-4 0.0417,2.6e-4 0.0625,0 0.76661,0.003 1.53666,0.0909 2.34375,0.28125 1.63271,0.373 3.35589,-1.33222 3,-2.96875 l -2,-9.375 c -0.25167,-1.17754 -1.45642,-2.07047 -2.65625,-1.96875 z m 47.9375,7.09375 c 1.05835,0.0275 1.65059,0.27949 2.3125,0.90625 0.0103,0.0105 0.0207,0.0209 0.0312,0.0312 0.18167,0.16647 0.29402,0.39787 0.4375,0.59375 l -6.9375,0.40625 c 0.13835,-0.19914 0.24316,-0.46087 0.40625,-0.625 0.74352,-0.76108 1.66967,-1.18625 3.25,-1.28125 0.2886,-0.0173 0.49248,-0.0314 0.5,-0.0312 z m 128.71875,1 c -1.01957,-0.0164 -1.96385,0.10064 -2.84375,0.28125 -3.66382,0.7521 -6.5837,3.37906 -8.21875,7.125 -1.49481,3.42461 -1.74963,6.93046 -0.28125,9.90625 1.48041,3.00029 4.46138,5.46414 8.71875,8 l 0.0312,0.0312 1.5625,0.9375 c 0.0207,0.0107 0.0415,0.0211 0.0625,0.0312 1.72609,1.01198 2.67203,1.98778 2.625,1.90625 -0.15112,0.34619 0.0995,0.17636 -0.375,0.21875 -0.47714,0.0426 -1.71441,-0.13653 -3.40625,-0.875 -1.92961,-0.84225 -3.72734,-1.88093 -5.40625,-3.125 -1.65219,-1.22926 -3.17944,-2.6878 -4.59375,-4.34375 -0.54804,-0.63861 -1.43414,-0.96882 -2.26645,-0.84459 -0.83231,0.12422 -1.58337,0.69878 -1.92105,1.46959 l -3.21875,7.375 c -0.43797,0.98669 -0.14285,2.24765 0.6875,2.9375 2.05182,1.67481 4.12973,3.17324 6.21875,4.46875 0.007,0.004 0.0243,-0.004 0.0312,0 2.08478,1.3106 4.18015,2.44425 6.3125,3.375 4.99535,2.18041 9.36888,3.13409 13.21875,2.40625 3.86393,-0.73055 6.90864,-3.42982 8.5625,-7.21875 1.52955,-3.50429 1.85011,-7.01766 0.375,-10 -1.53313,-3.09945 -4.78623,-5.63937 -9.625,-8.53125 l -0.0312,-0.0312 -1.5625,-0.9375 c -0.0207,-0.0107 -0.0415,-0.0211 -0.0625,-0.0312 -1.32774,-0.76811 -1.91902,-1.3521 -2.15625,-1.59375 0.46176,-0.006 1.51854,0.15622 3.09375,0.84375 1.52762,0.66682 3.10675,1.60049 4.71875,2.78125 1.62568,1.19085 3.24639,2.58224 4.84375,4.25 1.13075,1.18174 3.43318,0.77749 4.09375,-0.71875 l 3.21875,-7.34375 c 0.43944,-1.00675 0.11487,-2.29151 -0.75,-2.96875 -2.11451,-1.62934 -4.14512,-3.05974 -6.09375,-4.25 -1.95352,-1.19315 -3.89733,-2.17766 -5.78125,-3 -3.59851,-1.57068 -6.81193,-2.48349 -9.78125,-2.53125 z m -41.5,2.625 c 0.30257,-0.0158 0.67803,-0.002 1.09375,0.0625 1.63497,0.25283 2.33588,0.77458 2.90625,1.90625 -6e-5,0.0104 -6e-5,0.0208 0,0.0312 0.58134,1.13137 0.8412,3.06201 0.40625,5.875 -0.43378,2.80513 -1.27912,4.55325 -2.1875,5.46875 -0.88664,0.90769 -1.70247,1.1913 -3.34375,0.9375 -1.59517,-0.24665 -2.27661,-0.7532 -2.875,-1.90625 -0.004,-0.007 0.004,-0.024 0,-0.0312 -0.57039,-1.14937 -0.83691,-3.08995 -0.40625,-5.875 0.43463,-2.81093 1.2594,-4.5506 2.15625,-5.46875 0.684,-0.68936 1.29292,-0.95011 2.25,-1 z m -75.46875,8.9375 c -1.19676,0.60125 -2.44025,1.34233 -3.59375,1.75 -2.08233,0.71959 -4.10868,1.13071 -6.09375,1.25 -2.38134,0.14312 -3.92168,-0.27572 -4.9375,-1 -0.38568,-0.27498 -0.68075,-0.65446 -0.96875,-1.0625 z"
         style="font-size:60.52417374px;font-style:normal;font-variant:normal;font-weight:bold;font-stretch:normal;text-indent:0;text-align:start;text-decoration:none;line-height:125%;letter-spacing:0px;word-spacing:0px;text-transform:none;direction:ltr;block-progression:tb;writing-mode:lr-tb;text-anchor:start;baseline-shift:baseline;color:#000000;fill:#eeeeec;fill-opacity:1;fill-rule:nonzero;stroke:none;stroke-width:5;marker:none;visibility:visible;display:inline;overflow:visible;enable-background:accumulate;font-family:Symbol;-inkscape-font-specification:Symbol Bold" />
    </g>
    <g
       id="g3884"
       transform="matrix(0.85540435,-0.51796081,0.51796081,0.85540435,-476.18764,339.49887)"
       inkscape:export-filename="/home/georg/Entwicklung/Java/libGDX/FriendsWithMonsters/Artwork/logo.png"
       inkscape:export-xdpi="127.61835"
       inkscape:export-ydpi="127.61835">
      <text
         xml:space="preserve"
         style="font-size:40px;font-style:normal;font-weight:normal;line-height:125%;letter-spacing:0px;word-spacing:0px;fill:#000000;fill-opacity:1;stroke:#232323;stroke-width:15;stroke-miterlimit:4;stroke-opacity:1;stroke-dasharray:none;font-family:Sans"
         x="336"
         y="812.36218"
         id="text3880"
         sodipodi:linespacing="125%"><tspan
           sodipodi:role="line"
           id="tspan3882"
           x="336"
           y="812.36218"
           style="font-style:normal;font-variant:normal;font-weight:bold;font-stretch:normal;fill:#000000;fill-opacity:1;stroke:#232323;stroke-width:15;stroke-linejoin:round;stroke-miterlimit:4;stroke-opacity:1;stroke-dasharray:none;font-family:Symbol;-inkscape-font-specification:Symbol Bold">with</tspan></text>
      <text
         sodipodi:linespacing="125%"
         id="text3876"
         y="810.36218"
         x="336"
         style="font-size:40px;font-style:normal;font-weight:normal;line-height:125%;letter-spacing:0px;word-spacing:0px;fill:#2e3436;fill-opacity:1;stroke:#2e3436;stroke-width:15;stroke-miterlimit:4;stroke-dasharray:none;font-family:Sans"
         xml:space="preserve"><tspan
           style="font-style:normal;font-variant:normal;font-weight:bold;font-stretch:normal;fill:#2e3436;stroke:#2e3436;stroke-width:15;stroke-linejoin:round;stroke-miterlimit:4;stroke-opacity:1;stroke-dasharray:none;font-family:Symbol;-inkscape-font-specification:Symbol Bold"
           y="810.36218"
           x="336"
           id="tspan3878"
           sodipodi:role="line">with</tspan></text>
      <text
         xml:space="preserve"
         style="font-size:40px;font-style:normal;font-weight:normal;line-height:125%;letter-spacing:0px;word-spacing:0px;fill:#555753;fill-opacity:1;stroke:#555753;stroke-width:8;stroke-miterlimit:4;stroke-dasharray:none;font-family:Sans"
         x="336"
         y="810.36218"
         id="text3872"
         sodipodi:linespacing="125%"><tspan
           sodipodi:role="line"
           id="tspan3874"
           x="336"
           y="810.36218"
           style="font-style:normal;font-variant:normal;font-weight:bold;font-stretch:normal;fill:#555753;stroke:#555753;stroke-width:8;stroke-linejoin:round;stroke-miterlimit:4;stroke-opacity:1;stroke-dasharray:none;font-family:Symbol;-inkscape-font-specification:Symbol Bold">with</tspan></text>
      <text
         sodipodi:linespacing="125%"
         id="text3868"
         y="808.36218"
         x="336"
         style="font-size:40px;font-style:normal;font-weight:normal;line-height:125%;letter-spacing:0px;word-spacing:0px;fill:#d3d7cf;fill-opacity:1;stroke:#888a85;stroke-width:8;stroke-miterlimit:4;stroke-dasharray:none;font-family:Sans"
         xml:space="preserve"><tspan
           style="font-style:normal;font-variant:normal;font-weight:bold;font-stretch:normal;fill:#d3d7cf;stroke:#888a85;stroke-width:8;stroke-linejoin:round;stroke-miterlimit:4;stroke-opacity:1;stroke-dasharray:none;font-family:Symbol;-inkscape-font-specification:Symbol Bold"
           y="808.36218"
           x="336"
           id="tspan3870"
           sodipodi:role="line">with</tspan></text>
      <text
         xml:space="preserve"
         style="font-size:40px;font-style:normal;font-weight:normal;line-height:125%;letter-spacing:0px;word-spacing:0px;fill:#d3d7cf;fill-opacity:1;stroke:#d3d7cf;font-family:Sans"
         x="336"
         y="808.36218"
         id="text3864"
         sodipodi:linespacing="125%"><tspan
           sodipodi:role="line"
           id="tspan3866"
           x="336"
           y="808.36218"
           style="font-style:normal;font-variant:normal;font-weight:bold;font-stretch:normal;fill:#d3d7cf;stroke:#d3d7cf;stroke-width:3;stroke-linejoin:round;stroke-miterlimit:4;stroke-opacity:1;stroke-dasharray:none;font-family:Symbol;-inkscape-font-specification:Symbol Bold">with</tspan></text>
      <text
         sodipodi:linespacing="125%"
         id="text3860"
         y="806.36218"
         x="336"
         style="font-size:40px;font-style:normal;font-weight:normal;line-height:125%;letter-spacing:0px;word-spacing:0px;fill:#eeeeec;fill-opacity:1;stroke:#eeeeec;font-family:Sans"
         xml:space="preserve"><tspan
           style="font-style:normal;font-variant:normal;font-weight:bold;font-stretch:normal;fill:#eeeeec;stroke:#eeeeec;stroke-width:3;stroke-linejoin:round;stroke-miterlimit:4;stroke-opacity:1;stroke-dasharray:none;font-family:Symbol;-inkscape-font-specification:Symbol Bold"
           y="806.36218"
           x="336"
           id="tspan3862"
           sodipodi:role="line">with</tspan></text>
    </g>
    <path
       style="fill:none;stroke:#000000;stroke-width:1px;stroke-linecap:butt;stroke-linejoin:miter;stroke-opacity:1"
       d="m 272.71429,1037.6479 c 32,-48.00001 184,-80.00001 244.54025,-28.504"
       id="path2991"
       inkscape:connector-curvature="0"
       sodipodi:nodetypes="cc" />
    <g
       id="g3844"
       transform="matrix(0.99003898,-0.14079358,0.14079358,0.99003898,-177.46355,-18.918845)"
       inkscape:export-filename="/home/georg/Entwicklung/Java/libGDX/FriendsWithMonsters/Artwork/logo.png"
       inkscape:export-xdpi="127.61835"
       inkscape:export-ydpi="127.61835">
      <path
         inkscape:connector-curvature="0"
         style="font-size:48.97890091px;font-style:normal;font-variant:normal;font-weight:bold;font-stretch:normal;line-height:125%;letter-spacing:0px;word-spacing:0px;fill:#204a87;fill-opacity:1;stroke:#204a87;stroke-width:16;stroke-linejoin:round;stroke-miterlimit:4;stroke-dasharray:none;font-family:Symbol;-inkscape-font-specification:Symbol Bold"
         d="m 422.21875,899.14343 -8.5625,0.3125 0.25,7.59375 -4.25,0.15625 0.21875,6.125 4.25,-0.15625 0.40625,11.34375 c 0.11943,3.37795 0.92268,5.75648 2.375,7.125 1.46766,1.35202 3.87204,1.96319 7.25,1.84375 l 7.34375,-0.25 -0.21875,-6.125 -4.40625,0.15625 c -1.46591,0.0518 -2.42836,-0.1185 -2.9375,-0.53125 -0.50974,-0.42867 -0.79985,-1.28841 -0.84375,-2.53125 l -0.40625,-11.34375 8.8125,-0.3125 -0.21875,-6.125 -8.8125,0.3125 -0.25,-7.59375 z m 28.75,7.65625 c -3.83889,-0.0524 -7.00656,0.92059 -9.5,2.90625 -2.83378,2.27073 -4.44152,5.58474 -4.8125,9.9375 -0.37776,4.43222 0.666,7.9977 3.125,10.6875 2.47622,2.67527 6.13938,4.2134 10.96875,4.625 2.01751,0.17192 4.04235,0.13145 6.09375,-0.0937 2.05,-0.20931 4.1362,-0.59693 6.21875,-1.1875 l 0.5625,-6.59375 c -2.07786,0.91101 -4.0948,1.5585 -6.03125,1.9375 -1.91925,0.36451 -3.76739,0.4655 -5.5625,0.3125 -2.22406,-0.18955 -3.93995,-0.83106 -5.09375,-1.9375 -1.15382,-1.10642 -1.74535,-2.66825 -1.78125,-4.6875 l 19.96875,1.71875 0.1875,-2.4375 c 0.36012,-4.22568 -0.59568,-7.72757 -2.90625,-10.46875 -2.29475,-2.73979 -5.5561,-4.26753 -9.75,-4.625 -0.57587,-0.0491 -1.13909,-0.0863 -1.6875,-0.0937 z m -54.25,1.5 c -1.75421,-0.0121 -3.43487,0.1082 -5,0.3125 -3.984,0.52014 -6.84249,1.57611 -8.59375,3.1875 -1.75126,1.61144 -2.42989,3.81093 -2.0625,6.625 0.34055,2.60858 1.34636,4.48008 3.03125,5.5625 1.68489,1.08244 4.44085,1.61275 8.28125,1.59375 l 1.53125,0 c 1.75006,-0.0194 2.91256,0.10114 3.53125,0.40625 0.6324,0.28727 1.0259,0.80365 1.125,1.5625 0.11762,0.90115 -0.22197,1.65089 -1,2.21875 -0.77807,0.56787 -1.99627,0.9708 -3.65625,1.1875 -1.83391,0.23943 -3.69112,0.27158 -5.53125,0.0937 -1.82433,-0.17988 -3.60731,-0.58624 -5.40625,-1.1875 l 0.84375,6.4375 c 2.04842,0.29534 4.00564,0.4748 5.90625,0.5 1.91847,0.039 3.74513,-0.0522 5.5,-0.28125 4.14207,-0.54076 7.16138,-1.6797 9.0625,-3.375 1.90107,-1.69529 2.68192,-3.95134 2.3125,-6.78125 -0.35296,-2.70341 -1.36425,-4.58755 -3.03125,-5.65625 -1.66703,-1.06867 -4.70517,-1.5767 -9.125,-1.5625 l -1.53125,-0.0312 c -1.55623,0.0263 -2.66428,-0.0898 -3.3125,-0.375 -0.63243,-0.28724 -0.9738,-0.78893 -1.0625,-1.46875 -0.1094,-0.83789 0.18317,-1.5036 0.90625,-2 0.7368,-0.51422 1.91867,-0.8832 3.53125,-1.09375 1.50189,-0.19602 3.13383,-0.22106 4.875,-0.0625 1.74113,0.15861 3.55156,0.50977 5.46875,1.03125 l -0.84375,-6.4375 c -2.08969,-0.24169 -3.99582,-0.39405 -5.75,-0.40625 z M 477,910.76843 l -6.46875,26 8.3125,2.0625 2.96875,-11.96875 c 0.63387,-2.55318 1.70434,-4.39132 3.1875,-5.46875 1.50244,-1.08902 3.30208,-1.34265 5.4375,-0.8125 0.72725,0.18057 1.42418,0.43433 2.09375,0.78125 0.68882,0.33532 1.35722,0.76027 2,1.28125 l 1.84375,-7.53125 c -0.59978,-0.23102 -1.05391,-0.4038 -1.375,-0.5 -0.31729,-0.1116 -0.62775,-0.1808 -0.90625,-0.25 -1.93426,-0.48018 -3.6927,-0.50589 -5.28125,-0.0625 -1.56929,0.4318 -3.07222,1.37548 -4.5625,2.8125 l 1.03125,-4.28125 L 477,910.76843 z m -26.0625,1.78125 c 0.37931,-0.0267 0.77446,-0.0352 1.1875,0 1.52504,0.13 2.7105,0.73181 3.5625,1.8125 0.86919,1.06619 1.23183,2.41089 1.09375,4.03125 l -11.0625,-0.9375 c 0.4031,-1.72579 1.13886,-3.01035 2.25,-3.84375 0.83435,-0.63694 1.83082,-0.98246 2.96875,-1.0625 z m -87.3125,1.125 c -0.68829,0.0466 -1.40521,0.15972 -2.15625,0.34375 -1.70342,0.41742 -3.17542,1.17691 -4.40625,2.25 -1.23464,1.05766 -2.27379,2.48759 -3.15625,4.3125 l -0.9375,-3.8125 -8.3125,2.0625 6.375,26 8.3125,-2.03125 -3.125,-12.8125 c -0.58057,-2.36927 -0.53976,-4.33163 0.125,-5.90625 0.66094,-1.59007 1.85935,-2.60624 3.59375,-3.03125 0.71232,-0.17436 1.36662,-0.17308 2,0 0.62956,0.15765 1.16698,0.47522 1.625,0.9375 0.34641,0.34194 0.66713,0.92108 0.96875,1.75 0.31708,0.82516 0.76228,2.37961 1.3125,4.625 l 2.34375,9.53125 0.625,2.59375 8.375,-2.0625 -3.875,-15.84375 c -0.86137,-3.51519 -2.32819,-6.00918 -4.34375,-7.46875 -1.50009,-1.09748 -3.27888,-1.57719 -5.34375,-1.4375 z m 143.6875,7 c -0.31343,0.0129 -0.61243,0.0473 -0.90625,0.0937 -2.35064,0.37172 -4.15351,1.82851 -5.40625,4.375 -1.16128,2.36053 -1.33458,4.47806 -0.53125,6.3125 0.80331,1.83445 2.79195,3.79499 6,5.90625 l 1.28125,0.84375 c 1.46786,0.95312 2.37262,1.71578 2.71875,2.3125 0.36738,0.58945 0.36905,1.21955 0.0312,1.90625 -0.40119,0.81545 -1.06894,1.2706 -2.03125,1.3125 -0.96235,0.0419 -2.18537,-0.32351 -3.6875,-1.0625 -1.65953,-0.81641 -3.22265,-1.80149 -4.65625,-2.96875 -1.41932,-1.16021 -2.71022,-2.50301 -3.875,-4 l -2.875,5.84375 c 1.54194,1.38046 3.11901,2.61381 4.6875,3.6875 1.57575,1.09503 3.13075,2.03128 4.71875,2.8125 3.7482,1.84395 6.8844,2.5773 9.40625,2.21875 2.52181,-0.35856 4.42768,-1.8142 5.6875,-4.375 1.20347,-2.44636 1.38977,-4.5619 0.59375,-6.375 -0.79608,-1.8131 -3.0309,-3.93883 -6.71875,-6.375 l -1.25,-0.875 c -1.3103,-0.84004 -2.1495,-1.55975 -2.53125,-2.15625 -0.36744,-0.58943 -0.3964,-1.16607 -0.0937,-1.78125 0.373,-0.75821 0.99803,-1.14345 1.875,-1.15625 0.89828,-0.02 2.072,0.31339 3.53125,1.03125 1.35906,0.66862 2.70062,1.55985 4.0625,2.65625 1.36182,1.09642 2.72384,2.37894 4.03125,3.875 l 2.84375,-5.84375 c -1.60601,-1.35865 -3.10873,-2.51826 -4.5625,-3.5 -1.45383,-0.98172 -2.89622,-1.83447 -4.3125,-2.53125 -3.15453,-1.55186 -5.83726,-2.27808 -8.03125,-2.1875 z m -180,4.3125 c -1.90047,0.0798 -3.91872,0.53125 -6.0625,1.375 -4.30241,1.69342 -7.19659,4.19674 -8.71875,7.46875 -1.50732,3.26621 -1.45538,6.93657 0.15625,11.03125 1.61164,4.09471 4.07708,6.8249 7.40625,8.1875 3.344,1.3567 7.16634,1.1934 11.46875,-0.5 4.28755,-1.6875 7.16374,-4.17713 8.65625,-7.4375 1.5073,-3.26617 1.45536,-6.93653 -0.15625,-11.03125 -1.61166,-4.09467 -4.0771,-6.82487 -7.40625,-8.1875 -1.65717,-0.68421 -3.44328,-0.98603 -5.34375,-0.90625 z m -38.59375,5.75 -9.25,7.15625 5.25,20.125 -18.125,-10.125 -9.28125,7.1875 21.875,28.21875 6.90625,-5.34375 -16,-20.65625 18.3125,10.1875 4.59375,-3.59375 -5.28125,-20.25 16,20.65625 6.875,-5.34375 -21.875,-28.21875 z m 36.65625,0.90625 c 1.01133,-0.0527 1.98624,0.21011 2.875,0.78125 1.41614,0.89904 2.59111,2.5177 3.53125,4.90625 0.9401,2.38859 1.19888,4.4246 0.78125,6.0625 -0.4235,1.6231 -1.51422,2.75432 -3.25,3.4375 -1.76548,0.69489 -3.35026,0.61194 -4.78125,-0.28125 -1.422,-0.91383 -2.62239,-2.58016 -3.5625,-4.96875 -0.94013,-2.38855 -1.17349,-4.37689 -0.75,-6 0.43248,-1.64373 1.51577,-2.8051 3.28125,-3.5 0.65092,-0.25618 1.2682,-0.40589 1.875,-0.4375 z"
         id="path3842" />
      <path
         id="path3840"
         d="m 422.21875,891.14343 -8.5625,0.3125 0.25,7.59375 -4.25,0.15625 0.21875,6.125 4.25,-0.15625 0.40625,11.34375 c 0.11943,3.37795 0.92268,5.75648 2.375,7.125 1.46766,1.35202 3.87204,1.96319 7.25,1.84375 l 7.34375,-0.25 -0.21875,-6.125 -4.40625,0.15625 c -1.46591,0.0518 -2.42836,-0.1185 -2.9375,-0.53125 -0.50974,-0.42867 -0.79985,-1.28841 -0.84375,-2.53125 l -0.40625,-11.34375 8.8125,-0.3125 -0.21875,-6.125 -8.8125,0.3125 -0.25,-7.59375 z m 28.75,7.65625 c -3.83889,-0.0524 -7.00656,0.92059 -9.5,2.90625 -2.83378,2.27073 -4.44152,5.58474 -4.8125,9.9375 -0.37776,4.43222 0.666,7.9977 3.125,10.6875 2.47622,2.67527 6.13938,4.2134 10.96875,4.625 2.01751,0.17192 4.04235,0.13145 6.09375,-0.0937 2.05,-0.20931 4.1362,-0.59693 6.21875,-1.1875 l 0.5625,-6.59375 c -2.07786,0.91101 -4.0948,1.5585 -6.03125,1.9375 -1.91925,0.36451 -3.76739,0.4655 -5.5625,0.3125 -2.22406,-0.18955 -3.93995,-0.83106 -5.09375,-1.9375 -1.15382,-1.10642 -1.74535,-2.66825 -1.78125,-4.6875 l 19.96875,1.71875 0.1875,-2.4375 c 0.36012,-4.22568 -0.59568,-7.72757 -2.90625,-10.46875 -2.29475,-2.73979 -5.5561,-4.26753 -9.75,-4.625 -0.57587,-0.0491 -1.13909,-0.0863 -1.6875,-0.0937 z m -54.25,1.5 c -1.75421,-0.0121 -3.43487,0.1082 -5,0.3125 -3.984,0.52014 -6.84249,1.57611 -8.59375,3.1875 -1.75126,1.61144 -2.42989,3.81093 -2.0625,6.625 0.34055,2.60858 1.34636,4.48008 3.03125,5.5625 1.68489,1.08244 4.44085,1.61275 8.28125,1.59375 l 1.53125,0 c 1.75006,-0.0194 2.91256,0.10114 3.53125,0.40625 0.6324,0.28727 1.0259,0.80365 1.125,1.5625 0.11762,0.90115 -0.22197,1.65089 -1,2.21875 -0.77807,0.56787 -1.99627,0.9708 -3.65625,1.1875 -1.83391,0.23943 -3.69112,0.27158 -5.53125,0.0937 -1.82433,-0.17988 -3.60731,-0.58624 -5.40625,-1.1875 l 0.84375,6.4375 c 2.04842,0.29534 4.00564,0.4748 5.90625,0.5 1.91847,0.039 3.74513,-0.0522 5.5,-0.28125 4.14207,-0.54076 7.16138,-1.6797 9.0625,-3.375 1.90107,-1.69529 2.68192,-3.95134 2.3125,-6.78125 -0.35296,-2.70341 -1.36425,-4.58755 -3.03125,-5.65625 -1.66703,-1.06867 -4.70517,-1.5767 -9.125,-1.5625 l -1.53125,-0.0312 c -1.55623,0.0263 -2.66428,-0.0898 -3.3125,-0.375 -0.63243,-0.28724 -0.9738,-0.78893 -1.0625,-1.46875 -0.1094,-0.83789 0.18317,-1.5036 0.90625,-2 0.7368,-0.51422 1.91867,-0.8832 3.53125,-1.09375 1.50189,-0.19602 3.13383,-0.22106 4.875,-0.0625 1.74113,0.15861 3.55156,0.50977 5.46875,1.03125 l -0.84375,-6.4375 c -2.08969,-0.24169 -3.99582,-0.39405 -5.75,-0.40625 z M 477,902.76843 l -6.46875,26 8.3125,2.0625 2.96875,-11.96875 c 0.63387,-2.55318 1.70434,-4.39132 3.1875,-5.46875 1.50244,-1.08902 3.30208,-1.34265 5.4375,-0.8125 0.72725,0.18057 1.42418,0.43433 2.09375,0.78125 0.68882,0.33532 1.35722,0.76027 2,1.28125 l 1.84375,-7.53125 c -0.59978,-0.23102 -1.05391,-0.4038 -1.375,-0.5 -0.31729,-0.1116 -0.62775,-0.1808 -0.90625,-0.25 -1.93426,-0.48018 -3.6927,-0.50589 -5.28125,-0.0625 -1.56929,0.4318 -3.07222,1.37548 -4.5625,2.8125 l 1.03125,-4.28125 L 477,902.76843 z m -26.0625,1.78125 c 0.37931,-0.0267 0.77446,-0.0352 1.1875,0 1.52504,0.13 2.7105,0.73181 3.5625,1.8125 0.86919,1.06619 1.23183,2.41089 1.09375,4.03125 l -11.0625,-0.9375 c 0.4031,-1.72579 1.13886,-3.01035 2.25,-3.84375 0.83435,-0.63694 1.83082,-0.98246 2.96875,-1.0625 z m -87.3125,1.125 c -0.68829,0.0466 -1.40521,0.15972 -2.15625,0.34375 -1.70342,0.41742 -3.17542,1.17691 -4.40625,2.25 -1.23464,1.05766 -2.27379,2.48759 -3.15625,4.3125 l -0.9375,-3.8125 -8.3125,2.0625 6.375,26 8.3125,-2.03125 -3.125,-12.8125 c -0.58057,-2.36927 -0.53976,-4.33163 0.125,-5.90625 0.66094,-1.59007 1.85935,-2.60624 3.59375,-3.03125 0.71232,-0.17436 1.36662,-0.17308 2,0 0.62956,0.15765 1.16698,0.47522 1.625,0.9375 0.34641,0.34194 0.66713,0.92108 0.96875,1.75 0.31708,0.82516 0.76228,2.37961 1.3125,4.625 l 2.34375,9.53125 0.625,2.59375 8.375,-2.0625 -3.875,-15.84375 c -0.86137,-3.51519 -2.32819,-6.00918 -4.34375,-7.46875 -1.50009,-1.09748 -3.27888,-1.57719 -5.34375,-1.4375 z m 143.6875,7 c -0.31343,0.0129 -0.61243,0.0473 -0.90625,0.0937 -2.35064,0.37172 -4.15351,1.82851 -5.40625,4.375 -1.16128,2.36053 -1.33458,4.47806 -0.53125,6.3125 0.80331,1.83445 2.79195,3.79499 6,5.90625 l 1.28125,0.84375 c 1.46786,0.95312 2.37262,1.71578 2.71875,2.3125 0.36738,0.58945 0.36905,1.21955 0.0312,1.90625 -0.40119,0.81545 -1.06894,1.2706 -2.03125,1.3125 -0.96235,0.0419 -2.18537,-0.32351 -3.6875,-1.0625 -1.65953,-0.81641 -3.22265,-1.80149 -4.65625,-2.96875 -1.41932,-1.16021 -2.71022,-2.50301 -3.875,-4 l -2.875,5.84375 c 1.54194,1.38046 3.11901,2.61381 4.6875,3.6875 1.57575,1.09503 3.13075,2.03128 4.71875,2.8125 3.7482,1.84395 6.8844,2.5773 9.40625,2.21875 2.52181,-0.35856 4.42768,-1.8142 5.6875,-4.375 1.20347,-2.44636 1.38977,-4.5619 0.59375,-6.375 -0.79608,-1.8131 -3.0309,-3.93883 -6.71875,-6.375 l -1.25,-0.875 c -1.3103,-0.84004 -2.1495,-1.55975 -2.53125,-2.15625 -0.36744,-0.58943 -0.3964,-1.16607 -0.0937,-1.78125 0.373,-0.75821 0.99803,-1.14345 1.875,-1.15625 0.89828,-0.02 2.072,0.31339 3.53125,1.03125 1.35906,0.66862 2.70062,1.55985 4.0625,2.65625 1.36182,1.09642 2.72384,2.37894 4.03125,3.875 l 2.84375,-5.84375 c -1.60601,-1.35865 -3.10873,-2.51826 -4.5625,-3.5 -1.45383,-0.98172 -2.89622,-1.83447 -4.3125,-2.53125 -3.15453,-1.55186 -5.83726,-2.27808 -8.03125,-2.1875 z m -180,4.3125 c -1.90047,0.0798 -3.91872,0.53125 -6.0625,1.375 -4.30241,1.69342 -7.19659,4.19674 -8.71875,7.46875 -1.50732,3.26621 -1.45538,6.93657 0.15625,11.03125 1.61164,4.09471 4.07708,6.8249 7.40625,8.1875 3.344,1.3567 7.16634,1.1934 11.46875,-0.5 4.28755,-1.6875 7.16374,-4.17713 8.65625,-7.4375 1.5073,-3.26617 1.45536,-6.93653 -0.15625,-11.03125 -1.61166,-4.09467 -4.0771,-6.82487 -7.40625,-8.1875 -1.65717,-0.68421 -3.44328,-0.98603 -5.34375,-0.90625 z m -38.59375,5.75 -9.25,7.15625 5.25,20.125 -18.125,-10.125 -9.28125,7.1875 21.875,28.21875 6.90625,-5.34375 -16,-20.65625 18.3125,10.1875 4.59375,-3.59375 -5.28125,-20.25 16,20.65625 6.875,-5.34375 -21.875,-28.21875 z m 36.65625,0.90625 c 1.01133,-0.0527 1.98624,0.21011 2.875,0.78125 1.41614,0.89904 2.59111,2.5177 3.53125,4.90625 0.9401,2.38859 1.19888,4.4246 0.78125,6.0625 -0.4235,1.6231 -1.51422,2.75432 -3.25,3.4375 -1.76548,0.69489 -3.35026,0.61194 -4.78125,-0.28125 -1.422,-0.91383 -2.62239,-2.58016 -3.5625,-4.96875 -0.94013,-2.38855 -1.17349,-4.37689 -0.75,-6 0.43248,-1.64373 1.51577,-2.8051 3.28125,-3.5 0.65092,-0.25618 1.2682,-0.40589 1.875,-0.4375 z"
         style="font-size:48.97890091px;font-style:normal;font-variant:normal;font-weight:bold;font-stretch:normal;line-height:125%;letter-spacing:0px;word-spacing:0px;fill:#729fcf;fill-opacity:1;stroke:#729fcf;stroke-width:16;stroke-linejoin:round;stroke-miterlimit:4;stroke-dasharray:none;font-family:Symbol;-inkscape-font-specification:Symbol Bold"
         inkscape:connector-curvature="0" />
      <path
         inkscape:connector-curvature="0"
         style="font-size:48.97890091px;font-style:normal;font-variant:normal;font-weight:bold;font-stretch:normal;line-height:125%;letter-spacing:0px;word-spacing:0px;fill:#555753;fill-opacity:1;stroke:#555753;stroke-width:10;stroke-linejoin:round;stroke-miterlimit:4;stroke-dasharray:none;font-family:Symbol;-inkscape-font-specification:Symbol Bold"
         d="m 422.21875,891.14343 -8.5625,0.3125 0.25,7.59375 -4.25,0.15625 0.21875,6.125 4.25,-0.15625 0.40625,11.34375 c 0.11943,3.37795 0.92268,5.75648 2.375,7.125 1.46766,1.35202 3.87204,1.96319 7.25,1.84375 l 7.34375,-0.25 -0.21875,-6.125 -4.40625,0.15625 c -1.46591,0.0518 -2.42836,-0.1185 -2.9375,-0.53125 -0.50974,-0.42867 -0.79985,-1.28841 -0.84375,-2.53125 l -0.40625,-11.34375 8.8125,-0.3125 -0.21875,-6.125 -8.8125,0.3125 -0.25,-7.59375 z m 28.75,7.65625 c -3.83889,-0.0524 -7.00656,0.92059 -9.5,2.90625 -2.83378,2.27073 -4.44152,5.58474 -4.8125,9.9375 -0.37776,4.43222 0.666,7.9977 3.125,10.6875 2.47622,2.67527 6.13938,4.2134 10.96875,4.625 2.01751,0.17192 4.04235,0.13145 6.09375,-0.0937 2.05,-0.20931 4.1362,-0.59693 6.21875,-1.1875 l 0.5625,-6.59375 c -2.07786,0.91101 -4.0948,1.5585 -6.03125,1.9375 -1.91925,0.36451 -3.76739,0.4655 -5.5625,0.3125 -2.22406,-0.18955 -3.93995,-0.83106 -5.09375,-1.9375 -1.15382,-1.10642 -1.74535,-2.66825 -1.78125,-4.6875 l 19.96875,1.71875 0.1875,-2.4375 c 0.36012,-4.22568 -0.59568,-7.72757 -2.90625,-10.46875 -2.29475,-2.73979 -5.5561,-4.26753 -9.75,-4.625 -0.57587,-0.0491 -1.13909,-0.0863 -1.6875,-0.0937 z m -54.25,1.5 c -1.75421,-0.0121 -3.43487,0.1082 -5,0.3125 -3.984,0.52014 -6.84249,1.57611 -8.59375,3.1875 -1.75126,1.61144 -2.42989,3.81093 -2.0625,6.625 0.34055,2.60858 1.34636,4.48008 3.03125,5.5625 1.68489,1.08244 4.44085,1.61275 8.28125,1.59375 l 1.53125,0 c 1.75006,-0.0194 2.91256,0.10114 3.53125,0.40625 0.6324,0.28727 1.0259,0.80365 1.125,1.5625 0.11762,0.90115 -0.22197,1.65089 -1,2.21875 -0.77807,0.56787 -1.99627,0.9708 -3.65625,1.1875 -1.83391,0.23943 -3.69112,0.27158 -5.53125,0.0937 -1.82433,-0.17988 -3.60731,-0.58624 -5.40625,-1.1875 l 0.84375,6.4375 c 2.04842,0.29534 4.00564,0.4748 5.90625,0.5 1.91847,0.039 3.74513,-0.0522 5.5,-0.28125 4.14207,-0.54076 7.16138,-1.6797 9.0625,-3.375 1.90107,-1.69529 2.68192,-3.95134 2.3125,-6.78125 -0.35296,-2.70341 -1.36425,-4.58755 -3.03125,-5.65625 -1.66703,-1.06867 -4.70517,-1.5767 -9.125,-1.5625 l -1.53125,-0.0312 c -1.55623,0.0263 -2.66428,-0.0898 -3.3125,-0.375 -0.63243,-0.28724 -0.9738,-0.78893 -1.0625,-1.46875 -0.1094,-0.83789 0.18317,-1.5036 0.90625,-2 0.7368,-0.51422 1.91867,-0.8832 3.53125,-1.09375 1.50189,-0.19602 3.13383,-0.22106 4.875,-0.0625 1.74113,0.15861 3.55156,0.50977 5.46875,1.03125 l -0.84375,-6.4375 c -2.08969,-0.24169 -3.99582,-0.39405 -5.75,-0.40625 z M 477,902.76843 l -6.46875,26 8.3125,2.0625 2.96875,-11.96875 c 0.63387,-2.55318 1.70434,-4.39132 3.1875,-5.46875 1.50244,-1.08902 3.30208,-1.34265 5.4375,-0.8125 0.72725,0.18057 1.42418,0.43433 2.09375,0.78125 0.68882,0.33532 1.35722,0.76027 2,1.28125 l 1.84375,-7.53125 c -0.59978,-0.23102 -1.05391,-0.4038 -1.375,-0.5 -0.31729,-0.1116 -0.62775,-0.1808 -0.90625,-0.25 -1.93426,-0.48018 -3.6927,-0.50589 -5.28125,-0.0625 -1.56929,0.4318 -3.07222,1.37548 -4.5625,2.8125 l 1.03125,-4.28125 L 477,902.76843 z m -26.0625,1.78125 c 0.37931,-0.0267 0.77446,-0.0352 1.1875,0 1.52504,0.13 2.7105,0.73181 3.5625,1.8125 0.86919,1.06619 1.23183,2.41089 1.09375,4.03125 l -11.0625,-0.9375 c 0.4031,-1.72579 1.13886,-3.01035 2.25,-3.84375 0.83435,-0.63694 1.83082,-0.98246 2.96875,-1.0625 z m -87.3125,1.125 c -0.68829,0.0466 -1.40521,0.15972 -2.15625,0.34375 -1.70342,0.41742 -3.17542,1.17691 -4.40625,2.25 -1.23464,1.05766 -2.27379,2.48759 -3.15625,4.3125 l -0.9375,-3.8125 -8.3125,2.0625 6.375,26 8.3125,-2.03125 -3.125,-12.8125 c -0.58057,-2.36927 -0.53976,-4.33163 0.125,-5.90625 0.66094,-1.59007 1.85935,-2.60624 3.59375,-3.03125 0.71232,-0.17436 1.36662,-0.17308 2,0 0.62956,0.15765 1.16698,0.47522 1.625,0.9375 0.34641,0.34194 0.66713,0.92108 0.96875,1.75 0.31708,0.82516 0.76228,2.37961 1.3125,4.625 l 2.34375,9.53125 0.625,2.59375 8.375,-2.0625 -3.875,-15.84375 c -0.86137,-3.51519 -2.32819,-6.00918 -4.34375,-7.46875 -1.50009,-1.09748 -3.27888,-1.57719 -5.34375,-1.4375 z m 143.6875,7 c -0.31343,0.0129 -0.61243,0.0473 -0.90625,0.0937 -2.35064,0.37172 -4.15351,1.82851 -5.40625,4.375 -1.16128,2.36053 -1.33458,4.47806 -0.53125,6.3125 0.80331,1.83445 2.79195,3.79499 6,5.90625 l 1.28125,0.84375 c 1.46786,0.95312 2.37262,1.71578 2.71875,2.3125 0.36738,0.58945 0.36905,1.21955 0.0312,1.90625 -0.40119,0.81545 -1.06894,1.2706 -2.03125,1.3125 -0.96235,0.0419 -2.18537,-0.32351 -3.6875,-1.0625 -1.65953,-0.81641 -3.22265,-1.80149 -4.65625,-2.96875 -1.41932,-1.16021 -2.71022,-2.50301 -3.875,-4 l -2.875,5.84375 c 1.54194,1.38046 3.11901,2.61381 4.6875,3.6875 1.57575,1.09503 3.13075,2.03128 4.71875,2.8125 3.7482,1.84395 6.8844,2.5773 9.40625,2.21875 2.52181,-0.35856 4.42768,-1.8142 5.6875,-4.375 1.20347,-2.44636 1.38977,-4.5619 0.59375,-6.375 -0.79608,-1.8131 -3.0309,-3.93883 -6.71875,-6.375 l -1.25,-0.875 c -1.3103,-0.84004 -2.1495,-1.55975 -2.53125,-2.15625 -0.36744,-0.58943 -0.3964,-1.16607 -0.0937,-1.78125 0.373,-0.75821 0.99803,-1.14345 1.875,-1.15625 0.89828,-0.02 2.072,0.31339 3.53125,1.03125 1.35906,0.66862 2.70062,1.55985 4.0625,2.65625 1.36182,1.09642 2.72384,2.37894 4.03125,3.875 l 2.84375,-5.84375 c -1.60601,-1.35865 -3.10873,-2.51826 -4.5625,-3.5 -1.45383,-0.98172 -2.89622,-1.83447 -4.3125,-2.53125 -3.15453,-1.55186 -5.83726,-2.27808 -8.03125,-2.1875 z m -180,4.3125 c -1.90047,0.0798 -3.91872,0.53125 -6.0625,1.375 -4.30241,1.69342 -7.19659,4.19674 -8.71875,7.46875 -1.50732,3.26621 -1.45538,6.93657 0.15625,11.03125 1.61164,4.09471 4.07708,6.8249 7.40625,8.1875 3.344,1.3567 7.16634,1.1934 11.46875,-0.5 4.28755,-1.6875 7.16374,-4.17713 8.65625,-7.4375 1.5073,-3.26617 1.45536,-6.93653 -0.15625,-11.03125 -1.61166,-4.09467 -4.0771,-6.82487 -7.40625,-8.1875 -1.65717,-0.68421 -3.44328,-0.98603 -5.34375,-0.90625 z m -38.59375,5.75 -9.25,7.15625 5.25,20.125 -18.125,-10.125 -9.28125,7.1875 21.875,28.21875 6.90625,-5.34375 -16,-20.65625 18.3125,10.1875 4.59375,-3.59375 -5.28125,-20.25 16,20.65625 6.875,-5.34375 -21.875,-28.21875 z m 36.65625,0.90625 c 1.01133,-0.0527 1.98624,0.21011 2.875,0.78125 1.41614,0.89904 2.59111,2.5177 3.53125,4.90625 0.9401,2.38859 1.19888,4.4246 0.78125,6.0625 -0.4235,1.6231 -1.51422,2.75432 -3.25,3.4375 -1.76548,0.69489 -3.35026,0.61194 -4.78125,-0.28125 -1.422,-0.91383 -2.62239,-2.58016 -3.5625,-4.96875 -0.94013,-2.38855 -1.17349,-4.37689 -0.75,-6 0.43248,-1.64373 1.51577,-2.8051 3.28125,-3.5 0.65092,-0.25618 1.2682,-0.40589 1.875,-0.4375 z"
         id="path3838" />
      <path
         id="path3836"
         d="m 422.21875,889.14343 -8.5625,0.3125 0.25,7.59375 -4.25,0.15625 0.21875,6.125 4.25,-0.15625 0.40625,11.34375 c 0.11943,3.37795 0.92268,5.75648 2.375,7.125 1.46766,1.35202 3.87204,1.96319 7.25,1.84375 l 7.34375,-0.25 -0.21875,-6.125 -4.40625,0.15625 c -1.46591,0.0518 -2.42836,-0.1185 -2.9375,-0.53125 -0.50974,-0.42867 -0.79985,-1.28841 -0.84375,-2.53125 l -0.40625,-11.34375 8.8125,-0.3125 -0.21875,-6.125 -8.8125,0.3125 -0.25,-7.59375 z m 28.75,7.65625 c -3.83889,-0.0524 -7.00656,0.92059 -9.5,2.90625 -2.83378,2.27073 -4.44152,5.58474 -4.8125,9.9375 -0.37776,4.43222 0.666,7.9977 3.125,10.6875 2.47622,2.67527 6.13938,4.2134 10.96875,4.625 2.01751,0.17192 4.04235,0.13145 6.09375,-0.0937 2.05,-0.20931 4.1362,-0.59693 6.21875,-1.1875 l 0.5625,-6.59375 c -2.07786,0.91101 -4.0948,1.5585 -6.03125,1.9375 -1.91925,0.36451 -3.76739,0.4655 -5.5625,0.3125 -2.22406,-0.18955 -3.93995,-0.83106 -5.09375,-1.9375 -1.15382,-1.10642 -1.74535,-2.66825 -1.78125,-4.6875 l 19.96875,1.71875 0.1875,-2.4375 c 0.36012,-4.22568 -0.59568,-7.72757 -2.90625,-10.46875 -2.29475,-2.73979 -5.5561,-4.26753 -9.75,-4.625 -0.57587,-0.0491 -1.13909,-0.0863 -1.6875,-0.0937 z m -54.25,1.5 c -1.75421,-0.0121 -3.43487,0.1082 -5,0.3125 -3.984,0.52014 -6.84249,1.57611 -8.59375,3.1875 -1.75126,1.61144 -2.42989,3.81093 -2.0625,6.625 0.34055,2.60858 1.34636,4.48008 3.03125,5.5625 1.68489,1.08244 4.44085,1.61275 8.28125,1.59375 l 1.53125,0 c 1.75006,-0.0194 2.91256,0.10114 3.53125,0.40625 0.6324,0.28727 1.0259,0.80365 1.125,1.5625 0.11762,0.90115 -0.22197,1.65089 -1,2.21875 -0.77807,0.56787 -1.99627,0.9708 -3.65625,1.1875 -1.83391,0.23943 -3.69112,0.27158 -5.53125,0.0937 -1.82433,-0.17988 -3.60731,-0.58624 -5.40625,-1.1875 l 0.84375,6.4375 c 2.04842,0.29534 4.00564,0.4748 5.90625,0.5 1.91847,0.039 3.74513,-0.0522 5.5,-0.28125 4.14207,-0.54076 7.16138,-1.6797 9.0625,-3.375 1.90107,-1.69529 2.68192,-3.95134 2.3125,-6.78125 -0.35296,-2.70341 -1.36425,-4.58755 -3.03125,-5.65625 -1.66703,-1.06867 -4.70517,-1.5767 -9.125,-1.5625 l -1.53125,-0.0312 c -1.55623,0.0263 -2.66428,-0.0898 -3.3125,-0.375 -0.63243,-0.28724 -0.9738,-0.78893 -1.0625,-1.46875 -0.1094,-0.83789 0.18317,-1.5036 0.90625,-2 0.7368,-0.51422 1.91867,-0.8832 3.53125,-1.09375 1.50189,-0.19602 3.13383,-0.22106 4.875,-0.0625 1.74113,0.15861 3.55156,0.50977 5.46875,1.03125 l -0.84375,-6.4375 c -2.08969,-0.24169 -3.99582,-0.39405 -5.75,-0.40625 z M 477,900.76843 l -6.46875,26 8.3125,2.0625 2.96875,-11.96875 c 0.63387,-2.55318 1.70434,-4.39132 3.1875,-5.46875 1.50244,-1.08902 3.30208,-1.34265 5.4375,-0.8125 0.72725,0.18057 1.42418,0.43433 2.09375,0.78125 0.68882,0.33532 1.35722,0.76027 2,1.28125 l 1.84375,-7.53125 c -0.59978,-0.23102 -1.05391,-0.4038 -1.375,-0.5 -0.31729,-0.1116 -0.62775,-0.1808 -0.90625,-0.25 -1.93426,-0.48018 -3.6927,-0.50589 -5.28125,-0.0625 -1.56929,0.4318 -3.07222,1.37548 -4.5625,2.8125 l 1.03125,-4.28125 L 477,900.76843 z m -26.0625,1.78125 c 0.37931,-0.0267 0.77446,-0.0352 1.1875,0 1.52504,0.13 2.7105,0.73181 3.5625,1.8125 0.86919,1.06619 1.23183,2.41089 1.09375,4.03125 l -11.0625,-0.9375 c 0.4031,-1.72579 1.13886,-3.01035 2.25,-3.84375 0.83435,-0.63694 1.83082,-0.98246 2.96875,-1.0625 z m -87.3125,1.125 c -0.68829,0.0466 -1.40521,0.15972 -2.15625,0.34375 -1.70342,0.41742 -3.17542,1.17691 -4.40625,2.25 -1.23464,1.05766 -2.27379,2.48759 -3.15625,4.3125 l -0.9375,-3.8125 -8.3125,2.0625 6.375,26 8.3125,-2.03125 -3.125,-12.8125 c -0.58057,-2.36927 -0.53976,-4.33163 0.125,-5.90625 0.66094,-1.59007 1.85935,-2.60624 3.59375,-3.03125 0.71232,-0.17436 1.36662,-0.17308 2,0 0.62956,0.15765 1.16698,0.47522 1.625,0.9375 0.34641,0.34194 0.66713,0.92108 0.96875,1.75 0.31708,0.82516 0.76228,2.37961 1.3125,4.625 l 2.34375,9.53125 0.625,2.59375 8.375,-2.0625 -3.875,-15.84375 c -0.86137,-3.51519 -2.32819,-6.00918 -4.34375,-7.46875 -1.50009,-1.09748 -3.27888,-1.57719 -5.34375,-1.4375 z m 143.6875,7 c -0.31343,0.0129 -0.61243,0.0473 -0.90625,0.0937 -2.35064,0.37172 -4.15351,1.82851 -5.40625,4.375 -1.16128,2.36053 -1.33458,4.47806 -0.53125,6.3125 0.80331,1.83445 2.79195,3.79499 6,5.90625 l 1.28125,0.84375 c 1.46786,0.95312 2.37262,1.71578 2.71875,2.3125 0.36738,0.58945 0.36905,1.21955 0.0312,1.90625 -0.40119,0.81545 -1.06894,1.2706 -2.03125,1.3125 -0.96235,0.0419 -2.18537,-0.32351 -3.6875,-1.0625 -1.65953,-0.81641 -3.22265,-1.80149 -4.65625,-2.96875 -1.41932,-1.16021 -2.71022,-2.50301 -3.875,-4 l -2.875,5.84375 c 1.54194,1.38046 3.11901,2.61381 4.6875,3.6875 1.57575,1.09503 3.13075,2.03128 4.71875,2.8125 3.7482,1.84395 6.8844,2.5773 9.40625,2.21875 2.52181,-0.35856 4.42768,-1.8142 5.6875,-4.375 1.20347,-2.44636 1.38977,-4.5619 0.59375,-6.375 -0.79608,-1.8131 -3.0309,-3.93883 -6.71875,-6.375 l -1.25,-0.875 c -1.3103,-0.84004 -2.1495,-1.55975 -2.53125,-2.15625 -0.36744,-0.58943 -0.3964,-1.16607 -0.0937,-1.78125 0.373,-0.75821 0.99803,-1.14345 1.875,-1.15625 0.89828,-0.02 2.072,0.31339 3.53125,1.03125 1.35906,0.66862 2.70062,1.55985 4.0625,2.65625 1.36182,1.09642 2.72384,2.37894 4.03125,3.875 l 2.84375,-5.84375 c -1.60601,-1.35865 -3.10873,-2.51826 -4.5625,-3.5 -1.45383,-0.98172 -2.89622,-1.83447 -4.3125,-2.53125 -3.15453,-1.55186 -5.83726,-2.27808 -8.03125,-2.1875 z m -180,4.3125 c -1.90047,0.0798 -3.91872,0.53125 -6.0625,1.375 -4.30241,1.69342 -7.19659,4.19674 -8.71875,7.46875 -1.50732,3.26621 -1.45538,6.93657 0.15625,11.03125 1.61164,4.09471 4.07708,6.8249 7.40625,8.1875 3.344,1.3567 7.16634,1.1934 11.46875,-0.5 4.28755,-1.6875 7.16374,-4.17713 8.65625,-7.4375 1.5073,-3.26617 1.45536,-6.93653 -0.15625,-11.03125 -1.61166,-4.09467 -4.0771,-6.82487 -7.40625,-8.1875 -1.65717,-0.68421 -3.44328,-0.98603 -5.34375,-0.90625 z m -38.59375,5.75 -9.25,7.15625 5.25,20.125 -18.125,-10.125 -9.28125,7.1875 21.875,28.21875 6.90625,-5.34375 -16,-20.65625 18.3125,10.1875 4.59375,-3.59375 -5.28125,-20.25 16,20.65625 6.875,-5.34375 -21.875,-28.21875 z m 36.65625,0.90625 c 1.01133,-0.0527 1.98624,0.21011 2.875,0.78125 1.41614,0.89904 2.59111,2.5177 3.53125,4.90625 0.9401,2.38859 1.19888,4.4246 0.78125,6.0625 -0.4235,1.6231 -1.51422,2.75432 -3.25,3.4375 -1.76548,0.69489 -3.35026,0.61194 -4.78125,-0.28125 -1.422,-0.91383 -2.62239,-2.58016 -3.5625,-4.96875 -0.94013,-2.38855 -1.17349,-4.37689 -0.75,-6 0.43248,-1.64373 1.51577,-2.8051 3.28125,-3.5 0.65092,-0.25618 1.2682,-0.40589 1.875,-0.4375 z"
         style="font-size:48.97890091px;font-style:normal;font-variant:normal;font-weight:bold;font-stretch:normal;line-height:125%;letter-spacing:0px;word-spacing:0px;fill:#888a85;fill-opacity:1;stroke:#888a85;stroke-width:10;stroke-linejoin:round;stroke-miterlimit:4;stroke-dasharray:none;font-family:Symbol;-inkscape-font-specification:Symbol Bold"
         inkscape:connector-curvature="0" />
      <path
         inkscape:connector-curvature="0"
         style="font-size:48.97890091px;font-style:normal;font-variant:normal;font-weight:bold;font-stretch:normal;line-height:125%;letter-spacing:0px;word-spacing:0px;fill:#babdb6;fill-opacity:1;stroke:#babdb6;stroke-width:5;stroke-linejoin:round;stroke-miterlimit:4;stroke-dasharray:none;font-family:Symbol;-inkscape-font-specification:Symbol Bold"
         d="m 422.21875,889.14343 -8.5625,0.3125 0.25,7.59375 -4.25,0.15625 0.21875,6.125 4.25,-0.15625 0.40625,11.34375 c 0.11943,3.37795 0.92268,5.75648 2.375,7.125 1.46766,1.35202 3.87204,1.96319 7.25,1.84375 l 7.34375,-0.25 -0.21875,-6.125 -4.40625,0.15625 c -1.46591,0.0518 -2.42836,-0.1185 -2.9375,-0.53125 -0.50974,-0.42867 -0.79985,-1.28841 -0.84375,-2.53125 l -0.40625,-11.34375 8.8125,-0.3125 -0.21875,-6.125 -8.8125,0.3125 -0.25,-7.59375 z m 28.75,7.65625 c -3.83889,-0.0524 -7.00656,0.92059 -9.5,2.90625 -2.83378,2.27073 -4.44152,5.58474 -4.8125,9.9375 -0.37776,4.43222 0.666,7.9977 3.125,10.6875 2.47622,2.67527 6.13938,4.2134 10.96875,4.625 2.01751,0.17192 4.04235,0.13145 6.09375,-0.0937 2.05,-0.20931 4.1362,-0.59693 6.21875,-1.1875 l 0.5625,-6.59375 c -2.07786,0.91101 -4.0948,1.5585 -6.03125,1.9375 -1.91925,0.36451 -3.76739,0.4655 -5.5625,0.3125 -2.22406,-0.18955 -3.93995,-0.83106 -5.09375,-1.9375 -1.15382,-1.10642 -1.74535,-2.66825 -1.78125,-4.6875 l 19.96875,1.71875 0.1875,-2.4375 c 0.36012,-4.22568 -0.59568,-7.72757 -2.90625,-10.46875 -2.29475,-2.73979 -5.5561,-4.26753 -9.75,-4.625 -0.57587,-0.0491 -1.13909,-0.0863 -1.6875,-0.0937 z m -54.25,1.5 c -1.75421,-0.0121 -3.43487,0.1082 -5,0.3125 -3.984,0.52014 -6.84249,1.57611 -8.59375,3.1875 -1.75126,1.61144 -2.42989,3.81093 -2.0625,6.625 0.34055,2.60858 1.34636,4.48008 3.03125,5.5625 1.68489,1.08244 4.44085,1.61275 8.28125,1.59375 l 1.53125,0 c 1.75006,-0.0194 2.91256,0.10114 3.53125,0.40625 0.6324,0.28727 1.0259,0.80365 1.125,1.5625 0.11762,0.90115 -0.22197,1.65089 -1,2.21875 -0.77807,0.56787 -1.99627,0.9708 -3.65625,1.1875 -1.83391,0.23943 -3.69112,0.27158 -5.53125,0.0937 -1.82433,-0.17988 -3.60731,-0.58624 -5.40625,-1.1875 l 0.84375,6.4375 c 2.04842,0.29534 4.00564,0.4748 5.90625,0.5 1.91847,0.039 3.74513,-0.0522 5.5,-0.28125 4.14207,-0.54076 7.16138,-1.6797 9.0625,-3.375 1.90107,-1.69529 2.68192,-3.95134 2.3125,-6.78125 -0.35296,-2.70341 -1.36425,-4.58755 -3.03125,-5.65625 -1.66703,-1.06867 -4.70517,-1.5767 -9.125,-1.5625 l -1.53125,-0.0312 c -1.55623,0.0263 -2.66428,-0.0898 -3.3125,-0.375 -0.63243,-0.28724 -0.9738,-0.78893 -1.0625,-1.46875 -0.1094,-0.83789 0.18317,-1.5036 0.90625,-2 0.7368,-0.51422 1.91867,-0.8832 3.53125,-1.09375 1.50189,-0.19602 3.13383,-0.22106 4.875,-0.0625 1.74113,0.15861 3.55156,0.50977 5.46875,1.03125 l -0.84375,-6.4375 c -2.08969,-0.24169 -3.99582,-0.39405 -5.75,-0.40625 z M 477,900.76843 l -6.46875,26 8.3125,2.0625 2.96875,-11.96875 c 0.63387,-2.55318 1.70434,-4.39132 3.1875,-5.46875 1.50244,-1.08902 3.30208,-1.34265 5.4375,-0.8125 0.72725,0.18057 1.42418,0.43433 2.09375,0.78125 0.68882,0.33532 1.35722,0.76027 2,1.28125 l 1.84375,-7.53125 c -0.59978,-0.23102 -1.05391,-0.4038 -1.375,-0.5 -0.31729,-0.1116 -0.62775,-0.1808 -0.90625,-0.25 -1.93426,-0.48018 -3.6927,-0.50589 -5.28125,-0.0625 -1.56929,0.4318 -3.07222,1.37548 -4.5625,2.8125 l 1.03125,-4.28125 L 477,900.76843 z m -26.0625,1.78125 c 0.37931,-0.0267 0.77446,-0.0352 1.1875,0 1.52504,0.13 2.7105,0.73181 3.5625,1.8125 0.86919,1.06619 1.23183,2.41089 1.09375,4.03125 l -11.0625,-0.9375 c 0.4031,-1.72579 1.13886,-3.01035 2.25,-3.84375 0.83435,-0.63694 1.83082,-0.98246 2.96875,-1.0625 z m -87.3125,1.125 c -0.68829,0.0466 -1.40521,0.15972 -2.15625,0.34375 -1.70342,0.41742 -3.17542,1.17691 -4.40625,2.25 -1.23464,1.05766 -2.27379,2.48759 -3.15625,4.3125 l -0.9375,-3.8125 -8.3125,2.0625 6.375,26 8.3125,-2.03125 -3.125,-12.8125 c -0.58057,-2.36927 -0.53976,-4.33163 0.125,-5.90625 0.66094,-1.59007 1.85935,-2.60624 3.59375,-3.03125 0.71232,-0.17436 1.36662,-0.17308 2,0 0.62956,0.15765 1.16698,0.47522 1.625,0.9375 0.34641,0.34194 0.66713,0.92108 0.96875,1.75 0.31708,0.82516 0.76228,2.37961 1.3125,4.625 l 2.34375,9.53125 0.625,2.59375 8.375,-2.0625 -3.875,-15.84375 c -0.86137,-3.51519 -2.32819,-6.00918 -4.34375,-7.46875 -1.50009,-1.09748 -3.27888,-1.57719 -5.34375,-1.4375 z m 143.6875,7 c -0.31343,0.0129 -0.61243,0.0473 -0.90625,0.0937 -2.35064,0.37172 -4.15351,1.82851 -5.40625,4.375 -1.16128,2.36053 -1.33458,4.47806 -0.53125,6.3125 0.80331,1.83445 2.79195,3.79499 6,5.90625 l 1.28125,0.84375 c 1.46786,0.95312 2.37262,1.71578 2.71875,2.3125 0.36738,0.58945 0.36905,1.21955 0.0312,1.90625 -0.40119,0.81545 -1.06894,1.2706 -2.03125,1.3125 -0.96235,0.0419 -2.18537,-0.32351 -3.6875,-1.0625 -1.65953,-0.81641 -3.22265,-1.80149 -4.65625,-2.96875 -1.41932,-1.16021 -2.71022,-2.50301 -3.875,-4 l -2.875,5.84375 c 1.54194,1.38046 3.11901,2.61381 4.6875,3.6875 1.57575,1.09503 3.13075,2.03128 4.71875,2.8125 3.7482,1.84395 6.8844,2.5773 9.40625,2.21875 2.52181,-0.35856 4.42768,-1.8142 5.6875,-4.375 1.20347,-2.44636 1.38977,-4.5619 0.59375,-6.375 -0.79608,-1.8131 -3.0309,-3.93883 -6.71875,-6.375 l -1.25,-0.875 c -1.3103,-0.84004 -2.1495,-1.55975 -2.53125,-2.15625 -0.36744,-0.58943 -0.3964,-1.16607 -0.0937,-1.78125 0.373,-0.75821 0.99803,-1.14345 1.875,-1.15625 0.89828,-0.02 2.072,0.31339 3.53125,1.03125 1.35906,0.66862 2.70062,1.55985 4.0625,2.65625 1.36182,1.09642 2.72384,2.37894 4.03125,3.875 l 2.84375,-5.84375 c -1.60601,-1.35865 -3.10873,-2.51826 -4.5625,-3.5 -1.45383,-0.98172 -2.89622,-1.83447 -4.3125,-2.53125 -3.15453,-1.55186 -5.83726,-2.27808 -8.03125,-2.1875 z m -180,4.3125 c -1.90047,0.0798 -3.91872,0.53125 -6.0625,1.375 -4.30241,1.69342 -7.19659,4.19674 -8.71875,7.46875 -1.50732,3.26621 -1.45538,6.93657 0.15625,11.03125 1.61164,4.09471 4.07708,6.8249 7.40625,8.1875 3.344,1.3567 7.16634,1.1934 11.46875,-0.5 4.28755,-1.6875 7.16374,-4.17713 8.65625,-7.4375 1.5073,-3.26617 1.45536,-6.93653 -0.15625,-11.03125 -1.61166,-4.09467 -4.0771,-6.82487 -7.40625,-8.1875 -1.65717,-0.68421 -3.44328,-0.98603 -5.34375,-0.90625 z m -38.59375,5.75 -9.25,7.15625 5.25,20.125 -18.125,-10.125 -9.28125,7.1875 21.875,28.21875 6.90625,-5.34375 -16,-20.65625 18.3125,10.1875 4.59375,-3.59375 -5.28125,-20.25 16,20.65625 6.875,-5.34375 -21.875,-28.21875 z m 36.65625,0.90625 c 1.01133,-0.0527 1.98624,0.21011 2.875,0.78125 1.41614,0.89904 2.59111,2.5177 3.53125,4.90625 0.9401,2.38859 1.19888,4.4246 0.78125,6.0625 -0.4235,1.6231 -1.51422,2.75432 -3.25,3.4375 -1.76548,0.69489 -3.35026,0.61194 -4.78125,-0.28125 -1.422,-0.91383 -2.62239,-2.58016 -3.5625,-4.96875 -0.94013,-2.38855 -1.17349,-4.37689 -0.75,-6 0.43248,-1.64373 1.51577,-2.8051 3.28125,-3.5 0.65092,-0.25618 1.2682,-0.40589 1.875,-0.4375 z"
         id="path3834" />
      <path
         id="path3809"
         transform="translate(0,540.36218)"
         d="m 422.21875,346.78125 -8.5625,0.3125 0.25,7.59375 -4.25,0.15625 0.21875,6.125 4.25,-0.15625 0.40625,11.34375 c 0.11943,3.37795 0.92268,5.75648 2.375,7.125 1.46766,1.35202 3.87204,1.96319 7.25,1.84375 l 7.34375,-0.25 -0.21875,-6.125 -4.40625,0.15625 c -1.46591,0.0518 -2.42836,-0.1185 -2.9375,-0.53125 -0.50974,-0.42867 -0.79985,-1.28841 -0.84375,-2.53125 L 422.6875,360.5 l 8.8125,-0.3125 -0.21875,-6.125 -8.8125,0.3125 -0.25,-7.59375 z m 28.75,7.65625 c -3.83889,-0.0524 -7.00656,0.92059 -9.5,2.90625 -2.83378,2.27073 -4.44152,5.58474 -4.8125,9.9375 -0.37776,4.43222 0.666,7.9977 3.125,10.6875 2.47622,2.67527 6.13938,4.2134 10.96875,4.625 2.01751,0.17192 4.04235,0.13145 6.09375,-0.0937 2.05,-0.20931 4.1362,-0.59693 6.21875,-1.1875 l 0.5625,-6.59375 c -2.07786,0.91101 -4.0948,1.5585 -6.03125,1.9375 -1.91925,0.36451 -3.76739,0.4655 -5.5625,0.3125 -2.22406,-0.18955 -3.93995,-0.83106 -5.09375,-1.9375 -1.15382,-1.10642 -1.74535,-2.66825 -1.78125,-4.6875 l 19.96875,1.71875 0.1875,-2.4375 c 0.36012,-4.22568 -0.59568,-7.72757 -2.90625,-10.46875 -2.29475,-2.73979 -5.5561,-4.26753 -9.75,-4.625 -0.57587,-0.0491 -1.13909,-0.0863 -1.6875,-0.0937 z m -54.25,1.5 c -1.75421,-0.0121 -3.43487,0.1082 -5,0.3125 -3.984,0.52014 -6.84249,1.57611 -8.59375,3.1875 -1.75126,1.61144 -2.42989,3.81093 -2.0625,6.625 0.34055,2.60858 1.34636,4.48008 3.03125,5.5625 1.68489,1.08244 4.44085,1.61275 8.28125,1.59375 l 1.53125,0 c 1.75006,-0.0194 2.91256,0.10114 3.53125,0.40625 0.6324,0.28727 1.0259,0.80365 1.125,1.5625 0.11762,0.90115 -0.22197,1.65089 -1,2.21875 -0.77807,0.56787 -1.99627,0.9708 -3.65625,1.1875 -1.83391,0.23943 -3.69112,0.27158 -5.53125,0.0937 -1.82433,-0.17988 -3.60731,-0.58624 -5.40625,-1.1875 l 0.84375,6.4375 c 2.04842,0.29534 4.00564,0.4748 5.90625,0.5 1.91847,0.039 3.74513,-0.0522 5.5,-0.28125 4.14207,-0.54076 7.16138,-1.6797 9.0625,-3.375 1.90107,-1.69529 2.68192,-3.95134 2.3125,-6.78125 -0.35296,-2.70341 -1.36425,-4.58755 -3.03125,-5.65625 -1.66703,-1.06867 -4.70517,-1.5767 -9.125,-1.5625 l -1.53125,-0.0312 c -1.55623,0.0263 -2.66428,-0.0898 -3.3125,-0.375 -0.63243,-0.28724 -0.9738,-0.78893 -1.0625,-1.46875 -0.1094,-0.83789 0.18317,-1.5036 0.90625,-2 0.7368,-0.51422 1.91867,-0.8832 3.53125,-1.09375 1.50189,-0.19602 3.13383,-0.22106 4.875,-0.0625 1.74113,0.15861 3.55156,0.50977 5.46875,1.03125 l -0.84375,-6.4375 c -2.08969,-0.24169 -3.99582,-0.39405 -5.75,-0.40625 z M 477,358.40625 l -6.46875,26 8.3125,2.0625 L 481.8125,374.5 c 0.63387,-2.55318 1.70434,-4.39132 3.1875,-5.46875 1.50244,-1.08902 3.30208,-1.34265 5.4375,-0.8125 0.72725,0.18057 1.42418,0.43433 2.09375,0.78125 0.68882,0.33532 1.35722,0.76027 2,1.28125 L 496.375,362.75 c -0.59978,-0.23102 -1.05391,-0.4038 -1.375,-0.5 -0.31729,-0.1116 -0.62775,-0.1808 -0.90625,-0.25 -1.93426,-0.48018 -3.6927,-0.50589 -5.28125,-0.0625 -1.56929,0.4318 -3.07222,1.37548 -4.5625,2.8125 l 1.03125,-4.28125 L 477,358.40625 z m -26.0625,1.78125 c 0.37931,-0.0267 0.77446,-0.0352 1.1875,0 1.52504,0.13 2.7105,0.73181 3.5625,1.8125 0.86919,1.06619 1.23183,2.41089 1.09375,4.03125 l -11.0625,-0.9375 c 0.4031,-1.72579 1.13886,-3.01035 2.25,-3.84375 0.83435,-0.63694 1.83082,-0.98246 2.96875,-1.0625 z m -87.3125,1.125 c -0.68829,0.0466 -1.40521,0.15972 -2.15625,0.34375 -1.70342,0.41742 -3.17542,1.17691 -4.40625,2.25 -1.23464,1.05766 -2.27379,2.48759 -3.15625,4.3125 l -0.9375,-3.8125 -8.3125,2.0625 6.375,26 8.3125,-2.03125 -3.125,-12.8125 c -0.58057,-2.36927 -0.53976,-4.33163 0.125,-5.90625 0.66094,-1.59007 1.85935,-2.60624 3.59375,-3.03125 0.71232,-0.17436 1.36662,-0.17308 2,0 0.62956,0.15765 1.16698,0.47522 1.625,0.9375 0.34641,0.34194 0.66713,0.92108 0.96875,1.75 0.31708,0.82516 0.76228,2.37961 1.3125,4.625 l 2.34375,9.53125 0.625,2.59375 8.375,-2.0625 -3.875,-15.84375 c -0.86137,-3.51519 -2.32819,-6.00918 -4.34375,-7.46875 -1.50009,-1.09748 -3.27888,-1.57719 -5.34375,-1.4375 z m 143.6875,7 c -0.31343,0.0129 -0.61243,0.0473 -0.90625,0.0937 -2.35064,0.37172 -4.15351,1.82851 -5.40625,4.375 -1.16128,2.36053 -1.33458,4.47806 -0.53125,6.3125 0.80331,1.83445 2.79195,3.79499 6,5.90625 l 1.28125,0.84375 c 1.46786,0.95312 2.37262,1.71578 2.71875,2.3125 0.36738,0.58945 0.36905,1.21955 0.0312,1.90625 -0.40119,0.81545 -1.06894,1.2706 -2.03125,1.3125 -0.96235,0.0419 -2.18537,-0.32351 -3.6875,-1.0625 -1.65953,-0.81641 -3.22265,-1.80149 -4.65625,-2.96875 -1.41932,-1.16021 -2.71022,-2.50301 -3.875,-4 l -2.875,5.84375 c 1.54194,1.38046 3.11901,2.61381 4.6875,3.6875 1.57575,1.09503 3.13075,2.03128 4.71875,2.8125 3.7482,1.84395 6.8844,2.5773 9.40625,2.21875 2.52181,-0.35856 4.42768,-1.8142 5.6875,-4.375 1.20347,-2.44636 1.38977,-4.5619 0.59375,-6.375 -0.79608,-1.8131 -3.0309,-3.93883 -6.71875,-6.375 l -1.25,-0.875 c -1.3103,-0.84004 -2.1495,-1.55975 -2.53125,-2.15625 -0.36744,-0.58943 -0.3964,-1.16607 -0.0937,-1.78125 0.373,-0.75821 0.99803,-1.14345 1.875,-1.15625 0.89828,-0.02 2.072,0.31339 3.53125,1.03125 1.35906,0.66862 2.70062,1.55985 4.0625,2.65625 1.36182,1.09642 2.72384,2.37894 4.03125,3.875 l 2.84375,-5.84375 c -1.60601,-1.35865 -3.10873,-2.51826 -4.5625,-3.5 -1.45383,-0.98172 -2.89622,-1.83447 -4.3125,-2.53125 -3.15453,-1.55186 -5.83726,-2.27808 -8.03125,-2.1875 z m -180,4.3125 c -1.90047,0.0798 -3.91872,0.53125 -6.0625,1.375 -4.30241,1.69342 -7.19659,4.19674 -8.71875,7.46875 -1.50732,3.26621 -1.45538,6.93657 0.15625,11.03125 1.61164,4.09471 4.07708,6.8249 7.40625,8.1875 3.344,1.3567 7.16634,1.1934 11.46875,-0.5 4.28755,-1.6875 7.16374,-4.17713 8.65625,-7.4375 1.5073,-3.26617 1.45536,-6.93653 -0.15625,-11.03125 -1.61166,-4.09467 -4.0771,-6.82487 -7.40625,-8.1875 -1.65717,-0.68421 -3.44328,-0.98603 -5.34375,-0.90625 z m -38.59375,5.75 -9.25,7.15625 5.25,20.125 -18.125,-10.125 -9.28125,7.1875 21.875,28.21875 6.90625,-5.34375 -16,-20.65625 18.3125,10.1875 4.59375,-3.59375 -5.28125,-20.25 16,20.65625 6.875,-5.34375 -21.875,-28.21875 z m 36.65625,0.90625 c 1.01133,-0.0527 1.98624,0.21011 2.875,0.78125 1.41614,0.89904 2.59111,2.5177 3.53125,4.90625 0.9401,2.38859 1.19888,4.4246 0.78125,6.0625 -0.4235,1.6231 -1.51422,2.75432 -3.25,3.4375 -1.76548,0.69489 -3.35026,0.61194 -4.78125,-0.28125 -1.422,-0.91383 -2.62239,-2.58016 -3.5625,-4.96875 -0.94013,-2.38855 -1.17349,-4.37689 -0.75,-6 0.43248,-1.64373 1.51577,-2.8051 3.28125,-3.5 0.65092,-0.25618 1.2682,-0.40589 1.875,-0.4375 z"
         style="font-size:48.97890091px;font-style:normal;font-variant:normal;font-weight:bold;font-stretch:normal;line-height:125%;letter-spacing:0px;word-spacing:0px;fill:#eeeeec;fill-opacity:1;stroke:#eeeeec;stroke-width:5;stroke-linejoin:round;stroke-miterlimit:4;stroke-dasharray:none;font-family:Symbol;-inkscape-font-specification:Symbol Bold"
         inkscape:connector-curvature="0" />
    </g>
  </g>
</svg>
