<?xml version="1.0" encoding="UTF-8" standalone="no"?>
<!-- Created with Inkscape (http://www.inkscape.org/) -->

<svg
   xmlns:dc="http://purl.org/dc/elements/1.1/"
   xmlns:cc="http://creativecommons.org/ns#"
   xmlns:rdf="http://www.w3.org/1999/02/22-rdf-syntax-ns#"
   xmlns:svg="http://www.w3.org/2000/svg"
   xmlns="http://www.w3.org/2000/svg"
   xmlns:xlink="http://www.w3.org/1999/xlink"
   xmlns:sodipodi="http://sodipodi.sourceforge.net/DTD/sodipodi-0.dtd"
   xmlns:inkscape="http://www.inkscape.org/namespaces/inkscape"
   width="256"
   height="256"
   viewBox="0 0 256 256"
   id="svg2"
   version="1.1"
   inkscape:version="0.91 r13725"
   sodipodi:docname="main_logo.svg"
   inkscape:export-filename="/home/georg/Software/Entwicklung/Java/libGDX/guardianmonsters/GuardianMonsters/android/assets/spritesheets/main_logo_bg.png"
   inkscape:export-xdpi="360"
   inkscape:export-ydpi="360">
  <defs
     id="defs4">
    <linearGradient
       inkscape:collect="always"
       id="linearGradient4275">
      <stop
         style="stop-color:#656565;stop-opacity:1"
         offset="0"
         id="stop4277" />
      <stop
         style="stop-color:#000000;stop-opacity:1"
         offset="1"
         id="stop4279" />
    </linearGradient>
    <linearGradient
       inkscape:collect="always"
       id="linearGradient5127">
      <stop
         style="stop-color:#c4a000;stop-opacity:1;"
         offset="0"
         id="stop5129" />
      <stop
         id="stop5131"
         offset="0.230984"
         style="stop-color:#946b2e;stop-opacity:1" />
      <stop
         style="stop-color:#f4dd81;stop-opacity:1"
         offset="0.33333606"
         id="stop5133" />
      <stop
         style="stop-color:#f4f792;stop-opacity:1"
         offset="0.36764371"
         id="stop5135" />
      <stop
         id="stop5137"
         offset="0.40304849"
         style="stop-color:#fbf7ed;stop-opacity:1" />
      <stop
         style="stop-color:#c4a000;stop-opacity:1"
         offset="0.64815843"
         id="stop5139" />
      <stop
         id="stop5141"
         offset="0.68356317"
         style="stop-color:#c4a000;stop-opacity:1" />
      <stop
         style="stop-color:#c4a000;stop-opacity:1"
         offset="0.81701195"
         id="stop5143" />
      <stop
         id="stop5145"
         offset="0.85786361"
         style="stop-color:#c4a000;stop-opacity:1" />
      <stop
         style="stop-color:#c4a000;stop-opacity:1"
         offset="1"
         id="stop5147" />
    </linearGradient>
    <linearGradient
       id="linearGradient4947"
       inkscape:collect="always">
      <stop
         id="stop4949"
         offset="0"
         style="stop-color:#c4a000;stop-opacity:1;" />
      <stop
         style="stop-color:#946b2e;stop-opacity:1"
         offset="0.230984"
         id="stop4951" />
      <stop
         id="stop4953"
         offset="0.33333606"
         style="stop-color:#f4dd81;stop-opacity:1" />
      <stop
         id="stop4955"
         offset="0.36764371"
         style="stop-color:#f4f792;stop-opacity:1" />
      <stop
         style="stop-color:#fbf7ed;stop-opacity:1"
         offset="0.40304849"
         id="stop4957" />
      <stop
         id="stop4959"
         offset="0.64815843"
         style="stop-color:#c4a000;stop-opacity:1" />
      <stop
         style="stop-color:#c4a000;stop-opacity:1"
         offset="0.68356317"
         id="stop4961" />
      <stop
         id="stop4963"
         offset="0.81701195"
         style="stop-color:#c4a000;stop-opacity:1" />
      <stop
         style="stop-color:#c4a000;stop-opacity:1"
         offset="0.85786361"
         id="stop4965" />
      <stop
         id="stop4967"
         offset="1"
         style="stop-color:#c4a000;stop-opacity:1" />
    </linearGradient>
    <linearGradient
       id="linearGradient4866"
       inkscape:collect="always">
      <stop
         id="stop4868"
         offset="0"
         style="stop-color:#4b4b4b;stop-opacity:1" />
      <stop
         style="stop-color:#c1c1c1;stop-opacity:1"
         offset="0.28571343"
         id="stop4870" />
      <stop
         style="stop-color:#e7e7e7;stop-opacity:1"
         offset="0.35714266"
         id="stop4872" />
      <stop
         id="stop4874"
         offset="0.35714266"
         style="stop-color:#ffffff;stop-opacity:1" />
      <stop
         style="stop-color:#5d5d5d;stop-opacity:1"
         offset="0.35774955"
         id="stop4876" />
      <stop
         id="stop4878"
         offset="0.55555582"
         style="stop-color:#ffffff;stop-opacity:1" />
      <stop
         style="stop-color:#9a9a9a;stop-opacity:1"
         offset="0.67647082"
         id="stop4880" />
      <stop
         id="stop4882"
         offset="0.82142842"
         style="stop-color:#696969;stop-opacity:1" />
      <stop
         style="stop-color:#ffffff;stop-opacity:1"
         offset="0.87633681"
         id="stop4884" />
      <stop
         id="stop4886"
         offset="1"
         style="stop-color:#c2c2c2;stop-opacity:1" />
    </linearGradient>
    <linearGradient
       inkscape:collect="always"
       id="linearGradient4832">
      <stop
         style="stop-color:#4b4b4b;stop-opacity:1"
         offset="0"
         id="stop4834" />
      <stop
         id="stop4844"
         offset="0.0818266"
         style="stop-color:#c1c1c1;stop-opacity:1" />
      <stop
         id="stop4842"
         offset="0.2430509"
         style="stop-color:#e7e7e7;stop-opacity:1" />
      <stop
         style="stop-color:#ffffff;stop-opacity:1"
         offset="0.2887688"
         id="stop4846" />
      <stop
         id="stop4848"
         offset="0.35774955"
         style="stop-color:#5d5d5d;stop-opacity:1" />
      <stop
         style="stop-color:#ffffff;stop-opacity:1"
         offset="0.41307625"
         id="stop4850" />
      <stop
         id="stop4852"
         offset="0.56469172"
         style="stop-color:#9a9a9a;stop-opacity:1" />
      <stop
         style="stop-color:#696969;stop-opacity:1"
         offset="0.78234589"
         id="stop4854" />
      <stop
         id="stop4856"
         offset="0.87633681"
         style="stop-color:#ffffff;stop-opacity:1" />
      <stop
         style="stop-color:#c2c2c2;stop-opacity:1"
         offset="1"
         id="stop4836" />
    </linearGradient>
    <filter
       inkscape:collect="always"
       style="color-interpolation-filters:sRGB"
       id="filter4783"
       x="-0.064640927"
       width="1.1292819"
       y="-0.055980829"
       height="1.1119617">
      <feGaussianBlur
         inkscape:collect="always"
         stdDeviation="4.4784672"
         id="feGaussianBlur4785" />
    </filter>
    <filter
       inkscape:collect="always"
       style="color-interpolation-filters:sRGB"
       id="filter4809"
       x="-0.012928185"
       width="1.0258564"
       y="-0.011196166"
       height="1.0223923">
      <feGaussianBlur
         inkscape:collect="always"
         stdDeviation="0.89569345"
         id="feGaussianBlur4811" />
    </filter>
    <filter
       inkscape:collect="always"
       style="color-interpolation-filters:sRGB"
       id="filter4911"
       x="-0.055992588"
       width="1.1119852"
       y="-0.064625256"
       height="1.1292505">
      <feGaussianBlur
         inkscape:collect="always"
         stdDeviation="2.6792228"
         id="feGaussianBlur4913" />
    </filter>
    <filter
       inkscape:collect="always"
       style="color-interpolation-filters:sRGB"
       id="filter5065"
       x="-0.13788337"
       width="1.2757667"
       y="-0.1506845"
       height="1.301369">
      <feGaussianBlur
         inkscape:collect="always"
         stdDeviation="2.678046"
         id="feGaussianBlur5067" />
    </filter>
    <filter
       inkscape:collect="always"
       style="color-interpolation-filters:sRGB"
       id="filter5097"
       x="-0.070523616"
       width="1.1410472"
       y="-0.07353952"
       height="1.147079">
      <feGaussianBlur
         inkscape:collect="always"
         stdDeviation="1.9148484"
         id="feGaussianBlur5099" />
    </filter>
    <filter
       inkscape:collect="always"
       style="color-interpolation-filters:sRGB"
       id="filter5215"
       x="-0.0055980744"
       width="1.0111961"
       y="-0.006464104"
       height="1.0129282">
      <feGaussianBlur
         inkscape:collect="always"
         stdDeviation="0.44784688"
         id="feGaussianBlur5217" />
    </filter>
    <filter
       inkscape:collect="always"
       style="color-interpolation-filters:sRGB"
       id="filter5243"
       x="-0.012928184"
       width="1.0258564"
       y="-0.011196167"
       height="1.0223923">
      <feGaussianBlur
         inkscape:collect="always"
         stdDeviation="0.89569334"
         id="feGaussianBlur5245" />
    </filter>
    <radialGradient
       inkscape:collect="always"
       xlink:href="#linearGradient5127"
       id="radialGradient5270"
       gradientUnits="userSpaceOnUse"
       gradientTransform="matrix(0.99998653,0,0,0.91578622,-322.51021,-251.90579)"
       cx="76.001617"
       cy="921.70502"
       fx="76.001617"
       fy="921.70502"
       r="23.506113" />
    <linearGradient
       inkscape:collect="always"
       xlink:href="#linearGradient4947"
       id="linearGradient5272"
       gradientUnits="userSpaceOnUse"
       gradientTransform="translate(-402.67923,-344.53391)"
       x1="52"
       y1="960.36218"
       x2="124"
       y2="908.36218" />
    <radialGradient
       inkscape:collect="always"
       xlink:href="#linearGradient5127"
       id="radialGradient5274"
       gradientUnits="userSpaceOnUse"
       gradientTransform="matrix(1.4641298,-0.45095245,0.28234646,0.91670831,-698.60007,-233.37121)"
       cx="75.999794"
       cy="923.14624"
       fx="75.999794"
       fy="923.14624"
       r="32.784123" />
    <linearGradient
       inkscape:collect="always"
       xlink:href="#linearGradient4947"
       id="linearGradient4282"
       x1="-92.035004"
       y1="596.36212"
       x2="84.034996"
       y2="596.36212"
       gradientUnits="userSpaceOnUse"
       gradientTransform="matrix(0.92013251,0,0,0.92013251,377.06911,331.59088)" />
    <linearGradient
       inkscape:collect="always"
       xlink:href="#linearGradient4832"
       id="linearGradient4298"
       x1="-125.20711"
       y1="-226.21973"
       x2="112.20711"
       y2="-226.21973"
       gradientUnits="userSpaceOnUse"
       gradientTransform="translate(-394.64062,979.56139)" />
    <linearGradient
       inkscape:collect="always"
       xlink:href="#linearGradient4947"
       id="linearGradient4314"
       x1="-92.535004"
       y1="596.36212"
       x2="84.534996"
       y2="596.36212"
       gradientUnits="userSpaceOnUse" />
    <linearGradient
       inkscape:collect="always"
       xlink:href="#linearGradient4832"
       id="linearGradient4324"
       gradientUnits="userSpaceOnUse"
       gradientTransform="translate(-394.64062,979.56139)"
       x1="-125.20711"
       y1="-226.21973"
       x2="112.20711"
       y2="-226.21973" />
    <radialGradient
       inkscape:collect="always"
       xlink:href="#linearGradient4866"
       id="radialGradient4333"
       cx="345"
       cy="859.36218"
       fx="345"
       fy="859.36218"
       r="23.506111"
       gradientTransform="matrix(0.9999789,0,0,0.91578629,-774.51334,-37.391112)"
       gradientUnits="userSpaceOnUse" />
    <linearGradient
       inkscape:collect="always"
       xlink:href="#linearGradient4832"
       id="linearGradient4341"
       x1="327.99915"
       y1="875.36163"
       x2="368.5061"
       y2="859.36218"
       gradientUnits="userSpaceOnUse"
       gradientTransform="translate(-774.52062,-109.76119)" />
    <linearGradient
       inkscape:collect="always"
       xlink:href="#linearGradient4832"
       id="linearGradient4349"
       gradientUnits="userSpaceOnUse"
       gradientTransform="translate(-405.64062,1265.0418)"
       x1="-125.20711"
       y1="-226.21973"
       x2="112.20711"
       y2="-226.21973" />
    <linearGradient
       inkscape:collect="always"
       xlink:href="#linearGradient4947"
       id="linearGradient4351"
       gradientUnits="userSpaceOnUse"
       gradientTransform="translate(-405.64062,468.67965)"
       x1="-92.035004"
       y1="596.36212"
       x2="84.034996"
       y2="596.36212" />
    <filter
       inkscape:label="Black Hole"
       inkscape:menu="Morphology"
       inkscape:menu-tooltip="Creates a black light inside and outside"
       height="1.5"
       width="1.5"
       y="-0.25"
       x="-0.25"
       style="color-interpolation-filters:sRGB;"
       id="filter4374">
      <feGaussianBlur
         stdDeviation="5"
         in="SourceAlpha"
         result="result1"
         id="feGaussianBlur4376" />
      <feComposite
         operator="arithmetic"
         k2="3.2"
         k1="-1"
         k4="-2"
         result="result3"
         in2="result1"
         id="feComposite4378" />
      <feColorMatrix
         values="1 0 0 0 0 0 1 0 0 0 0 0 1 0 0 0 0 0 10 0 "
         result="result2"
         id="feColorMatrix4380" />
      <feComposite
         result="fbSourceGraphic"
         in="SourceGraphic"
         operator="out"
         in2="result2"
         id="feComposite4382" />
      <feBlend
         mode="multiply"
         in="result1"
         in2="fbSourceGraphic"
         result="result91"
         id="feBlend4384" />
      <feBlend
         mode="screen"
         in="fbSourceGraphic"
         in2="result91"
         id="feBlend4386" />
    </filter>
    <linearGradient
       inkscape:collect="always"
       xlink:href="#linearGradient4947"
       id="linearGradient4422"
       gradientUnits="userSpaceOnUse"
       gradientTransform="matrix(0.92013251,0,0,0.92013251,377.06911,331.59088)"
       x1="-92.035004"
       y1="596.36212"
       x2="84.034996"
       y2="596.36212" />
    <linearGradient
       inkscape:collect="always"
       xlink:href="#linearGradient4947"
       id="linearGradient4424"
       gradientUnits="userSpaceOnUse"
       gradientTransform="matrix(0.92013251,0,0,0.92013251,377.06911,331.59088)"
       x1="-92.035004"
       y1="596.36212"
       x2="84.034996"
       y2="596.36212" />
    <linearGradient
       inkscape:collect="always"
       xlink:href="#linearGradient4947"
       id="linearGradient4426"
       gradientUnits="userSpaceOnUse"
       gradientTransform="matrix(0.92013251,0,0,0.92013251,377.06911,331.59088)"
       x1="-92.035004"
       y1="596.36212"
       x2="84.034996"
       y2="596.36212" />
    <linearGradient
       inkscape:collect="always"
       xlink:href="#linearGradient4947"
       id="linearGradient4428"
       gradientUnits="userSpaceOnUse"
       gradientTransform="matrix(0.92013251,0,0,0.92013251,375.06911,331.59088)"
       x1="-92.035004"
       y1="596.36212"
       x2="84.034996"
       y2="596.36212" />
    <linearGradient
       inkscape:collect="always"
       xlink:href="#linearGradient4947"
       id="linearGradient4430"
       gradientUnits="userSpaceOnUse"
       gradientTransform="matrix(0.92013251,0,0,0.92013251,375.06911,331.59088)"
       x1="-92.035004"
       y1="596.36212"
       x2="84.034996"
       y2="596.36212" />
    <linearGradient
       inkscape:collect="always"
       xlink:href="#linearGradient4947"
       id="linearGradient4432"
       gradientUnits="userSpaceOnUse"
       gradientTransform="matrix(0.92013251,0,0,0.92013251,373.06911,331.59088)"
       x1="-92.035004"
       y1="596.36212"
       x2="84.034996"
       y2="596.36212" />
    <linearGradient
       inkscape:collect="always"
       xlink:href="#linearGradient4947"
       id="linearGradient4434"
       gradientUnits="userSpaceOnUse"
       gradientTransform="matrix(0.92013251,0,0,0.92013251,371.06911,331.59088)"
       x1="-92.035004"
       y1="596.36212"
       x2="84.034996"
       y2="596.36212" />
    <linearGradient
       inkscape:collect="always"
       xlink:href="#linearGradient4947"
       id="linearGradient4436"
       gradientUnits="userSpaceOnUse"
       gradientTransform="matrix(0.92013251,0,0,0.92013251,371.06911,331.59088)"
       x1="-92.035004"
       y1="596.36212"
       x2="84.034996"
       y2="596.36212" />
    <filter
       inkscape:label="Black Hole"
       inkscape:menu="Morphology"
       inkscape:menu-tooltip="Creates a black light inside and outside"
       height="1.5"
       width="1.5"
       y="-0.25"
       x="-0.25"
       style="color-interpolation-filters:sRGB;"
       id="filter4509">
      <feGaussianBlur
         stdDeviation="5"
         in="SourceAlpha"
         result="result1"
         id="feGaussianBlur4511" />
      <feComposite
         operator="arithmetic"
         k2="3.2"
         k1="-1"
         k4="-2"
         result="result3"
         in2="result1"
         id="feComposite4513" />
      <feColorMatrix
         values="1 0 0 0 0 0 1 0 0 0 0 0 1 0 0 0 0 0 10 0 "
         result="result2"
         id="feColorMatrix4515" />
      <feComposite
         result="fbSourceGraphic"
         in="SourceGraphic"
         operator="out"
         in2="result2"
         id="feComposite4517" />
      <feBlend
         mode="multiply"
         in="result1"
         in2="fbSourceGraphic"
         result="result91"
         id="feBlend4519" />
      <feBlend
         mode="screen"
         in="fbSourceGraphic"
         in2="result91"
         id="feBlend4521" />
    </filter>
    <clipPath
       clipPathUnits="userSpaceOnUse"
       id="clipPath4285">
      <path
         id="path4287"
         d="m -17.545139,794.49268 c -4.505453,0 -8.132586,3.62714 -8.132586,8.13258 l 0,111.82306 c 0,4.50545 3.627133,8.13259 8.132586,8.13259 l 113.856203,0 c 4.505456,0 8.132586,-3.62714 8.132586,-8.13259 l 0,-111.82306 c 0,-4.50544 -3.62713,-8.13258 -8.132586,-8.13258 l -113.856203,0 z"
         style="opacity:1;fill:url(#radialGradient4289);fill-opacity:1;stroke:none;stroke-width:1;stroke-linecap:round;stroke-linejoin:round;stroke-miterlimit:4;stroke-dasharray:none;stroke-dashoffset:0;stroke-opacity:1"
         inkscape:connector-curvature="0" />
    </clipPath>
    <radialGradient
       inkscape:collect="always"
       xlink:href="#linearGradient4275"
       id="radialGradient4289"
       gradientUnits="userSpaceOnUse"
       gradientTransform="matrix(0.82596576,2.5373151e-8,-2.439726e-8,0.79419785,-66.340651,745.93012)"
       cx="128"
       cy="168.66667"
       fx="128"
       fy="168.66667"
       r="128" />
    <linearGradient
       inkscape:collect="always"
       xlink:href="#linearGradient4832"
       id="linearGradient4310"
       gradientUnits="userSpaceOnUse"
       gradientTransform="translate(-36.00046,-64.871269)"
       x1="48"
       y1="968.36218"
       x2="132"
       y2="896.36218" />
    <radialGradient
       inkscape:collect="always"
       xlink:href="#linearGradient4866"
       id="radialGradient4312"
       gradientUnits="userSpaceOnUse"
       gradientTransform="matrix(2.3512819,3.420041,-1.1036906,0.7587886,896.20298,-45.82839)"
       cx="66.648483"
       cy="903.25385"
       fx="66.648483"
       fy="903.25385"
       r="57.987198" />
    <radialGradient
       inkscape:collect="always"
       xlink:href="#linearGradient5127"
       id="radialGradient4314"
       gradientUnits="userSpaceOnUse"
       gradientTransform="matrix(0.99998653,0,0,0.91578622,-35.999436,12.748999)"
       cx="76.001617"
       cy="921.70502"
       fx="76.001617"
       fy="921.70502"
       r="23.506113" />
    <linearGradient
       inkscape:collect="always"
       xlink:href="#linearGradient4947"
       id="linearGradient4316"
       gradientUnits="userSpaceOnUse"
       gradientTransform="translate(-36.00046,-64.871269)"
       x1="52"
       y1="960.36218"
       x2="124"
       y2="908.36218" />
    <radialGradient
       inkscape:collect="always"
       xlink:href="#linearGradient5127"
       id="radialGradient4318"
       gradientUnits="userSpaceOnUse"
       gradientTransform="matrix(1.4641298,-0.45095245,0.28234646,0.91670831,-331.9213,46.291431)"
       cx="75.999794"
       cy="923.14624"
       fx="75.999794"
       fy="923.14624"
       r="32.784123" />
  </defs>
  <sodipodi:namedview
     id="base"
     pagecolor="#ffffff"
     bordercolor="#666666"
     borderopacity="1.0"
     inkscape:pageopacity="0.0"
     inkscape:pageshadow="2"
     inkscape:zoom="1.4142136"
     inkscape:cx="41.93001"
     inkscape:cy="73.716433"
     inkscape:document-units="px"
     inkscape:current-layer="layer1"
     showgrid="true"
     units="px"
     inkscape:snap-smooth-nodes="true"
     inkscape:snap-center="true"
     inkscape:snap-object-midpoints="true"
     inkscape:window-width="1920"
     inkscape:window-height="1023"
     inkscape:window-x="0"
     inkscape:window-y="27"
     inkscape:window-maximized="1"
     inkscape:object-paths="true"
     inkscape:snap-intersection-paths="true"
     inkscape:object-nodes="true">
    <inkscape:grid
       type="xygrid"
       id="grid4136"
       empspacing="4" />
  </sodipodi:namedview>
  <metadata
     id="metadata7">
    <rdf:RDF>
      <cc:Work
         rdf:about="">
        <dc:format>image/svg+xml</dc:format>
        <dc:type
           rdf:resource="http://purl.org/dc/dcmitype/StillImage" />
        <dc:title />
      </cc:Work>
    </rdf:RDF>
  </metadata>
  <g
     inkscape:groupmode="layer"
     id="layer2"
     inkscape:label="Background"
     sodipodi:insensitive="true"
     style="display:none">
    <rect
       style="fill:#000000;stroke:none;stroke-width:1;stroke-miterlimit:4;stroke-dasharray:none;stroke-dashoffset:0"
       id="rect4167"
       width="258"
       height="256"
       x="0"
       y="0" />
    <rect
       transform="translate(0,-796.36216)"
       style="opacity:1;fill:#ad7fa8;fill-opacity:1;stroke:#000000;stroke-width:3;stroke-linecap:round;stroke-linejoin:round;stroke-miterlimit:4;stroke-dasharray:none;stroke-dashoffset:0;stroke-opacity:1"
       id="rect4316"
       width="259.5"
       height="124"
       x="256"
       y="796.36218" />
  </g>
  <g
     inkscape:label="Ebene 1"
     inkscape:groupmode="layer"
     id="layer1"
     transform="translate(0,-796.36216)">
    <path
       style="fill:#000000;fill-opacity:1;stroke:none;stroke-width:0.40000001;stroke-miterlimit:4;stroke-dasharray:none;stroke-dashoffset:0"
       d="m -109.09371,845.49688 c 6.62493,0.55665 11.71999,6.09391 11.72461,12.74219 4.8e-4,7.06772 -5.72916,12.79735 -12.79688,12.79687 -7.06695,-6e-4 -12.7954,-5.72992 -12.79492,-12.79687 0.004,-6.63582 5.08036,-12.16741 11.69141,-12.74024 -11.43775,0.56467 -20.67268,9.54358 -21.5586,20.96094 -9.00776,6.15141 -12.38138,17.83085 -8.04101,27.83789 0.20978,0.4632 0.42989,0.92164 0.66016,1.375 l 0.0176,0.0352 c -2.85501,-6.02119 -0.61101,-13.22559 5.15821,-16.56055 1.8565,-1.07192 3.95256,-1.66024 6.0957,-1.71093 4.67945,-0.11156 9.04639,2.34082 11.38672,6.39453 3.53507,6.12134 1.43702,13.94947 -4.68555,17.48242 -5.81511,3.34809 -13.22883,1.63553 -16.98633,-3.92383 0.32114,0.49886 0.65524,0.98926 1.00196,1.47071 6.50589,8.69193 18.2473,11.57494 28.03906,6.88476 9.76862,4.69301 21.49157,1.84319 28.01562,-6.81054 0.31787,-0.43859 0.62525,-0.88468 0.92188,-1.3379 -3.81088,5.40892 -11.11684,7.02051 -16.84961,3.7168 -6.12257,-3.53295 -8.22062,-11.36108 -4.68555,-17.48242 2.17895,-3.77319 6.12812,-6.17832 10.48047,-6.38282 2.44791,-0.11558 4.87752,0.4742 7,1.69922 5.7853,3.35027 8.01652,10.58942 5.12109,16.61524 0.23521,-0.44548 0.46053,-0.89611 0.67579,-1.35156 4.39629,-10.01535 1.04264,-21.74162 -7.98438,-27.91797 -0.82767,-11.02625 -9.46407,-19.86043 -20.46875,-20.9375 -0.3792,-0.0259 -0.75881,-0.0454 -1.13867,-0.0586 z m -1.07031,8.47851 c -4.71055,8.9e-4 -8.52906,3.81876 -8.5293,8.5293 -1.2e-4,1.04037 -0.0475,2.03326 -0.14258,2.98438 2.06892,2.47394 5.17919,4.04657 8.66992,4.04687 3.4936,2.4e-4 6.6045,-1.57371 8.67383,-4.05078 -0.0949,-0.95062 -0.14255,-1.94263 -0.14258,-2.98242 -8.9e-4,-4.71056 -3.81874,-8.52711 -8.52929,-8.52735 z m -0.002,19.0254 c 1.2087,2.4e-4 2.1894,0.9788 2.18946,2.1875 4.8e-4,2.18857 0.80208,3.57728 2.69726,4.67187 1.04673,0.6044 1.40493,1.94336 0.80078,2.99023 -0.6044,1.04674 -1.94336,1.40495 -2.99023,0.80079 -1.89565,-1.09438 -3.49692,-1.09445 -5.39258,0 -1.04693,0.60446 -2.38578,0.24616 -2.99023,-0.80079 -0.60446,-1.04694 -0.24617,-2.38579 0.80078,-2.99023 1.89565,-1.09445 2.6972,-2.483 2.69726,-4.67187 2.2e-4,-1.2087 0.9788,-2.18742 2.1875,-2.1875 z m -16.53711,6.09765 c -0.77342,0.55551 -1.60284,1.0931 -2.5,1.61133 -4.07934,2.35547 -5.47755,7.57048 -3.12304,11.65039 2.35548,4.07934 7.57048,5.47754 11.65039,3.12305 0.90139,-0.52039 1.78665,-0.97379 2.6582,-1.36719 1.10944,-3.03015 0.91463,-6.51063 -0.83203,-9.53516 -1.69483,-2.93563 -4.58845,-4.91769 -7.85352,-5.48242 z m 33.07813,0.002 c -3.27857,0.56689 -6.16727,2.55709 -7.85547,5.48047 -1.74632,3.02394 -1.94075,6.50346 -0.83203,9.5332 0.87231,0.39367 1.756,0.85021 2.6582,1.3711 4.08015,2.35569 9.29863,0.9571 11.6543,-3.12305 2.35569,-4.08016 0.95712,-9.29863 -3.12305,-11.6543 -0.89706,-0.51792 -1.7286,-1.05222 -2.50195,-1.60742 z m 13.44336,16.67188 c -0.0655,0.13389 -0.13194,0.26736 -0.19922,0.40039 0.0596,-0.11344 0.11815,-0.22737 0.17578,-0.3418 l 0.004,-0.008 c 0.007,-0.0169 0.0131,-0.0338 0.0195,-0.0508 z"
       id="path5248"
       inkscape:connector-curvature="0"
       sodipodi:nodetypes="ccccccccccccccccccccccccccccccccccccccccssccccccccccccssscccccc" />
    <path
       inkscape:transform-center-x="-0.00086264099"
       sodipodi:nodetypes="ccccsccccc"
       inkscape:transform-center-y="-2.9990048"
       inkscape:connector-curvature="0"
       id="path5266"
       d="m -265.55029,597.58755 c -4.07934,2.35547 -5.47738,7.57157 -3.12287,11.65148 2.35548,4.07934 7.57156,5.47737 11.65147,3.12288 7.38778,-4.26508 13.63391,-4.26508 21.02169,2.5e-4 4.08015,2.35569 9.29744,0.95771 11.65311,-3.12244 2.35569,-4.08016 0.95773,-9.29744 -3.12244,-11.65311 -7.38779,-4.26534 -10.51084,-9.67464 -10.51107,-18.20518 -8.9e-4,-4.71056 -3.81968,-8.5288 -8.53023,-8.52904 -4.71055,8.9e-4 -8.5288,3.81969 -8.52904,8.53023 -0.001,8.52935 -3.12491,13.93865 -10.51062,18.20493 z"
       style="fill:#000000;fill-opacity:1;stroke:url(#radialGradient5270);stroke-width:0.40000001;stroke-miterlimit:4;stroke-dasharray:none;stroke-dashoffset:0" />
    <path
       id="path5268"
       d="m -325.60744,547.36603 a 12.796011,12.796011 0 0 1 11.72461,12.74219 12.796011,12.796011 0 0 1 -12.79688,12.79687 12.796011,12.796011 0 0 1 -12.79492,-12.79687 12.796011,12.796011 0 0 1 11.69141,-12.74024 22.748464,22.748464 0 0 0 -21.5586,20.96094 22.748464,22.748464 0 0 0 -8.04101,27.83789 34.122696,34.122696 0 0 0 0.66015,1.375 22.748464,22.748464 0 0 0 0.0176,0.0352 12.796011,12.796011 0 0 1 5.1582,-16.56055 12.796011,12.796011 0 0 1 6.09571,-1.71094 12.796011,12.796011 0 0 1 11.38672,6.39453 12.796011,12.796011 0 0 1 -4.68555,17.48242 12.796011,12.796011 0 0 1 -16.98633,-3.92382 34.122696,34.122696 0 0 0 1.00195,1.4707 22.748464,22.748464 0 0 0 28.03907,6.88477 22.748464,22.748464 0 0 0 28.01562,-6.81055 34.122696,34.122696 0 0 0 0.92188,-1.33789 12.796011,12.796011 0 0 1 -16.84961,3.71679 12.796011,12.796011 0 0 1 -4.68555,-17.48242 12.796011,12.796011 0 0 1 10.48047,-6.38281 12.796011,12.796011 0 0 1 7,1.69922 12.796011,12.796011 0 0 1 5.12109,16.61719 34.122696,34.122696 0 0 0 0.67578,-1.35352 22.748464,22.748464 0 0 0 -7.98437,-27.91797 22.748464,22.748464 0 0 0 -20.46875,-20.9375 34.122696,34.122696 0 0 0 -1.13867,-0.0586 z m 28.91601,50.26758 a 34.122696,34.122696 0 0 1 -0.20312,0.4082 22.748464,22.748464 0 0 0 0.17578,-0.3418 12.796011,12.796011 0 0 0 0.004,-0.006 12.796011,12.796011 0 0 0 0.0234,-0.0605 z m -29.98828,-22.76368 c 1.2087,2.4e-4 2.18939,0.9788 2.18945,2.1875 4.8e-4,2.18857 0.80209,3.57729 2.69727,4.67188 1.04673,0.6044 1.40493,1.94336 0.80078,2.99023 -0.6044,1.04674 -1.94336,1.40495 -2.99023,0.80079 -1.89565,-1.09438 -3.49692,-1.09445 -5.39258,0 -1.04693,0.60446 -2.38579,0.24616 -2.99024,-0.80079 -0.60446,-1.04694 -0.24616,-2.38579 0.80079,-2.99023 1.89565,-1.09445 2.6972,-2.48301 2.69726,-4.67188 2.2e-4,-1.2087 0.9788,-2.18742 2.1875,-2.1875 z"
       style="fill:url(#linearGradient5272);fill-opacity:1;stroke:url(#radialGradient5274);stroke-width:0.40000001;stroke-linejoin:round;stroke-miterlimit:4;stroke-dasharray:none;stroke-dashoffset:0"
       inkscape:connector-curvature="0" />
    <g
       id="g4290">
      <path
         inkscape:connector-curvature="0"
         inkscape:export-ydpi="261.44681"
         inkscape:export-xdpi="261.44681"
         id="path4456"
         d="m -429.52148,728.27428 c -4.71055,8.9e-4 -8.52906,3.82071 -8.5293,8.53125 -7.2e-4,6.18575 -1.6548,10.72498 -5.375,14.38281 -0.22385,-1.43655 -0.6549,-2.79759 -1.33398,-4.06641 -0.98667,-1.92 -2.32,-3.50643 -4,-4.75976 0,1.14667 -0.21396,2.22495 -0.64063,3.23828 -0.42666,0.98667 -1.0131,1.8549 -1.75976,2.60156 -0.74667,0.74667 -1.62729,1.3331 -2.64063,1.75977 -0.98666,0.42667 -2.05255,0.63867 -3.19922,0.63867 -1.14666,0 -2.2269,-0.212 -3.24023,-0.63867 -0.98667,-0.42667 -1.85294,-1.0131 -2.59961,-1.75977 -0.74667,-0.74666 -1.33505,-1.61489 -1.76172,-2.60156 -0.42666,-1.01333 -0.63867,-2.09161 -0.63867,-3.23828 -1.68,1.25333 -3.02768,2.83976 -4.04102,4.75976 -0.79529,1.52613 -1.25433,3.18048 -1.4082,4.94922 -0.037,0.42559 -0.0703,0.8514 -0.0703,1.29102 0,0.47333 0.0234,0.94045 0.0684,1.40039 0.045,0.45994 0.11116,0.91279 0.20117,1.35937 0.18002,0.89318 0.45055,1.75961 0.81055,2.59961 0.72,1.68 1.69325,3.14705 2.91992,4.40039 1.25333,1.22666 2.71844,2.19993 4.39844,2.91993 1.26,0.54 2.58056,0.8767 3.96093,1.01172 0.46013,0.045 0.92706,0.0684 1.40039,0.0684 0.47334,0 0.94045,-0.0234 1.4004,-0.0684 1.27104,-0.12438 2.48691,-0.43237 3.65624,-0.9004 0.0837,0.17003 0.16368,0.34131 0.25977,0.50782 0.30071,0.52078 0.64952,0.99658 1.03516,1.42773 -0.0651,-0.001 -0.12789,-0.01 -0.19336,-0.01 -1.30659,0 -2.53985,0.24922 -3.69922,0.74609 -1.15937,0.49687 -2.17218,1.17804 -3.03711,2.04297 -0.84652,0.84652 -1.51875,1.84844 -2.01563,3.00781 -0.49687,1.15937 -0.74414,2.39263 -0.74414,3.69922 0,1.30659 0.24727,2.53985 0.74414,3.69922 0.49688,1.15937 1.16911,2.17219 2.01563,3.03711 0.86493,0.84652 1.87774,1.5168 3.03711,2.01367 1.15937,0.49687 2.39263,0.74609 3.69922,0.74609 1.30658,0 2.5379,-0.24922 3.69726,-0.74609 1.15937,-0.49687 2.16324,-1.16715 3.00977,-2.01367 0.86492,-0.86492 1.54609,-1.87774 2.04297,-3.03711 0.49687,-1.15937 0.74414,-2.39263 0.74414,-3.69922 0,-1.30659 -0.24727,-2.53985 -0.74414,-3.69922 -0.48624,-1.13455 -1.15154,-2.11622 -1.99024,-2.95117 1.37941,-0.0335 2.76962,-0.4024 4.04883,-1.14063 7.38778,-4.26508 13.63371,-4.26533 21.02149,0 1.19125,0.68778 2.48002,1.0466 3.76562,1.1211 l 0,6.66992 -5.68555,0 c 0,1.30659 0.24727,2.53985 0.74414,3.69922 0.49687,1.15937 1.1691,2.17219 2.01563,3.03711 0.86492,0.84652 1.87774,1.5168 3.03711,2.01367 1.15937,0.49687 2.39067,0.74609 3.69726,0.74609 1.3618,0 2.63278,-0.2671 3.81055,-0.80078 l 0,-8.69531 5.68555,0 c 0,-1.50901 -0.32075,-2.89818 -0.96485,-4.16797 -0.64408,-1.28818 -1.51888,-2.37448 -2.62304,-3.25781 -1.03285,-0.78246 -2.11471,-1.33496 -3.24219,-1.67383 0.53709,-0.5283 1.01905,-1.13026 1.41406,-1.81445 0.22772,-0.39441 0.40983,-0.80084 0.56836,-1.21289 0.33573,0.18382 0.67757,0.35734 1.0293,0.51367 l 0,-4.32031 5.51953,5.48046 c 1.57333,0 3.05279,-0.2407 4.43945,-0.7207 1.38667,-0.48 2.65412,-1.15906 3.80078,-2.03906 l -8.24023,-8.28125 c 1.14667,0 2.21255,-0.212 3.19922,-0.63867 0.25333,-0.10667 0.49765,-0.22278 0.73437,-0.34961 0.71018,-0.38049 1.34626,-0.85211 1.90625,-1.41211 0.74667,-0.74667 1.3331,-1.61294 1.75977,-2.59961 0.0968,-0.22983 0.18079,-0.46382 0.25391,-0.70117 0.2553,-0.80704 0.38671,-1.65237 0.38671,-2.53907 0,-1.14667 -0.21395,-2.21255 -0.64062,-3.19921 -0.42667,-1.01334 -1.0131,-1.89396 -1.75977,-2.64063 -0.74666,-0.74666 -1.62729,-1.3331 -2.64062,-1.75976 -0.98667,-0.45334 -2.05255,-0.67969 -3.19922,-0.67969 -1.89333,0 -3.68133,0.37247 -5.36133,1.11914 -1.68,0.72 -3.1451,1.7076 -4.39844,2.96094 -1.22666,1.25333 -2.19992,2.72039 -2.91992,4.40039 -0.23451,0.5385 -0.41803,1.09419 -0.57617,1.6582 -0.008,0.0284 -0.0137,0.0575 -0.0215,0.0859 -0.11839,0.4338 -0.2137,0.87542 -0.28711,1.32422 -0.0334,0.19786 -0.0632,0.39688 -0.0879,0.59765 -0.0182,0.15499 -0.0358,0.31008 -0.0488,0.4668 -0.0136,0.15547 -0.0249,0.3115 -0.0332,0.46875 -4.88578,-3.898 -7.01739,-8.80658 -7.01758,-15.83984 -8.9e-4,-4.71056 -3.81875,-8.52906 -8.5293,-8.5293 z m -89.11914,11.28711 15.40625,15.40625 8.59375,8.59375 c 2,2 5.83015,3.47684 9.75976,3.56054 2.26667,0 4.34691,-0.49379 6.24024,-1.48046 1.92,-1.01333 3.50643,-2.36102 4.75976,-4.04102 0.61334,-0.8 1.11954,-1.65192 1.51954,-2.55859 0.42666,-0.93333 0.7476,-1.9066 0.96093,-2.91993 l -5.24023,0 0,5.03907 c -0.8,-0.29333 -1.53255,-0.69255 -2.19922,-1.19922 -0.66667,-0.50667 -1.25505,-1.0931 -1.76172,-1.75977 -0.48,-0.69333 -0.85247,-1.44023 -1.11914,-2.24023 -0.26667,-0.82667 -0.40039,-1.69294 -0.40039,-2.59961 0,-0.14963 0.0142,-0.29447 0.0215,-0.44141 0.0485,-0.97912 0.24814,-1.90184 0.61914,-2.75976 0.42666,-1.01333 1.01309,-1.892 1.75976,-2.63867 0.74667,-0.74667 1.61294,-1.33505 2.59961,-1.76172 1.01333,-0.42667 2.09358,-0.63868 3.24023,-0.63868 -1.25333,-1.68 -2.83976,-3.01333 -4.75976,-4 -1.8312,-0.98008 -3.84106,-1.47759 -6.02148,-1.50976 l 0.0215,-0.0508 -34,0 z m 204,0 0,8 -10.59961,-5.19922 c -0.53333,0.37333 -1.03953,0.7993 -1.51953,1.2793 -0.45334,0.45333 -0.8669,0.94713 -1.24024,1.48046 l 0,7.1543 0,9.32422 c 0.69334,0.96 1.50612,1.81388 2.43946,2.56055 0.69999,0.54 1.44464,1.01275 2.23437,1.41797 0.26325,0.13507 0.53136,0.26281 0.80469,0.38281 l 0,-4.36133 8.28125,5.24023 c 1.68,-0.34667 3.22534,-0.95984 4.63867,-1.83984 0.69996,-0.44903 1.34805,-0.95345 1.94336,-1.51367 l 0.0176,0.0742 8.60937,-8.60938 15.39063,-15.39062 -25,0 -5,0 -1,0 z m -71.88086,0.0391 c -1.01333,0 -1.9331,0.0946 -2.75977,0.28125 l 0,9.84961 0,17.10937 c 0.41334,0.0933 0.85061,0.16396 1.31055,0.21094 0.45994,0.047 0.94256,0.0703 1.44922,0.0703 1.89333,0 3.68133,-0.36007 5.36133,-1.08007 1.68,-0.72 3.13271,-1.69327 4.35937,-2.91993 1.25334,-1.25334 2.24094,-2.72039 2.96094,-4.40039 0.72,-1.68 1.08008,-3.46604 1.08008,-5.35937 0,-0.39241 -0.0232,-0.7776 -0.0566,-1.16016 -0.0127,-0.15702 -0.0271,-0.31325 -0.0449,-0.46875 -0.0192,-0.15666 -0.0459,-0.31168 -0.0703,-0.46679 -0.16928,-1.1281 -0.46028,-2.22048 -0.9082,-3.26563 -0.72,-1.68 -1.7076,-3.13271 -2.96094,-4.35937 -1.22666,-1.25334 -2.67937,-2.24094 -4.35937,-2.96094 -1.68,-0.72 -3.468,-1.08008 -5.36133,-1.08008 z m 21.52148,0 c -1.97333,0 -3.81481,0.38683 -5.52148,1.16016 l 0,9.34375 0,15.85742 c 0.42667,0.19333 0.86122,0.3628 1.30469,0.50781 1.33042,0.43505 2.7368,0.65234 4.21679,0.65234 0.49334,0 0.97846,-0.0239 1.45508,-0.0723 0.95325,-0.0967 1.87319,-0.29005 2.75977,-0.58008 0.44329,-0.14501 0.87802,-0.31448 1.30469,-0.50781 l 0,-15.48242 0,-9.71875 c -1.70666,-0.77333 -3.5462,-1.16016 -5.51954,-1.16016 z m 22,0 c -1.92,0 -3.76148,0.38683 -5.52148,1.16016 l -5.15039,9.9414 -2.80859,5.41992 c 0.34667,1.68 0.97223,3.22535 1.8789,4.63868 0.90667,1.41333 2.028,2.61489 3.36133,3.60156 0.42667,0.32 0.86698,0.61224 1.32031,0.87891 0.45333,0.26666 0.91844,0.50737 1.39844,0.7207 L -343,758.8817 l 5.51954,7.08008 c 2.05334,-0.85333 3.77348,-2.15992 5.16015,-3.91992 1.41333,-1.76 2.3455,-3.73327 2.79883,-5.91993 l -2.14844,-4.14453 -5.81054,-11.21679 c -1.70666,-0.77333 -3.5462,-1.16016 -5.51954,-1.16016 z m -8.42382,28.45117 c -1.30659,0 -2.5379,0.25817 -3.69727,0.77344 -1.15937,0.49687 -2.17218,1.17804 -3.03711,2.04297 -0.84652,0.86492 -1.51875,1.87578 -2.01562,3.03515 -0.49688,1.14096 -0.74414,2.36529 -0.74414,3.67188 0,0.97534 0.13802,1.91467 0.41406,2.81641 0.27604,0.88332 0.66133,1.70057 1.1582,2.45507 0.51527,0.73611 1.12297,1.3994 1.82227,1.98829 0.6993,0.58888 1.46289,1.06749 2.29101,1.43554 l 0,-2.98047 3.8086,3.78125 c 1.08575,0 2.10751,-0.1668 3.06445,-0.49804 0.95694,-0.33125 1.83173,-0.79897 2.62305,-1.40625 l -5.6875,-5.71485 c 0.79131,0 1.52808,-0.14696 2.20898,-0.4414 0.6993,-0.29444 1.30699,-0.69957 1.82227,-1.21485 0.51527,-0.51528 0.9204,-1.11403 1.21484,-1.79492 0.29445,-0.6993 0.44141,-1.44306 0.44141,-2.23437 0,-0.79132 -0.14696,-1.52809 -0.44141,-2.20899 -0.29444,-0.6993 -0.69957,-1.30699 -1.21484,-1.82226 -0.51528,-0.51528 -1.12297,-0.92041 -1.82227,-1.21485 -0.6809,-0.31284 -1.41767,-0.46875 -2.20898,-0.46875 z m -18.23243,0.0274 c -1.30658,0 -2.53985,0.24922 -3.69921,0.74609 -1.15937,0.49687 -2.17219,1.17804 -3.03711,2.04297 -0.84652,0.84652 -1.51876,1.84844 -2.01563,3.00781 -0.49687,1.15937 -0.74414,2.39263 -0.74414,3.69922 0,1.30659 0.24727,2.53985 0.74414,3.69922 0.49687,1.15937 1.16911,2.17219 2.01563,3.03711 0.86492,0.84652 1.87774,1.5168 3.03711,2.01367 1.15936,0.49687 2.39263,0.74609 3.69921,0.74609 0.97534,0 1.90379,-0.13802 2.78711,-0.41406 -0.82812,-0.36805 -1.50035,-0.93803 -2.01562,-1.71094 -0.51527,-0.77291 -0.77149,-1.6477 -0.77149,-2.62304 0,-0.6625 0.11819,-1.27913 0.35743,-1.84961 0.25764,-0.57048 0.59822,-1.06698 1.02148,-1.49024 0.44166,-0.44166 0.94905,-0.78225 1.51953,-1.02148 0.57048,-0.25764 1.18712,-0.38672 1.84961,-0.38672 -0.66249,0 -1.27913,-0.12014 -1.84961,-0.35938 -0.57048,-0.25763 -1.07787,-0.59822 -1.51953,-1.02148 -0.42326,-0.44167 -0.76384,-0.9471 -1.02148,-1.51758 -0.23924,-0.57048 -0.35743,-1.18711 -0.35743,-1.84961 0,-0.97534 0.25622,-1.85013 0.77149,-2.62304 0.51527,-0.77291 1.1875,-1.34289 2.01562,-1.71094 -0.88332,-0.27604 -1.81177,-0.41406 -2.78711,-0.41406 z m 37.03125,0 c -1.32499,0 -2.59402,0.2671 -3.80859,0.80078 l 0,8.69531 -5.6875,0 c 0,1.30659 0.24922,2.53985 0.74609,3.69922 0.49687,1.15937 1.1691,2.17219 2.01563,3.03711 0.86492,0.84652 1.87579,1.5168 3.03516,2.01367 1.15936,0.49687 2.39262,0.74609 3.69921,0.74609 1.3618,0 2.63082,-0.2671 3.8086,-0.80078 l 0,-8.69531 5.6875,0 c 0,-1.50901 -0.32271,-2.89818 -0.9668,-4.16797 -0.64409,-1.28818 -1.51693,-2.37448 -2.62109,-3.25781 -1.82187,-1.38019 -3.79191,-2.07031 -5.90821,-2.07031 z m -95.60937,0.19336 0,5.49414 -7.5918,-3.78321 c -0.36805,0.25764 -0.71758,0.55352 -1.04883,0.88477 -0.31284,0.31285 -0.59782,0.65343 -0.85546,1.02148 l 0,11.3711 c 0.47846,0.6625 1.0395,1.2523 1.68359,1.76757 0.64409,0.49687 1.34315,0.91094 2.09766,1.24219 l 0,-3.00976 5.71484,3.61718 c 1.15937,-0.23923 2.22583,-0.66224 3.20117,-1.26953 0.97534,-0.62568 1.80348,-1.40911 2.48438,-2.34765 l 0,-11.3711 c -0.6809,-0.93854 -1.50904,-1.71302 -2.48438,-2.32031 -0.97534,-0.62569 -2.0418,-1.05763 -3.20117,-1.29687 z m -47.12109,0.60742 c -0.75451,0.33124 -1.45357,0.75426 -2.09766,1.26953 -0.64409,0.49687 -1.20513,1.07773 -1.68359,1.74023 l 0,11.3711 c 0.47846,0.6625 1.0395,1.2523 1.68359,1.76757 0.64409,0.49687 1.34315,0.91094 2.09766,1.24219 l 0,-3.00976 3.81054,3.81054 3.8086,-3.81054 0,3.00976 c 0.7545,-0.33125 1.45356,-0.74532 2.09765,-1.24219 0.6441,-0.51527 1.20513,-1.10507 1.6836,-1.76757 l 0,-11.3711 c -0.47847,-0.6625 -1.0395,-1.24336 -1.6836,-1.74023 -0.64409,-0.51527 -1.34315,-0.93829 -2.09765,-1.26953 l -3.8086,3.00976 -3.81054,-3.00976 z m 78.9082,1.10351 c -1.15937,0.88333 -2.08083,1.97857 -2.76172,3.28516 -0.6809,1.30659 -1.02148,2.74242 -1.02148,4.30664 l 5.6875,0 0,8.69531 c 1.21457,0.53368 2.4836,0.80078 3.80859,0.80078 1.36179,0 2.63277,-0.2671 3.81055,-0.80078 l 0,-8.69531 5.68554,0 c 0,-1.56422 -0.34059,-3.00005 -1.02148,-4.30664 -0.6809,-1.30659 -1.6004,-2.40183 -2.75977,-3.28516 l -11.42773,0 z"
         style="fill:#000000;fill-opacity:1;stroke:none;stroke-width:1;stroke-miterlimit:4;stroke-dasharray:none;stroke-dashoffset:0;filter:url(#filter4509)" />
      <path
         inkscape:export-ydpi="261.44681"
         inkscape:export-xdpi="261.44681"
         style="fill:url(#linearGradient4341);fill-opacity:1;stroke:url(#radialGradient4333);stroke-width:1;stroke-miterlimit:4;stroke-dasharray:none;stroke-dashoffset:0"
         d="m -448.56129,755.00956 c -4.07934,2.35547 -5.47738,7.57157 -3.12287,11.65148 2.35548,4.07934 7.57156,5.47737 11.65147,3.12288 7.38778,-4.26508 13.63391,-4.26508 21.02169,2.5e-4 4.08015,2.35569 9.29744,0.95771 11.65311,-3.12244 2.35569,-4.08016 0.95773,-9.29744 -3.12244,-11.65311 -7.38779,-4.26534 -10.51084,-9.67464 -10.51107,-18.20518 -8.9e-4,-4.71056 -3.81968,-8.5288 -8.53023,-8.52904 -4.71055,8.9e-4 -8.5288,3.81969 -8.52904,8.53023 -10e-4,8.52935 -3.12491,13.93865 -10.51062,18.20493 z"
         id="path4327"
         inkscape:connector-curvature="0"
         inkscape:transform-center-y="-2.9990048"
         sodipodi:nodetypes="ccccsccccc"
         inkscape:transform-center-x="-0.00086264099" />
      <path
         inkscape:export-ydpi="261.44681"
         inkscape:export-xdpi="261.44681"
         sodipodi:nodetypes="cscccccccsccscscccccccscccsccscccscccscscscscccsccccccccccccccsccsssssscsssccsccssccsccccccccsccsscsssssscccscscscc"
         inkscape:connector-curvature="0"
         id="path4241"
         d="m -518.64062,739.56139 24,24 c 2,2 5.83014,3.47685 9.75976,3.56055 2.26667,0 4.34691,-0.4938 6.24024,-1.48047 1.92,-1.01333 3.50643,-2.36102 4.75976,-4.04102 0.61334,-0.8 1.11954,-1.65192 1.51954,-2.55859 0.42666,-0.93333 0.7476,-1.90659 0.96093,-2.91992 l -5.24023,0 0,5.03906 c -0.8,-0.29333 -1.53255,-0.69255 -2.19922,-1.19922 -0.66667,-0.50667 -1.25505,-1.0931 -1.76172,-1.75977 -0.48,-0.69333 -0.85247,-1.44023 -1.11914,-2.24023 -0.26667,-0.82667 -0.40039,-1.69294 -0.40039,-2.59961 0,-1.14667 0.21396,-2.2145 0.64063,-3.20117 0.42666,-1.01333 1.01309,-1.892 1.75976,-2.63867 0.74667,-0.74667 1.61294,-1.33505 2.59961,-1.76172 1.01333,-0.42667 2.09357,-0.63867 3.24023,-0.63867 -1.25333,-1.68 -2.83976,-3.01333 -4.75976,-4 -1.8312,-0.98008 -3.84106,-1.4776 -6.02149,-1.50977 l 0.0215,-0.0508 -33.99999,0 z m 118.40039,0 c -1.89333,0 -3.68133,0.37247 -5.36133,1.11914 -1.68,0.72 -3.1451,1.7076 -4.39844,2.96094 -1.22666,1.25333 -2.19992,2.72039 -2.91992,4.40039 -0.72,1.65333 -1.08008,3.42698 -1.08008,5.32031 0,1.41333 0.19961,2.77341 0.59961,4.08008 0.4,1.28 0.95969,2.46526 1.67969,3.55859 0.74667,1.06667 1.62729,2.02753 2.64063,2.88086 1.01333,0.85334 2.12031,1.54675 3.32031,2.08008 l 0,-4.32031 5.51953,5.48047 c 1.57333,0 3.05279,-0.24071 4.43945,-0.72071 1.38667,-0.48 2.65412,-1.15906 3.80078,-2.03906 l -8.24023,-8.28125 c 1.14667,0 2.21255,-0.212 3.19922,-0.63867 1.01333,-0.42667 1.89396,-1.01505 2.64062,-1.76172 0.74667,-0.74667 1.3331,-1.61294 1.75977,-2.59961 0.42667,-1.01333 0.64062,-2.09357 0.64062,-3.24023 0,-1.14667 -0.21395,-2.21256 -0.64062,-3.19922 -0.42667,-1.01334 -1.0131,-1.89396 -1.75977,-2.64063 -0.74666,-0.74666 -1.62729,-1.3331 -2.64062,-1.75976 -0.98667,-0.45334 -2.05255,-0.67969 -3.19922,-0.67969 z m 85.59961,0 0,8 -10.59961,-5.19922 c -0.53333,0.37333 -1.03953,0.7993 -1.51953,1.2793 -0.45334,0.45333 -0.8669,0.94714 -1.24024,1.48047 l 0,16.47851 c 0.69334,0.96 1.50612,1.81388 2.43946,2.56055 0.93333,0.72 1.94573,1.32078 3.03906,1.80078 l 0,-4.36133 8.28125,5.24024 c 1.68,-0.34667 3.22534,-0.95985 4.63867,-1.83985 0.69996,-0.44903 1.34805,-0.95345 1.94336,-1.51367 l 0.0176,0.0742 24,-24 -25,0 -5,0 -1,0 z m -71.88086,0.0391 c -1.01333,0 -1.9331,0.0946 -2.75977,0.28125 l 0,26.95899 c 0.82667,0.18666 1.74644,0.28125 2.75977,0.28125 1.89333,0 3.68133,-0.36008 5.36133,-1.08008 1.68,-0.72 3.13271,-1.69326 4.35937,-2.91992 1.25334,-1.25334 2.24094,-2.72039 2.96094,-4.40039 0.72,-1.68 1.08008,-3.46605 1.08008,-5.35938 0,-1.89333 -0.36008,-3.68133 -1.08008,-5.36133 -0.72,-1.68 -1.7076,-3.13271 -2.96094,-4.35937 -1.22666,-1.25334 -2.67937,-2.24094 -4.35937,-2.96094 -1.68,-0.72 -3.468,-1.08008 -5.36133,-1.08008 z m 21.52148,0 c -1.97333,0 -3.81481,0.38683 -5.52148,1.16016 l 0,25.20117 c 1.70667,0.77333 3.54815,1.16016 5.52148,1.16016 1.97334,0 3.81287,-0.38683 5.51953,-1.16016 l 0,-25.20117 c -1.70666,-0.77333 -3.54619,-1.16016 -5.51953,-1.16016 z m 22,0 c -1.92,0 -3.76148,0.38683 -5.52148,1.16016 l -7.95899,15.36133 c 0.34667,1.68 0.97224,3.22534 1.87891,4.63867 0.90667,1.41333 2.028,2.61489 3.36133,3.60156 0.42667,0.32 0.86698,0.61224 1.32031,0.87891 0.45333,0.26666 0.91844,0.50737 1.39844,0.7207 l 5.52148,-7.08008 5.51953,7.08008 c 2.05334,-0.85333 3.77349,-2.15992 5.16016,-3.91992 1.41333,-1.76 2.3455,-3.73326 2.79883,-5.91992 l -7.95899,-15.36133 c -1.70666,-0.77333 -3.54619,-1.16016 -5.51953,-1.16016 z m -122.24023,2.76172 c -1.68,1.25333 -3.02768,2.83977 -4.04102,4.75977 -0.98666,1.89333 -1.47851,3.97356 -1.47851,6.24023 0,1.89333 0.36008,3.67938 1.08008,5.35938 0.72,1.68 1.69325,3.14705 2.91992,4.40039 1.25333,1.22666 2.71844,2.19992 4.39844,2.91992 1.68,0.72 3.46799,1.08008 5.36132,1.08008 1.89334,0 3.67938,-0.36008 5.35938,-1.08008 1.68,-0.72 3.13271,-1.69326 4.35937,-2.91992 1.25334,-1.25334 2.24094,-2.72039 2.96094,-4.40039 0.72,-1.68 1.08008,-3.46605 1.08008,-5.35938 0,-2.26667 -0.5062,-4.3469 -1.51953,-6.24023 -0.98667,-1.92 -2.32,-3.50644 -4,-4.75977 0,1.14667 -0.21396,2.22495 -0.64063,3.23828 -0.42666,0.98667 -1.0131,1.8549 -1.75976,2.60156 -0.74667,0.74667 -1.62729,1.3331 -2.64063,1.75977 -0.98666,0.42667 -2.05255,0.63867 -3.19922,0.63867 -1.14666,0 -2.2269,-0.212 -3.24023,-0.63867 -0.98667,-0.42667 -1.85294,-1.0131 -2.59961,-1.75977 -0.74667,-0.74666 -1.33505,-1.61489 -1.76172,-2.60156 -0.42666,-1.01333 -0.63867,-2.09161 -0.63867,-3.23828 z"
         style="font-style:normal;font-variant:normal;font-weight:800;font-stretch:normal;font-size:medium;line-height:125%;font-family:mun;-inkscape-font-specification:'mun Ultra-Bold';letter-spacing:0px;word-spacing:0px;fill:#000000;fill-opacity:1;stroke:url(#linearGradient4298);stroke-width:1px;stroke-linecap:butt;stroke-linejoin:miter;stroke-opacity:1" />
      <g
         inkscape:export-ydpi="261.44681"
         inkscape:export-xdpi="261.44681"
         transform="translate(-771.52149,-102.76171)"
         id="g4446">
        <path
           inkscape:connector-curvature="0"
           id="path4406"
           style="font-style:normal;font-variant:normal;font-weight:800;font-stretch:normal;font-size:27.6039753px;line-height:125%;font-family:mun;-inkscape-font-specification:'mun Ultra-Bold';letter-spacing:0px;word-spacing:0px;fill:#000000;fill-opacity:1;stroke:url(#linearGradient4422);stroke-width:1;stroke-linecap:butt;stroke-linejoin:miter;stroke-miterlimit:4;stroke-dasharray:none;stroke-opacity:1"
           d="m 303.78514,871.64162 q 1.13176,0.49687 2.0979,1.26978 0.96614,0.74531 1.68384,1.73906 l 0,11.37283 q -0.7177,0.99375 -1.68384,1.76666 -0.96614,0.7453 -2.0979,1.24218 l 0,-3.00884 -3.80935,3.80935 -3.80935,-3.80935 0,3.00884 q -1.13176,-0.49688 -2.0979,-1.24218 -0.96614,-0.77291 -1.68384,-1.76666 l 0,-11.37283 q 0.7177,-0.99375 1.68384,-1.73906 0.96614,-0.77291 2.0979,-1.26978 l 3.80935,3.00884 3.80935,-3.00884 z" />
        <path
           inkscape:connector-curvature="0"
           id="path4408"
           style="font-style:normal;font-variant:normal;font-weight:800;font-stretch:normal;font-size:27.6039753px;line-height:125%;font-family:mun;-inkscape-font-specification:'mun Ultra-Bold';letter-spacing:0px;word-spacing:0px;fill:#000000;fill-opacity:1;stroke:url(#linearGradient4424);stroke-width:1;stroke-linecap:butt;stroke-linejoin:miter;stroke-miterlimit:4;stroke-dasharray:none;stroke-opacity:1"
           d="m 311.183,880.33687 q 0,-1.95988 0.74531,-3.69893 0.74531,-1.73905 2.01509,-3.00883 1.29739,-1.29739 3.03644,-2.0427 1.73905,-0.7453 3.69893,-0.7453 1.95988,0 3.69893,0.7453 1.73905,0.74531 3.00884,2.0427 1.29738,1.26978 2.04269,3.00883 0.74531,1.73905 0.74531,3.69893 0,1.95989 -0.74531,3.69894 -0.74531,1.73905 -2.04269,3.03643 -1.26979,1.26979 -3.00884,2.01509 -1.73905,0.74531 -3.69893,0.74531 -1.95988,0 -3.69893,-0.74531 -1.73905,-0.7453 -3.03644,-2.01509 -1.26978,-1.29738 -2.01509,-3.03643 -0.74531,-1.73905 -0.74531,-3.69894 z" />
        <path
           inkscape:connector-curvature="0"
           id="path4410"
           style="font-style:normal;font-variant:normal;font-weight:800;font-stretch:normal;font-size:27.6039753px;line-height:125%;font-family:mun;-inkscape-font-specification:'mun Ultra-Bold';letter-spacing:0px;word-spacing:0px;fill:#000000;fill-opacity:1;stroke:url(#linearGradient4426);stroke-width:1;stroke-linecap:butt;stroke-linejoin:miter;stroke-miterlimit:4;stroke-dasharray:none;stroke-opacity:1"
           d="m 343.28643,871.03433 q 1.73905,0.35886 3.20206,1.29739 1.46301,0.91093 2.48436,2.31874 l 0,11.37283 q -1.02135,1.40781 -2.48436,2.34634 -1.46301,0.91093 -3.20206,1.26978 l -5.71403,-3.61612 0,3.00884 q -1.13176,-0.49688 -2.0979,-1.24218 -0.96614,-0.77291 -1.68384,-1.76666 l 0,-11.37283 q 0.38646,-0.55208 0.85572,-1.02135 0.49687,-0.49687 1.04895,-0.88333 l 7.5911,3.78175 0,-5.4932 z" />
        <path
           inkscape:connector-curvature="0"
           id="path4412"
           style="font-style:normal;font-variant:normal;font-weight:800;font-stretch:normal;font-size:27.6039753px;line-height:125%;font-family:mun;-inkscape-font-specification:'mun Ultra-Bold';letter-spacing:0px;word-spacing:0px;fill:#000000;fill-opacity:1;stroke:url(#linearGradient4428);stroke-width:1;stroke-linecap:butt;stroke-linejoin:miter;stroke-miterlimit:4;stroke-dasharray:none;stroke-opacity:1"
           d="m 365.99199,872.9114 q 1.65624,1.325 2.62237,3.25727 0.96614,1.90468 0.96614,4.1682 l -5.68641,0 0,8.69526 q -1.76666,0.80051 -3.80935,0.80051 -1.95989,0 -3.69894,-0.74531 -1.73905,-0.7453 -3.03643,-2.01509 -1.26979,-1.29738 -2.01509,-3.03643 -0.74531,-1.73905 -0.74531,-3.69894 l 5.68642,0 0,-8.69525 q 1.82186,-0.80051 3.80935,-0.80051 3.17445,0 5.90725,2.07029 z" />
        <path
           inkscape:connector-curvature="0"
           id="path4414"
           style="font-style:normal;font-variant:normal;font-weight:800;font-stretch:normal;font-size:27.6039753px;line-height:125%;font-family:mun;-inkscape-font-specification:'mun Ultra-Bold';letter-spacing:0px;word-spacing:0px;fill:#000000;fill-opacity:1;stroke:url(#linearGradient4430);stroke-width:1;stroke-linecap:butt;stroke-linejoin:miter;stroke-miterlimit:4;stroke-dasharray:none;stroke-opacity:1"
           d="m 386.50174,872.74578 q 1.73905,1.32499 2.7604,3.28487 1.02134,1.95989 1.02134,4.30622 l -5.68641,0 0,8.69526 q -1.76666,0.80051 -3.80935,0.80051 -1.98749,0 -3.80935,-0.80051 l 0,-8.69526 -5.68642,0 q 0,-2.34633 1.02135,-4.30622 1.02134,-1.95988 2.76039,-3.28487 l 11.42805,0 z" />
        <path
           inkscape:connector-curvature="0"
           id="path4416"
           style="font-style:normal;font-variant:normal;font-weight:800;font-stretch:normal;font-size:27.6039753px;line-height:125%;font-family:mun;-inkscape-font-specification:'mun Ultra-Bold';letter-spacing:0px;word-spacing:0px;fill:#000000;fill-opacity:1;stroke:url(#linearGradient4432);stroke-width:1;stroke-linecap:butt;stroke-linejoin:miter;stroke-miterlimit:4;stroke-dasharray:none;stroke-opacity:1"
           d="m 401.86464,875.58899 q 0,0.99374 0.35885,1.84947 0.38646,0.85572 1.02135,1.51822 0.66249,0.63489 1.51822,1.02134 0.85572,0.35885 1.84946,0.35885 -0.99374,0 -1.84946,0.38646 -0.85573,0.35885 -1.51822,1.02135 -0.63489,0.63489 -1.02135,1.49061 -0.35885,0.85572 -0.35885,1.84947 0,1.46301 0.77291,2.62238 0.77291,1.15936 2.01509,1.71144 -1.32499,0.41406 -2.788,0.41406 -1.95988,0 -3.69893,-0.74531 -1.73905,-0.7453 -3.03644,-2.01509 -1.26978,-1.29738 -2.01509,-3.03643 -0.74531,-1.73905 -0.74531,-3.69894 0,-1.95988 0.74531,-3.69893 0.74531,-1.73905 2.01509,-3.00883 1.29739,-1.29739 3.03644,-2.0427 1.73905,-0.7453 3.69893,-0.7453 1.46301,0 2.788,0.41406 -1.24218,0.55208 -2.01509,1.71144 -0.77291,1.15937 -0.77291,2.62238 z" />
        <path
           inkscape:connector-curvature="0"
           id="path4418"
           style="font-style:normal;font-variant:normal;font-weight:800;font-stretch:normal;font-size:27.6039753px;line-height:125%;font-family:mun;-inkscape-font-specification:'mun Ultra-Bold';letter-spacing:0px;word-spacing:0px;fill:#000000;fill-opacity:1;stroke:url(#linearGradient4434);stroke-width:1;stroke-linecap:butt;stroke-linejoin:miter;stroke-miterlimit:4;stroke-dasharray:none;stroke-opacity:1"
           d="m 425.78478,876.52753 q 0,1.18697 -0.44167,2.23592 -0.44166,1.02134 -1.21457,1.79426 -0.77291,0.77291 -1.82186,1.21457 -1.02135,0.44166 -2.20832,0.44166 l 5.68642,5.71403 q -1.18697,0.91093 -2.62238,1.4078 -1.43541,0.49687 -3.06404,0.49687 l -3.80935,-3.78174 0,2.98123 q -1.24218,-0.55208 -2.29113,-1.43541 -1.04895,-0.88333 -1.82186,-1.98749 -0.74531,-1.13176 -1.15937,-2.45675 -0.41406,-1.3526 -0.41406,-2.81561 0,-1.95988 0.74531,-3.67132 0.74531,-1.73906 2.01509,-3.03644 1.29739,-1.29739 3.03644,-2.0427 1.73905,-0.77291 3.69893,-0.77291 1.18697,0 2.20832,0.46927 1.04895,0.44166 1.82186,1.21458 0.77291,0.77291 1.21457,1.82186 0.44167,1.02134 0.44167,2.20832 z" />
        <path
           inkscape:connector-curvature="0"
           id="path4420"
           style="font-style:normal;font-variant:normal;font-weight:800;font-stretch:normal;font-size:27.6039753px;line-height:125%;font-family:mun;-inkscape-font-specification:'mun Ultra-Bold';letter-spacing:0px;word-spacing:0px;fill:#000000;fill-opacity:1;stroke:url(#linearGradient4436);stroke-width:1;stroke-linecap:butt;stroke-linejoin:miter;stroke-miterlimit:4;stroke-dasharray:none;stroke-opacity:1"
           d="m 444.80391,872.9114 q 1.65624,1.325 2.62238,3.25727 0.96613,1.90468 0.96613,4.1682 l -5.68641,0 0,8.69526 q -1.76666,0.80051 -3.80935,0.80051 -1.95989,0 -3.69894,-0.74531 -1.73905,-0.7453 -3.03643,-2.01509 -1.26979,-1.29738 -2.01509,-3.03643 -0.74531,-1.73905 -0.74531,-3.69894 l 5.68642,0 0,-8.69525 q 1.82186,-0.80051 3.80935,-0.80051 3.17445,0 5.90725,2.07029 z" />
      </g>
      <path
         inkscape:export-ydpi="261.44681"
         inkscape:export-xdpi="261.44681"
         sodipodi:nodetypes="ccsccscccscccscccccsssssccccscccccsscsssssscccsccccccccccccccccccccccscccccccsccsc"
         inkscape:connector-curvature="0"
         id="path4318"
         d="m -400.89062,749.60045 c -4.20507,0.008 -8.40845,0.0408 -12.60547,0.0996 -0.3273,1.16749 -0.50391,2.38562 -0.50391,3.66211 0,1.41333 0.19961,2.77341 0.59961,4.08008 0.4,1.28 0.95969,2.46526 1.67969,3.55859 0.74667,1.06667 1.62729,2.02753 2.64063,2.88086 1.01333,0.85334 2.12031,1.54675 3.32031,2.08008 l 0,-4.32031 5.51953,5.48046 c 1.57333,0 3.05279,-0.2407 4.43945,-0.7207 1.38667,-0.48 2.65412,-1.15906 3.80078,-2.03906 l -8.24023,-8.28125 c 1.14667,0 2.21255,-0.212 3.19922,-0.63867 1.01333,-0.42667 1.89396,-1.01505 2.64062,-1.76172 0.74667,-0.74667 1.3331,-1.61294 1.75977,-2.59961 0.18825,-0.44709 0.32827,-0.90971 0.43359,-1.38281 -2.89155,-0.0447 -5.78659,-0.0773 -8.68359,-0.0977 z m 11.60937,0.13086 0,17.10937 c 0.82667,0.18666 1.74644,0.28125 2.75977,0.28125 1.89333,0 3.68133,-0.36007 5.36133,-1.08007 1.68,-0.72 3.13271,-1.69327 4.35937,-2.91993 1.25334,-1.25334 2.24094,-2.72039 2.96094,-4.40039 0.72,-1.68 1.08008,-3.46604 1.08008,-5.35937 0,-1.15713 -0.15097,-2.26982 -0.41992,-3.34766 -5.3509,-0.13626 -10.72134,-0.23071 -16.10157,-0.2832 z m 18.75977,0.37305 0,15.85742 c 1.70667,0.77333 3.54815,1.16015 5.52148,1.16015 1.97334,0 3.81288,-0.38682 5.51954,-1.16015 l 0,-15.48242 c -3.66638,-0.14484 -7.34779,-0.26988 -11.04102,-0.375 z m -73.02344,0.41406 c -9.17946,0.39455 -18.24416,0.91307 -27.14453,1.55273 -0.037,0.42559 -0.0703,0.8514 -0.0703,1.29102 0,1.89333 0.36008,3.67937 1.08008,5.35937 0.72,1.68 1.69325,3.14705 2.91992,4.40039 1.25333,1.22666 2.71844,2.19993 4.39844,2.91993 1.68,0.72 3.46799,1.08007 5.36132,1.08007 1.89334,0 3.67938,-0.36007 5.35938,-1.08007 1.68,-0.72 3.13271,-1.69327 4.35937,-2.91993 1.25334,-1.25334 2.24094,-2.72039 2.96094,-4.40039 0.72,-1.68 1.08008,-3.46604 1.08008,-5.35937 0,-0.98558 -0.11321,-1.92871 -0.30469,-2.84375 z m 89.87305,0.18359 -2.80859,5.41992 c 0.34667,1.68 0.97223,3.22535 1.8789,4.63868 0.90667,1.41333 2.028,2.61489 3.36133,3.60156 0.42667,0.32 0.86698,0.61224 1.32031,0.87891 0.45333,0.26666 0.91844,0.50737 1.39844,0.7207 L -343,758.8817 l 5.51954,7.08008 c 2.05334,-0.85333 3.77348,-2.15992 5.16015,-3.91992 1.41333,-1.76 2.3455,-3.73327 2.79883,-5.91993 l -2.14844,-4.14453 c -7.23663,-0.50543 -14.57942,-0.93107 -22.00195,-1.27539 z m 25.67187,1.57422 0,9.32422 c 0.69334,0.96 1.50612,1.81388 2.43946,2.56055 0.93333,0.72 1.94573,1.32078 3.03906,1.80078 l 0,-4.36133 8.28125,5.24023 c 1.68,-0.34667 3.22534,-0.95984 4.63867,-1.83984 0.69996,-0.44903 1.34805,-0.95345 1.94336,-1.51367 l 0.0176,0.0742 8.60937,-8.60938 c -9.3762,-1.03722 -19.05451,-1.93119 -28.96875,-2.67578 z m -154.0996,0.64453 c -7.19172,0.60347 -14.24533,1.28661 -21.13477,2.04688 l 8.59375,8.59375 c 2,2 5.83015,3.47684 9.75976,3.56054 2.26667,0 4.34691,-0.49379 6.24024,-1.48046 1.92,-1.01333 3.50643,-2.36102 4.75976,-4.04102 0.61334,-0.8 1.11954,-1.65192 1.51954,-2.55859 0.42666,-0.93333 0.7476,-1.9066 0.96093,-2.91993 l -5.24023,0 0,5.03907 c -0.8,-0.29333 -1.53255,-0.69255 -2.19922,-1.19922 -0.66667,-0.50667 -1.25505,-1.0931 -1.76172,-1.75977 -0.48,-0.69333 -0.85247,-1.44023 -1.11914,-2.24023 -0.26667,-0.82667 -0.40039,-1.69294 -0.40039,-2.59961 0,-0.14963 0.0142,-0.29447 0.0215,-0.44141 z"
         style="font-style:normal;font-variant:normal;font-weight:800;font-stretch:normal;font-size:medium;line-height:125%;font-family:mun;-inkscape-font-specification:'mun Ultra-Bold';letter-spacing:0px;word-spacing:0px;fill:#000000;fill-opacity:1;stroke:url(#linearGradient4324);stroke-width:1px;stroke-linecap:butt;stroke-linejoin:miter;stroke-opacity:1" />
    </g>
    <path
       inkscape:connector-curvature="0"
       id="path4343"
       d="m -529.64062,1025.0418 24,24 c 2,2 5.83014,3.4769 9.75976,3.5606 2.26667,0 4.34691,-0.4938 6.24024,-1.4805 1.92,-1.0133 3.50643,-2.361 4.75976,-4.041 0.61334,-0.8 1.11954,-1.6519 1.51954,-2.5586 0.42666,-0.9333 0.7476,-1.9066 0.96093,-2.9199 l -5.24023,0 0,5.039 c -0.8,-0.2933 -1.53255,-0.6925 -2.19922,-1.1992 -0.66667,-0.5067 -1.25505,-1.0931 -1.76172,-1.7598 -0.48,-0.6933 -0.85247,-1.4402 -1.11914,-2.2402 -0.26667,-0.8267 -0.40039,-1.6929 -0.40039,-2.5996 0,-1.1467 0.21396,-2.2145 0.64063,-3.2012 0.42666,-1.0133 1.01309,-1.892 1.75976,-2.6386 0.74667,-0.7467 1.61294,-1.3351 2.59961,-1.7618 1.01333,-0.4266 2.09357,-0.6386 3.24023,-0.6386 -1.25333,-1.68 -2.83976,-3.0134 -4.75976,-4 -1.8312,-0.9801 -3.84106,-1.4776 -6.02149,-1.5098 l 0.0215,-0.051 -33.99999,0 z m 118.40039,0 c -1.89333,0 -3.68133,0.3725 -5.36133,1.1192 -1.68,0.72 -3.1451,1.7076 -4.39844,2.9609 -1.22666,1.2533 -2.19992,2.7204 -2.91992,4.4004 -0.72,1.6533 -1.08008,3.427 -1.08008,5.3203 0,1.4133 0.19961,2.7734 0.59961,4.0801 0.4,1.28 0.95969,2.4652 1.67969,3.5586 0.74667,1.0666 1.62729,2.0275 2.64063,2.8808 1.01333,0.8534 2.12031,1.5468 3.32031,2.0801 l 0,-4.3203 5.51953,5.4805 c 1.57333,0 3.05279,-0.2407 4.43945,-0.7207 1.38667,-0.48 2.65412,-1.1591 3.80078,-2.0391 l -8.24023,-8.2813 c 1.14667,0 2.21255,-0.212 3.19922,-0.6386 1.01333,-0.4267 1.89396,-1.0151 2.64062,-1.7617 0.74667,-0.7467 1.3331,-1.613 1.75977,-2.5997 0.42667,-1.0133 0.64062,-2.0935 0.64062,-3.2402 0,-1.1467 -0.21395,-2.2125 -0.64062,-3.1992 -0.42667,-1.0133 -1.0131,-1.894 -1.75977,-2.6406 -0.74666,-0.7467 -1.62729,-1.3331 -2.64062,-1.7598 -0.98667,-0.4533 -2.05255,-0.6797 -3.19922,-0.6797 z m 85.59961,0 0,8 -10.59961,-5.1992 c -0.53333,0.3733 -1.03953,0.7993 -1.51953,1.2793 -0.45334,0.4533 -0.8669,0.9471 -1.24024,1.4805 l 0,16.4785 c 0.69334,0.96 1.50612,1.8139 2.43946,2.5605 0.93333,0.72 1.94573,1.3208 3.03906,1.8008 l 0,-4.3613 8.28125,5.2402 c 1.68,-0.3467 3.22534,-0.9598 4.63867,-1.8398 0.69996,-0.4491 1.34805,-0.9535 1.94336,-1.5137 l 0.0176,0.074 24,-24 -25,0 -5,0 -1,0 z M -440,1025.0809 c -1.92,0 -3.76148,0.3868 -5.52148,1.1602 l -7.95898,15.3613 c 0.34666,1.68 0.97224,3.2253 1.8789,4.6387 0.90667,1.4133 2.028,2.6149 3.36133,3.6015 0.42667,0.32 0.86698,0.6123 1.32031,0.8789 0.45333,0.2667 0.91844,0.5074 1.39844,0.7207 l 5.52148,-7.08 5.51953,7.08 c 2.05334,-0.8533 3.77349,-2.1599 5.16016,-3.9199 1.41333,-1.76 2.3455,-3.7332 2.79883,-5.9199 l -7.95899,-15.3613 c -1.70666,-0.7734 -3.54619,-1.1602 -5.51953,-1.1602 z m 42.47852,0 c -1.01333,0 -1.9331,0.095 -2.75977,0.2813 l 0,26.959 c 0.82667,0.1866 1.74644,0.2812 2.75977,0.2812 1.89333,0 3.68133,-0.3601 5.36133,-1.0801 1.68,-0.72 3.13271,-1.6932 4.35937,-2.9199 1.25334,-1.2533 2.24094,-2.7204 2.96094,-4.4004 0.72,-1.68 1.08008,-3.466 1.08008,-5.3594 0,-1.8933 -0.36008,-3.6813 -1.08008,-5.3613 -0.72,-1.68 -1.7076,-3.1327 -2.96094,-4.3594 -1.22666,-1.2533 -2.67937,-2.2409 -4.35937,-2.9609 -1.68,-0.72 -3.468,-1.0801 -5.36133,-1.0801 z m 21.52148,0 c -1.97333,0 -3.81481,0.3868 -5.52148,1.1602 l 0,25.2011 c 1.70667,0.7734 3.54815,1.1602 5.52148,1.1602 1.97334,0 3.81287,-0.3868 5.51953,-1.1602 l 0,-25.2011 c -1.70666,-0.7734 -3.54619,-1.1602 -5.51953,-1.1602 z m 22,0 c -1.92,0 -3.76148,0.3868 -5.52148,1.1602 l -7.95899,15.3613 c 0.34667,1.68 0.97224,3.2253 1.87891,4.6387 0.90667,1.4133 2.028,2.6149 3.36133,3.6015 0.42667,0.32 0.86698,0.6123 1.32031,0.8789 0.45333,0.2667 0.91844,0.5074 1.39844,0.7207 l 5.52148,-7.08 5.51953,7.08 c 2.05334,-0.8533 3.77349,-2.1599 5.16016,-3.9199 1.41333,-1.76 2.3455,-3.7332 2.79883,-5.9199 l -7.95899,-15.3613 c -1.70666,-0.7734 -3.54619,-1.1602 -5.51953,-1.1602 z m -122.24023,2.7617 c -1.68,1.2534 -3.02768,2.8398 -4.04102,4.7598 -0.98666,1.8933 -1.47851,3.9736 -1.47851,6.2402 0,1.8934 0.36008,3.6794 1.08008,5.3594 0.72,1.68 1.69325,3.1471 2.91992,4.4004 1.25333,1.2267 2.71844,2.1999 4.39844,2.9199 1.68,0.72 3.46799,1.0801 5.36132,1.0801 1.89334,0 3.67938,-0.3601 5.35938,-1.0801 1.68,-0.72 3.13271,-1.6932 4.35937,-2.9199 1.25334,-1.2533 2.24094,-2.7204 2.96094,-4.4004 0.72,-1.68 1.08008,-3.466 1.08008,-5.3594 0,-2.2666 -0.5062,-4.3469 -1.51953,-6.2402 -0.98667,-1.92 -2.32,-3.5064 -4,-4.7598 0,1.1467 -0.21396,2.225 -0.64063,3.2383 -0.42666,0.9867 -1.0131,1.8549 -1.75976,2.6016 -0.74667,0.7466 -1.62729,1.3331 -2.64063,1.7597 -0.98666,0.4267 -2.05255,0.6387 -3.19922,0.6387 -1.14666,0 -2.2269,-0.212 -3.24023,-0.6387 -0.98667,-0.4266 -1.85294,-1.0131 -2.59961,-1.7597 -0.74667,-0.7467 -1.33505,-1.6149 -1.76172,-2.6016 -0.42666,-1.0133 -0.63867,-2.0916 -0.63867,-3.2383 z"
       style="font-style:normal;font-variant:normal;font-weight:800;font-stretch:normal;font-size:medium;line-height:125%;font-family:mun;-inkscape-font-specification:'mun Ultra-Bold';letter-spacing:0px;word-spacing:0px;fill:#000000;fill-opacity:1;stroke:url(#linearGradient4349);stroke-width:1px;stroke-linecap:butt;stroke-linejoin:miter;stroke-opacity:1" />
    <text
       sodipodi:linespacing="125%"
       id="text4345"
       y="1075.3768"
       x="-500.67563"
       style="font-style:normal;font-weight:normal;font-size:40px;line-height:125%;font-family:sans-serif;letter-spacing:0px;word-spacing:0px;fill:#000000;fill-opacity:1;stroke:url(#linearGradient4351);stroke-width:1px;stroke-linecap:butt;stroke-linejoin:miter;stroke-opacity:1"
       xml:space="preserve"><tspan
         style="font-style:normal;font-variant:normal;font-weight:800;font-stretch:normal;font-size:30px;font-family:mun;-inkscape-font-specification:'mun Ultra-Bold';fill:#000000;fill-opacity:1;stroke:url(#linearGradient4351)"
         y="1075.3768"
         x="-500.67563"
         id="tspan4347"
         sodipodi:role="line">monsters</tspan></text>
    <g
       clip-path="none"
       transform="matrix(1.1666656,0,0,1.1666656,82.053255,-78.449126)"
       id="g4293">
      <path
         inkscape:connector-curvature="0"
         id="path4295"
         d="m 39.251488,763.55339 -3,30 -3,-9 0,21 -3,-6 0,18 -3,-6 3,24 -6,-6 3.16993,9.50977 -6.650394,-7.5 2.195314,8.19531 -19.2832038,-14.59766 3.695312,5.59766 -15.587891,-9 3.695313,5.59961 -18.1855472,-10.5 6.292969,7.09765 -27.480469,-12.40234 24.480469,17.59766 -9.292969,-1.90235 18.185547,10.5 -6.695313,-0.40039 15.5878912,9 -6.695312,-0.40234 22.2832028,9.40234 -8.1953128,2.19531 9.8183598,2.00977 -9.8183598,2.00977 8.1953128,2.19531 -22.2832028,9.40234 6.695312,-0.40234 -15.5878912,9 6.695313,-0.40039 -18.185547,10.5 9.292969,-1.90235 -24.480469,17.59766 27.480469,-12.40234 -6.292969,7.09765 18.1855472,-10.5 -3.695313,5.59961 15.587891,-9 -3.695312,5.59766 19.2832038,-14.59766 -2.195314,8.19531 6.650394,-7.5 -3.16993,9.50977 6,-6 -3,24 3,-6 0,18 3,-6 0,21 3,-9 3,30 3,-30 3,9 0,-21 3,6 0,-18 3,6 -3,-24 6,6 -3.16992,-9.50977 6.65039,7.5 -2.19531,-8.19531 19.2832,14.59766 -3.69531,-5.59766 15.58789,9 -3.69532,-5.59961 18.185552,10.5 -6.292972,-7.09765 27.480472,12.40234 -24.480472,-17.59766 9.292972,1.90235 -18.185552,-10.5 6.69532,0.40039 -15.58789,-9 6.69531,0.40234 -22.2832,-9.40234 8.19531,-2.19531 -9.81836,-2.00977 9.81836,-2.00977 -8.19531,-2.19531 22.2832,-9.40234 -6.69531,0.40234 15.58789,-9 -6.69532,0.40039 18.185552,-10.5 -9.292972,1.90235 24.480472,-17.59766 -27.480472,12.40234 6.292972,-7.09765 -18.185552,10.5 3.69532,-5.59961 -15.58789,9 3.69531,-5.59766 -19.2832,14.59766 2.19531,-8.19531 -6.65039,7.5 3.16992,-9.50977 -6,6 3,-24 -3,6 0,-18 -3,6 0,-21 -3,9 -3,-30 z m 0,40 1.75,17.5 1.75,-5.25 0,12.25 1.75,-3.5 0,10.5 1.75,-3.5 -1.75,14 3.5,-3.5 -1.8496,5.54688 3.88085,-4.375 -1.28125,4.78124 11.24805,-8.51562 -2.15625,3.26562 9.09375,-5.25 -2.15625,3.26563 10.60937,-6.125 -3.67187,4.14063 16.03125,-7.23438 -14.28125,10.26562 5.42187,-1.10937 -10.60937,6.125 3.90625,-0.23437 -9.09375,5.25 3.90625,-0.23438 -12.99805,5.48438 4.7793,1.28124 -5.72656,1.17188 5.72656,1.17188 -4.7793,1.28124 12.99805,5.48438 -3.90625,-0.23438 9.09375,5.25 -3.90625,-0.23437 10.60937,6.125 -5.42187,-1.10937 14.28125,10.26562 -16.03125,-7.23438 3.67187,4.14063 -10.60937,-6.125 2.15625,3.26563 -9.09375,-5.25 2.15625,3.26562 -11.24805,-8.51562 1.28125,4.78124 -3.88085,-4.375 1.8496,5.54688 -3.5,-3.5 1.75,14 -1.75,-3.5 0,10.5 -1.75,-3.5 0,12.25 -1.75,-5.25 -1.75,17.5 -1.75,-17.5 -1.75,5.25 0,-12.25 -1.75,3.5 0,-10.5 -1.75,3.5 1.75,-14 -3.5,3.5 1.84961,-5.54688 -3.88086,4.375 1.28125,-4.78124 -11.248042,8.51562 2.15625,-3.26562 -9.09375,5.25 2.15625,-3.26563 -10.6093748,6.125 3.671875,-4.14063 -16.03125,7.23438 14.28125,-10.26562 -5.42187501,1.10937 10.60937481,-6.125 -3.9062498,0.23437 9.0937498,-5.25 -3.90625,0.23438 12.998042,-5.48438 -4.781245,-1.28124 5.728515,-1.17188 -5.728515,-1.17188 4.781245,-1.28124 -12.998042,-5.48438 3.90625,0.23438 -9.0937498,-5.25 3.9062498,0.23437 -10.60937481,-6.125 5.42187501,1.10937 -14.28125,-10.26562 16.03125,7.23438 -3.671875,-4.14063 10.6093748,6.125 -2.15625,-3.26563 9.09375,5.25 -2.15625,-3.26562 11.248042,8.51562 -1.28125,-4.78124 3.88086,4.375 -1.84961,-5.54688 3.5,3.5 -1.75,-14 1.75,3.5 0,-10.5 1.75,3.5 0,-12.25 1.75,5.25 1.75,-17.5 z"
         style="fill:#f57900;fill-opacity:1;fill-rule:evenodd;stroke:none;stroke-width:1px;stroke-linecap:butt;stroke-linejoin:miter;stroke-opacity:1;filter:url(#filter4783)" />
      <path
         inkscape:connector-curvature="0"
         id="path4297"
         d="m 75.251953,828.42466 -3,30 -3,-9 0,21 -3,-6 0,18 -3,-6 3,24 -6,-6 3.169922,9.50977 -6.650391,-7.5 2.195313,8.19531 -19.283203,-14.59766 3.695312,5.59766 -15.587891,-9 3.695313,5.59961 -18.185547,-10.5 6.292969,7.09765 -27.4804689,-12.40234 24.4804689,17.59766 -9.2929689,-1.90235 18.1855469,10.5 -6.695313,-0.40039 15.587891,9 -6.695312,-0.40234 22.283203,9.40234 -8.195313,2.19531 9.81836,2.00977 -9.81836,2.00977 8.195313,2.19531 -22.283203,9.40234 6.695312,-0.40234 -15.587891,9 6.695313,-0.40039 -18.1855469,10.5 9.2929689,-1.90235 -24.4804689,17.59766 27.4804689,-12.40234 -6.292969,7.09765 18.185547,-10.5 -3.695313,5.59961 15.587891,-9 -3.695312,5.59766 19.283203,-14.59766 -2.195313,8.19531 6.650391,-7.5 -3.169922,9.50977 6,-6 -3,24 3,-6 0,18 3,-6 0,21 3,-9 3,30.00004 3,-30.00004 3,9 0,-21 3,6 0,-18 3,6 -3,-24 6,6 -3.169922,-9.50977 6.650391,7.5 -2.195313,-8.19531 19.283201,14.59766 -3.69531,-5.59766 15.58789,9 -3.69532,-5.59961 18.18555,10.5 -6.29297,-7.09765 27.48047,12.40234 -24.48047,-17.59766 9.29297,1.90235 -18.18555,-10.5 6.69532,0.40039 -15.58789,-9 6.69531,0.40234 -22.2832,-9.40234 8.19531,-2.19531 -9.818358,-2.00977 9.818358,-2.00977 -8.19531,-2.19531 22.2832,-9.40234 -6.69531,0.40234 15.58789,-9 -6.69532,0.40039 18.18555,-10.5 -9.29297,1.90235 24.48047,-17.59766 -27.48047,12.40234 6.29297,-7.09765 -18.18555,10.5 3.69532,-5.59961 -15.58789,9 3.69531,-5.59766 -19.283201,14.59766 2.195313,-8.19531 -6.650391,7.5 3.169922,-9.50977 -6,6 3,-24 -3,6 0,-18 -3,6 0,-21 -3,9 -3,-30 z m 0,40 1.75,17.5 1.75,-5.25 0,12.25 1.75,-3.5 0,10.5 1.75,-3.5 -1.75,14 3.5,-3.5 -1.849609,5.54688 3.880859,-4.375 -1.28125,4.78124 L 96,904.36216 l -2.15625,3.26562 9.09375,-5.25 -2.15625,3.26563 10.60937,-6.125 -3.67187,4.14063 16.03125,-7.23438 -14.28125,10.26562 5.42187,-1.10937 -10.60937,6.125 3.90625,-0.23437 -9.09375,5.25 3.90625,-0.23438 -12.998047,5.48438 4.779297,1.28124 -5.726563,1.17188 5.726563,1.17188 -4.779297,1.28124 12.998047,5.48438 -3.90625,-0.23438 9.09375,5.25 -3.90625,-0.23437 10.60937,6.125 -5.42187,-1.10937 14.28125,10.26562 -16.03125,-7.23438 3.67187,4.14063 -10.60937,-6.125 2.15625,3.26563 -9.09375,-5.25 2.15625,3.26562 -11.248047,-8.51562 1.28125,4.78124 -3.880859,-4.375 1.849609,5.54688 -3.5,-3.5 1.75,14 -1.75,-3.5 0,10.5 -1.75,-3.5 0,12.25 -1.75,-5.25 -1.75,17.5 -1.75,-17.5 -1.75,5.25 0,-12.25 -1.75,3.5 0,-10.5 -1.75,3.5 1.75,-14 -3.5,3.5 1.849609,-5.54688 -3.880859,4.375 1.28125,-4.78124 -11.248047,8.51562 2.15625,-3.26562 -9.09375,5.25 2.15625,-3.26563 -10.609375,6.125 3.671875,-4.14063 -16.03125,7.23438 14.28125,-10.26562 -5.421875,1.10937 10.609375,-6.125 -3.90625,0.23437 9.09375,-5.25 -3.90625,0.23438 12.998047,-5.48438 -4.78125,-1.28124 5.728516,-1.17188 -5.728516,-1.17188 4.78125,-1.28124 -12.998047,-5.48438 3.90625,0.23438 -9.09375,-5.25 3.90625,0.23437 -10.609375,-6.125 5.421875,1.10937 -14.28125,-10.26562 16.03125,7.23438 -3.671875,-4.14063 10.609375,6.125 -2.15625,-3.26563 9.09375,5.25 -2.15625,-3.26562 11.248047,8.51562 -1.28125,-4.78124 3.880859,4.375 -1.849609,-5.54688 3.5,3.5 -1.75,-14 1.75,3.5 0,-10.5 1.75,3.5 0,-12.25 1.75,5.25 1.75,-17.5 z"
         style="fill:#a40000;fill-opacity:1;fill-rule:evenodd;stroke:none;stroke-width:1px;stroke-linecap:butt;stroke-linejoin:miter;stroke-opacity:1;filter:url(#filter4809)"
         transform="matrix(0.71612353,-0.41345411,0.41345411,0.71612353,-396.71391,229.03002)"
         inkscape:transform-center-x="0.61658247"
         inkscape:transform-center-y="0.4281525" />
      <path
         style="fill:#fcaf3e;fill-opacity:1;fill-rule:evenodd;stroke:none;stroke-width:1px;stroke-linecap:butt;stroke-linejoin:miter;stroke-opacity:1;filter:url(#filter4783)"
         d="m 39.251488,763.55339 -3,30 -3,-9 0,21 -3,-6 0,18 -3,-6 3,24 -6,-6 3.16993,9.50977 -6.650394,-7.5 2.195314,8.19531 -19.2832038,-14.59766 3.695312,5.59766 -15.587891,-9 3.695313,5.59961 -18.1855472,-10.5 6.292969,7.09765 -27.480469,-12.40234 24.480469,17.59766 -9.292969,-1.90235 18.185547,10.5 -6.695313,-0.40039 15.5878912,9 -6.695312,-0.40234 22.2832028,9.40234 -8.1953128,2.19531 9.8183598,2.00977 -9.8183598,2.00977 8.1953128,2.19531 -22.2832028,9.40234 6.695312,-0.40234 -15.5878912,9 6.695313,-0.40039 -18.185547,10.5 9.292969,-1.90235 -24.480469,17.59766 27.480469,-12.40234 -6.292969,7.09765 18.1855472,-10.5 -3.695313,5.59961 15.587891,-9 -3.695312,5.59766 19.2832038,-14.59766 -2.195314,8.19531 6.650394,-7.5 -3.16993,9.50977 6,-6 -3,24 3,-6 0,18 3,-6 0,21 3,-9 3,30 3,-30 3,9 0,-21 3,6 0,-18 3,6 -3,-24 6,6 -3.16992,-9.50977 6.65039,7.5 -2.19531,-8.19531 19.2832,14.59766 -3.69531,-5.59766 15.58789,9 -3.69532,-5.59961 18.185552,10.5 -6.292972,-7.09765 27.480472,12.40234 -24.480472,-17.59766 9.292972,1.90235 -18.185552,-10.5 6.69532,0.40039 -15.58789,-9 6.69531,0.40234 -22.2832,-9.40234 8.19531,-2.19531 -9.81836,-2.00977 9.81836,-2.00977 -8.19531,-2.19531 22.2832,-9.40234 -6.69531,0.40234 15.58789,-9 -6.69532,0.40039 18.185552,-10.5 -9.292972,1.90235 24.480472,-17.59766 -27.480472,12.40234 6.292972,-7.09765 -18.185552,10.5 3.69532,-5.59961 -15.58789,9 3.69531,-5.59766 -19.2832,14.59766 2.19531,-8.19531 -6.65039,7.5 3.16992,-9.50977 -6,6 3,-24 -3,6 0,-18 -3,6 0,-21 -3,9 -3,-30 z m 0,40 1.75,17.5 1.75,-5.25 0,12.25 1.75,-3.5 0,10.5 1.75,-3.5 -1.75,14 3.5,-3.5 -1.8496,5.54688 3.88085,-4.375 -1.28125,4.78124 11.24805,-8.51562 -2.15625,3.26562 9.09375,-5.25 -2.15625,3.26563 10.60937,-6.125 -3.67187,4.14063 16.03125,-7.23438 -14.28125,10.26562 5.42187,-1.10937 -10.60937,6.125 3.90625,-0.23437 -9.09375,5.25 3.90625,-0.23438 -12.99805,5.48438 4.7793,1.28124 -5.72656,1.17188 5.72656,1.17188 -4.7793,1.28124 12.99805,5.48438 -3.90625,-0.23438 9.09375,5.25 -3.90625,-0.23437 10.60937,6.125 -5.42187,-1.10937 14.28125,10.26562 -16.03125,-7.23438 3.67187,4.14063 -10.60937,-6.125 2.15625,3.26563 -9.09375,-5.25 2.15625,3.26562 -11.24805,-8.51562 1.28125,4.78124 -3.88085,-4.375 1.8496,5.54688 -3.5,-3.5 1.75,14 -1.75,-3.5 0,10.5 -1.75,-3.5 0,12.25 -1.75,-5.25 -1.75,17.5 -1.75,-17.5 -1.75,5.25 0,-12.25 -1.75,3.5 0,-10.5 -1.75,3.5 1.75,-14 -3.5,3.5 1.84961,-5.54688 -3.88086,4.375 1.28125,-4.78124 -11.248042,8.51562 2.15625,-3.26562 -9.09375,5.25 2.15625,-3.26563 -10.6093748,6.125 3.671875,-4.14063 -16.03125,7.23438 14.28125,-10.26562 -5.42187501,1.10937 10.60937481,-6.125 -3.9062498,0.23437 9.0937498,-5.25 -3.90625,0.23438 12.998042,-5.48438 -4.781245,-1.28124 5.728515,-1.17188 -5.728515,-1.17188 4.781245,-1.28124 -12.998042,-5.48438 3.90625,0.23438 -9.0937498,-5.25 3.9062498,0.23437 -10.60937481,-6.125 5.42187501,1.10937 -14.28125,-10.26562 16.03125,7.23438 -3.671875,-4.14063 10.6093748,6.125 -2.15625,-3.26563 9.09375,5.25 -2.15625,-3.26562 11.248042,8.51562 -1.28125,-4.78124 3.88086,4.375 -1.84961,-5.54688 3.5,3.5 -1.75,-14 1.75,3.5 0,-10.5 1.75,3.5 0,-12.25 1.75,5.25 1.75,-17.5 z"
         id="path4299"
         inkscape:connector-curvature="0" />
      <path
         inkscape:connector-curvature="0"
         id="path4301"
         d="m 39.251488,763.55339 -3,30 -3,-9 0,21 -3,-6 0,18 -3,-6 3,24 -6,-6 3.16993,9.50977 -6.650394,-7.5 2.195314,8.19531 -19.2832038,-14.59766 3.695312,5.59766 -15.587891,-9 3.695313,5.59961 -18.1855472,-10.5 6.292969,7.09765 -27.480469,-12.40234 24.480469,17.59766 -9.292969,-1.90235 18.185547,10.5 -6.695313,-0.40039 15.5878912,9 -6.695312,-0.40234 22.2832028,9.40234 -8.1953128,2.19531 9.8183598,2.00977 -9.8183598,2.00977 8.1953128,2.19531 -22.2832028,9.40234 6.695312,-0.40234 -15.5878912,9 6.695313,-0.40039 -18.185547,10.5 9.292969,-1.90235 -24.480469,17.59766 27.480469,-12.40234 -6.292969,7.09765 18.1855472,-10.5 -3.695313,5.59961 15.587891,-9 -3.695312,5.59766 19.2832038,-14.59766 -2.195314,8.19531 6.650394,-7.5 -3.16993,9.50977 6,-6 -3,24 3,-6 0,18 3,-6 0,21 3,-9 3,30 3,-30 3,9 0,-21 3,6 0,-18 3,6 -3,-24 6,6 -3.16992,-9.50977 6.65039,7.5 -2.19531,-8.19531 19.2832,14.59766 -3.69531,-5.59766 15.58789,9 -3.69532,-5.59961 18.185552,10.5 -6.292972,-7.09765 27.480472,12.40234 -24.480472,-17.59766 9.292972,1.90235 -18.185552,-10.5 6.69532,0.40039 -15.58789,-9 6.69531,0.40234 -22.2832,-9.40234 8.19531,-2.19531 -9.81836,-2.00977 9.81836,-2.00977 -8.19531,-2.19531 22.2832,-9.40234 -6.69531,0.40234 15.58789,-9 -6.69532,0.40039 18.185552,-10.5 -9.292972,1.90235 24.480472,-17.59766 -27.480472,12.40234 6.292972,-7.09765 -18.185552,10.5 3.69532,-5.59961 -15.58789,9 3.69531,-5.59766 -19.2832,14.59766 2.19531,-8.19531 -6.65039,7.5 3.16992,-9.50977 -6,6 3,-24 -3,6 0,-18 -3,6 0,-21 -3,9 -3,-30 z m 0,40 1.75,17.5 1.75,-5.25 0,12.25 1.75,-3.5 0,10.5 1.75,-3.5 -1.75,14 3.5,-3.5 -1.8496,5.54688 3.88085,-4.375 -1.28125,4.78124 11.24805,-8.51562 -2.15625,3.26562 9.09375,-5.25 -2.15625,3.26563 10.60937,-6.125 -3.67187,4.14063 16.03125,-7.23438 -14.28125,10.26562 5.42187,-1.10937 -10.60937,6.125 3.90625,-0.23437 -9.09375,5.25 3.90625,-0.23438 -12.99805,5.48438 4.7793,1.28124 -5.72656,1.17188 5.72656,1.17188 -4.7793,1.28124 12.99805,5.48438 -3.90625,-0.23438 9.09375,5.25 -3.90625,-0.23437 10.60937,6.125 -5.42187,-1.10937 14.28125,10.26562 -16.03125,-7.23438 3.67187,4.14063 -10.60937,-6.125 2.15625,3.26563 -9.09375,-5.25 2.15625,3.26562 -11.24805,-8.51562 1.28125,4.78124 -3.88085,-4.375 1.8496,5.54688 -3.5,-3.5 1.75,14 -1.75,-3.5 0,10.5 -1.75,-3.5 0,12.25 -1.75,-5.25 -1.75,17.5 -1.75,-17.5 -1.75,5.25 0,-12.25 -1.75,3.5 0,-10.5 -1.75,3.5 1.75,-14 -3.5,3.5 1.84961,-5.54688 -3.88086,4.375 1.28125,-4.78124 -11.248042,8.51562 2.15625,-3.26562 -9.09375,5.25 2.15625,-3.26563 -10.6093748,6.125 3.671875,-4.14063 -16.03125,7.23438 14.28125,-10.26562 -5.42187501,1.10937 10.60937481,-6.125 -3.9062498,0.23437 9.0937498,-5.25 -3.90625,0.23438 12.998042,-5.48438 -4.781245,-1.28124 5.728515,-1.17188 -5.728515,-1.17188 4.781245,-1.28124 -12.998042,-5.48438 3.90625,0.23438 -9.0937498,-5.25 3.9062498,0.23437 -10.60937481,-6.125 5.42187501,1.10937 -14.28125,-10.26562 16.03125,7.23438 -3.671875,-4.14063 10.6093748,6.125 -2.15625,-3.26563 9.09375,5.25 -2.15625,-3.26562 11.248042,8.51562 -1.28125,-4.78124 3.88086,4.375 -1.84961,-5.54688 3.5,3.5 -1.75,-14 1.75,3.5 0,-10.5 1.75,3.5 0,-12.25 1.75,5.25 1.75,-17.5 z"
         style="fill:#ffffff;fill-opacity:1;fill-rule:evenodd;stroke:none;stroke-width:1px;stroke-linecap:butt;stroke-linejoin:miter;stroke-opacity:1;filter:url(#filter5243)" />
      <path
         inkscape:transform-center-y="0.40555477"
         inkscape:transform-center-x="0.58404675"
         transform="matrix(0.67833825,-0.39163877,0.39163877,0.67833825,-373.67132,262.29542)"
         style="fill:#f57900;fill-opacity:1;fill-rule:evenodd;stroke:none;stroke-width:1px;stroke-linecap:butt;stroke-linejoin:miter;stroke-opacity:1;filter:url(#filter5215)"
         d="m 75.251953,828.42466 -3,30 -3,-9 0,21 -3,-6 0,18 -3,-6 3,24 -6,-6 3.169922,9.50977 -6.650391,-7.5 2.195313,8.19531 -19.283203,-14.59766 3.695312,5.59766 -15.587891,-9 3.695313,5.59961 -18.185547,-10.5 6.292969,7.09765 -27.4804689,-12.40234 24.4804689,17.59766 -9.2929689,-1.90235 18.1855469,10.5 -6.695313,-0.40039 15.587891,9 -6.695312,-0.40234 22.283203,9.40234 -8.195313,2.19531 9.81836,2.00977 -9.81836,2.00977 8.195313,2.19531 -22.283203,9.40234 6.695312,-0.40234 -15.587891,9 6.695313,-0.40039 -18.1855469,10.5 9.2929689,-1.90235 -24.4804689,17.59766 27.4804689,-12.40234 -6.292969,7.09765 18.185547,-10.5 -3.695313,5.59961 15.587891,-9 -3.695312,5.59766 19.283203,-14.59766 -2.195313,8.19531 6.650391,-7.5 -3.169922,9.50977 6,-6 -3,24 3,-6 0,18 3,-6 0,21 3,-9 3,30.00004 3,-30.00004 3,9 0,-21 3,6 0,-18 3,6 -3,-24 6,6 -3.169922,-9.50977 6.650391,7.5 -2.195313,-8.19531 19.283201,14.59766 -3.69531,-5.59766 15.58789,9 -3.69532,-5.59961 18.18555,10.5 -6.29297,-7.09765 27.48047,12.40234 -24.48047,-17.59766 9.29297,1.90235 -18.18555,-10.5 6.69532,0.40039 -15.58789,-9 6.69531,0.40234 -22.2832,-9.40234 8.19531,-2.19531 -9.818358,-2.00977 9.818358,-2.00977 -8.19531,-2.19531 22.2832,-9.40234 -6.69531,0.40234 15.58789,-9 -6.69532,0.40039 18.18555,-10.5 -9.29297,1.90235 24.48047,-17.59766 -27.48047,12.40234 6.29297,-7.09765 -18.18555,10.5 3.69532,-5.59961 -15.58789,9 3.69531,-5.59766 -19.283201,14.59766 2.195313,-8.19531 -6.650391,7.5 3.169922,-9.50977 -6,6 3,-24 -3,6 0,-18 -3,6 0,-21 -3,9 -3,-30 z m 0,40 1.75,17.5 1.75,-5.25 0,12.25 1.75,-3.5 0,10.5 1.75,-3.5 -1.75,14 3.5,-3.5 -1.849609,5.54688 3.880859,-4.375 -1.28125,4.78124 L 96,904.36216 l -2.15625,3.26562 9.09375,-5.25 -2.15625,3.26563 10.60937,-6.125 -3.67187,4.14063 16.03125,-7.23438 -14.28125,10.26562 5.42187,-1.10937 -10.60937,6.125 3.90625,-0.23437 -9.09375,5.25 3.90625,-0.23438 -12.998047,5.48438 4.779297,1.28124 -5.726563,1.17188 5.726563,1.17188 -4.779297,1.28124 12.998047,5.48438 -3.90625,-0.23438 9.09375,5.25 -3.90625,-0.23437 10.60937,6.125 -5.42187,-1.10937 14.28125,10.26562 -16.03125,-7.23438 3.67187,4.14063 -10.60937,-6.125 2.15625,3.26563 -9.09375,-5.25 2.15625,3.26562 -11.248047,-8.51562 1.28125,4.78124 -3.880859,-4.375 1.849609,5.54688 -3.5,-3.5 1.75,14 -1.75,-3.5 0,10.5 -1.75,-3.5 0,12.25 -1.75,-5.25 -1.75,17.5 -1.75,-17.5 -1.75,5.25 0,-12.25 -1.75,3.5 0,-10.5 -1.75,3.5 1.75,-14 -3.5,3.5 1.849609,-5.54688 -3.880859,4.375 1.28125,-4.78124 -11.248047,8.51562 2.15625,-3.26562 -9.09375,5.25 2.15625,-3.26563 -10.609375,6.125 3.671875,-4.14063 -16.03125,7.23438 14.28125,-10.26562 -5.421875,1.10937 10.609375,-6.125 -3.90625,0.23437 9.09375,-5.25 -3.90625,0.23438 12.998047,-5.48438 -4.78125,-1.28124 5.728516,-1.17188 -5.728516,-1.17188 4.78125,-1.28124 -12.998047,-5.48438 3.90625,0.23438 -9.09375,-5.25 3.90625,0.23437 -10.609375,-6.125 5.421875,1.10937 -14.28125,-10.26562 16.03125,7.23438 -3.671875,-4.14063 10.609375,6.125 -2.15625,-3.26563 9.09375,5.25 -2.15625,-3.26562 11.248047,8.51562 -1.28125,-4.78124 3.880859,4.375 -1.849609,-5.54688 3.5,3.5 -1.75,-14 1.75,3.5 0,-10.5 1.75,3.5 0,-12.25 1.75,5.25 1.75,-17.5 z"
         id="path4303"
         inkscape:connector-curvature="0" />
      <path
         inkscape:connector-curvature="0"
         id="path4305"
         d="m 10.58001,809.7416 -0.01044,0.0731 -0.06613,-0.0278 0.05569,0.10616 -2.8384348,19.7246 3.6285338,-4.79454 0.454218,1.92652 a 42.769706,42.769706 0 0 0 -8.7902738,10.1251 14.256569,14.256569 0 0 1 9.8153138,-5.77782 l 2.518219,10.67155 3.428399,-1.46708 9.590813,7.25533 -0.0922,1.52625 a 14.256569,14.256569 0 0 1 -1.36788,3.28047 14.256569,14.256569 0 0 1 -2.17538,2.83669 l -1.25824,0.83012 -11.077031,-4.67619 -0.445518,-3.70163 -10.4853298,3.14996 a 14.256569,14.256569 0 0 1 0.274968,-11.7575 42.769706,42.769706 0 0 0 -4.552634,13.04184 l -1.910855,0.5743 2.338969,-5.53765 -15.6627342,12.31961 -0.12008,0.005 0.05743,0.0435 -0.05743,0.0453 0.12008,0.004 15.6627342,12.31961 -2.338969,-5.53765 1.909114,0.57256 a 42.769706,42.769706 0 0 0 4.484763,12.92872 14.256569,14.256569 0 0 1 -0.210576,-11.64438 l 10.4905498,3.1517 0.445518,-3.70163 11.077031,-4.67619 1.28261,0.84578 a 14.256569,14.256569 0 0 1 2.15101,2.82103 14.256569,14.256569 0 0 1 1.36962,3.30658 l 0.0888,1.50014 -9.587332,7.25533 -3.428399,-1.46534 -2.514739,10.65588 A 14.256569,14.256569 0 0 1 2.7626502,881.72792 42.769706,42.769706 0 0 0 11.81397,892.19063 l -0.46466,1.97002 -3.6267938,-4.79454 2.8366948,19.7246 -0.05569,0.10616 0.06787,-0.0261 0.01044,0.0696 0.06265,-0.10093 18.501167,-7.405 -5.9675,-0.7431 1.47752,-1.39225 a 42.769706,42.769706 0 0 0 13.3899,2.60176 14.256569,14.256569 0 0 1 -10.16512,-5.63685 l 7.97407,-7.50767 -2.98462,-2.23629 1.4897,-11.93326 1.36266,-0.6822 a 14.256569,14.256569 0 0 1 3.52934,-0.45596 14.256569,14.256569 0 0 1 3.55196,0.46814 l 1.34003,0.67002 1.4897,11.93326 -2.98462,2.23629 7.97929,7.5129 a 14.256569,14.256569 0 0 1 -10.14945,5.62988 42.769706,42.769706 0 0 0 13.37946,-2.58784 l 1.46533,1.38007 -5.96402,0.7431 18.50117,7.405 0.0626,0.10093 0.0104,-0.0714 0.0661,0.0261 -0.0557,-0.10442 2.83844,-19.72461 -3.62854,4.79454 -0.45421,-1.92825 a 42.769706,42.769706 0 0 0 8.86684,-10.24865 14.256569,14.256569 0 0 1 -9.89537,5.89267 l -2.51474,-10.66111 -3.42839,1.46708 -9.58908,-7.25532 0.0905,-1.53147 a 14.256569,14.256569 0 0 1 1.36788,-3.27525 14.256569,14.256569 0 0 1 2.17538,-2.83669 l 1.25824,-0.83013 11.07703,4.67619 0.44551,3.70163 10.48534,-3.14995 a 14.256569,14.256569 0 0 1 -0.27497,11.7575 42.769706,42.769706 0 0 0 4.55263,-13.04184 l 1.91086,-0.5743 -2.33896,5.53764 15.66273,-12.31961 0.12008,-0.005 -0.0575,-0.0453 0.0575,-0.0435 -0.12008,-0.004 -15.66273,-12.31961 2.33896,5.53764 -1.90911,-0.57255 a 42.769706,42.769706 0 0 0 -4.48477,-12.92872 14.256569,14.256569 0 0 1 0.21058,11.64437 l -10.49056,-3.15169 -0.44551,3.70163 -11.07703,4.67619 -1.27912,-0.84404 a 14.256569,14.256569 0 0 1 -2.1545,-2.82278 14.256569,14.256569 0 0 1 -1.36962,-3.30658 l -0.0888,-1.50013 9.58734,-7.25533 3.42839,1.46533 2.51648,-10.66284 a 14.256569,14.256569 0 0 1 10.0694,6.15197 42.769706,42.769706 0 0 0 -9.05132,-10.4627 l 0.46466,-1.97003 3.6268,4.79454 -2.8367,-19.72461 0.0557,-0.10616 -0.0679,0.0261 -0.0104,-0.0696 -0.0626,0.10094 -18.50117,7.40499 5.9675,0.74311 -1.47752,1.39224 a 42.769706,42.769706 0 0 0 -13.3899,-2.60175 14.256569,14.256569 0 0 1 10.16512,5.63684 l -7.97407,7.50767 2.98462,2.23629 -1.4897,11.93327 -1.36266,0.6822 a 14.256569,14.256569 0 0 1 -3.52934,0.45596 14.256569,14.256569 0 0 1 -3.55196,-0.46814 l -1.34003,-0.67002 -1.4897,-11.93327 2.98462,-2.23629 -7.97929,-7.51289 a 14.256569,14.256569 0 0 1 10.14945,-5.62988 42.769706,42.769706 0 0 0 -13.37946,2.58783 l -1.46533,-1.38006 5.96576,-0.74311 -18.501172,-7.40499 -0.0644,-0.10268 z m 27.444588,7.04302 a 42.769706,42.769706 0 0 1 1.22692,-0.0626 14.256569,14.256569 0 0 0 -1.22692,0.0626 z m 38.73917,63.15389 a 42.769706,42.769706 0 0 1 -0.24365,0.48902 14.256569,14.256569 0 0 0 0.24365,-0.48902 z m -36.28534,22.26022 a 42.769706,42.769706 0 0 1 -1.22691,0.0626 14.256569,14.256569 0 0 0 1.22691,-0.0626 z M 1.7392672,839.04484 a 42.769706,42.769706 0 0 1 0.243642,-0.48902 14.256569,14.256569 0 0 0 -0.243642,0.48902 z"
         style="fill:#000000;fill-opacity:1;stroke:none;stroke-width:0.40000001;stroke-linecap:round;stroke-linejoin:round;stroke-miterlimit:4;stroke-dasharray:none;stroke-dashoffset:0;filter:url(#filter4911)" />
      <path
         style="fill:url(#linearGradient4310);fill-opacity:1;stroke:url(#radialGradient4312);stroke-width:0.40000001;stroke-linecap:round;stroke-linejoin:round;stroke-miterlimit:4;stroke-dasharray:none;stroke-dashoffset:0"
         d="m 10.58001,809.7416 -0.01044,0.0731 -0.06613,-0.0278 0.05569,0.10616 -2.8384348,19.7246 3.6285338,-4.79454 0.454218,1.92652 a 42.769706,42.769706 0 0 0 -8.7902738,10.1251 14.256569,14.256569 0 0 1 9.8153138,-5.77782 l 2.518219,10.67155 3.428399,-1.46708 9.590813,7.25533 -0.0922,1.52625 a 14.256569,14.256569 0 0 1 -1.36788,3.28047 14.256569,14.256569 0 0 1 -2.17538,2.83669 l -1.25824,0.83012 -11.077031,-4.67619 -0.445518,-3.70163 -10.4853298,3.14996 a 14.256569,14.256569 0 0 1 0.274968,-11.7575 42.769706,42.769706 0 0 0 -4.552634,13.04184 l -1.910855,0.5743 2.338969,-5.53765 -15.6627342,12.31961 -0.12008,0.005 0.05743,0.0435 -0.05743,0.0453 0.12008,0.004 15.6627342,12.31961 -2.338969,-5.53765 1.909114,0.57256 a 42.769706,42.769706 0 0 0 4.484763,12.92872 14.256569,14.256569 0 0 1 -0.210576,-11.64438 l 10.4905498,3.1517 0.445518,-3.70163 11.077031,-4.67619 1.28261,0.84578 a 14.256569,14.256569 0 0 1 2.15101,2.82103 14.256569,14.256569 0 0 1 1.36962,3.30658 l 0.0888,1.50014 -9.587332,7.25533 -3.428399,-1.46534 -2.514739,10.65588 A 14.256569,14.256569 0 0 1 2.7626502,881.72792 42.769706,42.769706 0 0 0 11.81397,892.19063 l -0.46466,1.97002 -3.6267938,-4.79454 2.8366948,19.7246 -0.05569,0.10616 0.06787,-0.0261 0.01044,0.0696 0.06265,-0.10093 18.501167,-7.405 -5.9675,-0.7431 1.47752,-1.39225 a 42.769706,42.769706 0 0 0 13.3899,2.60176 14.256569,14.256569 0 0 1 -10.16512,-5.63685 l 7.97407,-7.50767 -2.98462,-2.23629 1.4897,-11.93326 1.36266,-0.6822 a 14.256569,14.256569 0 0 1 3.52934,-0.45596 14.256569,14.256569 0 0 1 3.55196,0.46814 l 1.34003,0.67002 1.4897,11.93326 -2.98462,2.23629 7.97929,7.5129 a 14.256569,14.256569 0 0 1 -10.14945,5.62988 42.769706,42.769706 0 0 0 13.37946,-2.58784 l 1.46533,1.38007 -5.96402,0.7431 18.50117,7.405 0.0626,0.10093 0.0104,-0.0714 0.0661,0.0261 -0.0557,-0.10442 2.83844,-19.72461 -3.62854,4.79454 -0.45421,-1.92825 a 42.769706,42.769706 0 0 0 8.86684,-10.24865 14.256569,14.256569 0 0 1 -9.89537,5.89267 l -2.51474,-10.66111 -3.42839,1.46708 -9.58908,-7.25532 0.0905,-1.53147 a 14.256569,14.256569 0 0 1 1.36788,-3.27525 14.256569,14.256569 0 0 1 2.17538,-2.83669 l 1.25824,-0.83013 11.07703,4.67619 0.44551,3.70163 10.48534,-3.14995 a 14.256569,14.256569 0 0 1 -0.27497,11.7575 42.769706,42.769706 0 0 0 4.55263,-13.04184 l 1.91086,-0.5743 -2.33896,5.53764 15.66273,-12.31961 0.12008,-0.005 -0.0575,-0.0453 0.0575,-0.0435 -0.12008,-0.004 -15.66273,-12.31961 2.33896,5.53764 -1.90911,-0.57255 a 42.769706,42.769706 0 0 0 -4.48477,-12.92872 14.256569,14.256569 0 0 1 0.21058,11.64437 l -10.49056,-3.15169 -0.44551,3.70163 -11.07703,4.67619 -1.27912,-0.84404 a 14.256569,14.256569 0 0 1 -2.1545,-2.82278 14.256569,14.256569 0 0 1 -1.36962,-3.30658 l -0.0888,-1.50013 9.58734,-7.25533 3.42839,1.46533 2.51648,-10.66284 a 14.256569,14.256569 0 0 1 10.0694,6.15197 42.769706,42.769706 0 0 0 -9.05132,-10.4627 l 0.46466,-1.97003 3.6268,4.79454 -2.8367,-19.72461 0.0557,-0.10616 -0.0679,0.0261 -0.0104,-0.0696 -0.0626,0.10094 -18.50117,7.40499 5.9675,0.74311 -1.47752,1.39224 a 42.769706,42.769706 0 0 0 -13.3899,-2.60175 14.256569,14.256569 0 0 1 10.16512,5.63684 l -7.97407,7.50767 2.98462,2.23629 -1.4897,11.93327 -1.36266,0.6822 a 14.256569,14.256569 0 0 1 -3.52934,0.45596 14.256569,14.256569 0 0 1 -3.55196,-0.46814 l -1.34003,-0.67002 -1.4897,-11.93327 2.98462,-2.23629 -7.97929,-7.51289 a 14.256569,14.256569 0 0 1 10.14945,-5.62988 42.769706,42.769706 0 0 0 -13.37946,2.58783 l -1.46533,-1.38006 5.96576,-0.74311 -18.501172,-7.40499 -0.0644,-0.10268 z m 27.444588,7.04302 a 42.769706,42.769706 0 0 1 1.22692,-0.0626 14.256569,14.256569 0 0 0 -1.22692,0.0626 z m 38.73917,63.15389 a 42.769706,42.769706 0 0 1 -0.24365,0.48902 14.256569,14.256569 0 0 0 0.24365,-0.48902 z m -36.28534,22.26022 a 42.769706,42.769706 0 0 1 -1.22691,0.0626 14.256569,14.256569 0 0 0 1.22691,-0.0626 z M 1.7392672,839.04484 a 42.769706,42.769706 0 0 1 0.243642,-0.48902 14.256569,14.256569 0 0 0 -0.243642,0.48902 z"
         id="path4307"
         inkscape:connector-curvature="0" />
      <path
         inkscape:transform-center-x="-0.00086264099"
         sodipodi:nodetypes="ccccsccccc"
         inkscape:transform-center-y="-2.9990048"
         inkscape:connector-curvature="0"
         id="path4309"
         d="m 20.960493,862.24234 c -4.07934,2.35547 -5.477389,7.57157 -3.12288,11.65148 2.355489,4.07934 7.571565,5.47737 11.651475,3.12288 7.38778,-4.26508 13.63391,-4.26508 21.02169,2.5e-4 4.08015,2.35569 9.29744,0.95771 11.65311,-3.12244 2.35569,-4.08016 0.95773,-9.29744 -3.12244,-11.65311 -7.38779,-4.26534 -10.51084,-9.67464 -10.51107,-18.20518 -8.9e-4,-4.71056 -3.81968,-8.5288 -8.53023,-8.52904 -4.71055,8.9e-4 -8.5288,3.81969 -8.52904,8.53023 -0.001,8.52935 -3.12491,13.93865 -10.510615,18.20493 z"
         style="fill:#000000;fill-opacity:1;stroke:none;stroke-width:0.40000001;stroke-miterlimit:4;stroke-dasharray:none;stroke-dashoffset:0;filter:url(#filter5065)" />
      <path
         style="fill:#000000;fill-opacity:1;stroke:none;stroke-width:0.40000001;stroke-miterlimit:4;stroke-dasharray:none;stroke-dashoffset:0;filter:url(#filter5065)"
         d="m 20.960493,862.24234 c -4.07934,2.35547 -5.477389,7.57157 -3.12288,11.65148 2.355489,4.07934 7.571565,5.47737 11.651475,3.12288 7.38778,-4.26508 13.63391,-4.26508 21.02169,2.5e-4 4.08015,2.35569 9.29744,0.95771 11.65311,-3.12244 2.35569,-4.08016 0.95773,-9.29744 -3.12244,-11.65311 -7.38779,-4.26534 -10.51084,-9.67464 -10.51107,-18.20518 -8.9e-4,-4.71056 -3.81968,-8.5288 -8.53023,-8.52904 -4.71055,8.9e-4 -8.5288,3.81969 -8.52904,8.53023 -0.001,8.52935 -3.12491,13.93865 -10.510615,18.20493 z"
         id="path4311"
         inkscape:connector-curvature="0"
         inkscape:transform-center-y="-2.9990048"
         sodipodi:nodetypes="ccccsccccc"
         inkscape:transform-center-x="-0.00086264099" />
      <path
         style="fill:#000000;fill-opacity:1;stroke:url(#radialGradient4314);stroke-width:0.40000001;stroke-miterlimit:4;stroke-dasharray:none;stroke-dashoffset:0"
         d="m 20.960493,862.24234 c -4.07934,2.35547 -5.477389,7.57157 -3.12288,11.65148 2.355489,4.07934 7.571565,5.47737 11.651475,3.12288 7.38778,-4.26508 13.63391,-4.26508 21.02169,2.5e-4 4.08015,2.35569 9.29744,0.95771 11.65311,-3.12244 2.35569,-4.08016 0.95773,-9.29744 -3.12244,-11.65311 -7.38779,-4.26534 -10.51084,-9.67464 -10.51107,-18.20518 -8.9e-4,-4.71056 -3.81968,-8.5288 -8.53023,-8.52904 -4.71055,8.9e-4 -8.5288,3.81969 -8.52904,8.53023 -0.001,8.52935 -3.12491,13.93865 -10.510615,18.20493 z"
         id="path4313"
         inkscape:connector-curvature="0"
         inkscape:transform-center-y="-2.9990048"
         sodipodi:nodetypes="ccccsccccc"
         inkscape:transform-center-x="-0.00086264099" />
      <path
         id="path4315"
         d="m 41.071818,827.02822 a 12.796011,12.796011 0 0 1 11.72413,12.74325 12.796011,12.796011 0 0 1 -12.79601,12.79601 12.796011,12.796011 0 0 1 -12.79602,-12.79601 12.796011,12.796011 0 0 1 11.6908,-12.74048 22.748464,22.748464 0 0 0 -21.557164,20.96014 22.748464,22.748464 0 0 0 -8.0419368,27.83854 34.122696,34.122696 0 0 0 0.660905,1.37457 22.748464,22.748464 0 0 0 0.01666,0.0361 12.796011,12.796011 0 0 1 5.1595028,-16.5615 12.796011,12.796011 0 0 1 6.095322,-1.71058 12.796011,12.796011 0 0 1 11.385341,6.39523 12.796011,12.796011 0 0 1 -4.68465,17.48066 12.796011,12.796011 0 0 1 -16.986376,-3.92378 34.122696,34.122696 0 0 0 1.002465,1.47177 22.748464,22.748464 0 0 0 28.038481,6.88396 22.748464,22.748464 0 0 0 28.01627,-6.80899 34.122696,34.122696 0 0 0 0.92194,-1.33847 12.796011,12.796011 0 0 1 -16.85031,3.71551 12.796011,12.796011 0 0 1 -4.68465,-17.48066 12.796011,12.796011 0 0 1 10.48007,-6.38412 12.796011,12.796011 0 0 1 7.00059,1.69947 12.796011,12.796011 0 0 1 5.12063,16.61704 34.122696,34.122696 0 0 0 0.67479,-1.35236 22.748464,22.748464 0 0 0 -7.98362,-27.91907 22.748464,22.748464 0 0 0 -20.46862,-20.93792 34.122696,34.122696 0 0 0 -1.13854,-0.0583 z m 28.91599,50.26766 a 34.122696,34.122696 0 0 1 -0.20271,0.40821 22.748464,22.748464 0 0 0 0.17494,-0.34156 12.796011,12.796011 0 0 0 0.003,-0.006 12.796011,12.796011 0 0 0 0.025,-0.0611 z"
         style="fill:#000000;fill-opacity:1;stroke:none;stroke-width:0.40000001;stroke-linejoin:round;stroke-miterlimit:4;stroke-dasharray:none;stroke-dashoffset:0;filter:url(#filter5097)"
         inkscape:connector-curvature="0" />
      <path
         inkscape:connector-curvature="0"
         style="fill:#000000;fill-opacity:1;stroke:none;stroke-width:0.40000001;stroke-linejoin:round;stroke-miterlimit:4;stroke-dasharray:none;stroke-dashoffset:0;filter:url(#filter5097)"
         d="m 41.071818,827.02822 a 12.796011,12.796011 0 0 1 11.72413,12.74325 12.796011,12.796011 0 0 1 -12.79601,12.79601 12.796011,12.796011 0 0 1 -12.79602,-12.79601 12.796011,12.796011 0 0 1 11.6908,-12.74048 22.748464,22.748464 0 0 0 -21.557164,20.96014 22.748464,22.748464 0 0 0 -8.0419368,27.83854 34.122696,34.122696 0 0 0 0.660905,1.37457 22.748464,22.748464 0 0 0 0.01666,0.0361 12.796011,12.796011 0 0 1 5.1595028,-16.5615 12.796011,12.796011 0 0 1 6.095322,-1.71058 12.796011,12.796011 0 0 1 11.385341,6.39523 12.796011,12.796011 0 0 1 -4.68465,17.48066 12.796011,12.796011 0 0 1 -16.986376,-3.92378 34.122696,34.122696 0 0 0 1.002465,1.47177 22.748464,22.748464 0 0 0 28.038481,6.88396 22.748464,22.748464 0 0 0 28.01627,-6.80899 34.122696,34.122696 0 0 0 0.92194,-1.33847 12.796011,12.796011 0 0 1 -16.85031,3.71551 12.796011,12.796011 0 0 1 -4.68465,-17.48066 12.796011,12.796011 0 0 1 10.48007,-6.38412 12.796011,12.796011 0 0 1 7.00059,1.69947 12.796011,12.796011 0 0 1 5.12063,16.61704 34.122696,34.122696 0 0 0 0.67479,-1.35236 22.748464,22.748464 0 0 0 -7.98362,-27.91907 22.748464,22.748464 0 0 0 -20.46862,-20.93792 34.122696,34.122696 0 0 0 -1.13854,-0.0583 z m 28.91599,50.26766 a 34.122696,34.122696 0 0 1 -0.20271,0.40821 22.748464,22.748464 0 0 0 0.17494,-0.34156 12.796011,12.796011 0 0 0 0.003,-0.006 12.796011,12.796011 0 0 0 0.025,-0.0611 z"
         id="path4317" />
      <path
         style="fill:url(#linearGradient4316);fill-opacity:1;stroke:url(#radialGradient4318);stroke-width:0.40000001;stroke-linejoin:round;stroke-miterlimit:4;stroke-dasharray:none;stroke-dashoffset:0"
         d="m 41.071328,827.02867 a 12.796011,12.796011 0 0 1 11.72461,12.74219 12.796011,12.796011 0 0 1 -12.79688,12.79687 12.796011,12.796011 0 0 1 -12.79492,-12.79687 12.796011,12.796011 0 0 1 11.69141,-12.74024 22.748464,22.748464 0 0 0 -21.558598,20.96094 22.748464,22.748464 0 0 0 -8.0410158,27.83789 34.122696,34.122696 0 0 0 0.660156,1.375 22.748464,22.748464 0 0 0 0.017579,0.0352 12.796011,12.796011 0 0 1 5.1582028,-16.56055 12.796011,12.796011 0 0 1 6.095703,-1.71094 12.796011,12.796011 0 0 1 11.386723,6.39453 12.796011,12.796011 0 0 1 -4.68555,17.48242 12.796011,12.796011 0 0 1 -16.986329,-3.92382 34.122696,34.122696 0 0 0 1.001953,1.4707 22.748464,22.748464 0 0 0 28.039066,6.88477 22.748464,22.748464 0 0 0 28.01562,-6.81055 34.122696,34.122696 0 0 0 0.92188,-1.33789 12.796011,12.796011 0 0 1 -16.84961,3.71679 12.796011,12.796011 0 0 1 -4.68555,-17.48242 12.796011,12.796011 0 0 1 10.48047,-6.38281 12.796011,12.796011 0 0 1 7,1.69922 12.796011,12.796011 0 0 1 5.12109,16.61719 34.122696,34.122696 0 0 0 0.67578,-1.35352 22.748464,22.748464 0 0 0 -7.98437,-27.91797 22.748464,22.748464 0 0 0 -20.46875,-20.9375 34.122696,34.122696 0 0 0 -1.13867,-0.0586 z m 28.91601,50.26758 a 34.122696,34.122696 0 0 1 -0.20312,0.4082 22.748464,22.748464 0 0 0 0.17578,-0.3418 12.796011,12.796011 0 0 0 0.0039,-0.006 12.796011,12.796011 0 0 0 0.02344,-0.0605 z m -29.98828,-22.76368 c 1.2087,2.4e-4 2.18939,0.9788 2.18945,2.1875 4.8e-4,2.18857 0.80209,3.57729 2.69727,4.67188 1.04673,0.6044 1.40493,1.94336 0.80078,2.99023 -0.6044,1.04674 -1.94336,1.40495 -2.99023,0.80079 -1.89565,-1.09438 -3.49692,-1.09445 -5.39258,0 -1.04693,0.60446 -2.38579,0.24616 -2.99024,-0.80079 -0.60446,-1.04694 -0.24616,-2.38579 0.80079,-2.99023 1.89565,-1.09445 2.6972,-2.48301 2.69726,-4.67188 2.2e-4,-1.2087 0.9788,-2.18742 2.1875,-2.1875 z"
         id="path4319"
         inkscape:connector-curvature="0" />
    </g>
  </g>
</svg>
