<?xml version="1.0" encoding="UTF-8" standalone="no"?>
<!-- Created with Inkscape (http://www.inkscape.org/) -->

<svg
   xmlns:dc="http://purl.org/dc/elements/1.1/"
   xmlns:cc="http://creativecommons.org/ns#"
   xmlns:rdf="http://www.w3.org/1999/02/22-rdf-syntax-ns#"
   xmlns:svg="http://www.w3.org/2000/svg"
   xmlns="http://www.w3.org/2000/svg"
   xmlns:xlink="http://www.w3.org/1999/xlink"
   xmlns:sodipodi="http://sodipodi.sourceforge.net/DTD/sodipodi-0.dtd"
   xmlns:inkscape="http://www.inkscape.org/namespaces/inkscape"
   width="256"
   height="256"
   viewBox="0 0 256 256"
   id="svg2"
   version="1.1"
   inkscape:version="0.91 r13725"
   sodipodi:docname="main_logo_bg.svg"
   inkscape:export-filename="/home/georg/Software/Entwicklung/Java/libGDX/guardianmonsters/GuardianMonsters/android/res/drawable-xxhdpi/ic_launcher.png"
   inkscape:export-xdpi="50.625"
   inkscape:export-ydpi="50.625">
  <defs
     id="defs4">
    <linearGradient
       inkscape:collect="always"
       id="linearGradient4275">
      <stop
         style="stop-color:#656565;stop-opacity:1"
         offset="0"
         id="stop4277" />
      <stop
         style="stop-color:#000000;stop-opacity:1"
         offset="1"
         id="stop4279" />
    </linearGradient>
    <linearGradient
       inkscape:collect="always"
       id="linearGradient5127">
      <stop
         style="stop-color:#c4a000;stop-opacity:1;"
         offset="0"
         id="stop5129" />
      <stop
         id="stop5131"
         offset="0.230984"
         style="stop-color:#946b2e;stop-opacity:1" />
      <stop
         style="stop-color:#f4dd81;stop-opacity:1"
         offset="0.33333606"
         id="stop5133" />
      <stop
         style="stop-color:#f4f792;stop-opacity:1"
         offset="0.36764371"
         id="stop5135" />
      <stop
         id="stop5137"
         offset="0.40304849"
         style="stop-color:#fbf7ed;stop-opacity:1" />
      <stop
         style="stop-color:#c4a000;stop-opacity:1"
         offset="0.64815843"
         id="stop5139" />
      <stop
         id="stop5141"
         offset="0.68356317"
         style="stop-color:#c4a000;stop-opacity:1" />
      <stop
         style="stop-color:#c4a000;stop-opacity:1"
         offset="0.81701195"
         id="stop5143" />
      <stop
         id="stop5145"
         offset="0.85786361"
         style="stop-color:#c4a000;stop-opacity:1" />
      <stop
         style="stop-color:#c4a000;stop-opacity:1"
         offset="1"
         id="stop5147" />
    </linearGradient>
    <linearGradient
       id="linearGradient4947"
       inkscape:collect="always">
      <stop
         id="stop4949"
         offset="0"
         style="stop-color:#c4a000;stop-opacity:1;" />
      <stop
         style="stop-color:#946b2e;stop-opacity:1"
         offset="0.230984"
         id="stop4951" />
      <stop
         id="stop4953"
         offset="0.33333606"
         style="stop-color:#f4dd81;stop-opacity:1" />
      <stop
         id="stop4955"
         offset="0.36764371"
         style="stop-color:#f4f792;stop-opacity:1" />
      <stop
         style="stop-color:#fbf7ed;stop-opacity:1"
         offset="0.40304849"
         id="stop4957" />
      <stop
         id="stop4959"
         offset="0.64815843"
         style="stop-color:#c4a000;stop-opacity:1" />
      <stop
         style="stop-color:#c4a000;stop-opacity:1"
         offset="0.68356317"
         id="stop4961" />
      <stop
         id="stop4963"
         offset="0.81701195"
         style="stop-color:#c4a000;stop-opacity:1" />
      <stop
         style="stop-color:#c4a000;stop-opacity:1"
         offset="0.85786361"
         id="stop4965" />
      <stop
         id="stop4967"
         offset="1"
         style="stop-color:#c4a000;stop-opacity:1" />
    </linearGradient>
    <linearGradient
       id="linearGradient4866"
       inkscape:collect="always">
      <stop
         id="stop4868"
         offset="0"
         style="stop-color:#4b4b4b;stop-opacity:1" />
      <stop
         style="stop-color:#c1c1c1;stop-opacity:1"
         offset="0.28571343"
         id="stop4870" />
      <stop
         style="stop-color:#e7e7e7;stop-opacity:1"
         offset="0.35714266"
         id="stop4872" />
      <stop
         id="stop4874"
         offset="0.35714266"
         style="stop-color:#ffffff;stop-opacity:1" />
      <stop
         style="stop-color:#5d5d5d;stop-opacity:1"
         offset="0.35774955"
         id="stop4876" />
      <stop
         id="stop4878"
         offset="0.55555582"
         style="stop-color:#ffffff;stop-opacity:1" />
      <stop
         style="stop-color:#9a9a9a;stop-opacity:1"
         offset="0.67647082"
         id="stop4880" />
      <stop
         id="stop4882"
         offset="0.82142842"
         style="stop-color:#696969;stop-opacity:1" />
      <stop
         style="stop-color:#ffffff;stop-opacity:1"
         offset="0.87633681"
         id="stop4884" />
      <stop
         id="stop4886"
         offset="1"
         style="stop-color:#c2c2c2;stop-opacity:1" />
    </linearGradient>
    <linearGradient
       inkscape:collect="always"
       id="linearGradient4832">
      <stop
         style="stop-color:#4b4b4b;stop-opacity:1"
         offset="0"
         id="stop4834" />
      <stop
         id="stop4844"
         offset="0.0818266"
         style="stop-color:#c1c1c1;stop-opacity:1" />
      <stop
         id="stop4842"
         offset="0.2430509"
         style="stop-color:#e7e7e7;stop-opacity:1" />
      <stop
         style="stop-color:#ffffff;stop-opacity:1"
         offset="0.2887688"
         id="stop4846" />
      <stop
         id="stop4848"
         offset="0.35774955"
         style="stop-color:#5d5d5d;stop-opacity:1" />
      <stop
         style="stop-color:#ffffff;stop-opacity:1"
         offset="0.41307625"
         id="stop4850" />
      <stop
         id="stop4852"
         offset="0.56469172"
         style="stop-color:#9a9a9a;stop-opacity:1" />
      <stop
         style="stop-color:#696969;stop-opacity:1"
         offset="0.78234589"
         id="stop4854" />
      <stop
         id="stop4856"
         offset="0.87633681"
         style="stop-color:#ffffff;stop-opacity:1" />
      <stop
         style="stop-color:#c2c2c2;stop-opacity:1"
         offset="1"
         id="stop4836" />
    </linearGradient>
    <filter
       inkscape:collect="always"
       style="color-interpolation-filters:sRGB"
       id="filter4911"
       x="-0.055992588"
       width="1.1119852"
       y="-0.064625256"
       height="1.1292505">
      <feGaussianBlur
         inkscape:collect="always"
         stdDeviation="2.6792228"
         id="feGaussianBlur4913" />
    </filter>
    <filter
       inkscape:collect="always"
       style="color-interpolation-filters:sRGB"
       id="filter5065"
       x="-0.13788337"
       width="1.2757667"
       y="-0.1506845"
       height="1.301369">
      <feGaussianBlur
         inkscape:collect="always"
         stdDeviation="2.678046"
         id="feGaussianBlur5067" />
    </filter>
    <filter
       inkscape:collect="always"
       style="color-interpolation-filters:sRGB"
       id="filter5097"
       x="-0.070523616"
       width="1.1410472"
       y="-0.07353952"
       height="1.147079">
      <feGaussianBlur
         inkscape:collect="always"
         stdDeviation="1.9148484"
         id="feGaussianBlur5099" />
    </filter>
    <radialGradient
       inkscape:collect="always"
       xlink:href="#linearGradient5127"
       id="radialGradient5270"
       gradientUnits="userSpaceOnUse"
       gradientTransform="matrix(0.99998653,0,0,0.91578622,-322.51021,-251.90579)"
       cx="76.001617"
       cy="921.70502"
       fx="76.001617"
       fy="921.70502"
       r="23.506113" />
    <linearGradient
       inkscape:collect="always"
       xlink:href="#linearGradient4947"
       id="linearGradient5272"
       gradientUnits="userSpaceOnUse"
       gradientTransform="translate(-402.67923,-344.53391)"
       x1="52"
       y1="960.36218"
       x2="124"
       y2="908.36218" />
    <radialGradient
       inkscape:collect="always"
       xlink:href="#linearGradient5127"
       id="radialGradient5274"
       gradientUnits="userSpaceOnUse"
       gradientTransform="matrix(1.4641298,-0.45095245,0.28234646,0.91670831,-698.60007,-233.37121)"
       cx="75.999794"
       cy="923.14624"
       fx="75.999794"
       fy="923.14624"
       r="32.784123" />
    <linearGradient
       inkscape:collect="always"
       xlink:href="#linearGradient4947"
       id="linearGradient4282"
       x1="-92.035004"
       y1="596.36212"
       x2="84.034996"
       y2="596.36212"
       gradientUnits="userSpaceOnUse"
       gradientTransform="matrix(0.92013251,0,0,0.92013251,377.06911,331.59088)" />
    <linearGradient
       inkscape:collect="always"
       xlink:href="#linearGradient4832"
       id="linearGradient4298"
       x1="-125.20711"
       y1="-226.21973"
       x2="112.20711"
       y2="-226.21973"
       gradientUnits="userSpaceOnUse"
       gradientTransform="translate(379.88086,1082.3231)" />
    <linearGradient
       inkscape:collect="always"
       xlink:href="#linearGradient4947"
       id="linearGradient4314"
       x1="-92.535004"
       y1="596.36212"
       x2="84.534996"
       y2="596.36212"
       gradientUnits="userSpaceOnUse" />
    <linearGradient
       inkscape:collect="always"
       xlink:href="#linearGradient4832"
       id="linearGradient4324"
       gradientUnits="userSpaceOnUse"
       gradientTransform="translate(379.88086,1082.3231)"
       x1="-125.20711"
       y1="-226.21973"
       x2="112.20711"
       y2="-226.21973" />
    <radialGradient
       inkscape:collect="always"
       xlink:href="#linearGradient4866"
       id="radialGradient4333"
       cx="345"
       cy="859.36218"
       fx="345"
       fy="859.36218"
       r="23.506111"
       gradientTransform="matrix(0.9999789,0,0,0.91578629,0.00813916,65.370598)"
       gradientUnits="userSpaceOnUse" />
    <linearGradient
       inkscape:collect="always"
       xlink:href="#linearGradient4832"
       id="linearGradient4341"
       x1="327.99915"
       y1="875.36163"
       x2="368.5061"
       y2="859.36218"
       gradientUnits="userSpaceOnUse"
       gradientTransform="translate(8.6073543e-4,-6.9994808)" />
    <linearGradient
       inkscape:collect="always"
       xlink:href="#linearGradient4832"
       id="linearGradient4349"
       gradientUnits="userSpaceOnUse"
       gradientTransform="translate(395.88086,1188.8016)"
       x1="-125.20711"
       y1="-226.21973"
       x2="112.20711"
       y2="-226.21973" />
    <linearGradient
       inkscape:collect="always"
       xlink:href="#linearGradient4947"
       id="linearGradient4351"
       gradientUnits="userSpaceOnUse"
       gradientTransform="translate(395.88086,392.43941)"
       x1="-92.035004"
       y1="596.36212"
       x2="84.034996"
       y2="596.36212" />
    <filter
       inkscape:label="Black Hole"
       inkscape:menu="Morphology"
       inkscape:menu-tooltip="Creates a black light inside and outside"
       height="1.5"
       width="1.5"
       y="-0.25"
       x="-0.25"
       style="color-interpolation-filters:sRGB;"
       id="filter4374">
      <feGaussianBlur
         stdDeviation="5"
         in="SourceAlpha"
         result="result1"
         id="feGaussianBlur4376" />
      <feComposite
         operator="arithmetic"
         k2="3.2"
         k1="-1"
         k4="-2"
         result="result3"
         in2="result1"
         id="feComposite4378" />
      <feColorMatrix
         values="1 0 0 0 0 0 1 0 0 0 0 0 1 0 0 0 0 0 10 0 "
         result="result2"
         id="feColorMatrix4380" />
      <feComposite
         result="fbSourceGraphic"
         in="SourceGraphic"
         operator="out"
         in2="result2"
         id="feComposite4382" />
      <feBlend
         mode="multiply"
         in="result1"
         in2="fbSourceGraphic"
         result="result91"
         id="feBlend4384" />
      <feBlend
         mode="screen"
         in="fbSourceGraphic"
         in2="result91"
         id="feBlend4386" />
    </filter>
    <linearGradient
       inkscape:collect="always"
       xlink:href="#linearGradient4947"
       id="linearGradient4422"
       gradientUnits="userSpaceOnUse"
       gradientTransform="matrix(0.92013251,0,0,0.92013251,377.06911,331.59088)"
       x1="-92.035004"
       y1="596.36212"
       x2="84.034996"
       y2="596.36212" />
    <linearGradient
       inkscape:collect="always"
       xlink:href="#linearGradient4947"
       id="linearGradient4424"
       gradientUnits="userSpaceOnUse"
       gradientTransform="matrix(0.92013251,0,0,0.92013251,377.06911,331.59088)"
       x1="-92.035004"
       y1="596.36212"
       x2="84.034996"
       y2="596.36212" />
    <linearGradient
       inkscape:collect="always"
       xlink:href="#linearGradient4947"
       id="linearGradient4426"
       gradientUnits="userSpaceOnUse"
       gradientTransform="matrix(0.92013251,0,0,0.92013251,377.06911,331.59088)"
       x1="-92.035004"
       y1="596.36212"
       x2="84.034996"
       y2="596.36212" />
    <linearGradient
       inkscape:collect="always"
       xlink:href="#linearGradient4947"
       id="linearGradient4428"
       gradientUnits="userSpaceOnUse"
       gradientTransform="matrix(0.92013251,0,0,0.92013251,375.06911,331.59088)"
       x1="-92.035004"
       y1="596.36212"
       x2="84.034996"
       y2="596.36212" />
    <linearGradient
       inkscape:collect="always"
       xlink:href="#linearGradient4947"
       id="linearGradient4430"
       gradientUnits="userSpaceOnUse"
       gradientTransform="matrix(0.92013251,0,0,0.92013251,375.06911,331.59088)"
       x1="-92.035004"
       y1="596.36212"
       x2="84.034996"
       y2="596.36212" />
    <linearGradient
       inkscape:collect="always"
       xlink:href="#linearGradient4947"
       id="linearGradient4432"
       gradientUnits="userSpaceOnUse"
       gradientTransform="matrix(0.92013251,0,0,0.92013251,373.06911,331.59088)"
       x1="-92.035004"
       y1="596.36212"
       x2="84.034996"
       y2="596.36212" />
    <linearGradient
       inkscape:collect="always"
       xlink:href="#linearGradient4947"
       id="linearGradient4434"
       gradientUnits="userSpaceOnUse"
       gradientTransform="matrix(0.92013251,0,0,0.92013251,371.06911,331.59088)"
       x1="-92.035004"
       y1="596.36212"
       x2="84.034996"
       y2="596.36212" />
    <linearGradient
       inkscape:collect="always"
       xlink:href="#linearGradient4947"
       id="linearGradient4436"
       gradientUnits="userSpaceOnUse"
       gradientTransform="matrix(0.92013251,0,0,0.92013251,371.06911,331.59088)"
       x1="-92.035004"
       y1="596.36212"
       x2="84.034996"
       y2="596.36212" />
    <filter
       inkscape:label="Black Hole"
       inkscape:menu="Morphology"
       inkscape:menu-tooltip="Creates a black light inside and outside"
       height="1.5"
       width="1.5"
       y="-0.25"
       x="-0.25"
       style="color-interpolation-filters:sRGB;"
       id="filter4509">
      <feGaussianBlur
         stdDeviation="5"
         in="SourceAlpha"
         result="result1"
         id="feGaussianBlur4511" />
      <feComposite
         operator="arithmetic"
         k2="3.2"
         k1="-1"
         k4="-2"
         result="result3"
         in2="result1"
         id="feComposite4513" />
      <feColorMatrix
         values="1 0 0 0 0 0 1 0 0 0 0 0 1 0 0 0 0 0 10 0 "
         result="result2"
         id="feColorMatrix4515" />
      <feComposite
         result="fbSourceGraphic"
         in="SourceGraphic"
         operator="out"
         in2="result2"
         id="feComposite4517" />
      <feBlend
         mode="multiply"
         in="result1"
         in2="fbSourceGraphic"
         result="result91"
         id="feBlend4519" />
      <feBlend
         mode="screen"
         in="fbSourceGraphic"
         in2="result91"
         id="feBlend4521" />
    </filter>
    <radialGradient
       inkscape:collect="always"
       xlink:href="#linearGradient4275"
       id="radialGradient4281"
       cx="128"
       cy="168.66667"
       fx="128"
       fy="168.66667"
       r="128"
       gradientTransform="matrix(1.625,4.9918982e-8,-4.7999021e-8,1.5625,-79.999992,-95.541682)"
       gradientUnits="userSpaceOnUse" />
    <clipPath
       clipPathUnits="userSpaceOnUse"
       id="clipPath4285">
      <path
         id="path4287"
         d="m -17.545139,794.49268 c -4.505453,0 -8.132586,3.62714 -8.132586,8.13258 l 0,111.82306 c 0,4.50545 3.627133,8.13259 8.132586,8.13259 l 113.856203,0 c 4.505456,0 8.132586,-3.62714 8.132586,-8.13259 l 0,-111.82306 c 0,-4.50544 -3.62713,-8.13258 -8.132586,-8.13258 l -113.856203,0 z"
         style="opacity:1;fill:url(#radialGradient4289);fill-opacity:1;stroke:none;stroke-width:1;stroke-linecap:round;stroke-linejoin:round;stroke-miterlimit:4;stroke-dasharray:none;stroke-dashoffset:0;stroke-opacity:1"
         inkscape:connector-curvature="0" />
    </clipPath>
    <radialGradient
       inkscape:collect="always"
       xlink:href="#linearGradient4275"
       id="radialGradient4289"
       gradientUnits="userSpaceOnUse"
       gradientTransform="matrix(0.82596576,2.5373151e-8,-2.439726e-8,0.79419785,-66.340651,745.93012)"
       cx="128"
       cy="168.66667"
       fx="128"
       fy="168.66667"
       r="128" />
    <linearGradient
       inkscape:collect="always"
       xlink:href="#linearGradient4832"
       id="linearGradient4300"
       gradientUnits="userSpaceOnUse"
       gradientTransform="matrix(1.9673939,0,0,1.9673939,-20.308885,-894.34523)"
       x1="48"
       y1="968.36218"
       x2="132"
       y2="896.36218" />
    <radialGradient
       inkscape:collect="always"
       xlink:href="#linearGradient4866"
       id="radialGradient4302"
       gradientUnits="userSpaceOnUse"
       gradientTransform="matrix(4.6258977,6.7285678,-2.1713942,1.4928361,1813.7025,-856.88038)"
       cx="66.648483"
       cy="903.25385"
       fx="66.648483"
       fy="903.25385"
       r="57.987198" />
    <radialGradient
       inkscape:collect="always"
       xlink:href="#linearGradient5127"
       id="radialGradient4304"
       gradientUnits="userSpaceOnUse"
       gradientTransform="matrix(1.9673674,0,0,1.8017122,-20.306871,-741.63559)"
       cx="76.001617"
       cy="921.70502"
       fx="76.001617"
       fy="921.70502"
       r="23.506113" />
    <linearGradient
       inkscape:collect="always"
       xlink:href="#linearGradient4947"
       id="linearGradient4306"
       gradientUnits="userSpaceOnUse"
       gradientTransform="matrix(1.9673939,0,0,1.9673939,-20.308885,-894.34523)"
       x1="52"
       y1="960.36218"
       x2="124"
       y2="908.36218" />
    <radialGradient
       inkscape:collect="always"
       xlink:href="#linearGradient5127"
       id="radialGradient4308"
       gradientUnits="userSpaceOnUse"
       gradientTransform="matrix(2.88052,-0.8872011,0.5554867,1.8035263,-602.50174,-675.64441)"
       cx="75.999794"
       cy="923.14624"
       fx="75.999794"
       fy="923.14624"
       r="32.784123" />
  </defs>
  <sodipodi:namedview
     id="base"
     pagecolor="#ffffff"
     bordercolor="#666666"
     borderopacity="1.0"
     inkscape:pageopacity="0.0"
     inkscape:pageshadow="2"
     inkscape:zoom="2"
     inkscape:cx="129.42398"
     inkscape:cy="118.71008"
     inkscape:document-units="px"
     inkscape:current-layer="layer1"
     showgrid="true"
     units="px"
     inkscape:snap-smooth-nodes="true"
     inkscape:snap-center="true"
     inkscape:snap-object-midpoints="true"
     inkscape:window-width="1920"
     inkscape:window-height="1023"
     inkscape:window-x="0"
     inkscape:window-y="27"
     inkscape:window-maximized="1"
     inkscape:object-paths="true"
     inkscape:snap-intersection-paths="true"
     inkscape:object-nodes="true">
    <inkscape:grid
       type="xygrid"
       id="grid4136"
       empspacing="4" />
  </sodipodi:namedview>
  <metadata
     id="metadata7">
    <rdf:RDF>
      <cc:Work
         rdf:about="">
        <dc:format>image/svg+xml</dc:format>
        <dc:type
           rdf:resource="http://purl.org/dc/dcmitype/StillImage" />
        <dc:title />
      </cc:Work>
    </rdf:RDF>
  </metadata>
  <g
     inkscape:groupmode="layer"
     id="layer2"
     inkscape:label="Background"
     sodipodi:insensitive="true"
     style="display:none">
    <rect
       style="fill:#000000;stroke:none;stroke-width:1;stroke-miterlimit:4;stroke-dasharray:none;stroke-dashoffset:0"
       id="rect4167"
       width="258"
       height="256"
       x="0"
       y="0" />
    <rect
       transform="translate(0,-796.36216)"
       style="opacity:1;fill:#ad7fa8;fill-opacity:1;stroke:#000000;stroke-width:3;stroke-linecap:round;stroke-linejoin:round;stroke-miterlimit:4;stroke-dasharray:none;stroke-dashoffset:0;stroke-opacity:1"
       id="rect4316"
       width="259.5"
       height="124"
       x="256"
       y="796.36218" />
  </g>
  <g
     inkscape:label="Ebene 1"
     inkscape:groupmode="layer"
     id="layer1"
     transform="translate(0,-796.36216)">
    <rect
       style="opacity:1;fill:#000000;fill-opacity:1;stroke:none;stroke-width:1;stroke-linecap:round;stroke-linejoin:round;stroke-miterlimit:4;stroke-dasharray:none;stroke-dashoffset:0;stroke-opacity:1"
       id="rect4266"
       width="256"
       height="256"
       x="0"
       y="796.36218"
       ry="15.999977"
       rx="16"
       inkscape:export-filename="/home/georg/Software/Entwicklung/Java/libGDX/guardianmonsters/GuardianMonsters/android/res/drawable-hdpi/ic_launcher.png"
       inkscape:export-xdpi="25.3125"
       inkscape:export-ydpi="25.3125" />
    <path
       style="opacity:1;fill:url(#radialGradient4281);fill-opacity:1;stroke:none;stroke-width:1;stroke-linecap:round;stroke-linejoin:round;stroke-miterlimit:4;stroke-dasharray:none;stroke-dashoffset:0;stroke-opacity:1"
       d="M 16 0 C 7.136 0 9.9031894e-17 7.1360127 0 16 L 0 236 C 0 244.86399 7.136 252 16 252 L 240 252 C 248.864 252 256 244.86399 256 236 L 256 16 C 256 7.1360127 248.864 9.9031752e-17 240 0 L 16 0 z "
       transform="translate(0,796.36216)"
       id="rect4268" />
    <path
       style="fill:#000000;fill-opacity:1;stroke:none;stroke-width:1;stroke-miterlimit:4;stroke-dasharray:none;stroke-dashoffset:0;filter:url(#filter4509)"
       d="M 345 34.673828 C 340.28945 34.674718 336.47094 38.494538 336.4707 43.205078 C 336.46998 49.390827 334.8159 53.930061 331.0957 57.587891 C 330.87185 56.151336 330.4408 54.790302 329.76172 53.521484 C 328.77505 51.601484 327.44172 50.015049 325.76172 48.761719 C 325.76172 49.908389 325.54776 50.98667 325.12109 52 C 324.69443 52.98667 324.10799 53.854903 323.36133 54.601562 C 322.61466 55.348232 321.73404 55.934658 320.7207 56.361328 C 319.73404 56.787998 318.66815 57 317.52148 57 C 316.37482 57 315.29458 56.787998 314.28125 56.361328 C 313.29458 55.934658 312.42831 55.348232 311.68164 54.601562 C 310.93497 53.854902 310.34659 52.98667 309.91992 52 C 309.49326 50.98667 309.28125 49.908389 309.28125 48.761719 C 307.60125 50.015049 306.25357 51.601484 305.24023 53.521484 C 304.44494 55.047607 303.9859 56.701956 303.83203 58.470703 C 303.79503 58.896293 303.76172 59.322099 303.76172 59.761719 C 303.76172 60.235051 303.78507 60.702169 303.83008 61.162109 C 303.87509 61.622051 303.94124 62.074895 304.03125 62.521484 C 304.21127 63.414661 304.4818 64.281094 304.8418 65.121094 C 305.5618 66.801094 306.53505 68.268144 307.76172 69.521484 C 309.01505 70.748144 310.48016 71.721406 312.16016 72.441406 C 313.42016 72.981406 314.74072 73.318105 316.12109 73.453125 C 316.58122 73.498132 317.04815 73.521484 317.52148 73.521484 C 317.99482 73.521484 318.46193 73.498132 318.92188 73.453125 C 320.19292 73.328747 321.40879 73.020757 322.57812 72.552734 C 322.66179 72.722758 322.7418 72.894037 322.83789 73.060547 C 323.1386 73.58133 323.48741 74.057127 323.87305 74.488281 C 323.80795 74.487034 323.74516 74.478516 323.67969 74.478516 C 322.3731 74.478516 321.13984 74.727743 319.98047 75.224609 C 318.8211 75.721483 317.80829 76.402651 316.94336 77.267578 C 316.09684 78.114098 315.42461 79.116024 314.92773 80.275391 C 314.43086 81.434757 314.18359 82.668023 314.18359 83.974609 C 314.18359 85.281203 314.43086 86.514461 314.92773 87.673828 C 315.42461 88.833195 316.09684 89.846018 316.94336 90.710938 C 317.80829 91.557464 318.8211 92.227743 319.98047 92.724609 C 321.13984 93.221483 322.3731 93.470703 323.67969 93.470703 C 324.98627 93.470703 326.21759 93.221483 327.37695 92.724609 C 328.53632 92.227743 329.54019 91.557464 330.38672 90.710938 C 331.25164 89.846018 331.93281 88.833195 332.42969 87.673828 C 332.92656 86.514461 333.17383 85.281203 333.17383 83.974609 C 333.17383 82.668023 332.92656 81.434757 332.42969 80.275391 C 331.94345 79.140838 331.27815 78.159173 330.43945 77.324219 C 331.81886 77.290772 333.20907 76.921818 334.48828 76.183594 C 341.87606 71.918514 348.12199 71.918264 355.50977 76.183594 C 356.70102 76.871371 357.98979 77.230192 359.27539 77.304688 L 359.27539 83.974609 L 353.58984 83.974609 C 353.58984 85.281203 353.83711 86.514461 354.33398 87.673828 C 354.83085 88.833195 355.50308 89.846018 356.34961 90.710938 C 357.21453 91.557464 358.22735 92.227743 359.38672 92.724609 C 360.54609 93.221483 361.77739 93.470703 363.08398 93.470703 C 364.44578 93.470703 365.71676 93.203595 366.89453 92.669922 L 366.89453 83.974609 L 372.58008 83.974609 C 372.58008 82.465596 372.25933 81.076427 371.61523 79.806641 C 370.97115 78.518461 370.09635 77.432161 368.99219 76.548828 C 367.95934 75.76637 366.87748 75.213868 365.75 74.875 C 366.28709 74.346702 366.76905 73.744738 367.16406 73.060547 C 367.39178 72.666136 367.57389 72.259706 367.73242 71.847656 C 368.06815 72.031482 368.40999 72.205004 368.76172 72.361328 L 368.76172 68.041016 L 374.28125 73.521484 C 375.85458 73.521484 377.33404 73.280781 378.7207 72.800781 C 380.10737 72.320781 381.37482 71.641719 382.52148 70.761719 L 374.28125 62.480469 C 375.42792 62.480469 376.4938 62.268467 377.48047 61.841797 C 377.7338 61.735129 377.97812 61.619015 378.21484 61.492188 C 378.92502 61.111704 379.5611 60.640081 380.12109 60.080078 C 380.86776 59.333408 381.45419 58.467139 381.88086 57.480469 C 381.97763 57.250642 382.06165 57.016645 382.13477 56.779297 C 382.39007 55.972262 382.52148 55.12693 382.52148 54.240234 C 382.52148 53.093564 382.30753 52.027676 381.88086 51.041016 C 381.45419 50.027676 380.86776 49.147061 380.12109 48.400391 C 379.37443 47.653731 378.4938 47.067285 377.48047 46.640625 C 376.4938 46.187285 375.42792 45.960938 374.28125 45.960938 C 372.38792 45.960938 370.59992 46.333408 368.91992 47.080078 C 367.23992 47.800078 365.77482 48.787676 364.52148 50.041016 C 363.29482 51.294346 362.32156 52.761406 361.60156 54.441406 C 361.36705 54.97991 361.18353 55.535599 361.02539 56.099609 C 361.01743 56.127992 361.01168 56.157105 361.00391 56.185547 C 360.88552 56.619346 360.79021 57.06097 360.7168 57.509766 C 360.68336 57.707631 360.6536 57.906645 360.62891 58.107422 C 360.61069 58.262405 360.59308 58.417501 360.58008 58.574219 C 360.56645 58.729691 360.55516 58.885724 360.54688 59.042969 C 355.6611 55.144966 353.52949 50.23639 353.5293 43.203125 C 353.52841 38.492565 349.71055 34.674068 345 34.673828 z M 255.88086 45.960938 L 271.28711 61.367188 L 279.88086 69.960938 C 281.88086 71.960938 285.71101 73.437784 289.64062 73.521484 C 291.90729 73.521484 293.98753 73.027686 295.88086 72.041016 C 297.80086 71.027686 299.38729 69.68 300.64062 68 C 301.25396 67.2 301.76016 66.348076 302.16016 65.441406 C 302.58682 64.508076 302.90776 63.534814 303.12109 62.521484 L 297.88086 62.521484 L 297.88086 67.560547 C 297.08086 67.267217 296.34831 66.867998 295.68164 66.361328 C 295.01497 65.854658 294.42659 65.268232 293.91992 64.601562 C 293.43992 63.908233 293.06745 63.161328 292.80078 62.361328 C 292.53411 61.534658 292.40039 60.668389 292.40039 59.761719 C 292.40039 59.612089 292.41457 59.467252 292.42188 59.320312 C 292.47041 58.341192 292.67002 57.41847 293.04102 56.560547 C 293.46768 55.547217 294.05411 54.668545 294.80078 53.921875 C 295.54745 53.175205 296.41372 52.586826 297.40039 52.160156 C 298.41372 51.733486 299.49397 51.521484 300.64062 51.521484 C 299.38729 49.841484 297.80086 48.508154 295.88086 47.521484 C 294.04966 46.541404 292.0398 46.043889 289.85938 46.011719 L 289.88086 45.960938 L 255.88086 45.960938 z M 459.88086 45.960938 L 459.88086 53.960938 L 449.28125 48.761719 C 448.74792 49.135049 448.24172 49.561016 447.76172 50.041016 C 447.30838 50.494346 446.89482 50.988154 446.52148 51.521484 L 446.52148 58.675781 L 446.52148 68 C 447.21482 68.96 448.0276 69.813877 448.96094 70.560547 C 449.66093 71.100547 450.40558 71.573296 451.19531 71.978516 C 451.45856 72.113589 451.72667 72.241328 452 72.361328 L 452 68 L 460.28125 73.240234 C 461.96125 72.893564 463.50659 72.280391 464.91992 71.400391 C 465.61988 70.951361 466.26797 70.446939 466.86328 69.886719 L 466.88086 69.960938 L 475.49023 61.351562 L 490.88086 45.960938 L 465.88086 45.960938 L 460.88086 45.960938 L 459.88086 45.960938 z M 388 46 C 386.98667 46 386.0669 46.0946 385.24023 46.28125 L 385.24023 56.130859 L 385.24023 73.240234 C 385.65357 73.333564 386.09084 73.404192 386.55078 73.451172 C 387.01072 73.498152 387.49334 73.521484 388 73.521484 C 389.89333 73.521484 391.68133 73.161406 393.36133 72.441406 C 395.04133 71.721406 396.49404 70.748144 397.7207 69.521484 C 398.97404 68.268144 399.96164 66.801094 400.68164 65.121094 C 401.40164 63.441094 401.76172 61.655049 401.76172 59.761719 C 401.76172 59.369311 401.73852 58.984123 401.70508 58.601562 C 401.69242 58.444539 401.67801 58.288308 401.66016 58.132812 C 401.64097 57.976152 401.61426 57.821134 401.58984 57.666016 C 401.42056 56.537917 401.12956 55.445535 400.68164 54.400391 C 399.96164 52.720391 398.97404 51.267676 397.7207 50.041016 C 396.49404 48.787676 395.04133 47.800078 393.36133 47.080078 C 391.68133 46.360078 389.89333 46 388 46 z M 409.52148 46 C 407.54815 46 405.70667 46.386826 404 47.160156 L 404 56.503906 L 404 72.361328 C 404.42667 72.554661 404.86122 72.724127 405.30469 72.869141 C 406.63511 73.304185 408.04149 73.521484 409.52148 73.521484 C 410.01482 73.521484 410.49994 73.497566 410.97656 73.449219 C 411.92981 73.352522 412.84975 73.15917 413.73633 72.869141 C 414.17962 72.724127 414.61435 72.554661 415.04102 72.361328 L 415.04102 56.878906 L 415.04102 47.160156 C 413.33436 46.386826 411.49482 46 409.52148 46 z M 431.52148 46 C 429.60148 46 427.76 46.386826 426 47.160156 L 420.84961 57.101562 L 418.04102 62.521484 C 418.38769 64.201484 419.01325 65.746826 419.91992 67.160156 C 420.82659 68.573486 421.94792 69.775049 423.28125 70.761719 C 423.70792 71.081719 424.14823 71.373955 424.60156 71.640625 C 425.05489 71.907285 425.52 72.147998 426 72.361328 L 431.52148 65.28125 L 437.04102 72.361328 C 439.09436 71.507998 440.8145 70.201406 442.20117 68.441406 C 443.6145 66.681406 444.54667 64.708144 445 62.521484 L 442.85156 58.376953 L 437.04102 47.160156 C 435.33436 46.386826 433.49482 46 431.52148 46 z M 423.09766 74.451172 C 421.79107 74.451172 420.55976 74.709336 419.40039 75.224609 C 418.24102 75.721483 417.22821 76.402651 416.36328 77.267578 C 415.51676 78.132498 414.84453 79.143361 414.34766 80.302734 C 413.85078 81.443694 413.60352 82.668023 413.60352 83.974609 C 413.60352 84.949949 413.74154 85.889282 414.01758 86.791016 C 414.29362 87.674342 414.67891 88.491587 415.17578 89.246094 C 415.69105 89.9822 416.29875 90.645488 416.99805 91.234375 C 417.69735 91.823262 418.46094 92.301869 419.28906 92.669922 L 419.28906 89.689453 L 423.09766 93.470703 C 424.18341 93.470703 425.20517 93.303903 426.16211 92.972656 C 427.11905 92.64141 427.99384 92.173693 428.78516 91.566406 L 423.09766 85.851562 C 423.88897 85.851562 424.62574 85.704596 425.30664 85.410156 C 426.00594 85.115716 426.61363 84.710586 427.12891 84.195312 C 427.64418 83.680032 428.04931 83.081284 428.34375 82.400391 C 428.6382 81.701091 428.78516 80.957329 428.78516 80.166016 C 428.78516 79.374696 428.6382 78.637925 428.34375 77.957031 C 428.04931 77.257731 427.64418 76.650039 427.12891 76.134766 C 426.61363 75.619486 426.00594 75.214362 425.30664 74.919922 C 424.62574 74.607075 423.88897 74.451172 423.09766 74.451172 z M 404.86523 74.478516 C 403.55865 74.478516 402.32538 74.727743 401.16602 75.224609 C 400.00665 75.721483 398.99383 76.402651 398.12891 77.267578 C 397.28239 78.114098 396.61015 79.116024 396.11328 80.275391 C 395.61641 81.434757 395.36914 82.668023 395.36914 83.974609 C 395.36914 85.281203 395.61641 86.514461 396.11328 87.673828 C 396.61015 88.833195 397.28239 89.846018 398.12891 90.710938 C 398.99383 91.557464 400.00665 92.227743 401.16602 92.724609 C 402.32538 93.221483 403.55865 93.470703 404.86523 93.470703 C 405.84057 93.470703 406.76902 93.332681 407.65234 93.056641 C 406.82422 92.688587 406.15199 92.11861 405.63672 91.345703 C 405.12145 90.57279 404.86523 89.697996 404.86523 88.722656 C 404.86523 88.060156 404.98342 87.443527 405.22266 86.873047 C 405.4803 86.302567 405.82088 85.806073 406.24414 85.382812 C 406.6858 84.941146 407.19319 84.600561 407.76367 84.361328 C 408.33415 84.103688 408.95079 83.974609 409.61328 83.974609 C 408.95079 83.974609 408.33415 83.854468 407.76367 83.615234 C 407.19319 83.357601 406.6858 83.01701 406.24414 82.59375 C 405.82088 82.152083 405.4803 81.646652 405.22266 81.076172 C 404.98342 80.505685 404.86523 79.889056 404.86523 79.226562 C 404.86523 78.251222 405.12145 77.376429 405.63672 76.603516 C 406.15199 75.830609 406.82422 75.260631 407.65234 74.892578 C 406.76902 74.616538 405.84057 74.478516 404.86523 74.478516 z M 441.89648 74.478516 C 440.57149 74.478516 439.30246 74.745624 438.08789 75.279297 L 438.08789 83.974609 L 432.40039 83.974609 C 432.40039 85.281203 432.64961 86.514461 433.14648 87.673828 C 433.64335 88.833195 434.31558 89.846018 435.16211 90.710938 C 436.02703 91.557464 437.0379 92.227743 438.19727 92.724609 C 439.35663 93.221483 440.58989 93.470703 441.89648 93.470703 C 443.25828 93.470703 444.5273 93.203595 445.70508 92.669922 L 445.70508 83.974609 L 451.39258 83.974609 C 451.39258 82.465596 451.06987 81.076427 450.42578 79.806641 C 449.78169 78.518461 448.90885 77.432161 447.80469 76.548828 C 445.98282 75.168635 444.01278 74.478516 441.89648 74.478516 z M 346.28711 74.671875 L 346.28711 80.166016 L 338.69531 76.382812 C 338.32726 76.640453 337.97773 76.936331 337.64648 77.267578 C 337.33364 77.580425 337.04866 77.921009 336.79102 78.289062 L 336.79102 89.660156 C 337.26948 90.322656 337.83052 90.912461 338.47461 91.427734 C 339.1187 91.924601 339.81776 92.338669 340.57227 92.669922 L 340.57227 89.660156 L 346.28711 93.277344 C 347.44648 93.03811 348.51294 92.615099 349.48828 92.007812 C 350.46362 91.382126 351.29176 90.598696 351.97266 89.660156 L 351.97266 78.289062 C 351.29176 77.350522 350.46362 76.576037 349.48828 75.96875 C 348.51294 75.343063 347.44648 74.911115 346.28711 74.671875 z M 299.16602 75.279297 C 298.41151 75.610544 297.71245 76.033555 297.06836 76.548828 C 296.42427 77.045701 295.86323 77.626563 295.38477 78.289062 L 295.38477 89.660156 C 295.86323 90.322656 296.42427 90.912461 297.06836 91.427734 C 297.71245 91.924601 298.41151 92.338669 299.16602 92.669922 L 299.16602 89.660156 L 302.97656 93.470703 L 306.78516 89.660156 L 306.78516 92.669922 C 307.53966 92.338669 308.23872 91.924601 308.88281 91.427734 C 309.52691 90.912461 310.08794 90.322656 310.56641 89.660156 L 310.56641 78.289062 C 310.08794 77.626563 309.52691 77.045701 308.88281 76.548828 C 308.23872 76.033555 307.53966 75.610544 306.78516 75.279297 L 302.97656 78.289062 L 299.16602 75.279297 z M 378.07422 76.382812 C 376.91485 77.266139 375.99339 78.361382 375.3125 79.667969 C 374.6316 80.974562 374.29102 82.410389 374.29102 83.974609 L 379.97852 83.974609 L 379.97852 92.669922 C 381.19309 93.203595 382.46212 93.470703 383.78711 93.470703 C 385.1489 93.470703 386.41988 93.203595 387.59766 92.669922 L 387.59766 83.974609 L 393.2832 83.974609 C 393.2832 82.410389 392.94261 80.974562 392.26172 79.667969 C 391.58082 78.361382 390.66132 77.266139 389.50195 76.382812 L 378.07422 76.382812 z "
       transform="translate(0,796.36216)"
       id="path4456"
       inkscape:export-xdpi="261.44681"
       inkscape:export-ydpi="261.44681" />
    <path
       style="fill:#000000;fill-opacity:1;stroke:none;stroke-width:0.40000001;stroke-miterlimit:4;stroke-dasharray:none;stroke-dashoffset:0"
       d="m -109.09371,845.49688 c 6.62493,0.55665 11.71999,6.09391 11.72461,12.74219 4.8e-4,7.06772 -5.72916,12.79735 -12.79688,12.79687 -7.06695,-6e-4 -12.7954,-5.72992 -12.79492,-12.79687 0.004,-6.63582 5.08036,-12.16741 11.69141,-12.74024 -11.43775,0.56467 -20.67268,9.54358 -21.5586,20.96094 -9.00776,6.15141 -12.38138,17.83085 -8.04101,27.83789 0.20978,0.4632 0.42989,0.92164 0.66016,1.375 l 0.0176,0.0352 c -2.85501,-6.02119 -0.61101,-13.22559 5.15821,-16.56055 1.8565,-1.07192 3.95256,-1.66024 6.0957,-1.71093 4.67945,-0.11156 9.04639,2.34082 11.38672,6.39453 3.53507,6.12134 1.43702,13.94947 -4.68555,17.48242 -5.81511,3.34809 -13.22883,1.63553 -16.98633,-3.92383 0.32114,0.49886 0.65524,0.98926 1.00196,1.47071 6.50589,8.69193 18.2473,11.57494 28.03906,6.88476 9.76862,4.69301 21.49157,1.84319 28.01562,-6.81054 0.31787,-0.43859 0.62525,-0.88468 0.92188,-1.3379 -3.81088,5.40892 -11.11684,7.02051 -16.84961,3.7168 -6.12257,-3.53295 -8.22062,-11.36108 -4.68555,-17.48242 2.17895,-3.77319 6.12812,-6.17832 10.48047,-6.38282 2.44791,-0.11558 4.87752,0.4742 7,1.69922 5.7853,3.35027 8.01652,10.58942 5.12109,16.61524 0.23521,-0.44548 0.46053,-0.89611 0.67579,-1.35156 4.39629,-10.01535 1.04264,-21.74162 -7.98438,-27.91797 -0.82767,-11.02625 -9.46407,-19.86043 -20.46875,-20.9375 -0.3792,-0.0259 -0.75881,-0.0454 -1.13867,-0.0586 z m -1.07031,8.47851 c -4.71055,8.9e-4 -8.52906,3.81876 -8.5293,8.5293 -1.2e-4,1.04037 -0.0475,2.03326 -0.14258,2.98438 2.06892,2.47394 5.17919,4.04657 8.66992,4.04687 3.4936,2.4e-4 6.6045,-1.57371 8.67383,-4.05078 -0.0949,-0.95062 -0.14255,-1.94263 -0.14258,-2.98242 -8.9e-4,-4.71056 -3.81874,-8.52711 -8.52929,-8.52735 z m -0.002,19.0254 c 1.2087,2.4e-4 2.1894,0.9788 2.18946,2.1875 4.8e-4,2.18857 0.80208,3.57728 2.69726,4.67187 1.04673,0.6044 1.40493,1.94336 0.80078,2.99023 -0.6044,1.04674 -1.94336,1.40495 -2.99023,0.80079 -1.89565,-1.09438 -3.49692,-1.09445 -5.39258,0 -1.04693,0.60446 -2.38578,0.24616 -2.99023,-0.80079 -0.60446,-1.04694 -0.24617,-2.38579 0.80078,-2.99023 1.89565,-1.09445 2.6972,-2.483 2.69726,-4.67187 2.2e-4,-1.2087 0.9788,-2.18742 2.1875,-2.1875 z m -16.53711,6.09765 c -0.77342,0.55551 -1.60284,1.0931 -2.5,1.61133 -4.07934,2.35547 -5.47755,7.57048 -3.12304,11.65039 2.35548,4.07934 7.57048,5.47754 11.65039,3.12305 0.90139,-0.52039 1.78665,-0.97379 2.6582,-1.36719 1.10944,-3.03015 0.91463,-6.51063 -0.83203,-9.53516 -1.69483,-2.93563 -4.58845,-4.91769 -7.85352,-5.48242 z m 33.07813,0.002 c -3.27857,0.56689 -6.16727,2.55709 -7.85547,5.48047 -1.74632,3.02394 -1.94075,6.50346 -0.83203,9.5332 0.87231,0.39367 1.756,0.85021 2.6582,1.3711 4.08015,2.35569 9.29863,0.9571 11.6543,-3.12305 2.35569,-4.08016 0.95712,-9.29863 -3.12305,-11.6543 -0.89706,-0.51792 -1.7286,-1.05222 -2.50195,-1.60742 z m 13.44336,16.67188 c -0.0655,0.13389 -0.13194,0.26736 -0.19922,0.40039 0.0596,-0.11344 0.11815,-0.22737 0.17578,-0.3418 l 0.004,-0.008 c 0.007,-0.0169 0.0131,-0.0338 0.0195,-0.0508 z"
       id="path5248"
       inkscape:connector-curvature="0"
       sodipodi:nodetypes="ccccccccccccccccccccccccccccccccccccccccssccccccccccccssscccccc" />
    <path
       inkscape:transform-center-x="-0.00086264099"
       sodipodi:nodetypes="ccccsccccc"
       inkscape:transform-center-y="-2.9990048"
       inkscape:connector-curvature="0"
       id="path5266"
       d="m -265.55029,597.58755 c -4.07934,2.35547 -5.47738,7.57157 -3.12287,11.65148 2.35548,4.07934 7.57156,5.47737 11.65147,3.12288 7.38778,-4.26508 13.63391,-4.26508 21.02169,2.5e-4 4.08015,2.35569 9.29744,0.95771 11.65311,-3.12244 2.35569,-4.08016 0.95773,-9.29744 -3.12244,-11.65311 -7.38779,-4.26534 -10.51084,-9.67464 -10.51107,-18.20518 -8.9e-4,-4.71056 -3.81968,-8.5288 -8.53023,-8.52904 -4.71055,8.9e-4 -8.5288,3.81969 -8.52904,8.53023 -0.001,8.52935 -3.12491,13.93865 -10.51062,18.20493 z"
       style="fill:#000000;fill-opacity:1;stroke:url(#radialGradient5270);stroke-width:0.40000001;stroke-miterlimit:4;stroke-dasharray:none;stroke-dashoffset:0" />
    <path
       id="path5268"
       d="m -325.60744,547.36603 a 12.796011,12.796011 0 0 1 11.72461,12.74219 12.796011,12.796011 0 0 1 -12.79688,12.79687 12.796011,12.796011 0 0 1 -12.79492,-12.79687 12.796011,12.796011 0 0 1 11.69141,-12.74024 22.748464,22.748464 0 0 0 -21.5586,20.96094 22.748464,22.748464 0 0 0 -8.04101,27.83789 34.122696,34.122696 0 0 0 0.66015,1.375 22.748464,22.748464 0 0 0 0.0176,0.0352 12.796011,12.796011 0 0 1 5.1582,-16.56055 12.796011,12.796011 0 0 1 6.09571,-1.71094 12.796011,12.796011 0 0 1 11.38672,6.39453 12.796011,12.796011 0 0 1 -4.68555,17.48242 12.796011,12.796011 0 0 1 -16.98633,-3.92382 34.122696,34.122696 0 0 0 1.00195,1.4707 22.748464,22.748464 0 0 0 28.03907,6.88477 22.748464,22.748464 0 0 0 28.01562,-6.81055 34.122696,34.122696 0 0 0 0.92188,-1.33789 12.796011,12.796011 0 0 1 -16.84961,3.71679 12.796011,12.796011 0 0 1 -4.68555,-17.48242 12.796011,12.796011 0 0 1 10.48047,-6.38281 12.796011,12.796011 0 0 1 7,1.69922 12.796011,12.796011 0 0 1 5.12109,16.61719 34.122696,34.122696 0 0 0 0.67578,-1.35352 22.748464,22.748464 0 0 0 -7.98437,-27.91797 22.748464,22.748464 0 0 0 -20.46875,-20.9375 34.122696,34.122696 0 0 0 -1.13867,-0.0586 z m 28.91601,50.26758 a 34.122696,34.122696 0 0 1 -0.20312,0.4082 22.748464,22.748464 0 0 0 0.17578,-0.3418 12.796011,12.796011 0 0 0 0.004,-0.006 12.796011,12.796011 0 0 0 0.0234,-0.0605 z m -29.98828,-22.76368 c 1.2087,2.4e-4 2.18939,0.9788 2.18945,2.1875 4.8e-4,2.18857 0.80209,3.57729 2.69727,4.67188 1.04673,0.6044 1.40493,1.94336 0.80078,2.99023 -0.6044,1.04674 -1.94336,1.40495 -2.99023,0.80079 -1.89565,-1.09438 -3.49692,-1.09445 -5.39258,0 -1.04693,0.60446 -2.38579,0.24616 -2.99024,-0.80079 -0.60446,-1.04694 -0.24616,-2.38579 0.80079,-2.99023 1.89565,-1.09445 2.6972,-2.48301 2.69726,-4.67188 2.2e-4,-1.2087 0.9788,-2.18742 2.1875,-2.1875 z"
       style="fill:url(#linearGradient5272);fill-opacity:1;stroke:url(#radialGradient5274);stroke-width:0.40000001;stroke-linejoin:round;stroke-miterlimit:4;stroke-dasharray:none;stroke-dashoffset:0"
       inkscape:connector-curvature="0" />
    <path
       inkscape:transform-center-x="-0.00086264099"
       sodipodi:nodetypes="ccccsccccc"
       inkscape:transform-center-y="-2.9990048"
       inkscape:connector-curvature="0"
       id="path4327"
       d="m 325.96019,857.77127 c -4.07934,2.35547 -5.47738,7.57157 -3.12287,11.65148 2.35548,4.07934 7.57156,5.47737 11.65147,3.12288 7.38778,-4.26508 13.63391,-4.26508 21.02169,2.5e-4 4.08015,2.35569 9.29744,0.95771 11.65311,-3.12244 2.35569,-4.08016 0.95773,-9.29744 -3.12244,-11.65311 -7.38779,-4.26534 -10.51084,-9.67464 -10.51107,-18.20518 -8.9e-4,-4.71056 -3.81968,-8.5288 -8.53023,-8.52904 -4.71055,8.9e-4 -8.5288,3.81969 -8.52904,8.53023 -10e-4,8.52935 -3.12491,13.93865 -10.51062,18.20493 z"
       style="fill:url(#linearGradient4341);fill-opacity:1;stroke:url(#radialGradient4333);stroke-width:1;stroke-miterlimit:4;stroke-dasharray:none;stroke-dashoffset:0"
       inkscape:export-xdpi="261.44681"
       inkscape:export-ydpi="261.44681" />
    <path
       style="font-style:normal;font-variant:normal;font-weight:800;font-stretch:normal;font-size:medium;line-height:125%;font-family:mun;-inkscape-font-specification:'mun Ultra-Bold';letter-spacing:0px;word-spacing:0px;fill:#000000;fill-opacity:1;stroke:url(#linearGradient4298);stroke-width:1px;stroke-linecap:butt;stroke-linejoin:miter;stroke-opacity:1"
       d="m 255.88086,842.3231 24,24 c 2,2 5.83014,3.47685 9.75976,3.56055 2.26667,0 4.34691,-0.4938 6.24024,-1.48047 1.92,-1.01333 3.50643,-2.36102 4.75976,-4.04102 0.61334,-0.8 1.11954,-1.65192 1.51954,-2.55859 0.42666,-0.93333 0.7476,-1.90659 0.96093,-2.91992 l -5.24023,0 0,5.03906 c -0.8,-0.29333 -1.53255,-0.69255 -2.19922,-1.19922 -0.66667,-0.50667 -1.25505,-1.0931 -1.76172,-1.75977 -0.48,-0.69333 -0.85247,-1.44023 -1.11914,-2.24023 -0.26667,-0.82667 -0.40039,-1.69294 -0.40039,-2.59961 0,-1.14667 0.21396,-2.2145 0.64063,-3.20117 0.42666,-1.01333 1.01309,-1.892 1.75976,-2.63867 0.74667,-0.74667 1.61294,-1.33505 2.59961,-1.76172 1.01333,-0.42667 2.09357,-0.63867 3.24023,-0.63867 -1.25333,-1.68 -2.83976,-3.01333 -4.75976,-4 -1.8312,-0.98008 -3.84106,-1.4776 -6.02149,-1.50977 l 0.0215,-0.0508 -33.99999,0 z m 118.40039,0 c -1.89333,0 -3.68133,0.37247 -5.36133,1.11914 -1.68,0.72 -3.1451,1.7076 -4.39844,2.96094 -1.22666,1.25333 -2.19992,2.72039 -2.91992,4.40039 -0.72,1.65333 -1.08008,3.42698 -1.08008,5.32031 0,1.41333 0.19961,2.77341 0.59961,4.08008 0.4,1.28 0.95969,2.46526 1.67969,3.55859 0.74667,1.06667 1.62729,2.02753 2.64063,2.88086 1.01333,0.85334 2.12031,1.54675 3.32031,2.08008 l 0,-4.32031 5.51953,5.48047 c 1.57333,0 3.05279,-0.24071 4.43945,-0.72071 1.38667,-0.48 2.65412,-1.15906 3.80078,-2.03906 l -8.24023,-8.28125 c 1.14667,0 2.21255,-0.212 3.19922,-0.63867 1.01333,-0.42667 1.89396,-1.01505 2.64062,-1.76172 0.74667,-0.74667 1.3331,-1.61294 1.75977,-2.59961 0.42667,-1.01333 0.64062,-2.09357 0.64062,-3.24023 0,-1.14667 -0.21395,-2.21256 -0.64062,-3.19922 -0.42667,-1.01334 -1.0131,-1.89396 -1.75977,-2.64063 -0.74666,-0.74666 -1.62729,-1.3331 -2.64062,-1.75976 -0.98667,-0.45334 -2.05255,-0.67969 -3.19922,-0.67969 z m 85.59961,0 0,8 -10.59961,-5.19922 c -0.53333,0.37333 -1.03953,0.7993 -1.51953,1.2793 -0.45334,0.45333 -0.8669,0.94714 -1.24024,1.48047 l 0,16.47851 c 0.69334,0.96 1.50612,1.81388 2.43946,2.56055 0.93333,0.72 1.94573,1.32078 3.03906,1.80078 l 0,-4.36133 8.28125,5.24024 c 1.68,-0.34667 3.22534,-0.95985 4.63867,-1.83985 0.69996,-0.44903 1.34805,-0.95345 1.94336,-1.51367 l 0.0176,0.0742 24,-24 -25,0 -5,0 -1,0 z M 388,842.3622 c -1.01333,0 -1.9331,0.0946 -2.75977,0.28125 l 0,26.95899 c 0.82667,0.18666 1.74644,0.28125 2.75977,0.28125 1.89333,0 3.68133,-0.36008 5.36133,-1.08008 1.68,-0.72 3.13271,-1.69326 4.35937,-2.91992 1.25334,-1.25334 2.24094,-2.72039 2.96094,-4.40039 0.72,-1.68 1.08008,-3.46605 1.08008,-5.35938 0,-1.89333 -0.36008,-3.68133 -1.08008,-5.36133 -0.72,-1.68 -1.7076,-3.13271 -2.96094,-4.35937 -1.22666,-1.25334 -2.67937,-2.24094 -4.35937,-2.96094 -1.68,-0.72 -3.468,-1.08008 -5.36133,-1.08008 z m 21.52148,0 c -1.97333,0 -3.81481,0.38683 -5.52148,1.16016 l 0,25.20117 c 1.70667,0.77333 3.54815,1.16016 5.52148,1.16016 1.97334,0 3.81287,-0.38683 5.51953,-1.16016 l 0,-25.20117 c -1.70666,-0.77333 -3.54619,-1.16016 -5.51953,-1.16016 z m 22,0 c -1.92,0 -3.76148,0.38683 -5.52148,1.16016 l -7.95899,15.36133 c 0.34667,1.68 0.97224,3.22534 1.87891,4.63867 0.90667,1.41333 2.028,2.61489 3.36133,3.60156 0.42667,0.32 0.86698,0.61224 1.32031,0.87891 0.45333,0.26666 0.91844,0.50737 1.39844,0.7207 l 5.52148,-7.08008 5.51953,7.08008 c 2.05334,-0.85333 3.77349,-2.15992 5.16016,-3.91992 1.41333,-1.76 2.3455,-3.73326 2.79883,-5.91992 l -7.95899,-15.36133 c -1.70666,-0.77333 -3.54619,-1.16016 -5.51953,-1.16016 z m -122.24023,2.76172 c -1.68,1.25333 -3.02768,2.83977 -4.04102,4.75977 -0.98666,1.89333 -1.47851,3.97356 -1.47851,6.24023 0,1.89333 0.36008,3.67938 1.08008,5.35938 0.72,1.68 1.69325,3.14705 2.91992,4.40039 1.25333,1.22666 2.71844,2.19992 4.39844,2.91992 1.68,0.72 3.46799,1.08008 5.36132,1.08008 1.89334,0 3.67938,-0.36008 5.35938,-1.08008 1.68,-0.72 3.13271,-1.69326 4.35937,-2.91992 1.25334,-1.25334 2.24094,-2.72039 2.96094,-4.40039 0.72,-1.68 1.08008,-3.46605 1.08008,-5.35938 0,-2.26667 -0.5062,-4.3469 -1.51953,-6.24023 -0.98667,-1.92 -2.32,-3.50644 -4,-4.75977 0,1.14667 -0.21396,2.22495 -0.64063,3.23828 -0.42666,0.98667 -1.0131,1.8549 -1.75976,2.60156 -0.74667,0.74667 -1.62729,1.3331 -2.64063,1.75977 -0.98666,0.42667 -2.05255,0.63867 -3.19922,0.63867 -1.14666,0 -2.2269,-0.212 -3.24023,-0.63867 -0.98667,-0.42667 -1.85294,-1.0131 -2.59961,-1.75977 -0.74667,-0.74666 -1.33505,-1.61489 -1.76172,-2.60156 -0.42666,-1.01333 -0.63867,-2.09161 -0.63867,-3.23828 z"
       id="path4241"
       inkscape:connector-curvature="0"
       sodipodi:nodetypes="cscccccccsccscscccccccscccsccscccscccscscscscccsccccccccccccccsccsssssscsssccsccssccsccccccccsccsscsssssscccscscscc"
       inkscape:export-xdpi="261.44681"
       inkscape:export-ydpi="261.44681" />
    <g
       id="g4446"
       transform="translate(2.999994,0)"
       inkscape:export-xdpi="261.44681"
       inkscape:export-ydpi="261.44681">
      <path
         d="m 303.78514,871.64162 q 1.13176,0.49687 2.0979,1.26978 0.96614,0.74531 1.68384,1.73906 l 0,11.37283 q -0.7177,0.99375 -1.68384,1.76666 -0.96614,0.7453 -2.0979,1.24218 l 0,-3.00884 -3.80935,3.80935 -3.80935,-3.80935 0,3.00884 q -1.13176,-0.49688 -2.0979,-1.24218 -0.96614,-0.77291 -1.68384,-1.76666 l 0,-11.37283 q 0.7177,-0.99375 1.68384,-1.73906 0.96614,-0.77291 2.0979,-1.26978 l 3.80935,3.00884 3.80935,-3.00884 z"
         style="font-style:normal;font-variant:normal;font-weight:800;font-stretch:normal;font-size:27.6039753px;line-height:125%;font-family:mun;-inkscape-font-specification:'mun Ultra-Bold';letter-spacing:0px;word-spacing:0px;fill:#000000;fill-opacity:1;stroke:url(#linearGradient4422);stroke-width:1;stroke-linecap:butt;stroke-linejoin:miter;stroke-miterlimit:4;stroke-dasharray:none;stroke-opacity:1"
         id="path4406"
         inkscape:connector-curvature="0" />
      <path
         d="m 311.183,880.33687 q 0,-1.95988 0.74531,-3.69893 0.74531,-1.73905 2.01509,-3.00883 1.29739,-1.29739 3.03644,-2.0427 1.73905,-0.7453 3.69893,-0.7453 1.95988,0 3.69893,0.7453 1.73905,0.74531 3.00884,2.0427 1.29738,1.26978 2.04269,3.00883 0.74531,1.73905 0.74531,3.69893 0,1.95989 -0.74531,3.69894 -0.74531,1.73905 -2.04269,3.03643 -1.26979,1.26979 -3.00884,2.01509 -1.73905,0.74531 -3.69893,0.74531 -1.95988,0 -3.69893,-0.74531 -1.73905,-0.7453 -3.03644,-2.01509 -1.26978,-1.29738 -2.01509,-3.03643 -0.74531,-1.73905 -0.74531,-3.69894 z"
         style="font-style:normal;font-variant:normal;font-weight:800;font-stretch:normal;font-size:27.6039753px;line-height:125%;font-family:mun;-inkscape-font-specification:'mun Ultra-Bold';letter-spacing:0px;word-spacing:0px;fill:#000000;fill-opacity:1;stroke:url(#linearGradient4424);stroke-width:1;stroke-linecap:butt;stroke-linejoin:miter;stroke-miterlimit:4;stroke-dasharray:none;stroke-opacity:1"
         id="path4408"
         inkscape:connector-curvature="0" />
      <path
         d="m 343.28643,871.03433 q 1.73905,0.35886 3.20206,1.29739 1.46301,0.91093 2.48436,2.31874 l 0,11.37283 q -1.02135,1.40781 -2.48436,2.34634 -1.46301,0.91093 -3.20206,1.26978 l -5.71403,-3.61612 0,3.00884 q -1.13176,-0.49688 -2.0979,-1.24218 -0.96614,-0.77291 -1.68384,-1.76666 l 0,-11.37283 q 0.38646,-0.55208 0.85572,-1.02135 0.49687,-0.49687 1.04895,-0.88333 l 7.5911,3.78175 0,-5.4932 z"
         style="font-style:normal;font-variant:normal;font-weight:800;font-stretch:normal;font-size:27.6039753px;line-height:125%;font-family:mun;-inkscape-font-specification:'mun Ultra-Bold';letter-spacing:0px;word-spacing:0px;fill:#000000;fill-opacity:1;stroke:url(#linearGradient4426);stroke-width:1;stroke-linecap:butt;stroke-linejoin:miter;stroke-miterlimit:4;stroke-dasharray:none;stroke-opacity:1"
         id="path4410"
         inkscape:connector-curvature="0" />
      <path
         d="m 365.99199,872.9114 q 1.65624,1.325 2.62237,3.25727 0.96614,1.90468 0.96614,4.1682 l -5.68641,0 0,8.69526 q -1.76666,0.80051 -3.80935,0.80051 -1.95989,0 -3.69894,-0.74531 -1.73905,-0.7453 -3.03643,-2.01509 -1.26979,-1.29738 -2.01509,-3.03643 -0.74531,-1.73905 -0.74531,-3.69894 l 5.68642,0 0,-8.69525 q 1.82186,-0.80051 3.80935,-0.80051 3.17445,0 5.90725,2.07029 z"
         style="font-style:normal;font-variant:normal;font-weight:800;font-stretch:normal;font-size:27.6039753px;line-height:125%;font-family:mun;-inkscape-font-specification:'mun Ultra-Bold';letter-spacing:0px;word-spacing:0px;fill:#000000;fill-opacity:1;stroke:url(#linearGradient4428);stroke-width:1;stroke-linecap:butt;stroke-linejoin:miter;stroke-miterlimit:4;stroke-dasharray:none;stroke-opacity:1"
         id="path4412"
         inkscape:connector-curvature="0" />
      <path
         d="m 386.50174,872.74578 q 1.73905,1.32499 2.7604,3.28487 1.02134,1.95989 1.02134,4.30622 l -5.68641,0 0,8.69526 q -1.76666,0.80051 -3.80935,0.80051 -1.98749,0 -3.80935,-0.80051 l 0,-8.69526 -5.68642,0 q 0,-2.34633 1.02135,-4.30622 1.02134,-1.95988 2.76039,-3.28487 l 11.42805,0 z"
         style="font-style:normal;font-variant:normal;font-weight:800;font-stretch:normal;font-size:27.6039753px;line-height:125%;font-family:mun;-inkscape-font-specification:'mun Ultra-Bold';letter-spacing:0px;word-spacing:0px;fill:#000000;fill-opacity:1;stroke:url(#linearGradient4430);stroke-width:1;stroke-linecap:butt;stroke-linejoin:miter;stroke-miterlimit:4;stroke-dasharray:none;stroke-opacity:1"
         id="path4414"
         inkscape:connector-curvature="0" />
      <path
         d="m 401.86464,875.58899 q 0,0.99374 0.35885,1.84947 0.38646,0.85572 1.02135,1.51822 0.66249,0.63489 1.51822,1.02134 0.85572,0.35885 1.84946,0.35885 -0.99374,0 -1.84946,0.38646 -0.85573,0.35885 -1.51822,1.02135 -0.63489,0.63489 -1.02135,1.49061 -0.35885,0.85572 -0.35885,1.84947 0,1.46301 0.77291,2.62238 0.77291,1.15936 2.01509,1.71144 -1.32499,0.41406 -2.788,0.41406 -1.95988,0 -3.69893,-0.74531 -1.73905,-0.7453 -3.03644,-2.01509 -1.26978,-1.29738 -2.01509,-3.03643 -0.74531,-1.73905 -0.74531,-3.69894 0,-1.95988 0.74531,-3.69893 0.74531,-1.73905 2.01509,-3.00883 1.29739,-1.29739 3.03644,-2.0427 1.73905,-0.7453 3.69893,-0.7453 1.46301,0 2.788,0.41406 -1.24218,0.55208 -2.01509,1.71144 -0.77291,1.15937 -0.77291,2.62238 z"
         style="font-style:normal;font-variant:normal;font-weight:800;font-stretch:normal;font-size:27.6039753px;line-height:125%;font-family:mun;-inkscape-font-specification:'mun Ultra-Bold';letter-spacing:0px;word-spacing:0px;fill:#000000;fill-opacity:1;stroke:url(#linearGradient4432);stroke-width:1;stroke-linecap:butt;stroke-linejoin:miter;stroke-miterlimit:4;stroke-dasharray:none;stroke-opacity:1"
         id="path4416"
         inkscape:connector-curvature="0" />
      <path
         d="m 425.78478,876.52753 q 0,1.18697 -0.44167,2.23592 -0.44166,1.02134 -1.21457,1.79426 -0.77291,0.77291 -1.82186,1.21457 -1.02135,0.44166 -2.20832,0.44166 l 5.68642,5.71403 q -1.18697,0.91093 -2.62238,1.4078 -1.43541,0.49687 -3.06404,0.49687 l -3.80935,-3.78174 0,2.98123 q -1.24218,-0.55208 -2.29113,-1.43541 -1.04895,-0.88333 -1.82186,-1.98749 -0.74531,-1.13176 -1.15937,-2.45675 -0.41406,-1.3526 -0.41406,-2.81561 0,-1.95988 0.74531,-3.67132 0.74531,-1.73906 2.01509,-3.03644 1.29739,-1.29739 3.03644,-2.0427 1.73905,-0.77291 3.69893,-0.77291 1.18697,0 2.20832,0.46927 1.04895,0.44166 1.82186,1.21458 0.77291,0.77291 1.21457,1.82186 0.44167,1.02134 0.44167,2.20832 z"
         style="font-style:normal;font-variant:normal;font-weight:800;font-stretch:normal;font-size:27.6039753px;line-height:125%;font-family:mun;-inkscape-font-specification:'mun Ultra-Bold';letter-spacing:0px;word-spacing:0px;fill:#000000;fill-opacity:1;stroke:url(#linearGradient4434);stroke-width:1;stroke-linecap:butt;stroke-linejoin:miter;stroke-miterlimit:4;stroke-dasharray:none;stroke-opacity:1"
         id="path4418"
         inkscape:connector-curvature="0" />
      <path
         d="m 444.80391,872.9114 q 1.65624,1.325 2.62238,3.25727 0.96613,1.90468 0.96613,4.1682 l -5.68641,0 0,8.69526 q -1.76666,0.80051 -3.80935,0.80051 -1.95989,0 -3.69894,-0.74531 -1.73905,-0.7453 -3.03643,-2.01509 -1.26979,-1.29738 -2.01509,-3.03643 -0.74531,-1.73905 -0.74531,-3.69894 l 5.68642,0 0,-8.69525 q 1.82186,-0.80051 3.80935,-0.80051 3.17445,0 5.90725,2.07029 z"
         style="font-style:normal;font-variant:normal;font-weight:800;font-stretch:normal;font-size:27.6039753px;line-height:125%;font-family:mun;-inkscape-font-specification:'mun Ultra-Bold';letter-spacing:0px;word-spacing:0px;fill:#000000;fill-opacity:1;stroke:url(#linearGradient4436);stroke-width:1;stroke-linecap:butt;stroke-linejoin:miter;stroke-miterlimit:4;stroke-dasharray:none;stroke-opacity:1"
         id="path4420"
         inkscape:connector-curvature="0" />
    </g>
    <path
       style="font-style:normal;font-variant:normal;font-weight:800;font-stretch:normal;font-size:medium;line-height:125%;font-family:mun;-inkscape-font-specification:'mun Ultra-Bold';letter-spacing:0px;word-spacing:0px;fill:#000000;fill-opacity:1;stroke:url(#linearGradient4324);stroke-width:1px;stroke-linecap:butt;stroke-linejoin:miter;stroke-opacity:1"
       d="m 373.63086,852.36216 c -4.20507,0.008 -8.40845,0.0408 -12.60547,0.0996 -0.3273,1.16749 -0.50391,2.38562 -0.50391,3.66211 0,1.41333 0.19961,2.77341 0.59961,4.08008 0.4,1.28 0.95969,2.46526 1.67969,3.55859 0.74667,1.06667 1.62729,2.02753 2.64063,2.88086 1.01333,0.85334 2.12031,1.54675 3.32031,2.08008 l 0,-4.32031 5.51953,5.48046 c 1.57333,0 3.05279,-0.2407 4.43945,-0.7207 1.38667,-0.48 2.65412,-1.15906 3.80078,-2.03906 l -8.24023,-8.28125 c 1.14667,0 2.21255,-0.212 3.19922,-0.63867 1.01333,-0.42667 1.89396,-1.01505 2.64062,-1.76172 0.74667,-0.74667 1.3331,-1.61294 1.75977,-2.59961 0.18825,-0.44709 0.32827,-0.90971 0.43359,-1.38281 -2.89155,-0.0447 -5.78659,-0.0773 -8.68359,-0.0977 z m 11.60937,0.13086 0,17.10937 c 0.82667,0.18666 1.74644,0.28125 2.75977,0.28125 1.89333,0 3.68133,-0.36007 5.36133,-1.08007 1.68,-0.72 3.13271,-1.69327 4.35937,-2.91993 1.25334,-1.25334 2.24094,-2.72039 2.96094,-4.40039 0.72,-1.68 1.08008,-3.46604 1.08008,-5.35937 0,-1.15713 -0.15097,-2.26982 -0.41992,-3.34766 -5.3509,-0.13626 -10.72134,-0.23071 -16.10157,-0.2832 z M 404,852.86607 l 0,15.85742 c 1.70667,0.77333 3.54815,1.16015 5.52148,1.16015 1.97334,0 3.81288,-0.38682 5.51954,-1.16015 l 0,-15.48242 c -3.66638,-0.14484 -7.34779,-0.26988 -11.04102,-0.375 z m -73.02344,0.41406 c -9.17946,0.39455 -18.24416,0.91307 -27.14453,1.55273 -0.037,0.42559 -0.0703,0.8514 -0.0703,1.29102 0,1.89333 0.36008,3.67937 1.08008,5.35937 0.72,1.68 1.69325,3.14705 2.91992,4.40039 1.25333,1.22666 2.71844,2.19993 4.39844,2.91993 1.68,0.72 3.46799,1.08007 5.36132,1.08007 1.89334,0 3.67938,-0.36007 5.35938,-1.08007 1.68,-0.72 3.13271,-1.69327 4.35937,-2.91993 1.25334,-1.25334 2.24094,-2.72039 2.96094,-4.40039 0.72,-1.68 1.08008,-3.46604 1.08008,-5.35937 0,-0.98558 -0.11321,-1.92871 -0.30469,-2.84375 z m 89.87305,0.18359 -2.80859,5.41992 c 0.34667,1.68 0.97223,3.22535 1.8789,4.63868 0.90667,1.41333 2.028,2.61489 3.36133,3.60156 0.42667,0.32 0.86698,0.61224 1.32031,0.87891 0.45333,0.26666 0.91844,0.50737 1.39844,0.7207 l 5.52148,-7.08008 5.51954,7.08008 c 2.05334,-0.85333 3.77348,-2.15992 5.16015,-3.91992 1.41333,-1.76 2.3455,-3.73327 2.79883,-5.91993 l -2.14844,-4.14453 c -7.23663,-0.50543 -14.57942,-0.93107 -22.00195,-1.27539 z m 25.67187,1.57422 0,9.32422 c 0.69334,0.96 1.50612,1.81388 2.43946,2.56055 0.93333,0.72 1.94573,1.32078 3.03906,1.80078 l 0,-4.36133 8.28125,5.24023 c 1.68,-0.34667 3.22534,-0.95984 4.63867,-1.83984 0.69996,-0.44903 1.34805,-0.95345 1.94336,-1.51367 l 0.0176,0.0742 8.60937,-8.60938 c -9.3762,-1.03722 -19.05451,-1.93119 -28.96875,-2.67578 z m -154.0996,0.64453 c -7.19172,0.60347 -14.24533,1.28661 -21.13477,2.04688 l 8.59375,8.59375 c 2,2 5.83015,3.47684 9.75976,3.56054 2.26667,0 4.34691,-0.49379 6.24024,-1.48046 1.92,-1.01333 3.50643,-2.36102 4.75976,-4.04102 0.61334,-0.8 1.11954,-1.65192 1.51954,-2.55859 0.42666,-0.93333 0.7476,-1.9066 0.96093,-2.91993 l -5.24023,0 0,5.03907 c -0.8,-0.29333 -1.53255,-0.69255 -2.19922,-1.19922 -0.66667,-0.50667 -1.25505,-1.0931 -1.76172,-1.75977 -0.48,-0.69333 -0.85247,-1.44023 -1.11914,-2.24023 -0.26667,-0.82667 -0.40039,-1.69294 -0.40039,-2.59961 0,-0.14963 0.0142,-0.29447 0.0215,-0.44141 z"
       id="path4318"
       inkscape:connector-curvature="0"
       sodipodi:nodetypes="ccsccscccscccscccccsssssccccscccccsscsssssscccsccccccccccccccccccccccscccccccsccsc"
       inkscape:export-xdpi="261.44681"
       inkscape:export-ydpi="261.44681" />
    <path
       inkscape:connector-curvature="0"
       id="path4343"
       d="m 271.88086,948.80157 24,24 c 2,2 5.83014,3.47685 9.75976,3.56055 2.26667,0 4.34691,-0.4938 6.24024,-1.48047 1.92,-1.01333 3.50643,-2.36102 4.75976,-4.04102 0.61334,-0.8 1.11954,-1.65192 1.51954,-2.55859 0.42666,-0.93333 0.7476,-1.90659 0.96093,-2.91992 l -5.24023,0 0,5.03906 c -0.8,-0.29333 -1.53255,-0.69255 -2.19922,-1.19922 -0.66667,-0.50667 -1.25505,-1.0931 -1.76172,-1.75977 -0.48,-0.69333 -0.85247,-1.44023 -1.11914,-2.24023 -0.26667,-0.82667 -0.40039,-1.69294 -0.40039,-2.59961 0,-1.14667 0.21396,-2.2145 0.64063,-3.20117 0.42666,-1.01333 1.01309,-1.892 1.75976,-2.63867 0.74667,-0.74667 1.61294,-1.33505 2.59961,-1.76172 1.01333,-0.42667 2.09357,-0.63867 3.24023,-0.63867 -1.25333,-1.68 -2.83976,-3.01333 -4.75976,-4 -1.8312,-0.98008 -3.84106,-1.4776 -6.02149,-1.50977 l 0.0215,-0.0508 -33.99999,0 z m 118.40039,0 c -1.89333,0 -3.68133,0.37247 -5.36133,1.11914 -1.68,0.72 -3.1451,1.7076 -4.39844,2.96094 -1.22666,1.25333 -2.19992,2.72039 -2.91992,4.40039 -0.72,1.65333 -1.08008,3.42698 -1.08008,5.32031 0,1.41333 0.19961,2.77341 0.59961,4.08008 0.4,1.28 0.95969,2.46526 1.67969,3.55859 0.74667,1.06667 1.62729,2.02753 2.64063,2.88086 1.01333,0.85334 2.12031,1.54675 3.32031,2.08008 l 0,-4.32031 5.51953,5.48047 c 1.57333,0 3.05279,-0.24071 4.43945,-0.72071 1.38667,-0.48 2.65412,-1.15906 3.80078,-2.03906 l -8.24023,-8.28125 c 1.14667,0 2.21255,-0.212 3.19922,-0.63867 1.01333,-0.42667 1.89396,-1.01505 2.64062,-1.76172 0.74667,-0.74667 1.3331,-1.61294 1.75977,-2.59961 0.42667,-1.01333 0.64062,-2.09357 0.64062,-3.24023 0,-1.14667 -0.21395,-2.21256 -0.64062,-3.19922 -0.42667,-1.01334 -1.0131,-1.89396 -1.75977,-2.64063 -0.74666,-0.74666 -1.62729,-1.3331 -2.64062,-1.75976 -0.98667,-0.45334 -2.05255,-0.67969 -3.19922,-0.67969 z m 85.59961,0 0,8 -10.59961,-5.19922 c -0.53333,0.37333 -1.03953,0.7993 -1.51953,1.2793 -0.45334,0.45333 -0.8669,0.94714 -1.24024,1.48047 l 0,16.47851 c 0.69334,0.96 1.50612,1.81388 2.43946,2.56055 0.93333,0.72 1.94573,1.32078 3.03906,1.80078 l 0,-4.36133 8.28125,5.24024 c 1.68,-0.34667 3.22534,-0.95985 4.63867,-1.83985 0.69996,-0.44903 1.34805,-0.95345 1.94336,-1.51367 l 0.0176,0.0742 24,-24 -25,0 -5,0 -1,0 z m -114.35938,0.0391 c -1.92,0 -3.76148,0.38683 -5.52148,1.16016 l -7.95898,15.36133 c 0.34666,1.68 0.97224,3.22534 1.8789,4.63867 0.90667,1.41333 2.028,2.61489 3.36133,3.60156 0.42667,0.32 0.86698,0.61224 1.32031,0.87891 0.45333,0.26666 0.91844,0.50737 1.39844,0.7207 l 5.52148,-7.08008 5.51953,7.08008 c 2.05334,-0.85333 3.77349,-2.15992 5.16016,-3.91992 1.41333,-1.76 2.3455,-3.73326 2.79883,-5.91992 l -7.95899,-15.36133 c -1.70666,-0.77333 -3.54619,-1.16016 -5.51953,-1.16016 z m 42.47852,0 c -1.01333,0 -1.9331,0.0946 -2.75977,0.28125 l 0,26.95899 c 0.82667,0.18666 1.74644,0.28125 2.75977,0.28125 1.89333,0 3.68133,-0.36008 5.36133,-1.08008 1.68,-0.72 3.13271,-1.69326 4.35937,-2.91992 1.25334,-1.25334 2.24094,-2.72039 2.96094,-4.40039 0.72,-1.68 1.08008,-3.46605 1.08008,-5.35938 0,-1.89333 -0.36008,-3.68133 -1.08008,-5.36133 -0.72,-1.68 -1.7076,-3.13271 -2.96094,-4.35937 -1.22666,-1.25334 -2.67937,-2.24094 -4.35937,-2.96094 -1.68,-0.72 -3.468,-1.08008 -5.36133,-1.08008 z m 21.52148,0 c -1.97333,0 -3.81481,0.38683 -5.52148,1.16016 l 0,25.20117 c 1.70667,0.77333 3.54815,1.16016 5.52148,1.16016 1.97334,0 3.81287,-0.38683 5.51953,-1.16016 l 0,-25.20117 c -1.70666,-0.77333 -3.54619,-1.16016 -5.51953,-1.16016 z m 22,0 c -1.92,0 -3.76148,0.38683 -5.52148,1.16016 l -7.95899,15.36133 c 0.34667,1.68 0.97224,3.22534 1.87891,4.63867 0.90667,1.41333 2.028,2.61489 3.36133,3.60156 0.42667,0.32 0.86698,0.61224 1.32031,0.87891 0.45333,0.26666 0.91844,0.50737 1.39844,0.7207 l 5.52148,-7.08008 5.51953,7.08008 c 2.05334,-0.85333 3.77349,-2.15992 5.16016,-3.91992 1.41333,-1.76 2.3455,-3.73326 2.79883,-5.91992 l -7.95899,-15.36133 c -1.70666,-0.77333 -3.54619,-1.16016 -5.51953,-1.16016 z m -122.24023,2.76172 c -1.68,1.25333 -3.02768,2.83977 -4.04102,4.75977 -0.98666,1.89333 -1.47851,3.97356 -1.47851,6.24023 0,1.89333 0.36008,3.67938 1.08008,5.35938 0.72,1.68 1.69325,3.14705 2.91992,4.40039 1.25333,1.22666 2.71844,2.19992 4.39844,2.91992 1.68,0.72 3.46799,1.08008 5.36132,1.08008 1.89334,0 3.67938,-0.36008 5.35938,-1.08008 1.68,-0.72 3.13271,-1.69326 4.35937,-2.91992 1.25334,-1.25334 2.24094,-2.72039 2.96094,-4.40039 0.72,-1.68 1.08008,-3.46605 1.08008,-5.35938 0,-2.26667 -0.5062,-4.3469 -1.51953,-6.24023 -0.98667,-1.92 -2.32,-3.50644 -4,-4.75977 0,1.14667 -0.21396,2.22495 -0.64063,3.23828 -0.42666,0.98667 -1.0131,1.8549 -1.75976,2.60156 -0.74667,0.74667 -1.62729,1.3331 -2.64063,1.75977 -0.98666,0.42667 -2.05255,0.63867 -3.19922,0.63867 -1.14666,0 -2.2269,-0.212 -3.24023,-0.63867 -0.98667,-0.42667 -1.85294,-1.0131 -2.59961,-1.75977 -0.74667,-0.74666 -1.33505,-1.61489 -1.76172,-2.60156 -0.42666,-1.01333 -0.63867,-2.09161 -0.63867,-3.23828 z"
       style="font-style:normal;font-variant:normal;font-weight:800;font-stretch:normal;font-size:medium;line-height:125%;font-family:mun;-inkscape-font-specification:'mun Ultra-Bold';letter-spacing:0px;word-spacing:0px;fill:#000000;fill-opacity:1;stroke:url(#linearGradient4349);stroke-width:1px;stroke-linecap:butt;stroke-linejoin:miter;stroke-opacity:1" />
    <text
       sodipodi:linespacing="125%"
       id="text4345"
       y="999.13654"
       x="300.84586"
       style="font-style:normal;font-weight:normal;font-size:40px;line-height:125%;font-family:sans-serif;letter-spacing:0px;word-spacing:0px;fill:#000000;fill-opacity:1;stroke:url(#linearGradient4351);stroke-width:1px;stroke-linecap:butt;stroke-linejoin:miter;stroke-opacity:1"
       xml:space="preserve"><tspan
         style="font-style:normal;font-variant:normal;font-weight:800;font-stretch:normal;font-size:30px;font-family:mun;-inkscape-font-specification:'mun Ultra-Bold';fill:#000000;fill-opacity:1;stroke:url(#linearGradient4351)"
         y="999.13654"
         x="300.84586"
         id="tspan4347"
         sodipodi:role="line">monsters</tspan></text>
    <path
       id="path4291"
       transform="translate(0,796.36216)"
       d="M 16 0 C 7.136 0 9.9031894e-17 7.1360127 0 16 L 0 236 C 0 244.86399 7.136 252 16 252 L 240 252 C 248.864 252 256 244.86399 256 236 L 256 16 C 256 7.1360127 248.864 9.9031752e-17 240 0 L 16 0 z "
       style="opacity:0.3;fill:none;fill-opacity:1;stroke:#ffffff;stroke-width:4;stroke-linecap:round;stroke-linejoin:round;stroke-miterlimit:4;stroke-dasharray:none;stroke-dashoffset:0;stroke-opacity:1" />
    <path
       style="fill:#000000;fill-opacity:1;stroke:none;stroke-width:0.40000001;stroke-linecap:round;stroke-linejoin:round;stroke-miterlimit:4;stroke-dasharray:none;stroke-dashoffset:0;filter:url(#filter4911)"
       d="m 10.58001,809.7416 -0.01044,0.0731 -0.06613,-0.0278 0.05569,0.10616 -2.8384348,19.7246 3.6285338,-4.79454 0.454218,1.92652 a 42.769706,42.769706 0 0 0 -8.7902738,10.1251 14.256569,14.256569 0 0 1 9.8153138,-5.77782 l 2.518219,10.67155 3.428399,-1.46708 9.590813,7.25533 -0.0922,1.52625 a 14.256569,14.256569 0 0 1 -1.36788,3.28047 14.256569,14.256569 0 0 1 -2.17538,2.83669 l -1.25824,0.83012 -11.077031,-4.67619 -0.445518,-3.70163 -10.4853298,3.14996 a 14.256569,14.256569 0 0 1 0.274968,-11.7575 42.769706,42.769706 0 0 0 -4.552634,13.04184 l -1.910855,0.5743 2.338969,-5.53765 -15.6627342,12.31961 -0.12008,0.005 0.05743,0.0435 -0.05743,0.0453 0.12008,0.004 15.6627342,12.31961 -2.338969,-5.53765 1.909114,0.57256 a 42.769706,42.769706 0 0 0 4.484763,12.92872 14.256569,14.256569 0 0 1 -0.210576,-11.64438 l 10.4905498,3.1517 0.445518,-3.70163 11.077031,-4.67619 1.28261,0.84578 a 14.256569,14.256569 0 0 1 2.15101,2.82103 14.256569,14.256569 0 0 1 1.36962,3.30658 l 0.0888,1.50014 -9.587332,7.25533 -3.428399,-1.46534 -2.514739,10.65588 A 14.256569,14.256569 0 0 1 2.7626502,881.72792 42.769706,42.769706 0 0 0 11.81397,892.19063 l -0.46466,1.97002 -3.6267938,-4.79454 2.8366948,19.7246 -0.05569,0.10616 0.06787,-0.0261 0.01044,0.0696 0.06265,-0.10093 18.501167,-7.405 -5.9675,-0.7431 1.47752,-1.39225 a 42.769706,42.769706 0 0 0 13.3899,2.60176 14.256569,14.256569 0 0 1 -10.16512,-5.63685 l 7.97407,-7.50767 -2.98462,-2.23629 1.4897,-11.93326 1.36266,-0.6822 a 14.256569,14.256569 0 0 1 3.52934,-0.45596 14.256569,14.256569 0 0 1 3.55196,0.46814 l 1.34003,0.67002 1.4897,11.93326 -2.98462,2.23629 7.97929,7.5129 a 14.256569,14.256569 0 0 1 -10.14945,5.62988 42.769706,42.769706 0 0 0 13.37946,-2.58784 l 1.46533,1.38007 -5.96402,0.7431 18.50117,7.405 0.0626,0.10093 0.0104,-0.0714 0.0661,0.0261 -0.0557,-0.10442 2.83844,-19.72461 -3.62854,4.79454 -0.45421,-1.92825 a 42.769706,42.769706 0 0 0 8.86684,-10.24865 14.256569,14.256569 0 0 1 -9.89537,5.89267 l -2.51474,-10.66111 -3.42839,1.46708 -9.58908,-7.25532 0.0905,-1.53147 a 14.256569,14.256569 0 0 1 1.36788,-3.27525 14.256569,14.256569 0 0 1 2.17538,-2.83669 l 1.25824,-0.83013 11.07703,4.67619 0.44551,3.70163 10.48534,-3.14995 a 14.256569,14.256569 0 0 1 -0.27497,11.7575 42.769706,42.769706 0 0 0 4.55263,-13.04184 l 1.91086,-0.5743 -2.33896,5.53764 15.66273,-12.31961 0.12008,-0.005 -0.0575,-0.0453 0.0575,-0.0435 -0.12008,-0.004 -15.66273,-12.31961 2.33896,5.53764 -1.90911,-0.57255 a 42.769706,42.769706 0 0 0 -4.48477,-12.92872 14.256569,14.256569 0 0 1 0.21058,11.64437 l -10.49056,-3.15169 -0.44551,3.70163 -11.07703,4.67619 -1.27912,-0.84404 a 14.256569,14.256569 0 0 1 -2.1545,-2.82278 14.256569,14.256569 0 0 1 -1.36962,-3.30658 l -0.0888,-1.50013 9.58734,-7.25533 3.42839,1.46533 2.51648,-10.66284 a 14.256569,14.256569 0 0 1 10.0694,6.15197 42.769706,42.769706 0 0 0 -9.05132,-10.4627 l 0.46466,-1.97003 3.6268,4.79454 -2.8367,-19.72461 0.0557,-0.10616 -0.0679,0.0261 -0.0104,-0.0696 -0.0626,0.10094 -18.50117,7.40499 5.9675,0.74311 -1.47752,1.39224 a 42.769706,42.769706 0 0 0 -13.3899,-2.60175 14.256569,14.256569 0 0 1 10.16512,5.63684 l -7.97407,7.50767 2.98462,2.23629 -1.4897,11.93327 -1.36266,0.6822 a 14.256569,14.256569 0 0 1 -3.52934,0.45596 14.256569,14.256569 0 0 1 -3.55196,-0.46814 l -1.34003,-0.67002 -1.4897,-11.93327 2.98462,-2.23629 -7.97929,-7.51289 a 14.256569,14.256569 0 0 1 10.14945,-5.62988 42.769706,42.769706 0 0 0 -13.37946,2.58783 l -1.46533,-1.38006 5.96576,-0.74311 -18.501172,-7.40499 -0.0644,-0.10268 z m 27.444588,7.04302 a 42.769706,42.769706 0 0 1 1.22692,-0.0626 14.256569,14.256569 0 0 0 -1.22692,0.0626 z m 38.73917,63.15389 a 42.769706,42.769706 0 0 1 -0.24365,0.48902 14.256569,14.256569 0 0 0 0.24365,-0.48902 z m -36.28534,22.26022 a 42.769706,42.769706 0 0 1 -1.22691,0.0626 14.256569,14.256569 0 0 0 1.22691,-0.0626 z M 1.7392672,839.04484 a 42.769706,42.769706 0 0 1 0.243642,-0.48902 14.256569,14.256569 0 0 0 -0.243642,0.48902 z"
       id="path4305"
       inkscape:connector-curvature="0"
       transform="matrix(1.9673939,0,0,1.9673939,50.5182,-766.71789)" />
    <g
       id="g4323"
       transform="matrix(1.0654162,0,0,1.0654162,-8.3563624,-60.460291)">
      <path
         style="fill:url(#linearGradient4300);fill-opacity:1;stroke:url(#radialGradient4302);stroke-width:0.78695756;stroke-linecap:round;stroke-linejoin:round;stroke-miterlimit:4;stroke-dasharray:none;stroke-dashoffset:0"
         d="m 71.333247,826.36279 -0.02054,0.14382 -0.130104,-0.0547 0.109564,0.20886 -5.584319,38.80605 7.138755,-9.43275 0.893626,3.79023 a 84.144859,84.144859 0 0 0 -17.293931,19.92006 28.048287,28.048287 0 0 1 19.310588,-11.36725 l 4.954329,20.99514 6.745011,-2.88632 18.868904,14.27409 -0.18139,3.00274 a 28.048287,28.048287 0 0 1 -2.69116,6.45397 28.048287,28.048287 0 0 1 -4.279829,5.58089 l -2.475453,1.63317 -21.792884,-9.19991 -0.876509,-7.28256 -20.628774,6.19721 a 28.048287,28.048287 0 0 1 0.54097,-23.13163 84.144859,84.144859 0 0 0 -8.956824,25.65843 l -3.759404,1.12988 4.601673,-10.89474 -30.814768,24.23753 -0.236244,0.01 0.112987,0.0856 -0.112987,0.0891 0.236244,0.008 30.814768,24.23752 -4.601673,-10.89474 3.755979,1.12645 a 84.144859,84.144859 0 0 0 8.823295,25.43589 28.048287,28.048287 0 0 1 -0.414286,-22.90908 l 20.639044,6.20063 0.876509,-7.28256 21.792884,-9.19991 2.523399,1.66398 a 28.048287,28.048287 0 0 1 4.231883,5.55008 28.048287,28.048287 0 0 1 2.69458,6.50535 l 0.17471,2.95136 -18.862061,14.27409 -6.745012,-2.8829 -4.947482,20.96432 A 28.048287,28.048287 0 0 1 55.95342,967.98852 84.144859,84.144859 0 0 0 73.760932,988.57279 l -0.91417,3.87581 -7.135332,-9.43275 5.580896,38.80605 -0.109564,0.2089 0.133527,-0.051 0.02054,0.137 0.123257,-0.1986 36.399084,-14.5686 -11.740424,-1.4619 2.906864,-2.7391 a 84.144859,84.144859 0 0 0 26.34321,5.1187 28.048287,28.048287 0 0 1 -19.9988,-11.08997 l 15.68814,-14.77054 -5.87192,-4.39966 2.93082,-23.47743 2.68089,-1.34215 a 28.048287,28.048287 0 0 1 6.9436,-0.89705 28.048287,28.048287 0 0 1 6.98811,0.92101 l 2.63637,1.31819 2.93082,23.47743 -5.87192,4.39966 15.69841,14.78083 a 28.048287,28.048287 0 0 1 -19.96797,11.07618 84.144859,84.144859 0 0 0 26.32267,-5.0913 l 2.88288,2.7152 -11.73358,1.4619 36.39909,14.5686 0.12316,0.1986 0.0205,-0.1405 0.13005,0.051 -0.10959,-0.2054 5.58433,-38.80609 -7.13877,9.43275 -0.89361,-3.79363 a 84.144859,84.144859 0 0 0 17.44457,-20.16313 28.048287,28.048287 0 0 1 -19.46809,11.5932 l -4.94748,-20.9746 -6.745,2.88633 -18.86549,-14.27408 0.17804,-3.013 a 28.048287,28.048287 0 0 1 2.69116,-6.44371 28.048287,28.048287 0 0 1 4.27983,-5.58088 l 2.47546,-1.6332 21.79288,9.19991 0.87649,7.28257 20.6288,-6.1972 a 28.048287,28.048287 0 0 1 -0.54098,23.13164 84.144859,84.144859 0 0 0 8.95682,-25.65844 l 3.75941,-1.12987 -4.60165,10.89471 30.81476,-24.23752 0.23624,-0.01 -0.11313,-0.0891 0.11313,-0.0856 -0.23624,-0.008 -30.81476,-24.23753 4.60165,10.89472 -3.75597,-1.12643 a 84.144859,84.144859 0 0 0 -8.82331,-25.43588 28.048287,28.048287 0 0 1 0.41429,22.90906 l -20.63906,-6.20062 -0.87649,7.28257 -21.79288,9.1999 -2.51654,-1.66055 a 28.048287,28.048287 0 0 1 -4.23875,-5.55352 28.048287,28.048287 0 0 1 -2.69458,-6.50535 l -0.1747,-2.95135 18.86207,-14.27409 6.74499,2.88288 4.95091,-20.978 a 28.048287,28.048287 0 0 1 19.81048,12.10334 84.144859,84.144859 0 0 0 -17.80751,-20.58425 l 0.91417,-3.87582 7.13534,9.43275 -5.58091,-38.80608 0.10959,-0.20886 -0.13359,0.0513 -0.0205,-0.13693 -0.12316,0.19859 -36.39909,14.56853 11.74043,1.46199 -2.90687,2.73908 a 84.144859,84.144859 0 0 0 -26.34321,-5.11866 28.048287,28.048287 0 0 1 19.9988,11.08988 l -15.68814,14.77055 5.87193,4.39966 -2.93083,23.47744 -2.68089,1.34216 a 28.048287,28.048287 0 0 1 -6.9436,0.89705 28.048287,28.048287 0 0 1 -6.98811,-0.92102 l -2.63636,-1.31819 -2.93083,-23.47744 5.87192,-4.39966 -15.6984,-14.78082 a 28.048287,28.048287 0 0 1 19.96796,-11.07619 84.144859,84.144859 0 0 0 -26.322666,5.09128 l -2.882881,-2.71512 11.736997,-1.46199 -36.399091,-14.56853 -0.1267,-0.20201 z m 53.994313,13.8564 a 84.144859,84.144859 0 0 1 2.41384,-0.12316 28.048287,28.048287 0 0 0 -2.41384,0.12316 z m 76.21521,124.24858 a 84.144859,84.144859 0 0 1 -0.47936,0.96209 28.048287,28.048287 0 0 0 0.47936,-0.96209 z m -71.38756,43.79463 a 84.144859,84.144859 0 0 1 -2.41381,0.1231 28.048287,28.048287 0 0 0 2.41381,-0.1231 z M 53.940024,884.01381 a 84.144859,84.144859 0 0 1 0.479339,-0.96209 28.048287,28.048287 0 0 0 -0.479339,0.96209 z"
         id="path4307"
         inkscape:connector-curvature="0" />
      <path
         transform="matrix(1.9673939,0,0,1.9673939,50.5182,-766.71789)"
         inkscape:transform-center-x="-0.00086264099"
         sodipodi:nodetypes="ccccsccccc"
         inkscape:transform-center-y="-2.9990048"
         inkscape:connector-curvature="0"
         id="path4309"
         d="m 20.960493,862.24234 c -4.07934,2.35547 -5.477389,7.57157 -3.12288,11.65148 2.355489,4.07934 7.571565,5.47737 11.651475,3.12288 7.38778,-4.26508 13.63391,-4.26508 21.02169,2.5e-4 4.08015,2.35569 9.29744,0.95771 11.65311,-3.12244 2.35569,-4.08016 0.95773,-9.29744 -3.12244,-11.65311 -7.38779,-4.26534 -10.51084,-9.67464 -10.51107,-18.20518 -8.9e-4,-4.71056 -3.81968,-8.5288 -8.53023,-8.52904 -4.71055,8.9e-4 -8.5288,3.81969 -8.52904,8.53023 -0.001,8.52935 -3.12491,13.93865 -10.510615,18.20493 z"
         style="fill:#000000;fill-opacity:1;stroke:none;stroke-width:0.40000001;stroke-miterlimit:4;stroke-dasharray:none;stroke-dashoffset:0;filter:url(#filter5065)" />
      <path
         transform="matrix(1.9673939,0,0,1.9673939,50.5182,-766.71789)"
         style="fill:#000000;fill-opacity:1;stroke:none;stroke-width:0.40000001;stroke-miterlimit:4;stroke-dasharray:none;stroke-dashoffset:0;filter:url(#filter5065)"
         d="m 20.960493,862.24234 c -4.07934,2.35547 -5.477389,7.57157 -3.12288,11.65148 2.355489,4.07934 7.571565,5.47737 11.651475,3.12288 7.38778,-4.26508 13.63391,-4.26508 21.02169,2.5e-4 4.08015,2.35569 9.29744,0.95771 11.65311,-3.12244 2.35569,-4.08016 0.95773,-9.29744 -3.12244,-11.65311 -7.38779,-4.26534 -10.51084,-9.67464 -10.51107,-18.20518 -8.9e-4,-4.71056 -3.81968,-8.5288 -8.53023,-8.52904 -4.71055,8.9e-4 -8.5288,3.81969 -8.52904,8.53023 -0.001,8.52935 -3.12491,13.93865 -10.510615,18.20493 z"
         id="path4311"
         inkscape:connector-curvature="0"
         inkscape:transform-center-y="-2.9990048"
         sodipodi:nodetypes="ccccsccccc"
         inkscape:transform-center-x="-0.00086264099" />
      <path
         style="fill:#000000;fill-opacity:1;stroke:url(#radialGradient4304);stroke-width:0.78695756;stroke-miterlimit:4;stroke-dasharray:none;stroke-dashoffset:0"
         d="m 91.755746,929.65243 c -8.025669,4.63414 -10.776182,14.89626 -6.143935,22.92305 4.634175,8.02567 14.896249,10.77615 22.923039,6.14394 14.53468,-8.3911 26.82327,-8.3911 41.35795,4.9e-4 8.02726,4.63457 18.29172,1.88419 22.92625,-6.14307 4.63457,-8.02728 1.88424,-18.29173 -6.14307,-22.92626 -14.53469,-8.3916 -20.67896,-19.03383 -20.67941,-35.81676 -0.002,-9.26753 -7.51482,-16.77951 -16.78232,-16.77998 -9.26751,0.002 -16.77951,7.51483 -16.77998,16.78232 -0.002,16.78059 -6.14793,27.42282 -20.678524,35.81627 z"
         id="path4313"
         inkscape:connector-curvature="0"
         inkscape:transform-center-y="-2.9990048"
         sodipodi:nodetypes="ccccsccccc"
         inkscape:transform-center-x="-0.00086264099" />
      <path
         transform="matrix(1.9673939,0,0,1.9673939,50.5182,-766.71789)"
         id="path4315"
         d="m 41.071818,827.02822 a 12.796011,12.796011 0 0 1 11.72413,12.74325 12.796011,12.796011 0 0 1 -12.79601,12.79601 12.796011,12.796011 0 0 1 -12.79602,-12.79601 12.796011,12.796011 0 0 1 11.6908,-12.74048 22.748464,22.748464 0 0 0 -21.557164,20.96014 22.748464,22.748464 0 0 0 -8.0419368,27.83854 34.122696,34.122696 0 0 0 0.660905,1.37457 22.748464,22.748464 0 0 0 0.01666,0.0361 12.796011,12.796011 0 0 1 5.1595028,-16.5615 12.796011,12.796011 0 0 1 6.095322,-1.71058 12.796011,12.796011 0 0 1 11.385341,6.39523 12.796011,12.796011 0 0 1 -4.68465,17.48066 12.796011,12.796011 0 0 1 -16.986376,-3.92378 34.122696,34.122696 0 0 0 1.002465,1.47177 22.748464,22.748464 0 0 0 28.038481,6.88396 22.748464,22.748464 0 0 0 28.01627,-6.80899 34.122696,34.122696 0 0 0 0.92194,-1.33847 12.796011,12.796011 0 0 1 -16.85031,3.71551 12.796011,12.796011 0 0 1 -4.68465,-17.48066 12.796011,12.796011 0 0 1 10.48007,-6.38412 12.796011,12.796011 0 0 1 7.00059,1.69947 12.796011,12.796011 0 0 1 5.12063,16.61704 34.122696,34.122696 0 0 0 0.67479,-1.35236 22.748464,22.748464 0 0 0 -7.98362,-27.91907 22.748464,22.748464 0 0 0 -20.46862,-20.93792 34.122696,34.122696 0 0 0 -1.13854,-0.0583 z m 28.91599,50.26766 a 34.122696,34.122696 0 0 1 -0.20271,0.40821 22.748464,22.748464 0 0 0 0.17494,-0.34156 12.796011,12.796011 0 0 0 0.003,-0.006 12.796011,12.796011 0 0 0 0.025,-0.0611 z"
         style="fill:#000000;fill-opacity:1;stroke:none;stroke-width:0.40000001;stroke-linejoin:round;stroke-miterlimit:4;stroke-dasharray:none;stroke-dashoffset:0;filter:url(#filter5097)"
         inkscape:connector-curvature="0" />
      <path
         transform="matrix(1.9673939,0,0,1.9673939,50.5182,-766.71789)"
         inkscape:connector-curvature="0"
         style="fill:#000000;fill-opacity:1;stroke:none;stroke-width:0.40000001;stroke-linejoin:round;stroke-miterlimit:4;stroke-dasharray:none;stroke-dashoffset:0;filter:url(#filter5097)"
         d="m 41.071818,827.02822 a 12.796011,12.796011 0 0 1 11.72413,12.74325 12.796011,12.796011 0 0 1 -12.79601,12.79601 12.796011,12.796011 0 0 1 -12.79602,-12.79601 12.796011,12.796011 0 0 1 11.6908,-12.74048 22.748464,22.748464 0 0 0 -21.557164,20.96014 22.748464,22.748464 0 0 0 -8.0419368,27.83854 34.122696,34.122696 0 0 0 0.660905,1.37457 22.748464,22.748464 0 0 0 0.01666,0.0361 12.796011,12.796011 0 0 1 5.1595028,-16.5615 12.796011,12.796011 0 0 1 6.095322,-1.71058 12.796011,12.796011 0 0 1 11.385341,6.39523 12.796011,12.796011 0 0 1 -4.68465,17.48066 12.796011,12.796011 0 0 1 -16.986376,-3.92378 34.122696,34.122696 0 0 0 1.002465,1.47177 22.748464,22.748464 0 0 0 28.038481,6.88396 22.748464,22.748464 0 0 0 28.01627,-6.80899 34.122696,34.122696 0 0 0 0.92194,-1.33847 12.796011,12.796011 0 0 1 -16.85031,3.71551 12.796011,12.796011 0 0 1 -4.68465,-17.48066 12.796011,12.796011 0 0 1 10.48007,-6.38412 12.796011,12.796011 0 0 1 7.00059,1.69947 12.796011,12.796011 0 0 1 5.12063,16.61704 34.122696,34.122696 0 0 0 0.67479,-1.35236 22.748464,22.748464 0 0 0 -7.98362,-27.91907 22.748464,22.748464 0 0 0 -20.46862,-20.93792 34.122696,34.122696 0 0 0 -1.13854,-0.0583 z m 28.91599,50.26766 a 34.122696,34.122696 0 0 1 -0.20271,0.40821 22.748464,22.748464 0 0 0 0.17494,-0.34156 12.796011,12.796011 0 0 0 0.003,-0.006 12.796011,12.796011 0 0 0 0.025,-0.0611 z"
         id="path4317" />
      <path
         style="fill:url(#linearGradient4306);fill-opacity:1;stroke:url(#radialGradient4308);stroke-width:0.78695756;stroke-linejoin:round;stroke-miterlimit:4;stroke-dasharray:none;stroke-dashoffset:0"
         d="m 131.32168,860.37327 a 25.174794,25.174794 0 0 1 23.06693,25.06891 25.174794,25.174794 0 0 1 -25.17651,25.17648 25.174794,25.174794 0 0 1 -25.17264,-25.17648 25.174794,25.174794 0 0 1 23.0016,-25.06507 44.755189,44.755189 0 0 0 -42.41425,41.23842 44.755189,44.755189 0 0 0 -15.819846,54.7681 67.132784,67.132784 0 0 0 1.298787,2.70516 44.755189,44.755189 0 0 0 0.03459,0.0693 25.174794,25.174794 0 0 1 10.148217,-32.58113 25.174794,25.174794 0 0 1 11.992649,-3.36609 25.174794,25.174794 0 0 1 22.402163,12.58056 25.174794,25.174794 0 0 1 -9.21832,34.3948 25.174794,25.174794 0 0 1 -33.418797,-7.7197 67.132784,67.132784 0 0 0 1.971237,2.89345 44.755189,44.755189 0 0 0 55.16388,13.54506 44.755189,44.755189 0 0 0 55.11776,-13.39904 67.132784,67.132784 0 0 0 1.8137,-2.63216 25.174794,25.174794 0 0 1 -33.14982,7.31239 25.174794,25.174794 0 0 1 -9.21832,-34.3948 25.174794,25.174794 0 0 1 20.61921,-12.5575 25.174794,25.174794 0 0 1 13.77176,3.34303 25.174794,25.174794 0 0 1 10.0752,32.69256 67.132784,67.132784 0 0 0 1.32953,-2.66291 44.755189,44.755189 0 0 0 -15.7084,-54.92564 44.755189,44.755189 0 0 0 -40.2701,-41.19231 67.132784,67.132784 0 0 0 -2.24021,-0.11529 z m 56.88918,98.89613 a 67.132784,67.132784 0 0 1 -0.39962,0.80309 44.755189,44.755189 0 0 0 0.34583,-0.67245 25.174794,25.174794 0 0 0 0.008,-0.0118 25.174794,25.174794 0 0 0 0.0461,-0.11903 z M 129.2121,914.48428 c 2.37799,4.7e-4 4.3074,1.92568 4.30751,4.30367 9.5e-4,4.30578 1.57803,7.03794 5.3066,9.19143 2.05933,1.18909 2.76405,3.82335 1.57545,5.88296 -1.1891,2.05935 -3.82336,2.76409 -5.88296,1.57547 -3.72949,-2.15308 -6.87982,-2.15322 -10.60933,0 -2.05973,1.18921 -4.69379,0.48429 -5.88298,-1.57547 -1.18921,-2.05975 -0.4843,-4.69379 1.57547,-5.88296 3.72949,-2.15322 5.30645,-4.88506 5.30657,-9.19143 4.3e-4,-2.37799 1.92568,-4.30352 4.30367,-4.30367 z"
         id="path4319"
         inkscape:connector-curvature="0" />
    </g>
  </g>
</svg>
