<?xml version="1.0" encoding="UTF-8" standalone="no"?>
<svg
   xmlns:dc="http://purl.org/dc/elements/1.1/"
   xmlns:cc="http://creativecommons.org/ns#"
   xmlns:rdf="http://www.w3.org/1999/02/22-rdf-syntax-ns#"
   xmlns:svg="http://www.w3.org/2000/svg"
   xmlns="http://www.w3.org/2000/svg"
   xmlns:sodipodi="http://sodipodi.sourceforge.net/DTD/sodipodi-0.dtd"
   xmlns:inkscape="http://www.inkscape.org/namespaces/inkscape"
   width="64"
   height="64"
   viewBox="0 0 16.933333 16.933333"
   version="1.1"
   id="svg8"
   inkscape:version="1.0.1 (3bc2e813f5, 2020-09-07)"
   sodipodi:docname="GuardianMonstersFont.svg">
  <defs
     id="defs2" />
  <sodipodi:namedview
     id="base"
     pagecolor="#ffffff"
     bordercolor="#666666"
     borderopacity="1.0"
     inkscape:pageopacity="0.0"
     inkscape:pageshadow="2"
     inkscape:zoom="1.979899"
     inkscape:cx="62.279142"
     inkscape:cy="153.08493"
     inkscape:document-units="px"
     inkscape:current-layer="layer1"
     inkscape:document-rotation="0"
     showgrid="true"
     units="px"
     showguides="true"
     inkscape:guide-bbox="true"
     inkscape:snap-bbox="true"
     inkscape:bbox-nodes="true"
     inkscape:snap-bbox-midpoints="true"
     inkscape:snap-intersection-paths="true"
     inkscape:snap-grids="true"
     inkscape:snap-to-guides="true"
     inkscape:snap-object-midpoints="true"
     inkscape:snap-center="true"
     inkscape:window-width="1920"
     inkscape:window-height="1027"
     inkscape:window-x="-8"
     inkscape:window-y="-8"
     inkscape:window-maximized="1">
    <inkscape:grid
       type="xygrid"
       id="grid10"
       empspacing="4" />
    <sodipodi:guide
       position="-11.641666,10.583333"
       orientation="0,-1"
       id="guide26" />
    <sodipodi:guide
       position="8.4666665,17.991666"
       orientation="1,0"
       id="guide166" />
    <sodipodi:guide
       position="21.166666,9.5249998"
       orientation="0,-1"
       id="guide172" />
    <sodipodi:guide
       position="0,15.875"
       orientation="1,0"
       id="guide235" />
    <sodipodi:guide
       position="14.816666,16.933333"
       orientation="1,0"
       id="guide237" />
  </sodipodi:namedview>
  <metadata
     id="metadata5">
    <rdf:RDF>
      <cc:Work
         rdf:about="">
        <dc:format>image/svg+xml</dc:format>
        <dc:type
           rdf:resource="http://purl.org/dc/dcmitype/StillImage" />
        <dc:title></dc:title>
      </cc:Work>
    </rdf:RDF>
  </metadata>
  <g
     inkscape:label="Ebene 1"
     inkscape:groupmode="layer"
     id="layer1">
    <path
       id="path1620"
       style="fill:#000000;stroke:none;stroke-width:0.264583"
       d="m -9.5250006,-42.064615 v 4.266923 L -14.938624,-41.66464 A 8.4666663,8.4666663 0 0 0 -19.05,-37.964607 v 8.197432 a 8.4666663,8.4666663 0 0 0 5.291666,4.098458 v -3.20859 l 4.4209185,3.15743 a 8.4666663,8.4666663 0 0 0 5.1040823,-4.048848 v -8.197433 a 8.4666663,8.4666663 0 0 0 -5.2916674,-4.098457 z" />
    <path
       id="path207"
       style="fill:#000000;stroke:none;stroke-width:0.264583"
       d="m -34.924999,-42.333332 a 8.4666663,8.4666663 0 0 0 -3.175,0.61805 v 15.697232 a 8.4666663,8.4666663 0 0 0 3.175,0.61805 8.4666663,8.4666663 0 0 0 3.175,-0.61805 v -15.697232 a 8.4666663,8.4666663 0 0 0 -3.175,-0.61805 z" />
    <path
       id="path197"
       style="fill:#800000;stroke:none;stroke-width:0.264583"
       d="m -43.920832,-42.333332 c -1.938478,1.04e-4 -3.801076,0.666274 -5.291667,1.860352 v 13.21263 c 1.490644,1.193956 3.353229,1.860352 5.291667,1.860352 4.67601,0 8.466666,-3.790656 8.466666,-8.466667 0,-4.676011 -3.790656,-8.466668 -8.466666,-8.466667 z" />
    <path
       id="path705"
       style="fill:#ff0000;stroke:none;stroke-width:0.999999"
       d="M -335.79492 94.857422 A 31.999999 31.999999 0 0 0 -348 120 A 31.999999 31.999999 0 0 0 -316 152 A 31.999999 31.999999 0 0 0 -284 120 A 31.999999 31.999999 0 0 0 -296.20703 94.857422 A 19.999993 19.999993 0 0 1 -316 112 A 19.999993 19.999993 0 0 1 -335.79492 94.857422 z "
       transform="scale(0.26458333)" />
    <path
       id="path84"
       style="fill:#000000;stroke-width:0.264583"
       d="m -98.425003,-17.374133 v 5.732466 l -3.174997,3.1750005 -3.175,-3.1750005 v -5.731949 c -3.19822,1.293742 -5.29159,4.398637 -5.29167,7.8486163 0,4.6760104 3.79066,8.4666663 8.46667,8.4666663 4.676008,0 8.466664,-3.7906559 8.466664,-8.4666663 1.32e-4,-3.4501683 -2.093276,-6.5553203 -5.291667,-7.8491333 z"
       sodipodi:nodetypes="ccccccscc" />
    <path
       id="path315"
       style="fill:#000000;stroke:none;stroke-width:0.264583"
       d="m -65.166047,0.45061848 a 8.4666663,8.4666663 0 0 0 -4.683952,3.91759042 v 8.1979491 a 8.4666663,8.4666663 0 0 0 4.233334,3.749642 v -2.557467 l 3.174999,3.175 3.175,-3.175 V 16.3158 a 8.4666663,8.4666663 0 0 0 4.233333,-3.749642 V 4.3682089 A 8.4666663,8.4666663 0 0 0 -59.717284,0.45061848 L -62.441666,3.175 Z" />
    <path
       id="path317"
       style="fill:#000000;stroke:none;stroke-width:0.264583"
       d="m -45.508333,0 a 8.4666663,8.4666663 0 0 0 -8.466666,8.4666666 8.4666663,8.4666663 0 0 0 8.466666,8.4666664 8.4666663,8.4666663 0 0 0 8.466667,-8.4666664 A 8.4666663,8.4666663 0 0 0 -45.508333,0 Z m 0,7.4083332 1.058333,1.0583334 -1.058333,1.0583333 -1.058333,-1.0583333 z" />
    <path
       id="path323"
       style="fill:#000000;stroke:none;stroke-width:0.264583"
       d="m -27.516666,0 a 8.4666663,8.4666663 0 0 0 -6.950997,3.6323365 l 6.950997,6.9509965 h -2.116667 L -31.75,8.4666666 h -4.233333 a 8.4666663,8.4666663 0 0 0 8.466667,8.4666664 8.4666663,8.4666663 0 0 0 6.950996,-3.632336 L -27.516666,6.3499999 H -25.4 l 2.116667,2.1166667 H -19.05 A 8.4666663,8.4666663 0 0 0 -27.516666,0 Z" />
    <path
       id="path332"
       style="fill:#000000;stroke:none;stroke-width:0.264583"
       d="M -9.5249998,0 A 8.4666663,8.4666663 0 0 0 -17.991666,8.4666666 H -12.7 v 7.8486164 a 8.4666663,8.4666663 0 0 0 3.1750002,0.61805 8.4666663,8.4666663 0 0 0 3.1749999,-0.61805 V 8.4666666 h 5.2916666 A 8.4666663,8.4666663 0 0 0 -9.5249998,0 Z" />
    <path
       id="path403"
       style="fill:#000000;stroke:none;stroke-width:0.999999"
       d="M 32 0 A 31.999999 31.999999 0 0 0 12 7.0234375 L 12 7.0214844 A 31.999999 31.999999 0 0 0 11.867188 7.1289062 A 31.999999 31.999999 0 0 0 11.658203 7.3007812 A 31.999999 31.999999 0 0 0 11.603516 7.34375 A 31.999999 31.999999 0 0 0 11.326172 7.5761719 A 31.999999 31.999999 0 0 0 11.146484 7.7304688 A 31.999999 31.999999 0 0 0 10.998047 7.8574219 A 31.999999 31.999999 0 0 0 10.765625 8.0625 A 31.999999 31.999999 0 0 0 10.65625 8.1601562 A 31.999999 31.999999 0 0 0 10.443359 8.3535156 A 31.999999 31.999999 0 0 0 10.203125 8.5742188 A 31.999999 31.999999 0 0 0 10.197266 8.5800781 A 31.999999 31.999999 0 0 0 9.9472656 8.8144531 A 31.999999 31.999999 0 0 0 9.734375 9.0195312 A 31.999999 31.999999 0 0 0 9.5800781 9.1699219 A 31.999999 31.999999 0 0 0 9.5136719 9.234375 A 31.999999 31.999999 0 0 0 9.3183594 9.4296875 A 31.999999 31.999999 0 0 0 9.0410156 9.7128906 A 31.999999 31.999999 0 0 0 8.9023438 9.8574219 A 31.999999 31.999999 0 0 0 8.8125 9.9492188 A 31.999999 31.999999 0 0 0 8.5214844 10.259766 A 31.999999 31.999999 0 0 0 8.2011719 10.611328 A 31.999999 31.999999 0 0 0 8 10.835938 L 8 10.837891 A 31.999999 31.999999 0 0 0 4 16.509766 L 4 47.490234 A 31.999999 31.999999 0 0 0 8 53.164062 L 8 53.166016 A 31.999999 31.999999 0 0 0 8.1191406 53.298828 A 31.999999 31.999999 0 0 0 8.4257812 53.638672 A 31.999999 31.999999 0 0 0 8.484375 53.701172 A 31.999999 31.999999 0 0 0 8.7167969 53.949219 A 31.999999 31.999999 0 0 0 8.7929688 54.029297 A 31.999999 31.999999 0 0 0 9.0917969 54.341797 A 31.999999 31.999999 0 0 0 9.4277344 54.679688 A 31.999999 31.999999 0 0 0 9.7246094 54.972656 A 31.999999 31.999999 0 0 0 9.8730469 55.117188 A 31.999999 31.999999 0 0 0 10.085938 55.318359 A 31.999999 31.999999 0 0 0 10.128906 55.357422 A 31.999999 31.999999 0 0 0 10.460938 55.664062 A 31.999999 31.999999 0 0 0 10.814453 55.980469 A 31.999999 31.999999 0 0 0 11.173828 56.292969 A 31.999999 31.999999 0 0 0 11.537109 56.599609 A 31.999999 31.999999 0 0 0 11.888672 56.888672 A 31.999999 31.999999 0 0 0 11.904297 56.902344 A 31.999999 31.999999 0 0 0 12 56.978516 A 31.999999 31.999999 0 0 0 32 64 A 31.999999 31.999999 0 0 0 59.710938 48 L 56 48 L 44 48 L 41.599609 48 L 41.333984 48 L 38.666016 44 L 39.199219 44 L 44 44 L 56 44 L 56 32 L 44 32 L 32 32 L 30.666016 32 L 25.333984 24 L 27.199219 24 L 44 24 L 62.984375 24 A 31.999999 31.999999 0 0 0 32 0 z "
       transform="scale(0.26458333)" />
    <path
       id="path481"
       style="fill:#a02c2c;stroke:none;stroke-width:0.264583"
       d="m 25.399999,-19.05 a 8.4666663,8.4666663 0 0 0 -8.466666,8.466667 8.4666663,8.4666663 0 0 0 8.466666,8.4666664 h 8.466667 v -4.2333333 -4.2333331 -1.058334 h -0.06666 -3.108337 -2.116667 l -4.233333,4.2333338 v -4.2333338 l 2.116667,-2.116666 h 6.790283 A 8.4666663,8.4666663 0 0 0 25.399999,-19.05 Z" />
    <path
       id="path494"
       style="fill:#a02c2c;stroke:none;stroke-width:0.999999"
       d="M -45.253906 88 L 9.09375 142.3457 L 9.3730469 142.62695 A 31.999999 31.999999 0 0 0 32 152 L 64 152 L 64 136 L 64 120 L 64 116 L 63.748047 116 L 52 116 L 44 116 L 28 132 L 28 116 L 36 108 L 61.664062 108 A 31.999999 31.999999 0 0 0 32 88 L -45.253906 88 z "
       transform="scale(0.26458333)" />
    <path
       id="path496"
       style="fill:#000000;stroke:none;stroke-width:0.999999"
       d="M 112 88 L 110.29688 89.703125 L 100 100 L 89.703125 89.703125 A 31.999999 31.999999 0 0 0 72 104.50977 L 72 135.49414 A 31.999999 31.999999 0 0 0 88 149.66602 L 88 140 L 100 152 L 112 140 L 112 149.66602 A 31.999999 31.999999 0 0 0 122.62695 142.62695 L 122.63477 142.62109 A 31.999999 31.999999 0 0 0 122.74609 142.50781 L 177.25391 88 L 112 88 z "
       transform="scale(0.26458333)" />
    <path
       id="path511"
       style="fill:#000000;stroke:none;stroke-width:0.264583"
       d="m 10.583333,-18.781282 v 4.266923 L 5.16971,-18.381307 a 8.4666663,8.4666663 0 0 0 -4.1113767,3.700033 v 8.1974323 a 8.4666663,8.4666663 0 0 0 5.2916666,4.0984577 v -3.2085896 l 4.4209181,3.15743 A 8.4666663,8.4666663 0 0 0 15.875,-6.4853922 v -8.1974328 a 8.4666663,8.4666663 0 0 0 -5.291667,-4.098457 z" />
    <path
       id="path569"
       style="fill:#000000;stroke:none;stroke-width:0.264583"
       d="M 47.405891,0.72967121 A 8.4666663,8.4666663 0 0 0 45.070116,1.0583333 l -6.074564,9.1121057 a 8.4666663,8.4666663 0 0 0 5.235339,6.874515 v -3.086116 l 3.175,-4.7625002 3.175,4.7625002 v 3.086116 A 8.4666663,8.4666663 0 0 0 55.81623,10.169922 L 49.741666,1.0583333 A 8.4666663,8.4666663 0 0 0 47.405891,0.72967121 Z" />
    <path
       id="path585"
       style="fill:#000000;stroke:none;stroke-width:0.264583"
       d="m -63.499999,-17.991668 a 8.4666663,8.4666663 0 0 0 -6.35,2.865975 v 11.2003497 a 8.4666663,8.4666663 0 0 0 6.35,2.867008 8.4666663,8.4666663 0 0 0 1.058333,-0.06666 v -5.225004 l 2.879928,4.319633 a 8.4666663,8.4666663 0 0 0 4.007507,-4.571298 l -2.654102,-3.9816687 h 3.108338 a 8.4666663,8.4666663 0 0 0 -8.400004,-7.408333 z" />
    <path
       id="path701"
       style="fill:#a02c2c;stroke:none;stroke-width:0.264583"
       d="m -117.80676,23.283333 14.37948,14.378966 0.0739,0.07441 a 8.4666663,8.4666663 0 0 0 5.986715,2.479953 h 8.466667 v -4.233333 -4.233334 -1.058333 h -0.06666 -3.108337 -2.116667 l -4.233333,4.233333 v -4.233333 l 2.116667,-2.116667 h 6.790282 a 8.4666663,8.4666663 0 0 0 -7.848616,-5.291666 z" />
    <path
       id="path705-4"
       style="fill:#ff0000;stroke:#000000;stroke-width:0.264583"
       d="m -57.204776,24.190513 a 5.2916647,5.2916647 0 0 1 -5.23689,4.53564 5.2916647,5.2916647 0 0 1 -3.225125,-1.096574 c 1.087525,1.110197 2.602994,1.799373 4.282424,1.799373 2.549244,0 4.723127,-1.586878 5.591392,-3.827155 a 8.4666662,8.4666662 0 0 0 -1.411801,-1.411284 z m -10.771436,0.245979 a 8.4666662,8.4666662 0 0 0 -2.93212,6.406328 8.4666662,8.4666662 0 0 0 8.466666,8.466666 8.4666662,8.4666662 0 0 0 8.466667,-8.466666 8.4666662,8.4666662 0 0 0 -0.194821,-1.804541 c -1.394947,1.88441 -3.633552,3.107304 -6.155695,3.107304 -4.223676,0 -7.652248,-3.428571 -7.652248,-7.652247 0,-0.01905 0.0014,-0.03782 0.0016,-0.05684 z m 12.547039,1.662431 c -1.02062,2.273207 -3.304233,3.859196 -5.955194,3.859196 -2.53343,0 -4.726093,-1.450538 -5.805847,-3.563091 0.831109,3.012125 3.586114,5.221388 6.864699,5.221388 2.508475,0 4.710575,-1.294071 5.979996,-3.250448 a 8.4666662,8.4666662 0 0 0 -1.083654,-2.267045 z" />
    <path
       id="path1616"
       style="fill:#d40000;stroke:none;stroke-width:0.264583"
       d="m -56.091665,-42.333334 a 8.4666663,8.4666663 0 0 0 -6.35,2.865975 v 11.20035 a 8.4666663,8.4666663 0 0 0 6.35,2.867008 8.4666663,8.4666663 0 0 0 1.058333,-0.06666 v -5.225004 l 2.879928,4.319633 a 8.4666663,8.4666663 0 0 0 4.007507,-4.571298 l -2.654102,-3.981669 h 3.108338 a 8.4666663,8.4666663 0 0 0 -8.400004,-7.408333 z" />
    <path
       id="path1618"
       style="fill:#550000;stroke:none;stroke-width:0.264583"
       d="m -25.399999,-42.333332 a 8.4666663,8.4666663 0 0 0 -2.335775,0.328662 l -6.074564,9.112106 a 8.4666663,8.4666663 0 0 0 5.235339,6.874515 v -3.086116 l 3.175,-4.762501 3.175,4.762501 v 3.086116 a 8.4666663,8.4666663 0 0 0 5.235339,-6.875032 l -6.074564,-9.11159 a 8.4666663,8.4666663 0 0 0 -2.335775,-0.328661 z" />
    <path
       id="path1635"
       style="fill:#000000;stroke:none;stroke-width:0.264583"
       d="m -65.166046,57.600617 a 8.4666663,8.4666663 0 0 0 -4.683952,3.917591 v 8.197949 a 8.4666663,8.4666663 0 0 0 4.233334,3.749642 v -2.557467 l 3.174999,3.175 3.175,-3.175 v 2.557467 a 8.4666663,8.4666663 0 0 0 4.233333,-3.749642 v -8.197949 a 8.4666663,8.4666663 0 0 0 -4.683951,-3.917591 l -2.724382,2.724382 z" />
    <path
       id="path1637"
       style="fill:#000000;stroke:none;stroke-width:0.264583"
       d="m -48.683333,57.149999 c -4.67601,0 -8.466666,3.790656 -8.466666,8.466666 0,4.676011 3.790655,8.466667 8.466666,8.466667 4.676011,0 8.466667,-3.790656 8.466667,-8.466667 0,-4.676011 -3.790656,-8.466666 -8.466667,-8.466666 z"
       sodipodi:nodetypes="sssss" />
    <path
       id="path1639"
       style="fill:#000000;stroke:none;stroke-width:0.264583"
       d="m -32.808333,57.418716 v 4.266923 l -5.413623,-3.866947 a 8.4666663,8.4666663 0 0 0 -4.111376,3.700033 v 8.197432 a 8.4666663,8.4666663 0 0 0 5.291666,4.098457 v -3.208589 l 4.420918,3.15743 a 8.4666663,8.4666663 0 0 0 5.104082,-4.048849 v -8.197432 a 8.4666663,8.4666663 0 0 0 -5.291667,-4.098458 z" />
    <path
       id="path1641"
       style="fill:#000000;stroke:none;stroke-width:0.264583"
       d="m -22.225,57.149999 a 8.4666663,8.4666662 0 0 0 -6.950998,3.632337 l 6.950998,6.950996 h -2.116667 l -2.116667,-2.116666 h -4.233333 a 8.4666663,8.4666662 0 0 0 8.466667,8.466666 8.4666663,8.4666662 0 0 0 6.950995,-3.632336 L -22.225,63.499999 h 2.116666 l 2.116667,2.116667 h 4.233332 A 8.4666663,8.4666662 0 0 0 -22.225,57.149999 Z" />
    <path
       id="path1643"
       style="fill:#000000;stroke:none;stroke-width:0.264583"
       d="m -10.583333,57.149999 a 8.4666663,8.4666663 0 0 0 -8.466666,8.466666 h 5.291666 v 7.848617 a 8.4666663,8.4666663 0 0 0 3.175,0.61805 8.4666663,8.4666663 0 0 0 3.1749994,-0.61805 v -7.848617 h 5.2916676 a 8.4666663,8.4666663 0 0 0 -8.466667,-8.466666 z" />
    <path
       id="path1645"
       style="fill:#000000;stroke:none;stroke-width:0.264583"
       d="m 2.1167666,57.149954 a 8.4666663,8.4666663 0 0 0 -5.291666,1.858284 v -5.17e-4 a 8.4666663,8.4666663 0 0 0 -0.03514,0.02842 8.4666663,8.4666663 0 0 0 -0.05529,0.04548 8.4666663,8.4666663 0 0 0 -0.01447,0.01137 8.4666663,8.4666663 0 0 0 -0.07338,0.0615 8.4666663,8.4666663 0 0 0 -0.04754,0.04082 8.4666663,8.4666663 0 0 0 -0.03927,0.03359 8.4666663,8.4666663 0 0 0 -0.0615,0.05426 8.4666663,8.4666663 0 0 0 -0.02894,0.02584 8.4666663,8.4666663 0 0 0 -0.05633,0.05116 8.4666663,8.4666663 0 0 0 -0.06356,0.05839 8.4666663,8.4666663 0 0 0 -0.0016,0.0016 8.4666663,8.4666663 0 0 0 -0.06614,0.06201 8.4666663,8.4666663 0 0 0 -0.05633,0.05426 8.4666663,8.4666663 0 0 0 -0.04082,0.03979 8.4666663,8.4666663 0 0 0 -0.01757,0.01705 8.4666663,8.4666663 0 0 0 -0.05168,0.05168 8.4666663,8.4666663 0 0 0 -0.07338,0.07493 8.4666663,8.4666663 0 0 0 -0.03669,0.03824 8.4666663,8.4666663 0 0 0 -0.02377,0.02429 8.4666663,8.4666663 0 0 0 -0.077,0.08217 8.4666663,8.4666663 0 0 0 -0.08475,0.09302 8.4666663,8.4666663 0 0 0 -0.05323,0.05943 v 5.17e-4 a 8.4666663,8.4666663 0 0 0 -1.058334,1.500683 v 8.196916 a 8.4666663,8.4666663 0 0 0 1.058334,1.5012 v 5.17e-4 a 8.4666663,8.4666663 0 0 0 0.03152,0.03514 8.4666663,8.4666663 0 0 0 0.08113,0.08992 8.4666663,8.4666663 0 0 0 0.0155,0.01654 8.4666663,8.4666663 0 0 0 0.0615,0.06563 8.4666663,8.4666663 0 0 0 0.02015,0.02119 8.4666663,8.4666663 0 0 0 0.07906,0.08268 8.4666663,8.4666663 0 0 0 0.08888,0.0894 8.4666663,8.4666663 0 0 0 0.07855,0.07751 8.4666663,8.4666663 0 0 0 0.03927,0.03824 8.4666663,8.4666663 0 0 0 0.05633,0.05323 8.4666663,8.4666663 0 0 0 0.01137,0.01034 8.4666663,8.4666663 0 0 0 0.08785,0.08113 8.4666663,8.4666663 0 0 0 0.09353,0.08372 8.4666663,8.4666663 0 0 0 0.09508,0.08268 8.4666663,8.4666663 0 0 0 0.09612,0.08113 8.4666663,8.4666663 0 0 0 0.09302,0.07648 8.4666663,8.4666663 0 0 0 0.0041,0.0036 8.4666663,8.4666663 0 0 0 0.02532,0.02015 8.4666663,8.4666663 0 0 0 5.291666,1.857768 8.4666663,8.4666663 0 0 0 7.3318531,-4.233334 h -0.9818531 -3.175 -0.635103 -0.07028 l -0.7059,-1.058333 h 0.141077 1.270206 3.175 v -3.175 h -3.175 -3.175 -0.35295 L 0.35295066,63.499998 H 0.84646065 5.2916666 10.314617 A 8.4666663,8.4666663 0 0 0 2.1166666,57.149999 Z" />
    <path
       id="path1647"
       style="fill:#000000;stroke:none;stroke-width:0.264583"
       d="m 13.758333,57.149997 a 8.4666663,8.4666663 0 0 0 -6.3499989,2.865975 v 11.200349 a 8.4666663,8.4666663 0 0 0 6.3499999,2.867008 8.4666663,8.4666663 0 0 0 1.058333,-0.06666 v -5.225004 l 2.879927,4.319633 A 8.4666663,8.4666663 0 0 0 21.704101,68.54 l -2.654102,-3.981668 h 3.108338 a 8.4666663,8.4666663 0 0 0 -8.400004,-7.408333 z" />
    <path
       id="path1649"
       style="fill:#000000;stroke:none;stroke-width:0.264583"
       d="m 26.458333,57.149999 a 8.4666663,8.4666663 0 0 0 -6.950997,3.632336 l 6.950997,6.950997 h -2.116667 l -2.116667,-2.116667 h -4.233333 a 8.4666663,8.4666663 0 0 0 8.466667,8.466667 8.4666663,8.4666663 0 0 0 6.950996,-3.632336 l -6.950996,-6.950997 h 2.116666 l 2.116667,2.116666 h 4.233333 a 8.4666663,8.4666663 0 0 0 -8.466666,-8.466666 z" />
  </g>
</svg>
