<?xml version="1.0" encoding="UTF-8" standalone="no"?>
<!-- Created with Inkscape (http://www.inkscape.org/) -->

<svg
   xmlns:dc="http://purl.org/dc/elements/1.1/"
   xmlns:cc="http://creativecommons.org/ns#"
   xmlns:rdf="http://www.w3.org/1999/02/22-rdf-syntax-ns#"
   xmlns:svg="http://www.w3.org/2000/svg"
   xmlns="http://www.w3.org/2000/svg"
   xmlns:sodipodi="http://sodipodi.sourceforge.net/DTD/sodipodi-0.dtd"
   xmlns:inkscape="http://www.inkscape.org/namespaces/inkscape"
   width="64"
   height="64"
   viewBox="0 0 63.999999 63.999999"
   id="svg2"
   version="1.1"
   inkscape:version="0.91 r13725"
   sodipodi:docname="kick.svg">
  <defs
     id="defs4" />
  <sodipodi:namedview
     id="base"
     pagecolor="#ffffff"
     bordercolor="#666666"
     borderopacity="1.0"
     inkscape:pageopacity="0.0"
     inkscape:pageshadow="2"
     inkscape:zoom="11.2"
     inkscape:cx="22.547074"
     inkscape:cy="28.907422"
     inkscape:document-units="px"
     inkscape:current-layer="layer1"
     showgrid="true"
     units="px"
     inkscape:snap-object-midpoints="true"
     inkscape:snap-center="true"
     inkscape:object-nodes="true"
     inkscape:snap-intersection-paths="true"
     inkscape:object-paths="true"
     inkscape:window-width="1920"
     inkscape:window-height="1023"
     inkscape:window-x="0"
     inkscape:window-y="27"
     inkscape:window-maximized="1">
    <inkscape:grid
       type="xygrid"
       id="grid4136"
       empspacing="4" />
  </sodipodi:namedview>
  <metadata
     id="metadata7">
    <rdf:RDF>
      <cc:Work
         rdf:about="">
        <dc:format>image/svg+xml</dc:format>
        <dc:type
           rdf:resource="http://purl.org/dc/dcmitype/StillImage" />
        <dc:title></dc:title>
      </cc:Work>
    </rdf:RDF>
  </metadata>
  <g
     inkscape:label="Ebene 1"
     inkscape:groupmode="layer"
     id="layer1"
     transform="translate(0,-988.3622)">
    <path
       style="opacity:1;fill:#888a85;fill-opacity:0.75294118;stroke:none;stroke-width:4;stroke-linecap:round;stroke-linejoin:round;stroke-miterlimit:4;stroke-dasharray:none;stroke-dashoffset:0;stroke-opacity:1"
       d="M 42.027344 1.0683594 L 31.710938 15.519531 L 20.242188 1.9648438 L 21.626953 19.666016 L 4.1289062 16.654297 L 16.568359 29.324219 L 1.2285156 38.263672 L 18.902344 39.972656 L 12.896484 56.683594 L 27.533203 46.632812 L 33.673828 63.292969 L 38.425781 46.183594 L 53.839844 55 L 46.482422 38.839844 L 63.957031 35.685547 L 47.933594 28.035156 L 59.291016 14.386719 L 42.099609 18.826172 L 42.027344 1.0683594 z M 32.421875 29.265625 L 32.431641 31.636719 L 34.728516 31.044922 L 33.210938 32.867188 L 35.351562 33.888672 L 33.017578 34.310547 L 34 36.46875 L 31.941406 35.291016 L 31.306641 37.576172 L 30.486328 35.351562 L 28.53125 36.693359 L 29.333984 34.460938 L 26.972656 34.232422 L 29.021484 33.039062 L 27.359375 31.347656 L 29.697266 31.75 L 29.511719 29.384766 L 31.044922 31.195312 L 32.421875 29.265625 z "
       transform="translate(0,988.3622)"
       id="path4140" />
    <path
       style="opacity:1;fill:#ffffff;fill-opacity:0.75294118;stroke:none;stroke-width:4;stroke-linecap:round;stroke-linejoin:round;stroke-miterlimit:4;stroke-dasharray:none;stroke-dashoffset:0;stroke-opacity:1"
       d="M 39.953125 7.15625 L 31.566406 18.904297 L 22.242188 7.8828125 L 23.369141 22.275391 L 9.1425781 19.826172 L 19.257812 30.125 L 6.7851562 37.394531 L 21.152344 38.783203 L 16.271484 52.369141 L 28.169922 44.197266 L 33.162109 57.742188 L 37.027344 43.833984 L 49.556641 51 L 43.576172 37.861328 L 57.78125 35.296875 L 44.755859 29.078125 L 53.990234 17.982422 L 40.011719 21.589844 L 39.953125 7.15625 z M 34.84375 22.160156 L 34.869141 28.408203 L 40.917969 26.845703 L 36.921875 31.648438 L 42.560547 34.341797 L 36.410156 35.451172 L 39 41.138672 L 33.576172 38.037109 L 31.902344 44.056641 L 29.742188 38.193359 L 24.589844 41.732422 L 26.705078 35.851562 L 20.484375 35.25 L 25.882812 32.103516 L 21.505859 27.644531 L 27.664062 28.705078 L 27.175781 22.474609 L 31.212891 27.244141 L 34.84375 22.160156 z "
       transform="translate(0,988.3622)"
       id="path4142" />
    <path
       style="opacity:1;fill:#ffffff;fill-opacity:0.75294118;stroke:none;stroke-width:4;stroke-linecap:round;stroke-linejoin:round;stroke-miterlimit:4;stroke-dasharray:none;stroke-dashoffset:0;stroke-opacity:1"
       d="M 37.263672 15.052734 L 31.378906 23.294922 L 24.839844 15.564453 L 25.628906 25.658203 L 15.650391 23.941406 L 22.744141 31.166016 L 13.996094 36.265625 L 24.074219 37.240234 L 20.650391 46.769531 L 28.998047 41.037109 L 32.5 50.539062 L 35.210938 40.78125 L 44 45.808594 L 39.804688 36.59375 L 49.769531 34.794922 L 40.630859 30.431641 L 47.109375 22.648438 L 37.304688 25.179688 L 37.263672 15.052734 z M 34.84375 22.160156 L 34.869141 28.408203 L 40.917969 26.845703 L 36.921875 31.648438 L 42.560547 34.341797 L 36.410156 35.451172 L 39 41.138672 L 33.576172 38.037109 L 31.902344 44.056641 L 29.742188 38.193359 L 24.589844 41.732422 L 26.705078 35.851562 L 20.484375 35.25 L 25.882812 32.103516 L 21.505859 27.644531 L 27.664062 28.705078 L 27.175781 22.474609 L 31.212891 27.244141 L 34.84375 22.160156 z "
       transform="translate(0,988.3622)"
       id="path4144" />
  </g>
</svg>
